<svg xmlns="http://www.w3.org/2000/svg" viewBox="0 0 72 72"><defs><style>.cls-1{fill:#fff;}</style></defs><title>Fichier 11</title><g id="Calque_2" data-name="Calque 2"><g id="MENU_dashboard" data-name="MENU dashboard"><path class="cls-1" d="M36,41A13.31,13.31,0,1,1,49.21,27.62,13.27,13.27,0,0,1,36,41Zm0-24.62A11.31,11.31,0,1,0,47.21,27.62,11.33,11.33,0,0,0,36,16.41Zm-.07,51.22h-.14A31.5,31.5,0,0,1,13.1,58l-.28-.3v-.4c0-9.09,5.69-15.44,13.82-15.44H45.16c8.25,0,14,6.35,14,15.44v.41l-.29.29A32,32,0,0,1,35.93,67.63ZM14.83,56.92a29.53,29.53,0,0,0,21,8.71,30,30,0,0,0,21.37-8.72c-.15-6.35-3.93-13-12-13H26.64C18.64,43.88,15,50.36,14.83,56.92ZM36,72A36,36,0,1,1,72,36,36,36,0,0,1,36,72ZM36,2A34,34,0,1,0,70,36,34,34,0,0,0,36,2Z"/></g></g></svg>