<?xml version="1.0" encoding="utf-8"?>
<!-- Generator: Adobe Illustrator 22.1.0, SVG Export Plug-In . SVG Version: 6.00 Build 0)  -->
<svg version="1.1" id="Calque_1" xmlns="http://www.w3.org/2000/svg" xmlns:xlink="http://www.w3.org/1999/xlink" x="0px" y="0px"
	 viewBox="0 0 70.7 72" style="enable-background:new 0 0 70.7 72;" xml:space="preserve">
<style type="text/css">
	.st0{fill:#FFFFFF;}
</style>
<title>Fichier 29</title>
<g id="Calque_2_1_">
	<g id="Mode_Isolation">
		<path class="st0" d="M28.1,36.8c0,0.6-0.4,1-1,1H3.4l9.2,9.2c0.4,0.4,0.4,1,0,1.4c-0.4,0.4-1,0.4-1.4,0L0.3,37.5
			c-0.4-0.4-0.4-1,0-1.4c0,0,0,0,0,0l10.9-10.9c0.4-0.4,1.1-0.3,1.4,0.1c0.3,0.4,0.3,0.9,0,1.3l-9.2,9.2h23.7
			C27.6,35.8,28.1,36.2,28.1,36.8z M34.7,0C20.8,0,8.1,8,2.1,20.6h2.2C12.8,3.9,33.3-2.8,50,5.6s23.5,28.9,15,45.7
			s-28.9,23.5-45.7,15C13.1,63.2,8,58.2,4.7,52H2.5c8.8,17.8,30.4,25.1,48.2,16.2S75.8,37.8,67,20C60.9,7.7,48.4,0,34.7,0z"/>
	</g>
</g>
</svg>
