<?xml version="1.0" encoding="utf-8"?>
<!-- Generator: Adobe Illustrator 22.1.0, SVG Export Plug-In . SVG Version: 6.00 Build 0)  -->
<svg version="1.1" id="Calque_1" xmlns="http://www.w3.org/2000/svg" xmlns:xlink="http://www.w3.org/1999/xlink" x="0px" y="0px"
	 viewBox="0 0 72 72" style="enable-background:new 0 0 72 72;" xml:space="preserve">
<style type="text/css">
	.st0{fill:#FFFFFF;}
</style>
<title>Fichier 19</title>
<g id="Calque_2_1_">
	<g id="Mode_Isolation">
		<path class="st0" d="M36,72C16.1,72,0,55.9,0,36S16.1,0,36,0s36,16.1,36,36S55.9,72,36,72z M36,2C17.2,2,2,17.2,2,36
			s15.2,34,34,34s34-15.2,34-34S54.8,2,36,2z"/>
		<path class="st0" d="M45,20.1c2,2,3.1,4.7,2.9,7.5c0,3.9-1.2,6.8-3.5,8.5c-2.4,1.7-5.2,2.6-8.1,2.7c-0.9,0.1-1.7,0.8-1.7,1.8v4.2
			c0,0.6-0.5,1.1-1.1,1.1l0,0c-0.6,0-1.1-0.5-1.1-1.1v-6c0-0.9,0.7-1.6,1.6-1.7c2.9,0,5.7-0.7,8.3-2c2.2-1.3,3.3-3.9,3.3-7.6
			c0.1-2.2-0.7-4.4-2.3-6.1c-1.7-1.5-3.9-2.3-6.2-2.2c-2.4-0.1-4.7,0.7-6.5,2.2c-1.4,1.3-2.3,3-2.5,4.9c-0.1,0.6-0.5,1-1.1,1l0,0
			c-0.6,0-1.1-0.5-1.1-1.2c0,0,0-0.1,0-0.1c0.3-3.3,2.4-6.2,5.4-7.6c1.8-0.8,3.8-1.3,5.8-1.2C40.1,17.2,42.9,18.2,45,20.1z
			 M35.4,52.9L35.4,52.9c0,1-0.8,1.8-1.8,1.8l0,0h-0.1c-1,0-1.8-0.8-1.8-1.8c0,0,0,0,0,0l0,0c0-1,0.8-1.8,1.8-1.8c0,0,0,0,0,0h0.1
			C34.6,51.1,35.4,51.9,35.4,52.9L35.4,52.9z"/>
	</g>
</g>
</svg>
