<svg xmlns="http://www.w3.org/2000/svg" viewBox="0 0 72 72"><defs><style>.cls-1{fill:#fff;}</style></defs><title>Fichier 14</title><g id="Calque_2" data-name="Calque 2"><g id="MENU_dashboard" data-name="MENU dashboard"><path class="cls-1" d="M36,0A36,36,0,1,0,72,36,36,36,0,0,0,36,0Zm0,70A34,34,0,1,1,70,36,34,34,0,0,1,36,70ZM56.3,47.63h-.06A2.18,2.18,0,0,1,55.07,47c-.94-.9-2.52-3.44-2.52-10.43,0-11.95-7.74-19.26-15.55-19.84V12.35a1,1,0,0,0-2,0v4.36c-7.81.58-15.55,7.89-15.55,19.84,0,10.52-3.47,11.06-3.69,11.08H15.7a1,1,0,0,0,0,2H29.14a6.93,6.93,0,0,0,13.72,0H56.35a1,1,0,0,0-.05-2ZM36,53.57a4.93,4.93,0,0,1-4.83-3.94h9.66A4.93,4.93,0,0,1,36,53.57ZM19,47.63c1.62-2.17,2.44-5.89,2.44-11.08,0-11.21,7.4-17.9,14.55-17.9s14.55,6.69,14.55,17.9c0,5.19.82,8.91,2.44,11.08Z"/></g></g></svg>