<svg xmlns="http://www.w3.org/2000/svg" viewBox="0 0 72 72"><defs><style>.cls-1{fill:#fff;}</style></defs><title>Fichier 13</title><g id="Calque_2" data-name="Calque 2"><g id="MENU_dashboard" data-name="MENU dashboard"><path class="cls-1" d="M36,72A36,36,0,1,1,72,36,36,36,0,0,1,36,72ZM36,2A34,34,0,1,0,70,36,34,34,0,0,0,36,2Zm-.88,31.72H15.32a1,1,0,0,1-1-1V19.26a1,1,0,0,1,1-1h19.8a1,1,0,0,1,1,1V32.72A1,1,0,0,1,35.12,33.72Zm-18.8-2h17.8V20.26H16.32Zm42.54,8a1,1,0,0,0-1-1h-43a1,1,0,0,0,0,2h43A1,1,0,0,0,58.86,39.75Zm0-6.43a1,1,0,0,0-1-1H40.4a1,1,0,0,0,0,2H57.86A1,1,0,0,0,58.86,33.32Zm0-6.42a1,1,0,0,0-1-1H40.4a1,1,0,0,0,0,2H57.86A1,1,0,0,0,58.86,26.9Zm0-6.43a1,1,0,0,0-1-1H40.4a1,1,0,0,0,0,2H57.86A1,1,0,0,0,58.86,20.47Zm0,25.71a1,1,0,0,0-1-1h-43a1,1,0,1,0,0,2h43A1,1,0,0,0,58.86,46.18Zm.24,6.43a1,1,0,0,0-1-1h-43a1,1,0,1,0,0,2h43A1,1,0,0,0,59.1,52.61Z"/></g></g></svg>