<?xml version="1.0" encoding="utf-8"?>
<!-- Generator: Adobe Illustrator 22.1.0, SVG Export Plug-In . SVG Version: 6.00 Build 0)  -->
<svg version="1.1" id="Calque_1" xmlns="http://www.w3.org/2000/svg" xmlns:xlink="http://www.w3.org/1999/xlink" x="0px" y="0px"
	 viewBox="0 0 26.2 27.1" style="enable-background:new 0 0 26.2 27.1;" xml:space="preserve">
<style type="text/css">
	.st0{fill:#FFFFFF;}
</style>
<title>Fichier 28</title>
<g id="Calque_2_1_">
	<g id="Mode_Isolation">
		<path class="st0" d="M13.1,27.1c-1,0-2.1-0.1-3.1-0.4l-0.4-0.1v-2.3c-1.5-0.5-2.9-1.3-4.1-2.4l-2,1.1l-0.3-0.3
			c-1.4-1.5-2.5-3.3-3.1-5.3L0,17.1l2-1.2c-0.3-1.6-0.3-3.2,0-4.7L0,10l0.1-0.4c0.6-2,1.7-3.8,3.1-5.3L3.5,4l2,1.2
			C6.6,4.1,8,3.3,9.6,2.8V0.5L10,0.4c2-0.5,4.1-0.5,6.2,0l0.4,0.1v2.3c1.6,0.5,3,1.3,4.2,2.4l2-1.2L23,4.3c1.4,1.5,2.5,3.3,3.1,5.3
			l0.1,0.4l-2,1.2c0.2,0.8,0.3,1.6,0.3,2.4c0,0.8-0.1,1.6-0.3,2.4l2,1.1l-0.1,0.4c-0.6,2-1.6,3.8-3.1,5.3l-0.3,0.3l-2-1.1
			c-1.2,1.1-2.6,1.9-4.2,2.4v2.3l-0.4,0.1C15.1,27,14.1,27.1,13.1,27.1z M10.6,25.9c1.6,0.3,3.3,0.3,4.9,0v-2.2l0.4-0.1
			c1.7-0.5,3.2-1.3,4.4-2.5l0.3-0.3l2,1.1c1.1-1.2,1.9-2.7,2.4-4.2l-2-1.1l0.1-0.4c0.2-0.8,0.3-1.7,0.3-2.6c0-0.9-0.1-1.7-0.3-2.6
			L23,10.6l2-1.1c-0.5-1.6-1.4-3-2.5-4.3l-2,1.1l-0.3-0.3c-1.2-1.2-2.8-2.1-4.4-2.5l-0.4-0.1V1.2c-1.6-0.3-3.3-0.3-4.9,0v2.3
			l-0.4,0.1C8.6,4.1,7.1,5,5.9,6.2L5.6,6.4L3.7,5.3C2.6,6.5,1.7,8,1.2,9.6l2,1.1l-0.1,0.4c-0.4,1.6-0.4,3.4,0,5l0.1,0.4l-2,1.1
			c0.5,1.6,1.4,3,2.5,4.3l1.9-1.1L5.9,21c1.2,1.2,2.7,2.1,4.3,2.5l0.4,0.1L10.6,25.9z M13.1,18.9c-2.9,0-5.3-2.4-5.3-5.3
			s2.4-5.3,5.3-5.3s5.3,2.4,5.3,5.3v0C18.4,16.5,16,18.9,13.1,18.9z M13.1,9.3c-2.4,0-4.3,1.9-4.3,4.3s1.9,4.3,4.3,4.3
			s4.3-1.9,4.3-4.3l0,0C17.4,11.2,15.5,9.3,13.1,9.3z"/>
	</g>
</g>
</svg>
