<svg xmlns="http://www.w3.org/2000/svg" width="32" height="29.875" viewBox="0 0 32 29.875"><defs><style> .__21cxDaI__cls-1 { fill: #f2bb13; fill-rule: evenodd; } </style></defs><path id="UpgradePlan_32" class="__21cxDaI__cls-1 " d="M3725.52,627.578a1,1,0,0,1-1.38-.3,0.986,0.986,0,0,1,.31-1.373,13.743,13.743,0,0,0,4.16-4.233l-0.93-.538a1,1,0,0,1,1.01-1.718l0.89,0.512a14.591,14.591,0,0,0,1.35-5.151h-0.98a0.995,0.995,0,1,1,0-1.989h1a13.551,13.551,0,0,0-1.41-5.106l-0.84.485a0.995,0.995,0,1,1-1-1.72l0.83-.481a14.1,14.1,0,0,0-3.8-3.764l-0.49.85a1,1,0,0,1-1.74-.978l0.49-.858A13.975,13.975,0,0,0,3718,599.9v0.991a1,1,0,0,1-2,0V599.9a13.944,13.944,0,0,0-5.04,1.337l0.49,0.851a0.994,0.994,0,0,1-.37,1.357,1.021,1.021,0,0,1-.5.131,1,1,0,0,1-.87-0.5l-0.48-.847a14.065,14.065,0,0,0-3.75,3.714l0.83,0.482a0.994,0.994,0,0,1-.5,1.854,1.041,1.041,0,0,1-.51-0.135l-0.83-.485a13.651,13.651,0,0,0-1.42,5.126h0.99a0.995,0.995,0,1,1,0,1.989h-0.98a14.681,14.681,0,0,0,1.35,5.134l0.89-.514a1,1,0,0,1,1.36.36,0.987,0.987,0,0,1-.36,1.36l-0.93.539a13.466,13.466,0,0,0,4.21,4.244,1,1,0,0,1-.53,1.838,0.971,0.971,0,0,1-.53-0.15,16.289,16.289,0,0,1-7.52-13.806,15.7,15.7,0,0,1,2.15-7.928,0.314,0.314,0,0,1,.03-0.091c0.01-.02.03-0.03,0.04-0.049a16.166,16.166,0,0,1,5.77-5.69c0.03-.021.05-0.05,0.08-0.067s0.05-.013.08-0.025a15.972,15.972,0,0,1,15.66-.028c0.02,0.01.04,0.009,0.06,0.021s0.04,0.042.07,0.06a16.03,16.03,0,0,1,5.85,5.755c0.01,0.017.03,0.027,0.04,0.045s0.02,0.068.04,0.1a15.68,15.68,0,0,1,2.13,7.9A16.647,16.647,0,0,1,3725.52,627.578ZM3717,611.787a2,2,0,0,1,1.01.281l5.5-3.089a1,1,0,1,1,.98,1.732L3719,613.8A2,2,0,1,1,3717,611.787Z" transform="translate(-3701 -597.875)"></path></svg>