<svg xmlns="http://www.w3.org/2000/svg" viewBox="0 0 64 64" id="Chat_64-7d552cdc8d90bdd5ba083f0b42da204e--component"><path d="M32 64a32 32 0 1 1 32-32 32.038 32.038 0 0 1-32 32zm0-61.994A29.993 29.993 0 1 0 61.993 32 30.027 30.027 0 0 0 32 2.006z" fill-rule="evenodd" fill="#f2bb13"></path><path d="M46 42h-4v4a1 1 0 0 1-1.707.707L35.585 42H30a2 2 0 0 1-2-2v-1a1 1 0 0 1 2 0v1h6a.945.945 0 0 1 .661.261.5.5 0 0 1 .048.032L40 43.586V41a1 1 0 0 1 1-1h5V28h-3a1 1 0 0 1 0-2h3a2 2 0 0 1 2 2v12a2 2 0 0 1-2 2zm-8-7h-9.586l-4.707 4.707A1 1 0 0 1 22 39v-4h-4a2 2 0 0 1-2-2V19a2 2 0 0 1 2-2h20a2 2 0 0 1 2 2v14a2 2 0 0 1-2 2zm0-16H18v14h5a1 1 0 0 1 1 1v2.585l3.293-3.292c.014-.015.033-.019.047-.032A.95.95 0 0 1 28 33h10V19zm-18 9a1 1 0 0 1 1-1h9a1 1 0 1 1 0 2h-9a1 1 0 0 1-1-1zm0-4a1 1 0 0 1 1-1h14a1 1 0 0 1 0 2H21a1 1 0 0 1-1-1z" fill="#fff" fill-rule="evenodd"></path></svg>