<svg xmlns="http://www.w3.org/2000/svg" viewBox="0 0 91.8 91.8"><defs><style>.cls-1{fill:#1f7eab;}</style></defs><title>Fichier 4</title><g id="Calque_2" data-name="Calque 2"><g id="Tuile_Contours" data-name="Tuile Contours"><path class="cls-1" d="M45.9,91.8A45.9,45.9,0,1,1,91.8,45.9,46,46,0,0,1,45.9,91.8Zm0-90A44.1,44.1,0,1,0,90,45.9,44.15,44.15,0,0,0,45.9,1.8Z"/><path class="cls-1" d="M45.83,21.54a4.3,4.3,0,0,0-4.29,4.29v20a.08.08,0,0,0,0,.07,4.29,4.29,0,0,0,8.53.65l-3,1.72a2.49,2.49,0,0,1-3.4-.91,2.44,2.44,0,0,1-.32-1.56v-20a2.49,2.49,0,0,1,5,0v16l1.8-1v-15A4.3,4.3,0,0,0,45.83,21.54Z"/><path class="cls-1" d="M76.53,28.51a4.3,4.3,0,0,0-5.86-1.58L50.12,38.7l-1.8,1L43.67,42.4l-.33.21A4.26,4.26,0,0,0,41.67,45a3.41,3.41,0,0,0-.13.83.08.08,0,0,0,0,.07,4.17,4.17,0,0,0,.56,2.36A4.3,4.3,0,0,0,48,49.83L75,34.37a4.26,4.26,0,0,0,2-2.61,4.33,4.33,0,0,0,.15-1.13A4.19,4.19,0,0,0,76.53,28.51Zm-1.32,2.78a2.46,2.46,0,0,1-1.15,1.52l-24,13.74-3,1.72a2.49,2.49,0,0,1-3.4-.91,2.44,2.44,0,0,1-.32-1.56c0-.11,0-.22.07-.33A2.44,2.44,0,0,1,44.56,44l3.76-2.15,1.8-1L71.57,28.49a2.44,2.44,0,0,1,1.23-.33,2.37,2.37,0,0,1,.65.09,2.47,2.47,0,0,1,1.76,3Z"/><path class="cls-1" d="M27,15.08a.92.92,0,0,1-.78-.45l-2.19-3.8a.9.9,0,0,1,1.56-.91l2.19,3.81A.9.9,0,0,1,27.47,15,.92.92,0,0,1,27,15.08Z"/><path class="cls-1" d="M13.61,28.48a.85.85,0,0,1-.45-.12l-3.8-2.19a.9.9,0,1,1,.9-1.56l3.8,2.19A.9.9,0,0,1,14.39,28,.89.89,0,0,1,13.61,28.48Z"/><path class="cls-1" d="M8.71,46.8H4.32a.9.9,0,0,1,0-1.8H8.71a.9.9,0,0,1,0,1.8Z"/><path class="cls-1" d="M9.81,67.31a.9.9,0,0,1-.45-1.68l3.8-2.19a.9.9,0,1,1,.9,1.56l-3.8,2.19A.89.89,0,0,1,9.81,67.31Z"/><path class="cls-1" d="M24.83,82.32a.8.8,0,0,1-.45-.12A.9.9,0,0,1,24.05,81l2.19-3.8a.9.9,0,0,1,1.56.9l-2.19,3.8A.9.9,0,0,1,24.83,82.32Z"/><path class="cls-1" d="M45.34,87.82a.9.9,0,0,1-.9-.9V82.53a.9.9,0,0,1,1.8,0v4.39A.9.9,0,0,1,45.34,87.82Z"/><path class="cls-1" d="M65.85,82.32a.89.89,0,0,1-.78-.45l-2.2-3.8a.91.91,0,0,1,.33-1.23.9.9,0,0,1,1.23.33l2.2,3.8a.9.9,0,0,1-.33,1.23A.82.82,0,0,1,65.85,82.32Z"/><path class="cls-1" d="M80.86,67.31a.92.92,0,0,1-.45-.12L76.61,65a.9.9,0,1,1,.9-1.56l3.8,2.19a.9.9,0,0,1-.45,1.68Z"/><path class="cls-1" d="M86.36,46.8H82A.9.9,0,1,1,82,45h4.39a.9.9,0,1,1,0,1.8Z"/><path class="cls-1" d="M77.06,28.48a.9.9,0,0,1-.45-1.68l3.8-2.19a.9.9,0,1,1,.9,1.56l-3.8,2.19A.82.82,0,0,1,77.06,28.48Z"/><path class="cls-1" d="M63.65,15.08A1,1,0,0,1,63.2,15a.91.91,0,0,1-.33-1.23l2.2-3.81a.9.9,0,0,1,1.56.91l-2.2,3.8A.91.91,0,0,1,63.65,15.08Z"/><path class="cls-1" d="M45.34,10.17a.9.9,0,0,1-.9-.9V4.88a.9.9,0,1,1,1.8,0V9.27A.9.9,0,0,1,45.34,10.17Z"/></g></g></svg>