<svg xmlns="http://www.w3.org/2000/svg" viewBox="0 0 78.32 73.35"><defs><style>.cls-1{fill:#1f7eab;}</style></defs><title>Fichier 3</title><g id="Calque_2" data-name="Calque 2"><g id="poursuivre"><path class="cls-1" d="M.9,73.35a.91.91,0,0,1-.64-1.54L71.81.26a.9.9,0,0,1,1.27,0,.91.91,0,0,1,0,1.28L1.54,73.08A.9.9,0,0,1,.9,73.35Z"/><path class="cls-1" d="M19.05,20.18a5,5,0,0,1-2,4.09,7.5,7.5,0,0,1-4.85,1.61,7.81,7.81,0,0,1-4.93-1.52,4.83,4.83,0,0,1-2-4,4.51,4.51,0,0,1,.9-2.69,11.9,11.9,0,0,1,2.64-2.51v0A6.12,6.12,0,0,1,6.7,13.34a4.44,4.44,0,0,1-.76-2.67A4.44,4.44,0,0,1,7.8,7a7,7,0,0,1,4.39-1.44,7.21,7.21,0,0,1,4.57,1.38,4.35,4.35,0,0,1,1.76,3.61,4.67,4.67,0,0,1-.88,2.73,8.59,8.59,0,0,1-2.11,2.14v0a7.31,7.31,0,0,1,2.55,1.85A4.24,4.24,0,0,1,19.05,20.18Zm-2.42.23a2.94,2.94,0,0,0-.55-1.73,4.58,4.58,0,0,0-1.7-1.38c-.42-.22-1-.46-1.71-.74s-1.39-.51-2-.71a7.68,7.68,0,0,0-2.08,1.93,4.1,4.1,0,0,0-.85,2.52A3.27,3.27,0,0,0,9,22.92,4.74,4.74,0,0,0,12.13,24a5.29,5.29,0,0,0,3.29-.93A3.14,3.14,0,0,0,16.63,20.41ZM16.1,11A3.25,3.25,0,0,0,15,8.4a4.13,4.13,0,0,0-2.82-1,4.26,4.26,0,0,0-2.75.88A2.86,2.86,0,0,0,8.36,10.7a2.44,2.44,0,0,0,.56,1.62,4.94,4.94,0,0,0,1.42,1.1,13.28,13.28,0,0,0,1.54.68q.93.36,1.8.63A6.86,6.86,0,0,0,15.45,13,3.5,3.5,0,0,0,16.1,11Z"/><path class="cls-1" d="M35.27,12.1Q31.56,19,28.8,24.18c-1.84,3.47-2.88,5.43-3.1,5.88l-1.92-.91q3.3-5.92,5.88-10.91t2.92-5.69l0,0h-2.8c-1.84,0-3.61,0-5.32,0l-2.73,0V10.52H34.24Z"/><path class="cls-1" d="M38.76,64.41H36.43c0-.32,0-1.22.06-2.69s0-3.52,0-6.14c0-.46,0-1.12,0-2s0-1.54,0-2h0c-.44.25-1.08.63-1.93,1.16L31.82,54.4,31,53.08l3.8-2.65,2.29-1.59L38.76,50c0,1.45,0,2.93,0,4.44s0,2.4,0,2.67c0,1.18,0,2.61,0,4.28S38.75,64.09,38.76,64.41Z"/><path class="cls-1" d="M59.32,56.9a8.67,8.67,0,0,1-.61,3.29A7.11,7.11,0,0,1,57,62.74a7.71,7.71,0,0,1-2.49,1.58,8.73,8.73,0,0,1-6.1,0A7.18,7.18,0,0,1,46,62.74a7.58,7.58,0,0,1-1.71-2.61,9.38,9.38,0,0,1-.05-6.41,7.87,7.87,0,0,1,1.56-2.5,7.08,7.08,0,0,1,2.49-1.69,8.18,8.18,0,0,1,3.22-.63,8.29,8.29,0,0,1,3.2.6,7,7,0,0,1,2.44,1.63,7.82,7.82,0,0,1,1.62,2.53A8.87,8.87,0,0,1,59.32,56.9ZM56.9,57a8,8,0,0,0-.44-2.67,5.69,5.69,0,0,0-1.27-2.07,4.62,4.62,0,0,0-1.61-1.1,5.29,5.29,0,0,0-2.06-.39,4.94,4.94,0,0,0-2.17.43,5.27,5.27,0,0,0-1.52,1.05,5.44,5.44,0,0,0-1.26,2,7.15,7.15,0,0,0-.46,2.55,7.7,7.7,0,0,0,.44,2.64,5.42,5.42,0,0,0,1.38,2.1,4.88,4.88,0,0,0,1.56,1,5,5,0,0,0,2,.38,5.46,5.46,0,0,0,2-.37,4.87,4.87,0,0,0,1.59-1,5.72,5.72,0,0,0,1.36-2A6.84,6.84,0,0,0,56.9,57Z"/><path class="cls-1" d="M78.32,56.9a8.87,8.87,0,0,1-.6,3.29A7.14,7.14,0,0,1,76,62.74a7.6,7.6,0,0,1-2.49,1.58,8.7,8.7,0,0,1-6.09,0A7.09,7.09,0,0,1,65,62.74a7.76,7.76,0,0,1-1.72-2.61,8.85,8.85,0,0,1-.59-3.27,8.73,8.73,0,0,1,.55-3.14,7.53,7.53,0,0,1,1.56-2.5,7.13,7.13,0,0,1,2.48-1.69,8.23,8.23,0,0,1,3.23-.63,8.33,8.33,0,0,1,3.2.6,7.07,7.07,0,0,1,2.43,1.63,7.5,7.5,0,0,1,1.62,2.53A8.67,8.67,0,0,1,78.32,56.9ZM75.9,57a8,8,0,0,0-.44-2.67,5.54,5.54,0,0,0-1.26-2.07,4.81,4.81,0,0,0-1.61-1.1,5.3,5.3,0,0,0-2.07-.39,4.93,4.93,0,0,0-2.16.43,5.32,5.32,0,0,0-1.53,1.05,5.43,5.43,0,0,0-1.25,2,7.15,7.15,0,0,0-.46,2.55,7.46,7.46,0,0,0,.44,2.64,5.42,5.42,0,0,0,1.38,2.1,4.83,4.83,0,0,0,1.55,1,5.09,5.09,0,0,0,2,.38,5.51,5.51,0,0,0,2-.37,4.87,4.87,0,0,0,1.59-1,5.57,5.57,0,0,0,1.35-2A6.65,6.65,0,0,0,75.9,57Z"/></g></g></svg>