<svg xmlns="http://www.w3.org/2000/svg" viewBox="0 0 92.14 91.8"><defs><style>.cls-1{fill:#1f7eab;}</style></defs><title>Fichier 2</title><g id="Calque_2" data-name="Calque 2"><g id="poursuivre"><path class="cls-1" d="M55.44,44.89H27.16l1.19-2.73H56.58Zm-2.33,5.46H27.16l1.19-2.73H54.3Zm5.43,8.57a15.65,15.65,0,0,1-10.61,3.7A16.09,16.09,0,0,1,31.57,46.25,16.09,16.09,0,0,1,47.93,29.89a16.06,16.06,0,0,1,11.8,4.86L58.54,37.5a14.06,14.06,0,0,0-10.61-4.88A13.54,13.54,0,0,0,34.3,46.25,13.54,13.54,0,0,0,47.93,59.89a13.69,13.69,0,0,0,10.61-5Z"/><path class="cls-1" d="M53.34,91.8a6.63,6.63,0,0,1-4.2-1.5,4.88,4.88,0,0,0-6.14,0,6.65,6.65,0,0,1-10-1.86,4.86,4.86,0,0,0-5.72-2.22,6.65,6.65,0,0,1-8.64-5.35,4.89,4.89,0,0,0-4.53-4.14A6.65,6.65,0,0,1,8,68.63a4.9,4.9,0,0,0-2.73-5.5,6.66,6.66,0,0,1-2.79-9.77,4.88,4.88,0,0,0-.56-6.11,6.66,6.66,0,0,1,.93-10.12,4.88,4.88,0,0,0,1.69-5.9,6.65,6.65,0,0,1,4.52-9.1,4.87,4.87,0,0,0,3.7-4.89,6.66,6.66,0,0,1,7.51-6.85,4.89,4.89,0,0,0,5.22-3.23l0-.1a6.57,6.57,0,0,1,3.85-3.94A6.65,6.65,0,0,1,35,3.48a4.87,4.87,0,0,0,6-1.12A6.68,6.68,0,0,1,46.07,0h0a6.63,6.63,0,0,1,5.07,2.35h0a4.88,4.88,0,0,0,6,1.13,6.64,6.64,0,0,1,9.47,3.66,4.89,4.89,0,0,0,5.22,3.24,6.67,6.67,0,0,1,5.35,1.68,6.6,6.6,0,0,1,2.16,5.16,4.88,4.88,0,0,0,3.7,4.9,6.65,6.65,0,0,1,4.53,9.09,4.88,4.88,0,0,0,1.68,5.91,6.64,6.64,0,0,1,.94,10.11,4.87,4.87,0,0,0-.57,6.11,6.66,6.66,0,0,1-2.77,9.78,4.86,4.86,0,0,0-2.74,5.49A6.65,6.65,0,0,1,78,76.73a4.88,4.88,0,0,0-4.54,4.13,6.65,6.65,0,0,1-8.64,5.36,4.87,4.87,0,0,0-5.72,2.21,6.67,6.67,0,0,1-4.57,3.26A7.28,7.28,0,0,1,53.34,91.8ZM28.77,84.18a6.68,6.68,0,0,1,5.8,3.36,4.85,4.85,0,0,0,7.29,1.37,6.68,6.68,0,0,1,8.41,0,4.85,4.85,0,0,0,7.29-1.35,6.69,6.69,0,0,1,7.84-3A4.83,4.83,0,0,0,69.46,84a4.89,4.89,0,0,0,2.25-3.41,6.66,6.66,0,0,1,6.21-5.67A4.86,4.86,0,0,0,82.39,69a6.68,6.68,0,0,1,3.74-7.53,4.84,4.84,0,0,0,2-7.13A6.68,6.68,0,0,1,88.94,46a4.86,4.86,0,0,0-.68-7.38A6.69,6.69,0,0,1,86,30.52a4.91,4.91,0,0,0-.11-4.09,4.85,4.85,0,0,0-3.19-2.55,6.69,6.69,0,0,1-5.08-6.71,4.86,4.86,0,0,0-5.47-5A6.67,6.67,0,0,1,65,7.75a4.86,4.86,0,0,0-6.91-2.69,6.67,6.67,0,0,1-8.27-1.54h0a4.84,4.84,0,0,0-3.7-1.72h0a4.87,4.87,0,0,0-3.71,1.72A6.68,6.68,0,0,1,34.1,5.07a4.86,4.86,0,0,0-6.92,2.67l0,.1A6.63,6.63,0,0,1,20,12.17a4.86,4.86,0,0,0-5.48,5,6.68,6.68,0,0,1-5.06,6.72,4.84,4.84,0,0,0-3.31,6.63,6.69,6.69,0,0,1-2.3,8.09A4.85,4.85,0,0,0,3.19,46,6.7,6.7,0,0,1,4,54.36a4.86,4.86,0,0,0,2,7.13A6.68,6.68,0,0,1,9.75,69a4.85,4.85,0,0,0,4.46,5.92,6.68,6.68,0,0,1,6.22,5.66,4.85,4.85,0,0,0,6.3,3.91A6.55,6.55,0,0,1,28.77,84.18Z"/></g></g></svg>