<svg id="Mode_Isolation" data-name="Mode Isolation" xmlns="http://www.w3.org/2000/svg" viewBox="0 0 200 100"><defs><style>.cls-1{fill:#1f7eab;}.cls-2{fill:#fff;}.cls-3{fill:#c6d9e5;}.cls-4{fill:#e34e26;}</style></defs><title>SVG Profils recherches</title><path class="cls-1" d="M47.14,68.73l.4-.43,1.22-1.1.47.58c2.76,3,6.73,6.71,10.08,7.85l-2.13,3.59C54.8,77.66,48.82,73.39,47.14,68.73Zm4.1-2.26a10.12,10.12,0,0,0,2.61-4.41,15.62,15.62,0,0,0,14.67,0,10.18,10.18,0,0,0,2.61,4.41c-3.4,3.58-7.6,7.15-9.95,7.15S54.64,70.05,51.24,66.47Zm11.81,9.16c3.35-1.14,7.33-4.9,10.08-7.85a9.46,9.46,0,0,0,.66-.78l1,1.3.39.43c-1.68,4.66-7.66,8.93-10,10.49Zm-3.44-18.2V59h-2a2.76,2.76,0,0,1,0-5.52h7.53a2.76,2.76,0,0,1,0,5.52H62.76V57.43a1.58,1.58,0,1,0-3.15,0Zm1.57-7.75s-9.9.19-11.56,2.89a37.52,37.52,0,0,1-3-11.79c-.2-1.82-.33-3.46-.4-5,13.34-.29,21.4-5.1,25-7.94h0a5.09,5.09,0,0,0,1.2-1.52l-.4,2.08A16.47,16.47,0,0,1,76.17,34a64.46,64.46,0,0,1-.45,6.75,37.5,37.5,0,0,1-3,11.79C71.09,49.87,61.18,49.68,61.18,49.68ZM27.31,83.85a1.58,1.58,0,1,0,3.15,0c0-10.51,2-15.1,14.12-15.38l.08.28c1.94,7,11.89,12.89,12.32,13.13l1,.6,1.38-2.33.18.24-2,5.55h7.22l-2-5.53.18-.26,1.38,2.33,1-.6c.42-.24,10.38-6.13,12.32-13.13l.08-.28c12.12.28,14.12,4.87,14.12,15.38a1.58,1.58,0,1,0,3.15,0c0-12-3-18.55-18.49-18.55A6.21,6.21,0,0,1,75,65.1l-1.13-.49c-1.53-1-2.22-2.73-2.65-4.55,5.18-4.83,7-13.19,7.63-18.93.91-8.38.81-14.75-2.71-18.67-1.93-2.16-4.8-3.48-9-4.07a37.23,37.23,0,0,0-11.73,0c-4.31.57-7.26,1.89-9.23,4.1-3.51,3.92-3.62,10.29-2.71,18.67.63,5.74,2.45,14.1,7.63,18.93-.43,1.84-1.13,3.62-2.65,4.55l-1.12.49a5.81,5.81,0,0,1-1.57.2C30.27,65.3,27.32,71.82,27.31,83.85Z"/><rect class="cls-2" x="86.82" y="52.83" width="19.8" height="34.2" transform="translate(193.44 139.86) rotate(-180)"/><path class="cls-3" d="M92.84,81V43.89a4.64,4.64,0,0,1,4.63-4.63h70.41a4.63,4.63,0,0,1,4.63,4.63V81a4.63,4.63,0,0,1-4.63,4.63H97.47A4.64,4.64,0,0,1,92.84,81Zm4.63-39.34a2.23,2.23,0,0,0-2.23,2.23V81a2.23,2.23,0,0,0,2.23,2.23h70.41A2.23,2.23,0,0,0,170.11,81V43.89a2.23,2.23,0,0,0-2.23-2.23Z"/><path class="cls-3" d="M127.28,84h10.8v6.4h-10.8Zm8.4,2.4h-2.75V88h2.75Z"/><rect class="cls-3" x="112.07" y="88.89" width="41.2" height="1.6" transform="translate(265.35 179.39) rotate(-180)"/><path class="cls-4" d="M133.12,65.76v-.9a.71.71,0,1,0-1.42,0v.9h-1.79L132.25,57h.32l2.34,8.75Zm-.71-15.61a2.21,2.21,0,0,1,.66,4.33,2,2,0,0,1-1.32,0,2.21,2.21,0,0,1,.66-4.33Zm7.33,26.19a1.22,1.22,0,0,0,.23-1.08l-2.17-8.08h1.92a.71.71,0,0,0,0-1.42h-2.29l-2.54-9.47a4.64,4.64,0,0,0-1.77-8.52V45.16a.71.71,0,0,0-1.42,0v2.61a4.64,4.64,0,0,0-1.77,8.52l-2.54,9.47H125.1a.71.71,0,0,0,0,1.42H127l-2.16,8.08a1.19,1.19,0,0,0,.23,1.08l-.66,2.48a.71.71,0,0,0,.49.87l.19,0a.73.73,0,0,0,.69-.52l.66-2.48a1.2,1.2,0,0,0,.74-.82l2.34-8.71h2.17v.9a.71.71,0,1,0,1.42,0v-.9h2.17l2.34,8.71a1.2,1.2,0,0,0,.74.82l.66,2.48a.73.73,0,0,0,.69.52l.18,0a.71.71,0,0,0,.5-.87Z"/></svg>