<svg xmlns="http://www.w3.org/2000/svg" width="32" height="32" viewBox="0 0 32 32">
  <metadata><?xpacket begin="﻿" id="W5M0MpCehiHzreSzNTczkc9d"?>
<x:xmpmeta xmlns:x="adobe:ns:meta/" x:xmptk="Adobe XMP Core 5.6-c138 79.159824, 2016/09/14-01:09:01        ">
   <rdf:RDF xmlns:rdf="http://www.w3.org/1999/02/22-rdf-syntax-ns#">
      <rdf:Description rdf:about=""/>
   </rdf:RDF>
</x:xmpmeta>
                                                                                                    
                                                                                                    
                                                                                                    
                                                                                                    
                                                                                                    
                                                                                                    
                                                                                                    
                                                                                                    
                                                                                                    
                                                                                                    
                                                                                                    
                                                                                                    
                                                                                                    
                                                                                                    
                                                                                                    
                                                                                                    
                                                                                                    
                                                                                                    
                                                                                                    
                                                                                                    
                           
<?xpacket end="w"?></metadata>
<defs>
    <style>
      .cls-1 {
        fill: #f2bb13;
        fill-rule: evenodd;
      }
    </style>
  </defs>
  <path id="Check_32" class="cls-1" d="M1655,3063a16,16,0,1,1,16-16A16.021,16.021,0,0,1,1655,3063Zm0-30a14,14,0,1,0,14,14A14.015,14.015,0,0,0,1655,3033Zm-1.92,20a0.962,0.962,0,0,1-.64-0.24l-6.09-5.17a1,1,0,0,1,1.3-1.53l5.38,4.58,9.26-9.34a1,1,0,0,1,1.42,1.4l-9.92,10A0.976,0.976,0,0,1,1653.08,3053Z" transform="translate(-1639 -3031)"/>
</svg>
