<?xml version="1.0" encoding="utf-8"?>
<!-- Generator: Adobe Illustrator 22.1.0, SVG Export Plug-In . SVG Version: 6.00 Build 0)  -->
<svg version="1.1" id="Calque_1" xmlns="http://www.w3.org/2000/svg" xmlns:xlink="http://www.w3.org/1999/xlink" x="0px" y="0px"
	 viewBox="0 0 32 32" style="enable-background:new 0 0 32 32;" xml:space="preserve">
<style type="text/css">
	.st0{fill:#CE5637;}
</style>
<path id="Check_32" class="st0" d="M16,32C7.2,32,0,24.8,0,16S7.2,0,16,0s16,7.2,16,16C32,24.8,24.8,32,16,32z M16,2
	C8.3,2,2,8.3,2,16s6.3,14,14,14s14-6.3,14-14C30,8.3,23.7,2,16,2z M14.1,22c-0.2,0-0.5-0.1-0.6-0.2l-6.1-5.2c-0.4-0.4-0.5-1-0.1-1.4
	s1-0.5,1.4-0.1l0,0l5.4,4.6l9.3-9.3c0.4-0.4,1-0.3,1.4,0.1c0.3,0.4,0.3,0.9,0,1.3l-9.9,10C14.6,21.9,14.3,22,14.1,22z"/>
</svg>
