<svg id="Mode_Isolation" data-name="Mode Isolation" xmlns="http://www.w3.org/2000/svg" viewBox="0 0 200 100"><defs><style>.cls-1{fill:#1f7eab;}.cls-2{fill:#fff;}.cls-3{fill:#c6d9e5;}.cls-4,.cls-5{fill:none;stroke:#e34e26;stroke-linecap:round;stroke-linejoin:round;stroke-width:2px;}.cls-5{stroke-dasharray:1.29 3.01;}.cls-6{fill:#e34e26;}</style></defs><title>SVG Profils recherches</title><path class="cls-1" d="M47.24,68.62l.4-.43,1.22-1.1.47.58c2.75,3,6.73,6.71,10.08,7.85l-2.13,3.59C54.89,77.55,48.92,73.28,47.24,68.62Zm4.1-2.26A10,10,0,0,0,53.94,62a15.64,15.64,0,0,0,14.68,0,10.08,10.08,0,0,0,2.61,4.41c-3.4,3.57-7.6,7.15-10,7.15S54.74,69.93,51.34,66.36Zm11.81,9.16c3.34-1.15,7.33-4.9,10.08-7.85a9.46,9.46,0,0,0,.66-.78l1,1.3.39.43c-1.69,4.66-7.66,8.93-10,10.49Zm-3.44-18.2v1.61h-2a2.76,2.76,0,0,1,0-5.52h7.53a2.76,2.76,0,0,1,0,5.52H62.86V57.32a1.58,1.58,0,1,0-3.15,0Zm1.57-7.75s-9.91.19-11.56,2.89a37.5,37.5,0,0,1-3-11.79c-.2-1.82-.32-3.46-.4-5,13.35-.29,21.4-5.1,25-7.94h0a5.25,5.25,0,0,0,1.2-1.52l-.4,2.08a16.47,16.47,0,0,1,4.11,5.57,67.31,67.31,0,0,1-.45,6.75,37.5,37.5,0,0,1-3,11.79C71.19,49.76,61.28,49.57,61.28,49.57ZM27.41,83.74a1.58,1.58,0,1,0,3.15,0c0-10.52,2-15.11,14.12-15.38l.08.28c1.94,7,11.89,12.89,12.31,13.13l1,.59L59.47,80l.18.24-2,5.55h7.22l-2-5.53.18-.26,1.38,2.32,1-.59c.42-.24,10.38-6.13,12.32-13.13l.08-.28C90,68.63,92,73.22,92,83.74a1.58,1.58,0,1,0,3.15,0c0-12-3-18.55-18.49-18.55A6.21,6.21,0,0,1,75.1,65L74,64.5c-1.52-1-2.21-2.73-2.64-4.55C76.5,55.12,78.32,46.76,79,41c.91-8.37.81-14.75-2.71-18.67-1.93-2.15-4.8-3.47-9-4.06a37.17,37.17,0,0,0-11.72,0c-4.31.57-7.26,1.89-9.23,4.09C42.81,26.26,42.7,32.64,43.61,41c.63,5.75,2.45,14.11,7.63,18.94-.43,1.84-1.13,3.62-2.65,4.55L47.46,65a5.68,5.68,0,0,1-1.56.2C30.36,65.19,27.42,71.71,27.41,83.74Z"/><rect class="cls-2" x="86.92" y="52.72" width="19.8" height="34.2" transform="translate(193.64 139.64) rotate(-180)"/><path class="cls-3" d="M92.94,80.89V43.78a4.63,4.63,0,0,1,4.62-4.63H168a4.64,4.64,0,0,1,4.63,4.63V80.89A4.64,4.64,0,0,1,168,85.52H97.56A4.63,4.63,0,0,1,92.94,80.89Zm4.62-39.34a2.23,2.23,0,0,0-2.22,2.23V80.89a2.23,2.23,0,0,0,2.22,2.23H168a2.23,2.23,0,0,0,2.23-2.23V43.78A2.23,2.23,0,0,0,168,41.55Z"/><path class="cls-3" d="M127.37,83.92h10.8v6.4h-10.8Zm8.4,2.4H133v1.6h2.74Z"/><rect class="cls-3" x="112.17" y="88.78" width="41.2" height="1.6" transform="translate(265.55 179.17) rotate(-180)"/><path class="cls-1" d="M61.16,21.87A55.7,55.7,0,0,0,44.9,24.24l1.67-7.92a2,2,0,1,1,2.11-.18A5.36,5.36,0,0,0,53,18.3c2.88,0,5.31-2.93,6.74-5.16a2.05,2.05,0,1,1,3.45-1.51,2,2,0,0,1-.67,1.51c1.43,2.23,3.86,5.16,6.74,5.16a5.35,5.35,0,0,0,4.3-2.08,2,2,0,0,1,1.22-3.7,2,2,0,0,1,1,3.86l1.65,7.86A55.87,55.87,0,0,0,61.16,21.87Z"/><path class="cls-4" d="M120.66,62.31a12.5,12.5,0,1,0,12.5-12.5"/><path class="cls-4" d="M129.39,50.39l-.65.22"/><path class="cls-5" d="M126.08,52a12.58,12.58,0,0,0-4.43,5.43"/><path class="cls-4" d="M121.14,58.86c-.06.22-.11.44-.17.66"/><rect class="cls-6" x="132.06" y="55.79" width="2.17" height="7.6" rx="1.02"/><path class="cls-6" d="M123.2,62.31h0a1.06,1.06,0,0,0,1,1.08l9.11,0a1,1,0,0,0,1-1.09h0a1,1,0,0,0-1-1.07l-9.12,0A1.06,1.06,0,0,0,123.2,62.31Z"/></svg>