<svg xmlns="http://www.w3.org/2000/svg" viewBox="0 0 145.2 80.81"><defs><style>.cls-1{fill:#1f7eab;}.cls-2{fill:#fff;}.cls-3{fill:#c6d9e5;}.cls-4,.cls-5{fill:none;stroke:#e34e26;stroke-linecap:round;stroke-linejoin:round;stroke-width:2px;}.cls-5{stroke-dasharray:1.29 3.01;}.cls-6{fill:#e34e26;}</style></defs><title>Fichier 20</title><g id="Calque_2" data-name="Calque 2"><g id="Mode_Isolation" data-name="Mode Isolation"><path class="cls-1" d="M19.83,59l.4-.43,1.22-1.1.47.58c2.76,3,6.73,6.71,10.08,7.85l-2.13,3.59C27.49,68,21.51,63.7,19.83,59Zm4.1-2.26a10.14,10.14,0,0,0,2.61-4.4,14.6,14.6,0,0,0,7.33,1.82,14.64,14.64,0,0,0,7.34-1.82,10.2,10.2,0,0,0,2.61,4.4c-3.4,3.58-7.6,7.15-10,7.15S27.33,60.36,23.93,56.78Zm11.81,9.16c3.35-1.14,7.33-4.9,10.08-7.85a9.46,9.46,0,0,0,.66-.78l1.05,1.3.39.43c-1.68,4.66-7.66,8.93-10,10.49ZM32.3,47.74v1.61h-2a2.76,2.76,0,0,1,0-5.52h7.53a2.76,2.76,0,0,1,0,5.52H35.45V47.74a1.58,1.58,0,1,0-3.15,0ZM33.87,40s-9.9.19-11.55,2.89a37.16,37.16,0,0,1-3-11.79c-.2-1.82-.33-3.46-.4-4.94,13.34-.3,21.4-5.1,25-7.95a0,0,0,0,0,0,0,5.22,5.22,0,0,0,1.19-1.52l-.4,2.08a16.56,16.56,0,0,1,4.11,5.57,64.46,64.46,0,0,1-.45,6.75,37.43,37.43,0,0,1-3,11.79C43.78,40.18,33.87,40,33.87,40ZM0,74.16a1.58,1.58,0,1,0,3.15,0c0-10.51,2-15.1,14.12-15.38l.08.29c1.94,7,11.89,12.88,12.32,13.12l1,.6,1.38-2.33.18.24-2,5.55h7.22l-2-5.53.18-.26,1.38,2.33,1-.6c.42-.24,10.38-6.12,12.32-13.12l.08-.29c12.12.28,14.12,4.87,14.12,15.38a1.58,1.58,0,1,0,3.15,0c0-12-2.95-18.54-18.48-18.54a5.79,5.79,0,0,1-1.57-.21l-1.13-.49c-1.53-1-2.22-2.73-2.65-4.55,5.18-4.83,7-13.19,7.63-18.93.92-8.38.81-14.75-2.71-18.67-1.93-2.16-4.8-3.47-9-4.07a34,34,0,0,0-6-.48,33.93,33.93,0,0,0-5.76.45c-4.31.57-7.25,1.89-9.23,4.1-3.51,3.92-3.62,10.29-2.71,18.67.63,5.74,2.45,14.1,7.63,18.93-.43,1.85-1.13,3.62-2.65,4.55l-1.12.49a5.79,5.79,0,0,1-1.57.21C3,55.62,0,62.13,0,74.16Z"/><rect class="cls-2" x="59.51" y="43.14" width="19.8" height="34.2" transform="translate(138.82 120.48) rotate(-180)"/><path class="cls-3" d="M65.53,71.31V34.2a4.64,4.64,0,0,1,4.63-4.63h70.41a4.63,4.63,0,0,1,4.63,4.63V71.31a4.63,4.63,0,0,1-4.63,4.63H70.16A4.64,4.64,0,0,1,65.53,71.31ZM70.16,32a2.23,2.23,0,0,0-2.23,2.23V71.31a2.23,2.23,0,0,0,2.23,2.23h70.41a2.23,2.23,0,0,0,2.23-2.23V34.2A2.23,2.23,0,0,0,140.57,32Z"/><path class="cls-3" d="M100,74.34h10.8v6.4H100Zm8.4,2.4h-2.75v1.6h2.75Z"/><rect class="cls-3" x="84.77" y="79.21" width="41.2" height="1.6" transform="translate(210.73 160.01) rotate(-180)"/><path class="cls-1" d="M33.75,12.29a55.7,55.7,0,0,0-16.26,2.37l1.67-7.92A2,2,0,0,1,18,4.91a2.06,2.06,0,1,1,3.26,1.65,5.33,5.33,0,0,0,4.35,2.16c2.88,0,5.31-2.93,6.75-5.16a2,2,0,0,1-.67-1.51,2.06,2.06,0,0,1,4.11,0,2,2,0,0,1-.67,1.51C36.57,5.79,39,8.72,41.88,8.72a5.35,5.35,0,0,0,4.3-2.08,2,2,0,0,1,1.22-3.7,2,2,0,0,1,1,3.86L50,14.66A55.79,55.79,0,0,0,33.75,12.29Z"/><path class="cls-4" d="M93.26,52.73a12.5,12.5,0,1,0,12.5-12.5"/><path class="cls-4" d="M102,40.81l-.64.23"/><path class="cls-5" d="M98.67,42.43a12.58,12.58,0,0,0-4.43,5.43"/><path class="cls-4" d="M93.74,49.29a6.36,6.36,0,0,0-.17.66"/><rect class="cls-6" x="104.65" y="46.22" width="2.17" height="7.6" rx="1.02"/><path class="cls-6" d="M95.8,52.73h0a1,1,0,0,0,1,1.08l9.12-.05a1,1,0,0,0,1-1.09h0a1,1,0,0,0-1-1.07l-9.12,0A1,1,0,0,0,95.8,52.73Z"/></g></g></svg>