<svg xmlns="http://www.w3.org/2000/svg" viewBox="0 0 200 100"><defs><style>.cls-1{isolation:isolate;}.cls-2{opacity:0.7;}.cls-3{mix-blend-mode:multiply;}.cls-4{fill:#1f7eab;}.cls-5{fill:#fff;}.cls-6{fill:#c6d9e5;}.cls-7{fill:#e34e26;}.cls-8,.cls-9{fill:none;stroke:#e34e26;stroke-linecap:round;stroke-linejoin:round;}.cls-9{stroke-width:2px;}</style></defs><title>SVG Profils recherches</title><g class="cls-1"><g id="Mode_Isolation" data-name="Mode Isolation"><path class="cls-4" d="M69.05,78.27l-2.13-3.59c3.35-1.14,7.33-4.89,10.08-7.85.16-.19.47-.59.47-.59s1,.87,1.23,1.1l.4.44C77.41,72.44,71.44,76.71,69.05,78.27Zm-4-5.6c-2.34,0-6.54-3.58-9.94-7.15a10.17,10.17,0,0,0,2.6-4.41,15.64,15.64,0,0,0,14.68,0A10.27,10.27,0,0,0,75,65.52C71.59,69.09,67.39,72.67,65.05,72.67Zm-4,5.6c-2.39-1.56-8.36-5.83-10-10.49l.39-.44c.23-.27,1-1.29,1-1.29s.43.54.66.78c2.76,3,6.74,6.7,10.09,7.85ZM53.49,51.62a37.5,37.5,0,0,1-3-11.79c-.28-2.59-.43-4.82-.45-6.75.24-1.55-.86-4.46.94-5.9l2.77-1.75A5.25,5.25,0,0,0,55,27h0c3.61,2.84,25-7.83,25,7.94,0-1.48-.2,3.13-.4,4.95-.52,4.77-2.83,19.69-14.54,19.69C63.16,59.52,57.46,58.87,53.49,51.62ZM80.43,64.35a5.35,5.35,0,0,1-1.56-.21l-1.12-.48c-1.53-.94-2.22-2.71-2.66-4.55,5.18-4.83,7-13.19,7.63-18.94.92-8.37.8-14.75-2.71-18.67-2-2.2-4.91-3.52-9.23-4.09a36.39,36.39,0,0,0-11.72,0c-4.17.59-7,1.91-9,4.06-3.52,3.92-3.62,10.3-2.71,18.67C48,45.92,49.83,54.28,55,59.11c-.43,1.82-1.12,3.6-2.64,4.55l-1.14.48a5.66,5.66,0,0,1-1.56.21c-15.54,0-18.49,6.52-18.49,18.55a1.58,1.58,0,0,0,3.16,0c0-10.52,2-15.11,14.11-15.39l.08.29c1.95,7,11.9,12.88,12.32,13.13l1,.59,1.38-2.32.18.26-2,5.53h7.22l-2-5.55.19-.24,1.38,2.32,1-.59c.42-.25,10.37-6.12,12.32-13.13l.08-.29c12.11.28,14.11,4.87,14.11,15.39a1.58,1.58,0,0,0,3.15,0C98.91,70.87,96,64.35,80.43,64.35Z"/><rect class="cls-5" x="91.13" y="51.88" width="19.8" height="34.2"/><path class="cls-6" d="M96.29,80.05V42.94a4.64,4.64,0,0,1,4.63-4.63h70.41A4.63,4.63,0,0,1,176,42.94V80.05a4.63,4.63,0,0,1-4.63,4.63H100.92A4.64,4.64,0,0,1,96.29,80.05Zm4.63-39.34a2.23,2.23,0,0,0-2.23,2.23V80.05a2.23,2.23,0,0,0,2.23,2.23h70.41a2.23,2.23,0,0,0,2.23-2.23V42.94a2.23,2.23,0,0,0-2.23-2.23Z"/><path class="cls-6" d="M130.73,83.08h10.8v6.4h-10.8Zm8.4,2.4h-2.75v1.6h2.75Z"/><rect class="cls-6" x="115.52" y="87.94" width="41.2" height="1.6" transform="translate(272.25 177.49) rotate(-180)"/><g id="Calque_2" data-name="Calque 2"><g id="Pictogrammes"><path class="cls-7" d="M124,74.32l5-5a12.48,12.48,0,1,0-1.69-1.66l-4.93,5a1.19,1.19,0,1,0,1.58,1.78.47.47,0,0,0,.1-.1Zm2.27-14.66a10.56,10.56,0,1,1,10.59,10.53h-.06A10.58,10.58,0,0,1,126.25,59.66Z"/></g></g><polyline class="cls-8" points="106.11 73.21 110.13 65.46 117.58 69.16 126.09 65.89"/><polyline class="cls-9" points="126.09 61.26 138.18 57.42 147.43 62.36"/><polyline class="cls-8" points="146.79 65.76 154.07 68.75 166.37 55.99"/><circle class="cls-7" cx="105.92" cy="73.33" r="1"/><circle class="cls-7" cx="110.12" cy="65.61" r="1"/><circle class="cls-7" cx="117.63" cy="69.14" r="1"/><circle class="cls-7" cx="153.99" cy="68.61" r="1"/><circle class="cls-7" cx="166.37" cy="55.99" r="1"/><circle class="cls-7" cx="138.13" cy="57.59" r="2"/></g></g></svg>