<svg xmlns="http://www.w3.org/2000/svg" viewBox="0 0 144.78 72.59"><defs><style>.cls-1{isolation:isolate;}.cls-2{opacity:0.7;}.cls-3{mix-blend-mode:multiply;}.cls-4{fill:#1f7eab;}.cls-5{fill:#fff;}.cls-6{fill:#c6d9e5;}.cls-7{fill:#e34e26;}.cls-8,.cls-9{fill:none;stroke:#e34e26;stroke-linecap:round;stroke-linejoin:round;}.cls-9{stroke-width:2px;}</style></defs><title>Fichier 15</title><g class="cls-1"><g id="Calque_2" data-name="Calque 2"><g id="Mode_Isolation" data-name="Mode Isolation"><path class="cls-4" d="M44.85,64.94l-2.14-3.59C46.07,60.2,50,56.45,52.8,53.5l.47-.59s.95.87,1.22,1.1l.4.43C53.21,59.11,47.23,63.38,44.85,64.94Zm-4-5.61c-2.35,0-6.55-3.57-10-7.14a10.24,10.24,0,0,0,2.61-4.41,14.61,14.61,0,0,0,7.34,1.83,14.6,14.6,0,0,0,7.33-1.83,10.24,10.24,0,0,0,2.61,4.41C47.39,55.76,43.19,59.33,40.85,59.33Zm-4,5.61c-2.38-1.56-8.36-5.83-10-10.5l.39-.43,1-1.3s.42.55.66.79c2.75,3,6.73,6.7,10.08,7.85ZM29.29,38.29a37.23,37.23,0,0,1-3-11.79,64.81,64.81,0,0,1-.45-6.76c.23-1.55-.86-4.46.93-5.89l2.78-1.76a5.09,5.09,0,0,0,1.19,1.52h0c3.61,2.85,25-7.83,25,8,0-1.49-.2,3.12-.4,4.95-.52,4.76-2.82,19.68-14.53,19.68C39,46.18,33.26,45.53,29.29,38.29ZM56.23,51a5.79,5.79,0,0,1-1.57-.21l-1.12-.48c-1.52-.94-2.22-2.71-2.65-4.55,5.18-4.83,7-13.2,7.63-18.94.91-8.37.8-14.75-2.71-18.67-2-2.21-4.92-3.52-9.23-4.1a34,34,0,0,0-5.77-.45,33.84,33.84,0,0,0-6,.49c-4.16.59-7,1.9-9,4.06-3.52,3.92-3.63,10.3-2.71,18.67.63,5.74,2.44,14.11,7.63,18.94-.43,1.82-1.12,3.6-2.65,4.54L27,50.81a5.79,5.79,0,0,1-1.57.21C9.93,51,7,57.54,7,69.57a1.58,1.58,0,0,0,3.15,0c0-10.52,2-15.11,14.12-15.39l.08.29c1.94,7,11.89,12.88,12.32,13.13l1,.59L39,65.87l.18.25-2,5.53h7.22l-2-5.54.18-.24L44,68.19l1-.59c.42-.25,10.38-6.13,12.32-13.13l.08-.29c12.12.28,14.12,4.87,14.12,15.39a1.58,1.58,0,0,0,3.15,0C74.71,57.54,71.76,51,56.23,51Z" transform="translate(-6.98 -3.62)"/><rect class="cls-5" x="59.94" y="34.92" width="19.8" height="34.2"/><path class="cls-6" d="M72.08,66.71V29.6A4.63,4.63,0,0,1,76.71,25h70.42a4.63,4.63,0,0,1,4.63,4.62V66.71a4.63,4.63,0,0,1-4.63,4.63H76.71A4.63,4.63,0,0,1,72.08,66.71Zm4.63-39.33a2.23,2.23,0,0,0-2.23,2.22V66.71a2.23,2.23,0,0,0,2.23,2.23h70.42a2.23,2.23,0,0,0,2.23-2.23V29.6a2.23,2.23,0,0,0-2.23-2.22Z" transform="translate(-6.98 -3.62)"/><path class="cls-6" d="M106.52,69.74h10.8v6.4h-10.8Zm8.4,2.4h-2.74v1.6h2.74Z" transform="translate(-6.98 -3.62)"/><rect class="cls-6" x="91.32" y="74.61" width="41.2" height="1.6" transform="translate(216.86 147.2) rotate(-180)"/><g id="Calque_2-2" data-name="Calque 2"><g id="Pictogrammes"><path class="cls-7" d="M99.78,61l5-5A12.49,12.49,0,1,0,103,54.33l-4.93,5A1.18,1.18,0,0,0,98,61a1.2,1.2,0,0,0,1.68.1.94.94,0,0,1,.1-.1Zm2.27-14.66a10.56,10.56,0,1,1,10.59,10.53h-.06A10.58,10.58,0,0,1,102.05,46.33Z" transform="translate(-6.98 -3.62)"/></g></g><polyline class="cls-8" points="74.92 56.26 78.94 48.51 86.39 52.21 94.91 48.93"/><polyline class="cls-9" points="94.91 44.31 106.99 40.46 116.24 45.4"/><polyline class="cls-8" points="115.61 48.8 122.89 51.8 135.18 39.03"/><circle class="cls-7" cx="74.74" cy="56.38" r="1"/><circle class="cls-7" cx="78.93" cy="48.66" r="1"/><circle class="cls-7" cx="86.44" cy="52.18" r="1"/><circle class="cls-7" cx="122.81" cy="51.66" r="1"/><circle class="cls-7" cx="135.18" cy="39.03" r="1"/><circle class="cls-7" cx="106.95" cy="40.63" r="2"/></g></g></g></svg>