<svg id="Mode_Isolation" data-name="Mode Isolation" xmlns="http://www.w3.org/2000/svg" viewBox="0 0 200 100"><defs><style>.cls-1{fill:#1f7eab;}.cls-2{fill:#fff;}.cls-3{fill:#c6d9e5;}.cls-4{fill:#e34e26;}</style></defs><title>SVG Profils recherches</title><path class="cls-1" d="M47.17,68.62l.4-.43,1.22-1.1.47.58c2.75,3,6.73,6.71,10.08,7.85l-2.13,3.59C54.82,77.55,48.85,73.28,47.17,68.62Zm4.1-2.26A10,10,0,0,0,53.87,62a15.64,15.64,0,0,0,14.68,0,10.17,10.17,0,0,0,2.6,4.41c-3.4,3.57-7.6,7.15-9.94,7.15S54.67,69.93,51.27,66.36Zm11.81,9.16c3.34-1.15,7.32-4.9,10.08-7.85a9.46,9.46,0,0,0,.66-.78l1.05,1.3.39.43c-1.69,4.66-7.66,8.93-10,10.49Zm-3.44-18.2v1.61h-2a2.76,2.76,0,0,1,0-5.52h7.53a2.76,2.76,0,0,1,0,5.52H62.79V57.32a1.58,1.58,0,1,0-3.15,0Zm1.57-7.75s-9.91.19-11.56,2.89a37.5,37.5,0,0,1-3-11.79c-.2-1.82-.32-3.46-.4-5,13.35-.29,21.4-5.1,25-7.94h0a5.25,5.25,0,0,0,1.2-1.52l-.4,2.08a16.6,16.6,0,0,1,4.11,5.57c0,1.93-.17,4.16-.45,6.75a37.5,37.5,0,0,1-3,11.79C71.12,49.76,61.21,49.57,61.21,49.57ZM27.34,83.74a1.58,1.58,0,1,0,3.15,0c0-10.52,2-15.11,14.12-15.38l.08.28c1.94,7,11.89,12.89,12.31,13.13l1,.59L59.4,80l.18.24-2,5.55h7.22l-2-5.53L63,80l1.38,2.32,1-.59c.42-.24,10.37-6.13,12.32-13.13l.08-.28c12.12.27,14.11,4.86,14.11,15.38a1.58,1.58,0,1,0,3.16,0c0-12-3-18.55-18.49-18.55A6.21,6.21,0,0,1,75,65l-1.14-.49c-1.52-1-2.21-2.73-2.64-4.55,5.18-4.83,7-13.19,7.63-18.94.91-8.37.81-14.75-2.71-18.67-1.93-2.15-4.8-3.47-9-4.06a37.17,37.17,0,0,0-11.72,0c-4.31.57-7.26,1.89-9.23,4.09-3.51,3.92-3.62,10.3-2.71,18.67C44.17,46.76,46,55.12,51.17,60c-.43,1.84-1.13,3.62-2.65,4.55L47.39,65a5.68,5.68,0,0,1-1.56.2C30.29,65.19,27.35,71.71,27.34,83.74Z"/><rect class="cls-2" x="86.85" y="52.72" width="19.8" height="34.2" transform="translate(193.5 139.64) rotate(-180)"/><path class="cls-3" d="M92.87,80.89V43.78a4.63,4.63,0,0,1,4.62-4.63h70.42a4.64,4.64,0,0,1,4.63,4.63V80.89a4.64,4.64,0,0,1-4.63,4.63H97.49A4.63,4.63,0,0,1,92.87,80.89Zm4.62-39.34a2.23,2.23,0,0,0-2.22,2.23V80.89a2.23,2.23,0,0,0,2.22,2.23h70.42a2.23,2.23,0,0,0,2.23-2.23V43.78a2.23,2.23,0,0,0-2.23-2.23Z"/><path class="cls-3" d="M127.3,83.92h10.8v6.4H127.3Zm8.4,2.4H133v1.6h2.74Z"/><rect class="cls-3" x="112.1" y="88.78" width="41.2" height="1.6"/><path class="cls-4" d="M151.21,61.25a2.53,2.53,0,0,0-.69-.58l-8.94-5.34a.74.74,0,0,0-.46-.16.9.9,0,0,0-.82.62l-.13.53a.83.83,0,0,0,.44.76l8.49,5-8.49,5a.83.83,0,0,0-.44.76l.13.53a.94.94,0,0,0,.84.6l.44-.14,9-5.41a2,2,0,0,0,.66-.55,1.29,1.29,0,0,0,.25-.8A1.35,1.35,0,0,0,151.21,61.25Zm-25.37-5.92-8.94,5.34a2.52,2.52,0,0,0-.71.58,1.42,1.42,0,0,0-.23.82,1.35,1.35,0,0,0,.23.8,2,2,0,0,0,.69.55l8.93,5.41a.92.92,0,0,0,.47.14.89.89,0,0,0,.82-.6l.13-.53a.85.85,0,0,0-.42-.76l-8.52-5,8.52-5a.78.78,0,0,0,.44-.73,1,1,0,0,0-.15-.56.91.91,0,0,0-.82-.62l-.44.16m11.89-4.95a.84.84,0,0,0-.85.62l-8.2,21.54-.09.37c0,.34.23.61.71.78l.46.09a.8.8,0,0,0,.78-.6l8.23-21.51.06-.4a.84.84,0,0,0-.66-.8l-.44-.09"/></svg>