<svg xmlns="http://www.w3.org/2000/svg" viewBox="0 0 145.2 72.59"><defs><style>.cls-1{fill:#1f7eab;}.cls-2{fill:#fff;}.cls-3{fill:#c6d9e5;}.cls-4{fill:#e34e26;}</style></defs><title>Fichier 19</title><g id="Calque_2" data-name="Calque 2"><g id="Mode_Isolation" data-name="Mode Isolation"><path class="cls-1" d="M19.83,50.82l.4-.43c.27-.23,1.22-1.1,1.22-1.1l.47.59c2.76,2.95,6.73,6.7,10.08,7.85l-2.13,3.59C27.49,59.76,21.51,55.49,19.83,50.82Zm4.1-2.25a10.24,10.24,0,0,0,2.61-4.41A14.6,14.6,0,0,0,33.87,46a14.64,14.64,0,0,0,7.34-1.83,10.24,10.24,0,0,0,2.61,4.41c-3.4,3.57-7.6,7.14-10,7.14S27.33,52.14,23.93,48.57Zm11.81,9.16c3.35-1.15,7.33-4.9,10.08-7.85.24-.24.66-.79.66-.79l1.05,1.3.39.43c-1.68,4.67-7.66,8.94-10,10.5ZM32.3,39.52v1.61h-2a2.76,2.76,0,0,1,0-5.51h7.53a2.76,2.76,0,0,1,0,5.51H35.45V39.52a1.58,1.58,0,1,0-3.15,0Zm1.57-7.75S24,32,22.32,34.67a37.31,37.31,0,0,1-3-11.79c-.2-1.83-.33-3.46-.4-4.95,13.34-.3,21.4-5.1,25-7.95h0a5.09,5.09,0,0,0,1.19-1.52l-.4,2.09a16.43,16.43,0,0,1,4.11,5.56,64.81,64.81,0,0,1-.45,6.76,37.5,37.5,0,0,1-3,11.79C43.78,32,33.87,31.77,33.87,31.77ZM0,66a1.58,1.58,0,0,0,3.15,0c0-10.52,2-15.11,14.12-15.39l.08.29c1.94,7,11.89,12.88,12.32,13.13l1,.59,1.38-2.32.18.24-2,5.54h7.22l-2-5.53.18-.25,1.38,2.32,1-.59c.42-.25,10.38-6.13,12.32-13.13l.08-.29c12.12.28,14.12,4.87,14.12,15.39a1.58,1.58,0,0,0,3.15,0c0-12-2.95-18.55-18.48-18.55a5.79,5.79,0,0,1-1.57-.21l-1.13-.49C45,45.76,44.34,44,43.91,42.16c5.18-4.83,7-13.2,7.63-18.94.92-8.37.81-14.75-2.71-18.67C46.9,2.39,44,1.08,39.87.49a33.88,33.88,0,0,0-6-.49,33.93,33.93,0,0,0-5.76.45c-4.31.58-7.25,1.89-9.23,4.1-3.51,3.92-3.62,10.3-2.71,18.67.63,5.74,2.45,14.11,7.63,18.94-.43,1.84-1.13,3.61-2.65,4.55l-1.12.48a5.79,5.79,0,0,1-1.57.21C3,47.4,0,53.92,0,66Z"/><rect class="cls-2" x="59.51" y="34.92" width="19.8" height="34.2" transform="translate(138.82 104.05) rotate(-180)"/><path class="cls-3" d="M65.53,63.09V26a4.63,4.63,0,0,1,4.63-4.62h70.41A4.62,4.62,0,0,1,145.2,26V63.09a4.63,4.63,0,0,1-4.63,4.63H70.16A4.63,4.63,0,0,1,65.53,63.09Zm4.63-39.33A2.23,2.23,0,0,0,67.93,26V63.09a2.23,2.23,0,0,0,2.23,2.23h70.41a2.23,2.23,0,0,0,2.23-2.23V26a2.23,2.23,0,0,0-2.23-2.22Z"/><path class="cls-3" d="M100,66.12h10.8v6.4H100Zm8.4,2.4h-2.75v1.6h2.75Z"/><rect class="cls-3" x="84.77" y="70.99" width="41.2" height="1.6"/><path class="cls-4" d="M123.87,43.45a2.44,2.44,0,0,0-.68-.57l-8.94-5.35a.86.86,0,0,0-.47-.16A.9.9,0,0,0,113,38l-.13.53a.83.83,0,0,0,.44.75l8.5,5-8.5,5a.83.83,0,0,0-.44.75l.13.53a.94.94,0,0,0,.84.6l.45-.13,9-5.41a2,2,0,0,0,.66-.56,1.22,1.22,0,0,0,.25-.8A1.31,1.31,0,0,0,123.87,43.45ZM98.5,37.53l-8.94,5.35a2.36,2.36,0,0,0-.71.57,1.44,1.44,0,0,0-.22.82,1.33,1.33,0,0,0,.22.8,2,2,0,0,0,.69.56L98.48,51a.84.84,0,0,0,.46.13.89.89,0,0,0,.82-.6L99.9,50a.81.81,0,0,0-.43-.75l-8.51-5,8.51-5a.78.78,0,0,0,.45-.73.94.94,0,0,0-.16-.55.89.89,0,0,0-.82-.63l-.44.16m11.89-5a.84.84,0,0,0-.85.63l-8.2,21.53-.09.38c0,.34.24.6.71.78l.46.09a.81.81,0,0,0,.78-.6l8.23-21.52.07-.4c0-.37-.22-.63-.67-.8l-.44-.09"/></g></g></svg>