<svg xmlns="http://www.w3.org/2000/svg" viewBox="0 0 144.78 88.82"><defs><style>.cls-1{opacity:0.7;}.cls-2{fill:#1f7eab;}.cls-3{fill:#fff;}.cls-4{fill:#c6d9e5;}.cls-5{fill:none;stroke:#e34e26;stroke-miterlimit:10;stroke-width:2.5px;}</style></defs><title>Fichier 18</title><g id="Calque_2" data-name="Calque 2"><g id="Mode_Isolation" data-name="Mode Isolation"><g class="cls-1"><path class="cls-2" d="M47,12.18a1.7,1.7,0,0,1-1.3-2.79l3.82-4.55A1.7,1.7,0,0,1,52.11,7L48.3,11.57A1.71,1.71,0,0,1,47,12.18Z" transform="translate(-4.58)"/><path class="cls-2" d="M31.37,12.18a1.69,1.69,0,0,1-1.3-.61L26.25,7a1.7,1.7,0,0,1,2.61-2.18l3.81,4.55a1.69,1.69,0,0,1-.21,2.39A1.65,1.65,0,0,1,31.37,12.18Z" transform="translate(-4.58)"/><path class="cls-2" d="M39.18,9.34a1.7,1.7,0,0,1-1.7-1.7V1.7a1.7,1.7,0,0,1,3.4,0V7.64A1.7,1.7,0,0,1,39.18,9.34Z" transform="translate(-4.58)"/></g><path class="cls-2" d="M42.45,77.54,40.31,74c3.36-1.14,7.33-4.89,10.09-7.85l.47-.58,1.22,1.1.4.43C50.81,71.71,44.83,76,42.45,77.54Zm-4-5.6c-2.35,0-6.55-3.57-10-7.15a10.2,10.2,0,0,0,2.61-4.4,14.61,14.61,0,0,0,7.34,1.82,14.6,14.6,0,0,0,7.33-1.82,10.14,10.14,0,0,0,2.61,4.4C45,68.37,40.79,71.94,38.45,71.94Zm-4,5.6c-2.38-1.56-8.36-5.83-10-10.49l.39-.43,1.05-1.3a9.46,9.46,0,0,0,.66.78c2.75,3,6.73,6.71,10.08,7.85ZM26.89,50.89a37.16,37.16,0,0,1-3-11.79,64.46,64.46,0,0,1-.45-6.75,16.56,16.56,0,0,1,4.11-5.57l-.4-2.08a5.22,5.22,0,0,0,1.19,1.52h0c3.61,2.85,11.67,7.65,25,7.95-.07,1.48-.2,3.12-.4,4.94a38.22,38.22,0,0,1-3,11.79c-3.69,8.41-11.55,8-11.55,8S29.35,58.42,26.89,50.89ZM53.83,63.63a5.79,5.79,0,0,1-1.57-.21l-1.12-.49c-1.52-.93-2.22-2.71-2.65-4.55,5.18-4.83,7-13.19,7.63-18.93.91-8.38.8-14.75-2.71-18.67-2-2.21-4.92-3.53-9.23-4.1a34,34,0,0,0-5.77-.45,33.91,33.91,0,0,0-6,.48c-4.16.6-7,1.91-9,4.07C20,24.7,19.86,31.07,20.78,39.45c.63,5.74,2.44,14.1,7.63,18.93C28,60.2,27.29,62,25.76,62.93l-1.13.49a5.79,5.79,0,0,1-1.57.21c-15.53,0-18.48,6.51-18.48,18.54a1.58,1.58,0,1,0,3.15,0c0-10.51,2-15.1,14.12-15.38l.08.29c1.94,7,11.89,12.88,12.32,13.12l1,.6,1.38-2.33,1.8-3.3,1.82,3.3,1.38,2.33,1-.6C43.07,80,53,74.08,55,67.08l.08-.29c12.12.28,14.12,4.87,14.12,15.38a1.58,1.58,0,1,0,3.15,0C72.31,70.14,69.36,63.63,53.83,63.63Z" transform="translate(-4.58)"/><rect class="cls-3" x="59.94" y="51.15" width="19.8" height="34.2"/><path class="cls-4" d="M69.68,79.32V42.21a4.64,4.64,0,0,1,4.63-4.63h70.42a4.64,4.64,0,0,1,4.63,4.63V79.32A4.64,4.64,0,0,1,144.73,84H74.31A4.64,4.64,0,0,1,69.68,79.32ZM74.31,40a2.23,2.23,0,0,0-2.23,2.23V79.32a2.23,2.23,0,0,0,2.23,2.23h70.42A2.23,2.23,0,0,0,147,79.32V42.21A2.23,2.23,0,0,0,144.73,40Z" transform="translate(-4.58)"/><path class="cls-4" d="M104.12,82.35h10.8v6.4h-10.8Zm8.4,2.4h-2.74v1.6h2.74Z" transform="translate(-4.58)"/><rect class="cls-4" x="88.92" y="87.22" width="41.2" height="1.6" transform="translate(214.46 176.03) rotate(-180)"/><path class="cls-5" d="M110.1,61.54s-6.11-7.14-10-7.14a7.15,7.15,0,1,0,0,14.29C104,68.69,110.1,61.54,110.1,61.54Z" transform="translate(-4.58)"/><path class="cls-5" d="M110.1,61.54s6.11-7.14,10.06-7.14a7.15,7.15,0,0,1,0,14.29C116.21,68.69,110.1,61.54,110.1,61.54Z" transform="translate(-4.58)"/><path class="cls-2" d="M53.29,36.49l-4.8,21.89S54.41,59,54.86,61s2.7-26.55,1.58-32.17" transform="translate(-4.58)"/><path class="cls-2" d="M23.36,36.49l4.81,21.89S22.24,59,21.79,61s-2.46-26.55-1.34-32.17" transform="translate(-4.58)"/></g></g></svg>