<svg id="Mode_Isolation" data-name="Mode Isolation" xmlns="http://www.w3.org/2000/svg" viewBox="0 0 200 100"><defs><style>.cls-1{opacity:0.7;}.cls-2{fill:#1f7eab;}.cls-3{fill:#fff;}.cls-4{fill:#c6d9e5;}.cls-5{fill:none;stroke:#e34e26;stroke-miterlimit:10;stroke-width:2.5px;}</style></defs><title>SVG Profils recherches</title><g class="cls-1"><path class="cls-2" d="M72.43,13.75A1.7,1.7,0,0,1,71.12,11l3.82-4.55a1.7,1.7,0,0,1,2.6,2.18l-3.81,4.55A1.71,1.71,0,0,1,72.43,13.75Z"/><path class="cls-2" d="M56.8,13.75a1.71,1.71,0,0,1-1.3-.61L51.68,8.59a1.7,1.7,0,0,1,2.61-2.18L58.1,11a1.69,1.69,0,0,1-.21,2.39A1.65,1.65,0,0,1,56.8,13.75Z"/><path class="cls-2" d="M64.61,10.91a1.71,1.71,0,0,1-1.7-1.71V3.27a1.7,1.7,0,0,1,3.4,0V9.2A1.71,1.71,0,0,1,64.61,10.91Z"/></g><path class="cls-2" d="M67.88,79.11l-2.13-3.59c3.35-1.14,7.32-4.89,10.08-7.85l.47-.58,1.22,1.1.4.43C76.24,73.28,70.26,77.55,67.88,79.11Zm-4-5.6c-2.35,0-6.55-3.58-10-7.15A10.08,10.08,0,0,0,56.54,62a15.62,15.62,0,0,0,14.67,0,10.12,10.12,0,0,0,2.61,4.41C70.42,69.93,66.22,73.51,63.88,73.51Zm-4,5.6c-2.38-1.56-8.36-5.83-10-10.49l.39-.43,1.05-1.3a9.46,9.46,0,0,0,.66.78c2.75,3,6.74,6.7,10.08,7.85ZM52.32,52.46a37.5,37.5,0,0,1-3-11.79,67.31,67.31,0,0,1-.45-6.75A16.47,16.47,0,0,1,53,28.35l-.4-2.08a5.09,5.09,0,0,0,1.2,1.52h0c3.6,2.84,11.66,7.65,25,7.94-.07,1.49-.2,3.13-.4,5-.51,4.77-1,6.65-3,11.79-3.7,8.41-11.56,8-11.56,8S54.78,60,52.32,52.46ZM79.26,65.19A5.68,5.68,0,0,1,77.7,65l-1.13-.49c-1.52-.93-2.22-2.71-2.65-4.55,5.18-4.83,7-13.19,7.63-18.94.91-8.37.8-14.75-2.71-18.67-2-2.2-4.92-3.52-9.23-4.09a37.23,37.23,0,0,0-11.73,0c-4.16.59-7,1.91-9,4.06C45.4,26.26,45.3,32.64,46.21,41c.63,5.75,2.45,14.11,7.63,18.94-.43,1.82-1.12,3.6-2.65,4.55L50.06,65a6.21,6.21,0,0,1-1.56.2C33,65.19,30,71.71,30,83.74a1.58,1.58,0,1,0,3.15,0c0-10.52,2-15.11,14.12-15.38l.08.28c1.94,7,11.9,12.89,12.32,13.13l1,.59L62.07,80l1.8-3.3L65.69,80l1.38,2.32,1-.59c.43-.24,10.38-6.12,12.32-13.13l.08-.28c12.12.27,14.12,4.86,14.12,15.38a1.58,1.58,0,1,0,3.15,0C97.74,71.71,94.79,65.19,79.26,65.19Z"/><rect class="cls-3" x="89.95" y="52.72" width="19.8" height="34.2"/><path class="cls-4" d="M95.12,80.89V43.78a4.63,4.63,0,0,1,4.62-4.63h70.42a4.64,4.64,0,0,1,4.63,4.63V80.89a4.64,4.64,0,0,1-4.63,4.63H99.74A4.63,4.63,0,0,1,95.12,80.89Zm4.62-39.34a2.22,2.22,0,0,0-2.22,2.23V80.89a2.22,2.22,0,0,0,2.22,2.23h70.42a2.23,2.23,0,0,0,2.23-2.23V43.78a2.23,2.23,0,0,0-2.23-2.23Z"/><path class="cls-4" d="M129.55,83.92h10.8v6.4h-10.8Zm8.4,2.4h-2.74v1.6H138Z"/><rect class="cls-4" x="114.35" y="88.78" width="41.2" height="1.6" transform="translate(269.9 179.17) rotate(-180)"/><path class="cls-5" d="M135.53,63.11s-6.11-7.14-10-7.14a7.15,7.15,0,1,0,0,14.29C129.42,70.26,135.53,63.11,135.53,63.11Z"/><path class="cls-5" d="M135.53,63.11S141.64,56,145.59,56a7.15,7.15,0,0,1,0,14.29C141.65,70.26,135.53,63.11,135.53,63.11Z"/><path class="cls-2" d="M78.72,38.06,73.92,60s5.93.61,6.38,2.63S83,36,81.87,30.41"/><path class="cls-2" d="M48.8,38.06,53.6,60s-5.93.61-6.38,2.63S44.76,36,45.89,30.41"/></svg>