<svg id="Mode_Isolation" data-name="Mode Isolation" xmlns="http://www.w3.org/2000/svg" viewBox="0 0 200 100"><defs><style>.cls-1{fill:#1f7eab;}.cls-2{fill:#fff;}.cls-3{fill:#c6d9e5;}.cls-4{fill:none;stroke:#e34e26;stroke-linecap:round;stroke-linejoin:round;stroke-width:1.7px;}</style></defs><title>SVG Profils recherches</title><path class="cls-1" d="M47.19,68.73l.4-.43c.28-.24,1.23-1.1,1.23-1.1s.3.39.46.58c2.76,3,6.74,6.71,10.09,7.85l-2.14,3.59C54.85,77.66,48.87,73.39,47.19,68.73Zm4.1-2.26a10.12,10.12,0,0,0,2.61-4.41,15.62,15.62,0,0,0,14.67,0,10.18,10.18,0,0,0,2.61,4.41c-3.4,3.58-7.6,7.15-9.94,7.15S54.69,70.05,51.29,66.47ZM63.1,75.63c3.35-1.14,7.33-4.9,10.09-7.85.23-.23.65-.78.65-.78l1,1.3.4.43c-1.69,4.66-7.67,8.93-10.05,10.49Zm-3.44-18.2V59h-2a2.76,2.76,0,1,1,0-5.52H65.2a2.76,2.76,0,0,1,0,5.52H62.81V57.43a1.58,1.58,0,1,0-3.15,0Zm1.58-7.75s-9.91.19-11.56,2.89a37.5,37.5,0,0,1-3-11.79c-.2-1.82-.33-3.46-.4-5,13.35-.29,21.4-5.1,25-7.94h0a5.22,5.22,0,0,0,1.19-1.52l-.4,2.08A16.5,16.5,0,0,1,76.23,34a67.62,67.62,0,0,1-.46,6.75,37.52,37.52,0,0,1-3,11.79C71.14,49.87,61.24,49.68,61.24,49.68ZM27.36,83.85a1.58,1.58,0,1,0,3.15,0c0-10.51,2-15.1,14.12-15.38l.08.28c1.94,7,11.9,12.89,12.32,13.13l1,.6,1.38-2.33.18.24-2,5.55h7.22l-2-5.53.18-.26,1.38,2.33,1-.6c.42-.24,10.37-6.13,12.31-13.13l.08-.28C90,68.75,92,73.34,92,83.85a1.58,1.58,0,1,0,3.15,0c0-12-2.95-18.55-18.48-18.55a6.23,6.23,0,0,1-1.57-.2l-1.13-.49c-1.53-1-2.22-2.73-2.65-4.55,5.19-4.83,7-13.19,7.63-18.93.92-8.38.81-14.75-2.7-18.67-1.94-2.16-4.8-3.48-9-4.07a37.17,37.17,0,0,0-11.72,0c-4.32.57-7.26,1.89-9.24,4.1-3.51,3.92-3.62,10.29-2.71,18.67.63,5.74,2.45,14.1,7.64,18.93-.44,1.84-1.14,3.62-2.66,4.55l-1.12.49a5.78,5.78,0,0,1-1.56.2C30.32,65.3,27.37,71.82,27.36,83.85Z"/><rect class="cls-2" x="86.87" y="52.83" width="19.8" height="34.2" transform="translate(193.55 139.86) rotate(-180)"/><path class="cls-3" d="M92.89,81V43.89a4.64,4.64,0,0,1,4.63-4.63h70.42a4.63,4.63,0,0,1,4.62,4.63V81a4.63,4.63,0,0,1-4.62,4.63H97.52A4.64,4.64,0,0,1,92.89,81Zm4.63-39.34a2.23,2.23,0,0,0-2.23,2.23V81a2.23,2.23,0,0,0,2.23,2.23h70.42A2.23,2.23,0,0,0,170.16,81V43.89a2.23,2.23,0,0,0-2.22-2.23Z"/><path class="cls-3" d="M127.33,84h10.8v6.4h-10.8Zm8.4,2.4H133V88h2.75Z"/><rect class="cls-3" x="112.13" y="88.89" width="41.2" height="1.6"/><rect class="cls-4" x="109.27" y="51.5" width="46.42" height="6.44" rx="1.09"/><rect class="cls-4" x="111.04" y="61.57" width="12.72" height="11" rx="1.56"/><rect class="cls-4" x="141.18" y="61.57" width="12.72" height="11" rx="1.56"/><rect class="cls-4" x="126.11" y="61.57" width="12.72" height="11" rx="1.56"/><line class="cls-4" x1="111.15" y1="76.13" x2="123.18" y2="76.13"/><line class="cls-4" x1="126.62" y1="76.13" x2="138.66" y2="76.13"/><line class="cls-4" x1="141.88" y1="76.13" x2="153.92" y2="76.13"/></svg>