<svg id="Mode_Isolation" data-name="Mode Isolation" xmlns="http://www.w3.org/2000/svg" viewBox="0 0 200 100"><defs><style>.cls-1{opacity:0.7;}.cls-2{fill:#1f7eab;}.cls-3{fill:#fff;}.cls-4{fill:#c6d9e5;}.cls-5,.cls-6,.cls-7,.cls-8{fill:none;stroke:#e34e26;stroke-linecap:round;stroke-linejoin:round;stroke-width:2px;}.cls-6{stroke-dasharray:1.89 4.71;}.cls-7{stroke-dasharray:1.9 4.76;}.cls-8{stroke-dasharray:1.81 4.53;}.cls-9{fill:#e34e26;}</style></defs><title>SVG Profils recherches</title><path class="cls-2" d="M67.64,79.22l-2.13-3.59c3.35-1.14,7.33-4.89,10.08-7.85l.47-.58,1.22,1.1.4.43C76,73.39,70,77.66,67.64,79.22Zm-4-5.6c-2.34,0-6.54-3.57-9.94-7.15a10.17,10.17,0,0,0,2.6-4.41,15.64,15.64,0,0,0,14.68,0,10,10,0,0,0,2.6,4.41C70.18,70.05,66,73.62,63.64,73.62Zm-4,5.6c-2.38-1.56-8.35-5.83-10-10.49L50,68.3,51,67a9.46,9.46,0,0,0,.66.78c2.76,3,6.74,6.71,10.08,7.85ZM52.08,52.57a37.5,37.5,0,0,1-3-11.79c-.28-2.59-.43-4.82-.45-6.75a16.6,16.6,0,0,1,4.11-5.57l-.4-2.08a5.25,5.25,0,0,0,1.2,1.52h0c3.61,2.84,11.66,7.65,25,7.94-.08,1.49-.2,3.13-.4,5a38.5,38.5,0,0,1-3,11.79c-3.7,8.41-11.56,8-11.56,8S54.54,60.1,52.08,52.57ZM79,65.3a5.68,5.68,0,0,1-1.56-.2l-1.13-.49c-1.52-.93-2.22-2.71-2.65-4.55,5.18-4.83,7-13.19,7.63-18.93.91-8.38.8-14.75-2.71-18.67-2-2.21-4.92-3.53-9.23-4.1a37.17,37.17,0,0,0-11.72,0c-4.17.59-7,1.91-9,4.07C45.16,26.38,45.06,32.75,46,41.13c.63,5.74,2.45,14.1,7.63,18.93-.43,1.82-1.12,3.6-2.64,4.55l-1.14.49a6.21,6.21,0,0,1-1.56.2c-15.54,0-18.49,6.52-18.49,18.55a1.58,1.58,0,0,0,3.16,0c0-10.51,2-15.1,14.11-15.38l.08.28c2,7,11.9,12.89,12.32,13.13l1,.6,1.38-2.33,1.8-3.3,1.82,3.3,1.39,2.33,1-.6c.42-.24,10.37-6.12,12.31-13.13l.08-.28c12.12.28,14.12,4.87,14.12,15.38a1.58,1.58,0,1,0,3.15,0C97.5,71.82,94.56,65.3,79,65.3Z"/><rect class="cls-3" x="89.71" y="52.83" width="19.8" height="34.2"/><path class="cls-4" d="M94.88,81V43.89a4.63,4.63,0,0,1,4.62-4.63h70.42a4.64,4.64,0,0,1,4.63,4.63V81a4.64,4.64,0,0,1-4.63,4.63H99.5A4.63,4.63,0,0,1,94.88,81ZM99.5,41.66a2.23,2.23,0,0,0-2.22,2.23V81a2.23,2.23,0,0,0,2.22,2.23h70.42A2.23,2.23,0,0,0,172.15,81V43.89a2.23,2.23,0,0,0-2.23-2.23Z"/><path class="cls-4" d="M129.31,84h10.8v6.4h-10.8Zm8.4,2.4H135V88h2.74Z"/><rect class="cls-4" x="114.11" y="88.89" width="41.2" height="1.6" transform="translate(269.43 179.39) rotate(-180)"/><path class="cls-2" d="M78.48,38.17l-4.8,21.89s5.93.61,6.38,2.63,2.7-26.55,1.57-32.17"/><path class="cls-2" d="M48.56,38.17l4.8,21.89s-5.93.61-6.38,2.63-2.46-26.55-1.33-32.17"/><line class="cls-5" x1="119.57" y1="63.55" x2="120.57" y2="63.55"/><line class="cls-6" x1="125.28" y1="63.55" x2="142.72" y2="63.55"/><line class="cls-5" x1="145.08" y1="63.55" x2="146.08" y2="63.55"/><line class="cls-5" x1="112.69" y1="54.55" x2="113.69" y2="54.55"/><line class="cls-7" x1="118.44" y1="54.55" x2="142.7" y2="54.55"/><line class="cls-5" x1="145.08" y1="54.55" x2="146.08" y2="54.55"/><line class="cls-5" x1="119.57" y1="73.16" x2="120.57" y2="73.16"/><line class="cls-8" x1="125.1" y1="73.16" x2="148.2" y2="73.16"/><line class="cls-5" x1="150.46" y1="73.16" x2="151.46" y2="73.16"/><path class="cls-9" d="M165.2,72.24a2.3,2.3,0,0,0-.62-.52l-8.1-4.85a.78.78,0,0,0-.43-.14.81.81,0,0,0-.74.56l-.12.49a.75.75,0,0,0,.4.68l7.7,4.5-7.7,4.57a.74.74,0,0,0-.4.68l.12.48a.86.86,0,0,0,.76.55l.41-.13,8.12-4.9a1.84,1.84,0,0,0,.6-.5,1.13,1.13,0,0,0,.22-.73A1.2,1.2,0,0,0,165.2,72.24Z"/><path class="cls-9" d="M111.72,48.11,103.62,53a2.31,2.31,0,0,0-.64.52,1.27,1.27,0,0,0-.2.75,1.18,1.18,0,0,0,.2.72,1.84,1.84,0,0,0,.62.5l8.1,4.91a.85.85,0,0,0,.43.12.8.8,0,0,0,.74-.55l.12-.48a.77.77,0,0,0-.38-.68l-7.72-4.57,7.72-4.5A.7.7,0,0,0,113,49a.92.92,0,0,0-.14-.5.81.81,0,0,0-.74-.57l-.41.15"/></svg>