<svg xmlns="http://www.w3.org/2000/svg" viewBox="0 0 145.2 72.59"><defs><style>.cls-1{fill:#1f7eab;}.cls-2{fill:#fff;}.cls-3{fill:#c6d9e5;}.cls-4{fill:none;stroke:#e34e26;stroke-linecap:round;stroke-linejoin:round;stroke-width:1.7px;}</style></defs><title>Fichier 14</title><g id="Calque_2" data-name="Calque 2"><g id="Mode_Isolation" data-name="Mode Isolation"><path class="cls-1" d="M19.83,50.82l.4-.43c.27-.23,1.22-1.1,1.22-1.1l.47.59c2.76,2.95,6.73,6.7,10.08,7.85l-2.13,3.59C27.49,59.76,21.51,55.49,19.83,50.82Zm4.1-2.25a10.24,10.24,0,0,0,2.61-4.41A14.6,14.6,0,0,0,33.87,46a14.64,14.64,0,0,0,7.34-1.83,10.24,10.24,0,0,0,2.61,4.41c-3.4,3.57-7.6,7.14-10,7.14S27.33,52.14,23.93,48.57Zm11.81,9.16c3.35-1.15,7.33-4.9,10.08-7.85.24-.24.66-.79.66-.79l1.05,1.3.39.43c-1.68,4.67-7.66,8.94-10,10.5ZM32.3,39.52v1.61h-2a2.76,2.76,0,0,1,0-5.51h7.53a2.76,2.76,0,0,1,0,5.51H35.45V39.52a1.58,1.58,0,1,0-3.15,0Zm1.57-7.75S24,32,22.32,34.67a37.31,37.31,0,0,1-3-11.79c-.2-1.83-.33-3.46-.4-4.95,13.34-.3,21.4-5.1,25-7.95h0a5.09,5.09,0,0,0,1.19-1.52l-.4,2.09a16.43,16.43,0,0,1,4.11,5.56,64.81,64.81,0,0,1-.45,6.76,37.5,37.5,0,0,1-3,11.79C43.78,32,33.87,31.77,33.87,31.77ZM0,66a1.58,1.58,0,0,0,3.15,0c0-10.52,2-15.11,14.12-15.39l.08.29c1.94,7,11.89,12.88,12.32,13.13l1,.59,1.38-2.32.18.24-2,5.54h7.22l-2-5.53.18-.25,1.38,2.32,1-.59c.42-.25,10.38-6.13,12.32-13.13l.08-.29c12.12.28,14.12,4.87,14.12,15.39a1.58,1.58,0,0,0,3.15,0c0-12-2.95-18.55-18.48-18.55a5.79,5.79,0,0,1-1.57-.21l-1.13-.49C45,45.76,44.34,44,43.91,42.16c5.18-4.83,7-13.2,7.63-18.94.92-8.37.81-14.75-2.71-18.67C46.9,2.39,44,1.08,39.87.49a33.88,33.88,0,0,0-6-.49,33.93,33.93,0,0,0-5.76.45c-4.31.58-7.25,1.89-9.23,4.1-3.51,3.92-3.62,10.3-2.71,18.67.63,5.74,2.45,14.11,7.63,18.94-.43,1.84-1.13,3.61-2.65,4.55l-1.12.48a5.79,5.79,0,0,1-1.57.21C3,47.4,0,53.92,0,66Z"/><rect class="cls-2" x="59.51" y="34.92" width="19.8" height="34.2" transform="translate(138.82 104.05) rotate(-180)"/><path class="cls-3" d="M65.53,63.09V26a4.63,4.63,0,0,1,4.63-4.62h70.41A4.62,4.62,0,0,1,145.2,26V63.09a4.63,4.63,0,0,1-4.63,4.63H70.16A4.63,4.63,0,0,1,65.53,63.09Zm4.63-39.33A2.23,2.23,0,0,0,67.93,26V63.09a2.23,2.23,0,0,0,2.23,2.23h70.41a2.23,2.23,0,0,0,2.23-2.23V26a2.23,2.23,0,0,0-2.23-2.22Z"/><path class="cls-3" d="M100,66.12h10.8v6.4H100Zm8.4,2.4h-2.75v1.6h2.75Z"/><rect class="cls-3" x="84.77" y="70.99" width="41.2" height="1.6"/><rect class="cls-4" x="81.9" y="33.59" width="46.42" height="6.44" rx="1.09"/><rect class="cls-4" x="83.68" y="43.67" width="12.72" height="11" rx="1.56"/><rect class="cls-4" x="113.82" y="43.67" width="12.72" height="11" rx="1.56"/><rect class="cls-4" x="98.75" y="43.67" width="12.72" height="11" rx="1.56"/><line class="cls-4" x1="83.79" y1="58.23" x2="95.82" y2="58.23"/><line class="cls-4" x1="99.26" y1="58.23" x2="111.3" y2="58.23"/><line class="cls-4" x1="114.52" y1="58.23" x2="126.55" y2="58.23"/></g></g></svg>