<svg xmlns="http://www.w3.org/2000/svg" viewBox="0 0 144.78 72.59"><defs><style>.cls-1{opacity:0.7;}.cls-2{fill:#1f7eab;}.cls-3{fill:#fff;}.cls-4{fill:#c6d9e5;}.cls-5,.cls-6,.cls-7,.cls-8{fill:none;stroke:#e34e26;stroke-linecap:round;stroke-linejoin:round;stroke-width:2px;}.cls-6{stroke-dasharray:1.89 4.71;}.cls-7{stroke-dasharray:1.9 4.76;}.cls-8{stroke-dasharray:1.81 4.53;}.cls-9{fill:#e34e26;}</style></defs><title>Fichier 13</title><g id="Calque_2" data-name="Calque 2"><g id="Mode_Isolation" data-name="Mode Isolation"><path class="cls-2" d="M42.45,66.23l-2.14-3.59c3.36-1.14,7.33-4.89,10.09-7.85.16-.19.47-.59.47-.59s1,.87,1.22,1.1l.4.43C50.81,60.4,44.83,64.67,42.45,66.23Zm-4-5.6c-2.35,0-6.55-3.58-10-7.15a10.18,10.18,0,0,0,2.61-4.41,14.61,14.61,0,0,0,7.34,1.83,14.6,14.6,0,0,0,7.33-1.83,10.18,10.18,0,0,0,2.61,4.41C45,57.05,40.79,60.63,38.45,60.63Zm-4,5.6c-2.38-1.56-8.36-5.83-10-10.5l.39-.43L25.84,54s.42.54.66.78c2.75,3,6.73,6.7,10.08,7.85ZM26.89,39.58a37.23,37.23,0,0,1-3-11.79A64.63,64.63,0,0,1,23.46,21a16.37,16.37,0,0,1,4.11-5.57l-.4-2.08a5.22,5.22,0,0,0,1.19,1.52h0c3.61,2.84,11.67,7.64,25,7.94-.07,1.49-.2,3.13-.4,4.95a38.28,38.28,0,0,1-3,11.79c-3.69,8.41-11.55,8-11.55,8S29.35,47.1,26.89,39.58ZM53.83,52.31a5.42,5.42,0,0,1-1.57-.21l-1.12-.48c-1.52-.94-2.22-2.71-2.65-4.55,5.18-4.83,7-13.19,7.63-18.94.91-8.37.8-14.75-2.71-18.67-2-2.2-4.92-3.52-9.23-4.09a33.9,33.9,0,0,0-5.77-.46,33.84,33.84,0,0,0-6,.49c-4.16.59-7,1.91-9,4.06-3.52,3.92-3.63,10.3-2.71,18.67.63,5.75,2.44,14.11,7.63,18.94-.43,1.82-1.12,3.6-2.65,4.55l-1.13.48a5.79,5.79,0,0,1-1.57.21c-15.53,0-18.48,6.52-18.48,18.55a1.58,1.58,0,0,0,3.15,0c0-10.52,2-15.11,14.12-15.39l.08.29c1.94,7,11.89,12.88,12.32,13.13l1,.59,1.38-2.32,1.8-3.3,1.82,3.3,1.38,2.32,1-.59C43.07,68.64,53,62.77,55,55.76l.08-.29c12.12.28,14.12,4.87,14.12,15.39a1.58,1.58,0,0,0,3.15,0C72.31,58.83,69.36,52.31,53.83,52.31Z" transform="translate(-4.58 -4.91)"/><rect class="cls-3" x="59.94" y="34.92" width="19.8" height="34.2"/><path class="cls-4" d="M69.68,68V30.9a4.64,4.64,0,0,1,4.63-4.63h70.42a4.64,4.64,0,0,1,4.63,4.63V68a4.64,4.64,0,0,1-4.63,4.63H74.31A4.64,4.64,0,0,1,69.68,68Zm4.63-39.34a2.23,2.23,0,0,0-2.23,2.23V68a2.23,2.23,0,0,0,2.23,2.23h70.42A2.23,2.23,0,0,0,147,68V30.9a2.23,2.23,0,0,0-2.23-2.23Z" transform="translate(-4.58 -4.91)"/><path class="cls-4" d="M104.12,71h10.8v6.4h-10.8Zm8.4,2.4h-2.74V75h2.74Z" transform="translate(-4.58 -4.91)"/><rect class="cls-4" x="88.92" y="75.9" width="41.2" height="1.6" transform="translate(214.46 148.49) rotate(-180)"/><path class="cls-2" d="M53.29,25.18l-4.8,21.89s5.92.61,6.37,2.63,2.7-26.55,1.58-32.17" transform="translate(-4.58 -4.91)"/><path class="cls-2" d="M23.36,25.18l4.81,21.89s-5.93.61-6.38,2.63-2.46-26.55-1.34-32.17" transform="translate(-4.58 -4.91)"/><line class="cls-5" x1="89.8" y1="45.64" x2="90.8" y2="45.64"/><line class="cls-6" x1="95.51" y1="45.64" x2="112.95" y2="45.64"/><line class="cls-5" x1="115.31" y1="45.64" x2="116.31" y2="45.64"/><line class="cls-5" x1="82.91" y1="36.64" x2="83.91" y2="36.64"/><line class="cls-7" x1="88.67" y1="36.64" x2="112.93" y2="36.64"/><line class="cls-5" x1="115.31" y1="36.64" x2="116.31" y2="36.64"/><line class="cls-5" x1="89.8" y1="55.25" x2="90.8" y2="55.25"/><line class="cls-8" x1="95.33" y1="55.25" x2="118.42" y2="55.25"/><line class="cls-5" x1="120.69" y1="55.25" x2="121.69" y2="55.25"/><path class="cls-9" d="M140,59.25a2.5,2.5,0,0,0-.62-.53l-8.11-4.84a.73.73,0,0,0-.42-.14.81.81,0,0,0-.74.56l-.12.48a.75.75,0,0,0,.4.69l7.7,4.5-7.7,4.56a.77.77,0,0,0-.4.69l.12.48a.85.85,0,0,0,.76.54l.4-.12,8.12-4.9a1.79,1.79,0,0,0,.61-.5,1.13,1.13,0,0,0,.22-.73A1.18,1.18,0,0,0,140,59.25Z" transform="translate(-4.58 -4.91)"/><path class="cls-9" d="M86.53,35.11,78.43,40a2.15,2.15,0,0,0-.64.52,1.27,1.27,0,0,0-.21.74,1.19,1.19,0,0,0,.21.73,1.75,1.75,0,0,0,.62.5l8.1,4.91a.92.92,0,0,0,.42.12.83.83,0,0,0,.75-.55l.12-.48a.77.77,0,0,0-.38-.68L79.7,41.2l7.71-4.5a.72.72,0,0,0,.41-.66,1,1,0,0,0-.14-.51.82.82,0,0,0-.75-.56l-.4.14" transform="translate(-4.58 -4.91)"/></g></g></svg>