<svg xmlns="http://www.w3.org/2000/svg" viewBox="0 0 200 100"><defs><style>.cls-1{isolation:isolate;}.cls-2{opacity:0.7;}.cls-3{mix-blend-mode:multiply;}.cls-4,.cls-7{fill:#1f7eab;}.cls-5{fill:#fff;}.cls-6{fill:#c6d9e5;}.cls-7{stroke:#fff;stroke-width:2px;}.cls-7,.cls-8{stroke-linecap:round;stroke-linejoin:round;}.cls-8{fill:none;stroke:#1f7eab;stroke-width:5px;}.cls-9{fill:#e34e26;stroke:#e34e26;stroke-miterlimit:10;}</style></defs><title>SVG Profils recherches</title><g class="cls-1"><g id="Mode_Isolation" data-name="Mode Isolation"><path class="cls-4" d="M69,78.16l-2.14-3.59c3.35-1.14,7.33-4.89,10.09-7.85l.46-.59s.95.87,1.23,1.1l.4.43C77.34,72.33,71.37,76.6,69,78.16Zm-4-5.6c-2.34,0-6.54-3.58-9.94-7.15A10.17,10.17,0,0,0,57.64,61a15.64,15.64,0,0,0,14.68,0,10.27,10.27,0,0,0,2.6,4.41C71.52,69,67.32,72.56,65,72.56Zm-4,5.6c-2.39-1.56-8.36-5.83-10-10.5l.39-.43c.23-.27,1-1.29,1-1.29s.43.54.66.78c2.76,3,6.74,6.7,10.09,7.85Zm4-23.37a1.57,1.57,0,0,0-1.58,1.57V58H61a2.76,2.76,0,1,1,0-5.51h7.52a2.76,2.76,0,1,1,0,5.51h-2V56.36A1.57,1.57,0,0,0,65,54.79ZM53.42,51.51a37.5,37.5,0,0,1-3-11.79C50.16,37.12,50,34.9,50,33c.24-1.55-.86-4.47.94-5.9l2.78-1.75a5.06,5.06,0,0,0,1.19,1.52h0c3.61,2.84,25-7.83,25,7.94,0-1.49-.2,3.13-.4,4.95a37.58,37.58,0,0,1-3,11.79C74.89,48.8,65,48.62,65,48.62S55.07,48.8,53.42,51.51ZM80.36,64.24A5.35,5.35,0,0,1,78.8,64l-1.12-.48C76.15,62.61,75.46,60.84,75,59c5.18-4.83,7-13.19,7.63-18.94.92-8.37.81-14.75-2.71-18.67-2-2.2-4.91-3.52-9.23-4.09a36.39,36.39,0,0,0-11.72,0c-4.17.59-7,1.91-9,4.06-3.51,3.92-3.62,10.3-2.71,18.67.63,5.75,2.45,14.11,7.63,18.94-.43,1.82-1.11,3.6-2.64,4.55L51.16,64a5.66,5.66,0,0,1-1.56.21c-15.54,0-18.48,6.52-18.48,18.55a1.58,1.58,0,0,0,3.15,0c0-10.52,2-15.11,14.11-15.39l.08.29c1.95,7,11.9,12.88,12.32,13.13l1,.59,1.38-2.32.19.26-2,5.53h7.21l-2-5.55.19-.24,1.38,2.32,1-.59c.42-.25,10.37-6.12,12.32-13.13l.08-.29c12.11.28,14.11,4.87,14.11,15.39a1.58,1.58,0,0,0,3.15,0C98.85,70.76,95.9,64.24,80.36,64.24Z"/><rect class="cls-5" x="91.06" y="51.77" width="19.8" height="34.2"/><path class="cls-6" d="M96.22,79.94V42.83a4.64,4.64,0,0,1,4.63-4.63h70.41a4.63,4.63,0,0,1,4.63,4.63V79.94a4.63,4.63,0,0,1-4.63,4.63H100.85A4.64,4.64,0,0,1,96.22,79.94Zm4.63-39.34a2.23,2.23,0,0,0-2.23,2.23V79.94a2.23,2.23,0,0,0,2.23,2.23h70.41a2.23,2.23,0,0,0,2.23-2.23V42.83a2.23,2.23,0,0,0-2.23-2.23Z"/><path class="cls-6" d="M130.66,83h10.8v6.4h-10.8Zm8.4,2.4h-2.75V87h2.75Z"/><rect class="cls-6" x="115.46" y="87.83" width="41.2" height="1.6" transform="translate(272.11 177.26) rotate(-180)"/><path class="cls-4" d="M85.27,28a20.33,20.33,0,0,0-40.65,0C47.8,28,51,30.32,54,33.52c2.09,2.25,21,1.78,22.78,0C79.5,30.78,77.75,28,85.27,28Z"/><path class="cls-7" d="M73.92,18.13c0-10.34-1.49-13.58-9-13.58S56,8.05,56,18.13"/><line class="cls-8" x1="45.41" y1="27.97" x2="84.28" y2="27.97"/><g id="Mode_Isolation-2" data-name="Mode Isolation"><path class="cls-9" d="M135.77,75.32a13.41,13.41,0,0,1-3.1-.37l-.39-.1V72.54a11.27,11.27,0,0,1-4.11-2.4l-2,1.15L125.9,71a13.39,13.39,0,0,1-3.11-5.34l-.12-.38,2-1.16a10.74,10.74,0,0,1,0-4.72l-2-1.2.11-.38a13.8,13.8,0,0,1,3.07-5.3l.27-.32,2,1.15A11.37,11.37,0,0,1,132.23,51V48.66l.44-.09a13.63,13.63,0,0,1,6.16,0l.39.09V51a11.52,11.52,0,0,1,4.2,2.4l2-1.16.27.28a13.83,13.83,0,0,1,3.1,5.33l.12.38-2,1.16a11.12,11.12,0,0,1,.28,2.43,12.22,12.22,0,0,1-.29,2.42l2,1.15-.12.38a13.74,13.74,0,0,1-3.06,5.33l-.27.28-2-1.14a11.52,11.52,0,0,1-4.2,2.4v2.3l-.39.09A13.88,13.88,0,0,1,135.77,75.32Zm-2.54-1.26a12.83,12.83,0,0,0,4.94,0V71.83l.36-.1A10.38,10.38,0,0,0,143,69.2l.27-.26,2,1.13a12.63,12.63,0,0,0,2.45-4.25l-2-1.13.09-.37a10.46,10.46,0,0,0,.34-2.56,11.06,11.06,0,0,0-.3-2.56l-.1-.36,2-1.14a13,13,0,0,0-2.48-4.26l-2,1.13-.27-.26a10.43,10.43,0,0,0-4.41-2.52l-.37-.1V49.43a12.45,12.45,0,0,0-4.94,0v2.29l-.36.1a10.44,10.44,0,0,0-4.3,2.54l-.27.26-2-1.13a12.55,12.55,0,0,0-2.46,4.28l2,1.14-.09.36a10.08,10.08,0,0,0,0,5l.09.37-2,1.13a12.62,12.62,0,0,0,2.46,4.28l2-1.15.27.26a10.21,10.21,0,0,0,4.33,2.53l.36.11Zm2.53-7a5.3,5.3,0,1,1,5.3-5.3h0A5.31,5.31,0,0,1,135.76,67.06Zm0-9.6a4.3,4.3,0,1,0,4.3,4.3h0A4.32,4.32,0,0,0,135.76,57.46Z"/></g></g></g></svg>