<svg xmlns="http://www.w3.org/2000/svg" viewBox="0 0 144.78 85.88"><defs><style>.cls-1{isolation:isolate;}.cls-2{opacity:0.7;}.cls-3{mix-blend-mode:multiply;}.cls-4,.cls-7{fill:#1f7eab;}.cls-5{fill:#fff;}.cls-6{fill:#c6d9e5;}.cls-7{stroke:#fff;stroke-width:2px;}.cls-7,.cls-8{stroke-linecap:round;stroke-linejoin:round;}.cls-8{fill:none;stroke:#1f7eab;stroke-width:5px;}.cls-9{fill:#e34e26;stroke:#e34e26;stroke-miterlimit:10;}</style></defs><title>Fichier 17</title><g class="cls-1"><g id="Calque_2" data-name="Calque 2"><g id="Mode_Isolation" data-name="Mode Isolation"><path class="cls-4" d="M44.85,74.61,42.71,71c3.36-1.14,7.33-4.89,10.09-7.85l.47-.58,1.22,1.1.4.43C53.21,68.78,47.23,73.05,44.85,74.61Zm-4-5.6c-2.35,0-6.55-3.58-10-7.15a10.18,10.18,0,0,0,2.61-4.41,14.61,14.61,0,0,0,7.34,1.83,14.6,14.6,0,0,0,7.33-1.83,10.18,10.18,0,0,0,2.61,4.41C47.39,65.43,43.19,69,40.85,69Zm-4,5.6c-2.38-1.56-8.36-5.83-10-10.49l.39-.43,1-1.3a9.46,9.46,0,0,0,.66.78c2.75,3,6.73,6.7,10.08,7.85Zm4-23.37a1.57,1.57,0,0,0-1.58,1.57v1.62H36.88a2.76,2.76,0,0,1,0-5.52h7.53a2.76,2.76,0,0,1,0,5.52h-2V52.81A1.57,1.57,0,0,0,40.85,51.24ZM29.29,48a37.23,37.23,0,0,1-3-11.79,64.46,64.46,0,0,1-.45-6.75c.23-1.55-.86-4.46.93-5.9l2.78-1.75a5.22,5.22,0,0,0,1.19,1.52h0c3.61,2.84,25-7.83,25,7.94,0-1.48-.2,3.13-.4,5A37.23,37.23,0,0,1,52.4,48c-1.65-2.7-11.55-2.89-11.55-2.89S30.94,45.26,29.29,48ZM56.23,60.69a5.42,5.42,0,0,1-1.57-.21L53.54,60c-1.52-.94-2.22-2.71-2.65-4.55,5.18-4.83,7-13.19,7.63-18.94.91-8.37.8-14.75-2.71-18.67-2-2.2-4.92-3.52-9.23-4.09a33.9,33.9,0,0,0-5.77-.46,33.84,33.84,0,0,0-6,.49c-4.16.59-7,1.91-9,4.06-3.52,3.92-3.63,10.3-2.71,18.67.63,5.75,2.44,14.11,7.63,18.94-.43,1.82-1.12,3.6-2.65,4.55L27,60.48a5.79,5.79,0,0,1-1.57.21C9.93,60.69,7,67.21,7,79.24a1.58,1.58,0,0,0,3.15,0c0-10.52,2-15.11,14.12-15.39l.08.29c1.94,7,11.89,12.88,12.32,13.13l1,.59L39,75.54l.18.26-2,5.53h7.22l-2-5.55.18-.24L44,77.86l1-.59c.42-.25,10.38-6.12,12.32-13.13l.08-.29c12.12.28,14.12,4.87,14.12,15.39a1.58,1.58,0,0,0,3.15,0C74.71,67.21,71.76,60.69,56.23,60.69Z" transform="translate(-6.98)"/><rect class="cls-5" x="59.94" y="48.22" width="19.8" height="34.2"/><path class="cls-6" d="M72.08,76.39V39.28a4.64,4.64,0,0,1,4.63-4.63h70.42a4.64,4.64,0,0,1,4.63,4.63V76.39A4.64,4.64,0,0,1,147.13,81H76.71A4.64,4.64,0,0,1,72.08,76.39Zm4.63-39.34a2.23,2.23,0,0,0-2.23,2.23V76.39a2.23,2.23,0,0,0,2.23,2.23h70.42a2.23,2.23,0,0,0,2.23-2.23V39.28a2.23,2.23,0,0,0-2.23-2.23Z" transform="translate(-6.98)"/><path class="cls-6" d="M106.52,79.42h10.8v6.4h-10.8Zm8.4,2.4h-2.74v1.6h2.74Z" transform="translate(-6.98)"/><rect class="cls-6" x="91.32" y="84.28" width="41.2" height="1.6" transform="translate(216.86 170.17) rotate(-180)"/><path class="cls-4" d="M61.14,24.48a20.33,20.33,0,0,0-40.65,0c3.18,0,6.38,2.29,9.36,5.49,2.09,2.25,21,1.78,22.77,0C55.37,27.23,53.61,24.48,61.14,24.48Z" transform="translate(-6.98)"/><path class="cls-7" d="M49.79,14.58C49.76,4.24,48.3,1,40.81,1s-8.94,3.51-8.92,13.58" transform="translate(-6.98)"/><line class="cls-8" x1="14.3" y1="24.43" x2="53.16" y2="24.43"/><g id="Mode_Isolation-2" data-name="Mode Isolation"><path class="cls-9" d="M111.63,71.77a13.54,13.54,0,0,1-3.1-.37l-.39-.1V69a11.3,11.3,0,0,1-4.11-2.4l-2,1.15-.27-.29a13.51,13.51,0,0,1-3.11-5.34l-.12-.38,2-1.16a10.74,10.74,0,0,1,0-4.72l-2-1.2.11-.38a13.8,13.8,0,0,1,3.07-5.3l.27-.32,2,1.15a11.54,11.54,0,0,1,4.11-2.38V45.11l.44-.09a13.63,13.63,0,0,1,6.16,0l.39.09v2.3a11.5,11.5,0,0,1,4.2,2.4l2-1.16.27.28a13.59,13.59,0,0,1,3.1,5.33l.12.38-2,1.16a10.54,10.54,0,0,1,.28,2.43,11.52,11.52,0,0,1-.29,2.42l2,1.15-.12.38a13.62,13.62,0,0,1-3.06,5.33l-.27.28-2-1.14a11.36,11.36,0,0,1-4.2,2.4v2.3l-.39.09A13.88,13.88,0,0,1,111.63,71.77Zm-2.54-1.26a12.83,12.83,0,0,0,4.94,0V68.28l.36-.1a10.32,10.32,0,0,0,4.42-2.53l.27-.26,2,1.13a12.46,12.46,0,0,0,2.45-4.25l-2-1.13.09-.37a10.4,10.4,0,0,0,0-5.12l-.1-.36,2-1.14a12.78,12.78,0,0,0-2.48-4.26l-2,1.13-.27-.26a10.47,10.47,0,0,0-4.41-2.52l-.37-.1V45.88a12.45,12.45,0,0,0-4.94,0v2.29l-.36.1a10.51,10.51,0,0,0-4.3,2.54l-.27.26-1.95-1.13a12.81,12.81,0,0,0-2.46,4.28l2,1.14-.09.36a10.08,10.08,0,0,0,0,5l.09.37-2,1.13a12.79,12.79,0,0,0,2.46,4.28l1.95-1.15.27.26a10.21,10.21,0,0,0,4.33,2.53l.36.11Zm2.53-7a5.3,5.3,0,1,1,5.3-5.3h0A5.3,5.3,0,0,1,111.62,63.51Zm0-9.6a4.3,4.3,0,1,0,4.3,4.3h0A4.31,4.31,0,0,0,111.62,53.91Z" transform="translate(-6.98)"/></g></g></g></g></svg>