<svg xmlns="http://www.w3.org/2000/svg" xmlns:xlink="http://www.w3.org/1999/xlink" viewBox="0 0 388.63 115.38"><defs><style>.cls-1{fill:url(#Dégradé_sans_nom_16);}.cls-2{fill:url(#Dégradé_sans_nom_16-2);}.cls-3{fill:url(#Dégradé_sans_nom_16-3);}.cls-4{fill:url(#Dégradé_sans_nom_16-4);}.cls-5{fill:url(#Dégradé_sans_nom_16-5);}</style><linearGradient id="Dégradé_sans_nom_16" x1="105.2" y1="35.81" x2="105.2" y2="114.04" gradientUnits="userSpaceOnUse"><stop offset="0.02" stop-color="#207eab"/><stop offset="0.25" stop-color="#207eab"/><stop offset="0.51" stop-color="#106192"/><stop offset="0.77" stop-color="#294d70"/><stop offset="1" stop-color="#1f3653"/></linearGradient><linearGradient id="Dégradé_sans_nom_16-2" x1="352.25" y1="35.81" x2="352.25" y2="114.04" xlink:href="#Dégradé_sans_nom_16"/><linearGradient id="Dégradé_sans_nom_16-3" x1="210.59" y1="35.81" x2="210.59" y2="114.04" xlink:href="#Dégradé_sans_nom_16"/><linearGradient id="Dégradé_sans_nom_16-4" x1="283.99" y1="35.81" x2="283.99" y2="114.04" xlink:href="#Dégradé_sans_nom_16"/><linearGradient id="Dégradé_sans_nom_16-5" x1="18.19" y1="35.81" x2="18.19" y2="114.04" xlink:href="#Dégradé_sans_nom_16"/></defs><title>Fichier 1</title><g id="Calque_2" data-name="Calque 2"><g id="Calque_2-2" data-name="Calque 2"><path class="cls-1" d="M133.55,42a36.29,36.29,0,0,0-28.35,13.6,36.38,36.38,0,1,0,0,45.56A36.38,36.38,0,1,0,133.55,42ZM76.84,98.67A20.33,20.33,0,1,1,97.17,78.34,20.33,20.33,0,0,1,76.84,98.67Zm56.71,0a20.33,20.33,0,1,1,20.34-20.33A20.33,20.33,0,0,1,133.55,98.67Z"/><path class="cls-2" d="M352.25,42a36.38,36.38,0,1,0,36.38,36.38A36.38,36.38,0,0,0,352.25,42Zm0,56.71a20.33,20.33,0,1,1,20.34-20.33A20.33,20.33,0,0,1,352.25,98.67Z"/><path class="cls-3" d="M230.91,48.17A36.38,36.38,0,1,0,247,78.34h0V0H230.91Zm-20.33,50.5a20.33,20.33,0,1,1,20.33-20.33A20.34,20.34,0,0,1,210.58,98.67Z"/><path class="cls-4" d="M288.49,98.67a20.31,20.31,0,0,1-18.64-12.24H297.2V70.25H269.85a20.3,20.3,0,0,1,32.6-6.67l13.42-9.15a36.38,36.38,0,1,0,0,47.82L302.45,93.1A20.25,20.25,0,0,1,288.49,98.67Z"/><path class="cls-5" d="M0,78.34v37H16.08v-37h0A20.33,20.33,0,0,1,36.38,58V42A36.38,36.38,0,0,0,0,78.34Z"/></g></g></svg>