<svg xmlns="http://www.w3.org/2000/svg" width="44" height="32" viewBox="0 0 44 32">
  <metadata><?xpacket begin="﻿" id="W5M0MpCehiHzreSzNTczkc9d"?>
<x:xmpmeta xmlns:x="adobe:ns:meta/" x:xmptk="Adobe XMP Core 5.6-c138 79.159824, 2016/09/14-01:09:01        ">
   <rdf:RDF xmlns:rdf="http://www.w3.org/1999/02/22-rdf-syntax-ns#">
      <rdf:Description rdf:about=""/>
   </rdf:RDF>
</x:xmpmeta>
                                                                                                    
                                                                                                    
                                                                                                    
                                                                                                    
                                                                                                    
                                                                                                    
                                                                                                    
                                                                                                    
                                                                                                    
                                                                                                    
                                                                                                    
                                                                                                    
                                                                                                    
                                                                                                    
                                                                                                    
                                                                                                    
                                                                                                    
                                                                                                    
                                                                                                    
                                                                                                    
                           
<?xpacket end="w"?></metadata>
<defs>
    <style>
      .cls-1 {
        fill: #f2bb13;
        fill-rule: evenodd;
      }
    </style>
  </defs>
  <path id="Technical_Assessment_44x32" class="cls-1" d="M2063,1103h-23a1,1,0,0,1-1-1v-30a1,1,0,0,1,1-1h5.37a1.134,1.134,0,0,1,.32.06,1.066,1.066,0,0,1,.31-0.06h10a1.066,1.066,0,0,1,.31.06,1.2,1.2,0,0,1,.32-0.06H2063a1,1,0,0,1,1,1v30A1,1,0,0,1,2063,1103Zm-8-30h-7v1a1,1,0,0,0,1,1h5a1,1,0,0,0,1-1v-1Zm7,0h-5v1a3.009,3.009,0,0,1-3,3h-5a3,3,0,0,1-3-3v-1a1.066,1.066,0,0,1-.31-0.06,1.134,1.134,0,0,1-.32.06H2041v28h21v-28Zm-18.71,19.29a1.008,1.008,0,0,1,1.42,0l1.29,1.3,1.29-1.3a1,1,0,0,1,1.41,0,1.008,1.008,0,0,1,0,1.42l-1.29,1.29,1.29,1.29a1,1,0,0,1-.7,1.71,1.024,1.024,0,0,1-.71-0.29l-1.29-1.3-1.29,1.3a1.042,1.042,0,0,1-.71.29,1.024,1.024,0,0,1-.71-0.29,1.008,1.008,0,0,1,0-1.42l1.29-1.29-1.29-1.29A1.008,1.008,0,0,1,2043.29,1092.29Zm2.74-1.29a0.968,0.968,0,0,1-.69-0.28l-2.03-1.94a1,1,0,0,1-.04-1.41,1.008,1.008,0,0,1,1.42-.03l1.32,1.26,2.28-2.3a1,1,0,0,1,1.42,1.4l-2.97,3A1.01,1.01,0,0,1,2046.03,1091Zm6.97-9h6a1,1,0,0,1,0,2h-6A1,1,0,0,1,2053,1082Zm0,6h6a1,1,0,0,1,0,2h-6A1,1,0,0,1,2053,1088Zm0,6h6a1,1,0,0,1,0,2h-6A1,1,0,0,1,2053,1094Zm-6.26-9.3a1.01,1.01,0,0,1-.71.3,0.968,0.968,0,0,1-.69-0.28l-2.03-1.94a1,1,0,0,1-.04-1.41,1.008,1.008,0,0,1,1.42-.03l1.32,1.26,2.28-2.3a1,1,0,0,1,1.42,1.4Zm-13.73,17.43-0.43-3.32a12.449,12.449,0,0,1-2.48-1.02l-2.68,2.02a0.99,0.99,0,0,1-1.3-.08l-2.78-2.76a1,1,0,0,1-.11-1.3l1.99-2.73a11.941,11.941,0,0,1-1.05-2.54l-3.29-.41a1,1,0,0,1-.88-0.99v-4a0.994,0.994,0,0,1,.87-0.99l3.32-.42a12.205,12.205,0,0,1,1.06-2.53l-2.06-2.62a1,1,0,0,1,.08-1.32l2.76-2.78a0.982,0.982,0,0,1,1.31-.09l2.7,2.05a11.653,11.653,0,0,1,2.53-1.05l0.44-3.38a0.987,0.987,0,0,1,.99-0.87h3v2h-2.12l-0.42,3.18a0.989,0.989,0,0,1-.77.84,10.144,10.144,0,0,0-3.19,1.33,1.012,1.012,0,0,1-1.14-.05l-2.53-1.93-1.52,1.53,1.93,2.47a0.993,0.993,0,0,1,.06,1.16,9.975,9.975,0,0,0-1.34,3.19,1.014,1.014,0,0,1-.85.77l-3.11.39v2.24l3.09,0.38a0.989,0.989,0,0,1,.85.77,10.272,10.272,0,0,0,1.32,3.2,1,1,0,0,1-.03,1.12l-1.87,2.56,1.55,1.55,2.52-1.91a1,1,0,0,1,1.13-.05,10.117,10.117,0,0,0,3.14,1.29,1,1,0,0,1,.77.85l0.41,3.12H2037v2h-3A0.987,0.987,0,0,1,2033.01,1102.13Zm-3.01-15.11a6,6,0,0,1,6-6h1v2h-1a4,4,0,0,0,0,8h1v2h-1A6,6,0,0,1,2030,1087.02Z" transform="translate(-2020 -1071)"/>
</svg>
