<?xml version="1.0" encoding="utf-8"?>
<!-- Generator: Adobe Illustrator 23.1.1, SVG Export Plug-In . SVG Version: 6.00 Build 0)  -->
<svg version="1.1" xmlns="http://www.w3.org/2000/svg" xmlns:xlink="http://www.w3.org/1999/xlink" x="0px" y="0px"
	 viewBox="0 0 374.6 228.9" style="enable-background:new 0 0 374.6 228.9;" xml:space="preserve">
<style type="text/css">
	.st0{opacity:0.7;}
	.st1{fill:#3D3D3D;}
	.st2{fill:none;}
	.st3{fill:#C6D9E5;}
	.st4{fill:#1F7EAB;}
	.st5{fill:#E34E26;}
	.st6{fill:#FFFFFF;}
</style>
<g id="Calque_1">
</g>
<g id="Mode_Isolation">
	<g>
		<g>
			<g>
				<g>
					<g id="XMLID_403_" class="st0">
						<g id="XMLID_404_">
							<g>
							</g>
						</g>
					</g>
					<g id="XMLID_330_">
						<g>
							<path class="st2" d="M103.6,156.5c-1.7-1.6-3-3.9-4-6.7c-3.1,1.8-6.8,2.8-11.2,2.8c-4.4,0-8.1-1-11.2-2.8
								c-0.9,2.9-2.2,5.1-4,6.7c5.2,5.4,11.6,10.9,15.2,10.9C92,167.4,98.4,162,103.6,156.5z"/>
							<path class="st2" d="M70.2,158.5c-0.4-0.4-1-1.2-1-1.2s-1.3,1.6-1.6,2l-0.6,0.7c2.6,7.1,11.7,13.6,15.3,16l3.3-5.5
								C80.5,168.7,74.4,163,70.2,158.5z"/>
							<path class="st2" d="M107.4,157.6c0,0-0.5,0.6-0.7,0.9c-4.2,4.5-10.3,10.2-15.4,12l3.3,5.5c3.6-2.4,12.7-8.9,15.3-16
								l-0.6-0.7C108.8,158.9,107.4,157.6,107.4,157.6z"/>
							<path class="st2" d="M88.4,147.5c0,0,12,0.6,17.6-12.2c3-7.8,3.7-10.7,4.5-18c0.3-2.8,0.5-5.3,0.6-7.5
								c-20.3-0.5-32.6-7.8-38.1-12.1c0,0,0,0,0,0c-0.7-0.6-1.4-1.4-1.8-2.3l0.6,3.2c-2.7,2.2-4.8,5.5-6.3,8.5
								c0,2.9,0.3,6.3,0.7,10.3c0.8,7.3,2.3,13.3,4.5,18C74.6,146.8,88.4,147.5,88.4,147.5z"/>
						</g>
						<path class="st3" d="M250.4,103.9H143.1c-3.9,0-7.1,3.2-7.1,7.1v56.6c0,3.9,3.2,7.1,7.1,7.1h45.4v5h-23.2v2.4h62.8v-2.4H205
							v-5h45.4c3.9,0,7.1-3.2,7.1-7.1v-56.6C257.5,107.1,254.3,103.9,250.4,103.9z M201.3,175.8v2.4h-4.2v-2.4H201.3z M253.8,167.5
							c0,1.9-1.5,3.4-3.4,3.4H143.1c-1.9,0-3.4-1.5-3.4-3.4v-56.6c0-1.9,1.5-3.4,3.4-3.4h107.3c1.9,0,3.4,1.5,3.4,3.4V167.5z"/>
					</g>
					<path class="st4" d="M111.9,154.7c-0.9,0-1.7-0.1-2.4-0.3l-1.7-0.7c-2.3-1.4-3.4-4.1-4-6.9c0,0,9,0.9,9.7,4
						c0.7,3,4-39.4,2.5-48.7c-0.5-5.2-1.8-9.4-4.7-12.6c-3-3.4-7.5-5.4-14.1-6.2c-2.6-0.4-5.5-0.7-8.8-0.7c-3.4,0-6.4,0.3-9.1,0.7
						c-6.4,0.9-10.7,2.9-13.7,6.2c-2.8,3.2-4.2,7.4-4.7,12.6c-1.6,9.2,1.4,51.8,2.1,48.7c0.7-3.1,9.7-4,9.7-4l-0.1-0.5
						c0.2,0.2,0.3,0.3,0.5,0.5c-0.7,2.8-1.7,5.5-4,6.9l-1.7,0.7c-0.7,0.2-1.5,0.3-2.4,0.3c-23.7,0-28.2,9.9-28.2,28.3
						c0,1.3,1.1,2.4,2.4,2.4s2.4-1.1,2.4-2.4c0-16,3-23,21.5-23.4l0.1,0.4c3,10.7,18.1,19.6,18.8,20l1.5,0.9l2.1-3.5l2.7-5l2.8,5
						l2.1,3.5l1.5-0.9c0.6-0.4,15.8-9.3,18.8-20l0.1-0.4c6.6,0.2,11.2,1.1,14.4,3.1v-5.3C124.2,155.6,118.9,154.7,111.9,154.7z
						 M70.8,135.3c-0.4-0.9-0.8-1.8-1.2-2.8L66.2,117c-0.4-3.8-0.6-7.1-0.7-9.9c1.4-2.9,3.5-6.3,6.3-8.5l-0.6-3.2
						c0.4,0.9,1.2,1.7,1.8,2.3c0,0,0,0,0,0c5.5,4.3,17.8,11.7,38.1,12.1c-0.1,1.3-0.2,2.7-0.3,4.2l-4.4,20.1
						c-0.1,0.4-0.3,0.8-0.5,1.2c-5.6,12.8-17.6,12.2-17.6,12.2S74.6,146.8,70.8,135.3z M82.3,175.9c-3.6-2.4-12.7-8.9-15.3-16
						l0.6-0.7c0.3-0.4,1.6-2,1.6-2s0.6,0.8,1,1.2c4.2,4.5,10.3,10.2,15.4,12L82.3,175.9z M88.4,167.4c-3.6,0-10-5.4-15.2-10.9
						c1.7-1.6,3-3.9,4-6.7c3.1,1.8,6.8,2.8,11.2,2.8c4.4,0,8.1-1,11.2-2.8c0.9,2.9,2.3,5.1,4,6.7C98.4,162,92,167.4,88.4,167.4z
						 M94.5,175.9l-3.3-5.5c5.1-1.7,11.2-7.5,15.4-12c0.2-0.3,0.7-0.9,0.7-0.9s1.4,1.3,1.9,1.7l0.6,0.7
						C107.3,167.1,98.2,173.6,94.5,175.9z"/>
				</g>
			</g>
			<g>
				<g>
					<g>
						<g>
							<path class="st5" d="M174.7,141.9h-1c-0.6,0-1-0.4-1-1s0.4-1,1-1h1c0.6,0,1,0.4,1,1S175.2,141.9,174.7,141.9z"/>
						</g>
						<g>
							<path class="st5" d="M208.3,141.9h-1.9c-0.6,0-1-0.4-1-1s0.4-1,1-1h1.9c0.6,0,1,0.4,1,1S208.8,141.9,208.3,141.9z
								 M201.6,141.9h-1.9c-0.6,0-1-0.4-1-1s0.4-1,1-1h1.9c0.6,0,1,0.4,1,1S202.1,141.9,201.6,141.9z M194.9,141.9h-1.9
								c-0.6,0-1-0.4-1-1s0.4-1,1-1h1.9c0.6,0,1,0.4,1,1S195.4,141.9,194.9,141.9z M188.1,141.9h-1.9c-0.6,0-1-0.4-1-1s0.4-1,1-1
								h1.9c0.6,0,1,0.4,1,1S188.7,141.9,188.1,141.9z M181.4,141.9h-1.9c-0.6,0-1-0.4-1-1s0.4-1,1-1h1.9c0.6,0,1,0.4,1,1
								S182,141.9,181.4,141.9z"/>
						</g>
						<g>
							<path class="st5" d="M214.1,141.9h-1c-0.6,0-1-0.4-1-1s0.4-1,1-1h1c0.6,0,1,0.4,1,1S214.6,141.9,214.1,141.9z"/>
						</g>
					</g>
					<g>
						<g>
							<path class="st5" d="M164.2,128.2h-1c-0.6,0-1-0.4-1-1s0.4-1,1-1h1c0.6,0,1,0.4,1,1S164.8,128.2,164.2,128.2z"/>
						</g>
						<g>
							<path class="st5" d="M207.9,128.2h-2.1c-0.6,0-1-0.4-1-1s0.4-1,1-1h2.1c0.6,0,1,0.4,1,1S208.4,128.2,207.9,128.2z
								 M200.6,128.2h-2.1c-0.6,0-1-0.4-1-1s0.4-1,1-1h2.1c0.6,0,1,0.4,1,1S201.2,128.2,200.6,128.2z M193.3,128.2h-2.1
								c-0.6,0-1-0.4-1-1s0.4-1,1-1h2.1c0.6,0,1,0.4,1,1S193.9,128.2,193.3,128.2z M186,128.2H184c-0.6,0-1-0.4-1-1s0.4-1,1-1h2.1
								c0.6,0,1,0.4,1,1S186.6,128.2,186,128.2z M178.8,128.2h-2.1c-0.6,0-1-0.4-1-1s0.4-1,1-1h2.1c0.6,0,1,0.4,1,1
								S179.3,128.2,178.8,128.2z M171.5,128.2h-2.1c-0.6,0-1-0.4-1-1s0.4-1,1-1h2.1c0.6,0,1,0.4,1,1S172,128.2,171.5,128.2z"/>
						</g>
						<g>
							<path class="st5" d="M214.1,128.2h-1c-0.6,0-1-0.4-1-1s0.4-1,1-1h1c0.6,0,1,0.4,1,1S214.6,128.2,214.1,128.2z"/>
						</g>
					</g>
					<g>
						<g>
							<path class="st5" d="M174.7,156.6h-1c-0.6,0-1-0.4-1-1s0.4-1,1-1h1c0.6,0,1,0.4,1,1S175.2,156.6,174.7,156.6z"/>
						</g>
						<g>
							<path class="st5" d="M216.3,156.6h-2c-0.6,0-1-0.4-1-1s0.4-1,1-1h2c0.6,0,1,0.4,1,1S216.9,156.6,216.3,156.6z M209.4,156.6
								h-2c-0.6,0-1-0.4-1-1s0.4-1,1-1h2c0.6,0,1,0.4,1,1S209.9,156.6,209.4,156.6z M202.5,156.6h-2c-0.6,0-1-0.4-1-1s0.4-1,1-1h2
								c0.6,0,1,0.4,1,1S203,156.6,202.5,156.6z M195.5,156.6h-2c-0.6,0-1-0.4-1-1s0.4-1,1-1h2c0.6,0,1,0.4,1,1
								S196.1,156.6,195.5,156.6z M188.6,156.6h-2c-0.6,0-1-0.4-1-1s0.4-1,1-1h2c0.6,0,1,0.4,1,1S189.1,156.6,188.6,156.6z
								 M181.6,156.6h-2c-0.6,0-1-0.4-1-1s0.4-1,1-1h2c0.6,0,1,0.4,1,1S182.2,156.6,181.6,156.6z"/>
						</g>
						<g>
							<path class="st5" d="M222.3,156.6h-1c-0.6,0-1-0.4-1-1s0.4-1,1-1h1c0.6,0,1,0.4,1,1S222.8,156.6,222.3,156.6z"/>
						</g>
					</g>
				</g>
				<g id="XMLID_327_">
					<path class="st5" d="M242.5,154.3c-0.2-0.2-0.4-0.5-0.9-0.7l-11.1-6.6c-0.2-0.1-0.4-0.2-0.6-0.2c-0.4,0-0.8,0.3-1,0.8l-0.2,0.7
						c0,0.4,0.2,0.7,0.6,0.9l10.6,6.2l-10.6,6.3c-0.4,0.2-0.6,0.5-0.6,0.9l0.2,0.7c0.3,0.5,0.6,0.7,1,0.7l0.6-0.2l11.1-6.7
						c0.4-0.2,0.7-0.5,0.8-0.7c0.2-0.3,0.3-0.6,0.3-1C242.8,154.9,242.7,154.5,242.5,154.3z"/>
				</g>
				<g id="XMLID_325_">
					<path class="st5" d="M159.4,118.3l-11.1,6.6c-0.4,0.3-0.7,0.5-0.9,0.7c-0.2,0.3-0.3,0.6-0.3,1c0,0.4,0.1,0.7,0.3,1
						c0.2,0.2,0.5,0.5,0.9,0.7l11.1,6.7c0.2,0.1,0.4,0.2,0.6,0.2c0.4,0,0.8-0.3,1-0.7l0.2-0.7c0-0.4-0.2-0.7-0.5-0.9l-10.6-6.3
						l10.6-6.2c0.4-0.2,0.6-0.5,0.6-0.9c0-0.3-0.1-0.5-0.2-0.7c-0.2-0.5-0.6-0.8-1-0.8L159.4,118.3"/>
				</g>
			</g>
		</g>
		<g>
			<g>
				<g>
					<g>
						<path id="XMLID_322_" class="st4" d="M309.2,147.9c1.1,2.5,2.3,5.1,4,6.7c-5.2,5.4-11.6,5.7-15.2,5.7c-3.6,0-10-0.3-15.2-5.7
							c1.7-1.6,3.6-5.8,4.3-8.2c0.5-1.9,0.3-3.2-1-4.9c-1.7-2.2,0.8,1.3,0.8,1.3c0.4,0.9,0.8,0.3,1.4,0.9c0,0,0.1-3.6,0.1-3.6
							c5.5,4.3,11.7,12.7,14.7-0.3c-2.4,10.5,3,0.1,2.7,2.9c-0.5,4.7,12-11.4,6.1-4c-0.4,0.5-0.7,0.9-1.1,1.3
							C309,142.1,307.9,144.3,309.2,147.9z M323.6,157.5c16.2,0.5,21.2,7.6,21.2,23.6c0,1.3,1.1,2.4,2.4,2.4c1.3,0,2.4-1.1,2.4-2.4
							c0-18.3-4.5-28.3-28.2-28.3c-0.9,0-1.7-0.1-2.4-0.3l-1.7-0.7c-2.3-1.4-3.4-4.1-4-6.9c7.9-7.4,10.7-20.1,11.6-28.9
							c1.4-12.8,1.2-22.5-4.1-28.5c-3-3.4-7.5-5.4-14.1-6.2c-2.6-0.4-5.5-0.7-8.8-0.7c-3.4,0-6.4,0.3-9.1,0.7
							c-6.4,0.9-10.7,2.9-13.7,6.2c-5.4,6-5.5,15.7-4.1,28.5c1,8.8,3.7,21.5,11.6,28.9c-0.7,2.8-1.7,5.5-4,6.9l-1.7,0.7
							c-0.7,0.2-1.5,0.3-2.4,0.3c-23.7,0-28.2,9.9-28.2,28.3c0,1.3,1.1,2.4,2.4,2.4s2.4-1.1,2.4-2.4c0-16,3.8-23.3,21.5-23.8
							c4-0.1,6.1-0.9,6.4-0.5c4.4,4.5,12.6,7.3,19.5,7.3c7.9,0,13.8-3,18-7.5C316.9,156.4,319.1,157.4,323.6,157.5z"/>
					</g>
				</g>
			</g>
			<path id="XMLID_99_" class="st6" d="M251.2,181.1c0-16,3.8-23.3,21.5-23.8c4-0.1,6.1-0.9,6.4-0.5c4.4,4.5,12.6,7.3,19.5,7.3"/>
		</g>
		<g>
			<g>
				<g>
					<g>
						<path class="st5" d="M125.8,95.4l2.7-10.5c-7.8-5.5-12.4-14.4-12.4-24c0-16.2,13.2-29.3,29.3-29.3c16.2,0,29.3,13.2,29.3,29.3
							c0,16.2-13.2,29.3-29.3,29.3c-3.7,0-7.2-0.7-10.6-2L125.8,95.4z M145.4,33.6c-15.1,0-27.3,12.3-27.3,27.3
							c0,9.1,4.5,17.6,12.1,22.7l0.6,0.4l-1.6,6.1l5.2-4.1l0.5,0.2c3.3,1.4,6.8,2,10.4,2c15.1,0,27.3-12.3,27.3-27.3
							C172.7,45.9,160.4,33.6,145.4,33.6z"/>
					</g>
				</g>
			</g>
		</g>
		<g>
			<g>
				<path class="st5" d="M153.3,68.3c-0.3,0-0.6-0.2-0.8-0.4l-4.6-6.5c-0.3-0.5-0.2-1.1,0.2-1.4c0.5-0.3,1.1-0.2,1.4,0.2l3.7,5.2
					l6.2-11.2c0.3-0.5,0.9-0.7,1.4-0.4c0.5,0.3,0.7,0.9,0.4,1.4l-7,12.6C154,68.1,153.7,68.3,153.3,68.3
					C153.4,68.3,153.4,68.3,153.3,68.3z"/>
			</g>
			<g>
				<g>
					<g>
						<line class="st6" x1="140.8" y1="67.9" x2="132.3" y2="59.4"/>
						<path class="st5" d="M140.8,68.9c-0.3,0-0.5-0.1-0.7-0.3l-8.5-8.5c-0.4-0.4-0.4-1,0-1.4s1-0.4,1.4,0l8.5,8.5
							c0.4,0.4,0.4,1,0,1.4C141.3,68.8,141.1,68.9,140.8,68.9z"/>
					</g>
					<g>
						<line class="st6" x1="132.3" y1="67.9" x2="140.8" y2="59.4"/>
						<path class="st5" d="M132.3,68.9c-0.3,0-0.5-0.1-0.7-0.3c-0.4-0.4-0.4-1,0-1.4l8.5-8.5c0.4-0.4,1-0.4,1.4,0s0.4,1,0,1.4
							l-8.5,8.5C132.9,68.8,132.6,68.9,132.3,68.9z"/>
					</g>
				</g>
			</g>
		</g>
	</g>
</g>
</svg>
