<svg xmlns="http://www.w3.org/2000/svg" viewBox="0 0 371.5 375.2"><defs><style>.cls-1{opacity:0.1;}.cls-2{fill:#227fad;}.cls-3{fill:#e9f1f4;}.cls-4{fill:#2a4f71;}.cls-5{fill:#e34f27;}.cls-6,.cls-8{fill:#1f3552;}.cls-7{fill:#fff;}.cls-8{font-size:12px;font-family:Poppins-Medium, Poppins;font-weight:500;letter-spacing:0.05em;}</style></defs><title>Fichier 4</title><g id="Calque_2" data-name="Calque 2"><g id="NOTIFICATIONS"><g class="cls-1"><path class="cls-2" d="M17.8,79.23Q7.3,68.73,5.42,58.32T12.9,38.56q9.3-9.29,19.73-7.44T53.57,43.47Q64.13,54,66,64.5T58.6,84.26q-9.36,9.36-19.8,7.44T17.8,79.23Zm25-25q-6-6-10.69-7.82t-8.85,2.42q-4.26,4.26-2.48,9t7.76,10.69q6.06,6,10.79,7.86t9-2.45q4.2-4.2,2.35-8.91T42.75,54.28Z"/><path class="cls-2" d="M45,28.38,34.79,18.2,53,0,98,45,86.53,56.45,51.72,21.64Z"/></g><path class="cls-3" d="M185.62,374.82A185.12,185.12,0,0,0,361.88,133.49H9.37A184.94,184.94,0,0,0,.62,189.82C.62,292,83.45,374.82,185.62,374.82Z"/><path class="cls-4" d="M185.75,375.2C83.33,375.2,0,291.88,0,189.45a183.82,183.82,0,0,1,19.56-83,.74.74,0,0,1,1-.33.75.75,0,0,1,.34,1A182.38,182.38,0,0,0,1.5,189.45c0,101.6,82.65,184.25,184.25,184.25S370,291.05,370,189.45,287.35,5.2,185.75,5.2A182.38,182.38,0,0,0,103.8,24.39a.75.75,0,0,1-.67-1.35A183.94,183.94,0,0,1,185.75,3.7C288.17,3.7,371.5,87,371.5,189.45S288.17,375.2,185.75,375.2Z"/><path class="cls-5" d="M284.34,276.79a1,1,0,0,1-.82-.42l-20.23-28.44a1,1,0,0,1,1.62-1.16l19.32,27.14,29.84-53.79a1,1,0,0,1,1.75,1l-30.61,55.18a1,1,0,0,1-.82.52Z"/><path class="cls-6" d="M110.48,79.44v4.11h-1.71V73h3.6a3.91,3.91,0,0,1,2.76.87,3.13,3.13,0,0,1,.92,2.38,3.07,3.07,0,0,1-1,2.37,3.94,3.94,0,0,1-2.73.86Zm3.83-3.23a1.81,1.81,0,0,0-.5-1.37,2.36,2.36,0,0,0-1.62-.47h-1.71V78h1.71C113.6,78,114.31,77.43,114.31,76.21Z"/><path class="cls-6" d="M123.86,83.55l-2.64-4.23H120v4.23H118.3V73H122a3.89,3.89,0,0,1,2.76.88,3.08,3.08,0,0,1,.93,2.34,3,3,0,0,1-.69,2,3.34,3.34,0,0,1-2,1l2.77,4.31ZM120,78.1h1.89q2.07,0,2.07-1.83a1.76,1.76,0,0,0-.51-1.35,2.13,2.13,0,0,0-1.56-.49H120Z"/><path class="cls-6" d="M129.73,74.34v3.21h3.9v1.32h-3.9v3.28h4.35v1.4H128V73h6.06v1.38Zm3.7-3.72-3.31,1.69v-1.2l3.31-1.83Z"/><path class="cls-6" d="M138.2,79.44v4.11h-1.71V73h3.6a3.86,3.86,0,0,1,2.75.87,3.47,3.47,0,0,1,0,4.75,3.94,3.94,0,0,1-2.73.86ZM142,76.21a1.78,1.78,0,0,0-.51-1.37,2.31,2.31,0,0,0-1.61-.47H138.2V78h1.71C141.32,78,142,77.43,142,76.21Z"/><path class="cls-6" d="M152.33,81.25h-4.47l-.81,2.3h-1.83l3.9-10.43h2L155,83.55h-1.83Zm-.48-1.32-1.75-5-1.76,5Z"/><path class="cls-6" d="M162.56,83.55l-2.64-4.23h-1.21v4.23H157V73h3.73a3.85,3.85,0,0,1,2.75.88,3.05,3.05,0,0,1,.94,2.34,3,3,0,0,1-.7,2,3.29,3.29,0,0,1-2,1l2.77,4.31Zm-3.85-5.45h1.89q2.07,0,2.07-1.83a1.76,1.76,0,0,0-.51-1.35,2.13,2.13,0,0,0-1.56-.49h-1.89Z"/><path class="cls-6" d="M168.43,74.34v3.21h3.9v1.32h-3.9v3.28h4.35v1.4h-6.06V73h6.06v1.38Z"/><path class="cls-6" d="M176.69,82.15h5.14v1.4h-7V82.21l5-7.86h-4.94V73h6.87v1.33Z"/><path class="cls-6" d="M189.57,73l3.05,8.76L195.68,73h1.86l-3.83,10.59h-2.19L187.71,73Z"/><path class="cls-6" d="M207.13,73.51A5,5,0,0,1,209,75.44a6.1,6.1,0,0,1,0,5.6A5,5,0,0,1,207.13,83a5.11,5.11,0,0,1-2.66.7,5.18,5.18,0,0,1-2.68-.7A5.05,5.05,0,0,1,199.91,81a6,6,0,0,1,0-5.6,5.05,5.05,0,0,1,1.88-1.93,5.27,5.27,0,0,1,2.68-.69A5.2,5.2,0,0,1,207.13,73.51Zm-4.48,1.37a3.11,3.11,0,0,0-1.23,1.33,4.78,4.78,0,0,0,0,4.05,3.14,3.14,0,0,0,1.23,1.34,3.54,3.54,0,0,0,1.82.46,3.43,3.43,0,0,0,1.79-.46,3.14,3.14,0,0,0,1.23-1.34,4.88,4.88,0,0,0,0-4.05,3.11,3.11,0,0,0-1.23-1.33,3.44,3.44,0,0,0-1.79-.47A3.55,3.55,0,0,0,202.65,74.88Z"/><path class="cls-6" d="M218.75,82.18a2.75,2.75,0,0,1-1.14,1.07,4,4,0,0,1-1.88.4,4.59,4.59,0,0,1-1.93-.38,3.34,3.34,0,0,1-1.37-1.07,3,3,0,0,1-.58-1.59h1.83a1.89,1.89,0,0,0,.59,1.18,1.94,1.94,0,0,0,1.39.5,1.66,1.66,0,0,0,1.21-.42,1.46,1.46,0,0,0,.42-1.08,1.4,1.4,0,0,0-.31-.94,2.28,2.28,0,0,0-.78-.58c-.31-.14-.74-.3-1.28-.48a11.3,11.3,0,0,1-1.61-.63,3,3,0,0,1-1.06-.91,2.64,2.64,0,0,1-.43-1.58,2.6,2.6,0,0,1,1.62-2.49,4.25,4.25,0,0,1,1.8-.36,3.92,3.92,0,0,1,2.57.78,2.92,2.92,0,0,1,1.09,2h-1.85a1.9,1.9,0,0,0-3-1.08,1.28,1.28,0,0,0-.43,1,1.36,1.36,0,0,0,.3.9,2,2,0,0,0,.76.55c.3.14.72.29,1.25.47a11.27,11.27,0,0,1,1.64.64,3,3,0,0,1,1.08.94,2.68,2.68,0,0,1,.44,1.62A2.92,2.92,0,0,1,218.75,82.18Z"/><path class="cls-6" d="M232.65,73v1.38h-3v9.21H228V74.34H225V73Z"/><path class="cls-6" d="M236.39,74.34v3.21h3.9v1.32h-3.9v3.28h4.35v1.4h-6.06V73h6.06v1.38Z"/><path class="cls-6" d="M249.74,82.18a2.75,2.75,0,0,1-1.14,1.07,4,4,0,0,1-1.88.4,4.59,4.59,0,0,1-1.93-.38,3.34,3.34,0,0,1-1.37-1.07,3,3,0,0,1-.58-1.59h1.83a1.89,1.89,0,0,0,.59,1.18,1.94,1.94,0,0,0,1.39.5,1.66,1.66,0,0,0,1.21-.42,1.46,1.46,0,0,0,.42-1.08,1.4,1.4,0,0,0-.31-.94,2.28,2.28,0,0,0-.78-.58c-.31-.14-.74-.3-1.28-.48a11.3,11.3,0,0,1-1.61-.63,3,3,0,0,1-1.06-.91,2.64,2.64,0,0,1-.43-1.58,2.6,2.6,0,0,1,1.62-2.49,4.25,4.25,0,0,1,1.8-.36,3.92,3.92,0,0,1,2.57.78,2.92,2.92,0,0,1,1.09,2H248a1.9,1.9,0,0,0-3-1.08,1.28,1.28,0,0,0-.43,1,1.36,1.36,0,0,0,.3.9,2,2,0,0,0,.76.55c.3.14.72.29,1.25.47a11.27,11.27,0,0,1,1.64.64,3,3,0,0,1,1.08.94,2.68,2.68,0,0,1,.44,1.62A2.92,2.92,0,0,1,249.74,82.18Z"/><path class="cls-6" d="M259.38,73v1.38h-2.95v9.21H254.7V74.34h-2.94V73Z"/><path class="cls-6" d="M268,82.18a2.75,2.75,0,0,1-1.14,1.07,4,4,0,0,1-1.87.4,4.63,4.63,0,0,1-1.94-.38,3.3,3.3,0,0,1-1.36-1.07,3.05,3.05,0,0,1-.59-1.59h1.83a1.85,1.85,0,0,0,.6,1.18,1.9,1.9,0,0,0,1.38.5,1.65,1.65,0,0,0,1.21-.42,1.43,1.43,0,0,0,.43-1.08,1.41,1.41,0,0,0-.32-.94,2.28,2.28,0,0,0-.78-.58c-.31-.14-.73-.3-1.27-.48a10.84,10.84,0,0,1-1.61-.63,2.89,2.89,0,0,1-1.06-.91,2.64,2.64,0,0,1-.44-1.58,2.6,2.6,0,0,1,1.62-2.49,4.25,4.25,0,0,1,1.8-.36,4,4,0,0,1,2.58.78,3,3,0,0,1,1.08,2H266.3a1.79,1.79,0,0,0-.56-1,1.77,1.77,0,0,0-1.26-.43,1.69,1.69,0,0,0-1.15.37,1.29,1.29,0,0,0-.44,1,1.36,1.36,0,0,0,.3.9,2.13,2.13,0,0,0,.76.55c.31.14.72.29,1.25.47a11.94,11.94,0,0,1,1.65.64,3.12,3.12,0,0,1,1.08.94,2.75,2.75,0,0,1,.44,1.62A2.93,2.93,0,0,1,268,82.18Z"/><path class="cls-6" d="M109.94,107.25h-4.47l-.81,2.3h-1.83l3.9-10.43h2l3.88,10.43h-1.83Zm-.48-1.32-1.75-5-1.76,5Z"/><path class="cls-6" d="M115.67,99l3,8.76L121.78,99h1.86l-3.83,10.59h-2.19L113.81,99Z"/><path class="cls-6" d="M127.37,100.34v3.21h3.9v1.32h-3.9v3.28h4.35v1.4h-6.06V99h6.06v1.38Z"/><path class="cls-6" d="M142.1,99.84a4.85,4.85,0,0,1,1.74,2.69H142a3.18,3.18,0,0,0-1.2-1.52,3.4,3.4,0,0,0-2-.57,3.08,3.08,0,0,0-1.68.47,3.19,3.19,0,0,0-1.18,1.33,4.51,4.51,0,0,0-.42,2,4.57,4.57,0,0,0,.42,2,3.23,3.23,0,0,0,1.18,1.32,3.08,3.08,0,0,0,1.68.47,3.46,3.46,0,0,0,2-.56A3.25,3.25,0,0,0,142,106h1.81a4.82,4.82,0,0,1-1.74,2.68,5.22,5.22,0,0,1-3.24,1,5.15,5.15,0,0,1-2.65-.68,4.65,4.65,0,0,1-1.79-1.91,6.52,6.52,0,0,1,0-5.59,4.67,4.67,0,0,1,1.79-1.92,5.06,5.06,0,0,1,2.65-.69A5.17,5.17,0,0,1,142.1,99.84Z"/><path class="cls-6" d="M151.63,99l3,8.76L157.73,99h1.86l-3.82,10.59h-2.19L149.77,99Z"/><path class="cls-6" d="M169.18,99.51a5,5,0,0,1,1.88,1.93,6.1,6.1,0,0,1,0,5.6,5,5,0,0,1-1.88,1.93,5.11,5.11,0,0,1-2.66.7,5.18,5.18,0,0,1-2.68-.7A5.05,5.05,0,0,1,162,107a6,6,0,0,1,0-5.6,5.05,5.05,0,0,1,1.88-1.93,5.27,5.27,0,0,1,2.68-.69A5.2,5.2,0,0,1,169.18,99.51Zm-4.47,1.37a3.13,3.13,0,0,0-1.24,1.33,4.88,4.88,0,0,0,0,4.05,3.16,3.16,0,0,0,1.24,1.34,3.51,3.51,0,0,0,1.81.46,3.43,3.43,0,0,0,1.79-.46,3.14,3.14,0,0,0,1.23-1.34,4.78,4.78,0,0,0,0-4.05,3.11,3.11,0,0,0-1.23-1.33,3.44,3.44,0,0,0-1.79-.47A3.51,3.51,0,0,0,164.71,100.88Z"/><path class="cls-6" d="M180.8,108.18a2.75,2.75,0,0,1-1.14,1.07,4,4,0,0,1-1.87.4,4.63,4.63,0,0,1-1.94-.38,3.3,3.3,0,0,1-1.36-1.07,3.05,3.05,0,0,1-.59-1.59h1.83a1.89,1.89,0,0,0,.59,1.18,1.94,1.94,0,0,0,1.39.5,1.66,1.66,0,0,0,1.21-.42,1.47,1.47,0,0,0,.43-1.08,1.41,1.41,0,0,0-.32-.94,2.28,2.28,0,0,0-.78-.58c-.31-.14-.73-.3-1.27-.48a11.49,11.49,0,0,1-1.62-.63,2.94,2.94,0,0,1-1.05-.91,2.64,2.64,0,0,1-.44-1.58,2.6,2.6,0,0,1,1.62-2.49,4.25,4.25,0,0,1,1.8-.36,3.92,3.92,0,0,1,2.57.78,2.92,2.92,0,0,1,1.09,2h-1.84a1.75,1.75,0,0,0-.57-1,1.73,1.73,0,0,0-1.25-.43,1.69,1.69,0,0,0-1.15.37,1.29,1.29,0,0,0-.44,1,1.36,1.36,0,0,0,.3.9,2,2,0,0,0,.76.55c.3.14.72.29,1.25.47a11.27,11.27,0,0,1,1.64.64,3,3,0,0,1,1.08.94,2.68,2.68,0,0,1,.45,1.62A2.93,2.93,0,0,1,180.8,108.18Z"/><path class="cls-6" d="M196.13,111.54l-1.89-2.05a5.68,5.68,0,0,1-1.44.18,5.18,5.18,0,0,1-2.68-.7,5.05,5.05,0,0,1-1.88-1.93,6,6,0,0,1,0-5.6,5.05,5.05,0,0,1,1.88-1.93,5.27,5.27,0,0,1,2.68-.69,5.2,5.2,0,0,1,2.66.69,5,5,0,0,1,1.88,1.93,5.77,5.77,0,0,1,.68,2.8,5.68,5.68,0,0,1-.64,2.71,5,5,0,0,1-1.76,1.92l2.63,2.67Zm-6.38-5.28A3.16,3.16,0,0,0,191,107.6a3.51,3.51,0,0,0,1.81.46,3.43,3.43,0,0,0,1.79-.46,3.14,3.14,0,0,0,1.23-1.34,4.78,4.78,0,0,0,0-4.05,3.11,3.11,0,0,0-1.23-1.33,3.44,3.44,0,0,0-1.79-.47,3.51,3.51,0,0,0-1.81.47,3.13,3.13,0,0,0-1.24,1.33,4.88,4.88,0,0,0,0,4.05Z"/><path class="cls-6" d="M202.13,99v6.28a3.08,3.08,0,0,0,.62,2.1,2.25,2.25,0,0,0,1.75.69,2.2,2.2,0,0,0,1.73-.69,3,3,0,0,0,.63-2.1V99h1.71v6.28a4.47,4.47,0,0,1-1.13,3.3,4,4,0,0,1-3,1.11,4,4,0,0,1-2.94-1.11,4.51,4.51,0,0,1-1.11-3.3V99Z"/><path class="cls-6" d="M213,100.34v3.21h3.9v1.32H213v3.28h4.35v1.4h-6.06V99h6.06v1.38Z"/><path class="cls-6" d="M226.37,108.18a2.75,2.75,0,0,1-1.14,1.07,4,4,0,0,1-1.87.4,4.6,4.6,0,0,1-1.94-.38,3.34,3.34,0,0,1-1.37-1.07,3,3,0,0,1-.58-1.59h1.83a1.89,1.89,0,0,0,.59,1.18,1.94,1.94,0,0,0,1.39.5,1.66,1.66,0,0,0,1.21-.42,1.47,1.47,0,0,0,.43-1.08,1.41,1.41,0,0,0-.32-.94,2.28,2.28,0,0,0-.78-.58c-.31-.14-.74-.3-1.28-.48a11.3,11.3,0,0,1-1.61-.63,2.94,2.94,0,0,1-1.05-.91,2.57,2.57,0,0,1-.44-1.58,2.6,2.6,0,0,1,1.62-2.49,4.25,4.25,0,0,1,1.8-.36,3.92,3.92,0,0,1,2.57.78,2.92,2.92,0,0,1,1.09,2h-1.85a1.72,1.72,0,0,0-1.81-1.45,1.69,1.69,0,0,0-1.15.37,1.29,1.29,0,0,0-.44,1,1.36,1.36,0,0,0,.3.9,2,2,0,0,0,.76.55c.3.14.72.29,1.25.47a11.27,11.27,0,0,1,1.64.64,3,3,0,0,1,1.08.94,2.68,2.68,0,0,1,.45,1.62A2.93,2.93,0,0,1,226.37,108.18Z"/><path class="cls-6" d="M236,99v1.38h-2.95v9.21h-1.73v-9.21h-2.94V99Z"/><path class="cls-6" d="M239.75,99v10.59H238V99Z"/><path class="cls-6" d="M250.14,99.51a5,5,0,0,1,1.87,1.93,6,6,0,0,1,0,5.6,5,5,0,0,1-1.87,1.93,5.44,5.44,0,0,1-5.34,0,5,5,0,0,1-1.88-1.93,6,6,0,0,1,0-5.6,5,5,0,0,1,1.88-1.93,5.51,5.51,0,0,1,5.34,0Zm-4.48,1.37a3.19,3.19,0,0,0-1.24,1.33,4.88,4.88,0,0,0,0,4.05,3.22,3.22,0,0,0,1.24,1.34,3.77,3.77,0,0,0,3.61,0,3.26,3.26,0,0,0,1.23-1.34,4.88,4.88,0,0,0,0-4.05,3.24,3.24,0,0,0-1.23-1.33,3.7,3.7,0,0,0-3.61,0Z"/><path class="cls-6" d="M263.73,109.55H262l-5.14-7.82v7.82h-1.71V99h1.71l5.14,7.85V99h1.71Z"/><path class="cls-6" d="M273.14,108.18a2.75,2.75,0,0,1-1.14,1.07,4,4,0,0,1-1.88.4,4.59,4.59,0,0,1-1.93-.38,3.34,3.34,0,0,1-1.37-1.07,3,3,0,0,1-.58-1.59h1.83a1.89,1.89,0,0,0,.59,1.18,1.94,1.94,0,0,0,1.39.5,1.66,1.66,0,0,0,1.21-.42,1.46,1.46,0,0,0,.42-1.08,1.4,1.4,0,0,0-.31-.94,2.28,2.28,0,0,0-.78-.58c-.31-.14-.74-.3-1.28-.48a11.3,11.3,0,0,1-1.61-.63,3,3,0,0,1-1.06-.91,2.64,2.64,0,0,1-.43-1.58,2.6,2.6,0,0,1,1.62-2.49,4.25,4.25,0,0,1,1.8-.36,3.92,3.92,0,0,1,2.57.78,2.92,2.92,0,0,1,1.09,2h-1.85a1.9,1.9,0,0,0-3-1.08,1.28,1.28,0,0,0-.43,1,1.36,1.36,0,0,0,.3.9,2,2,0,0,0,.76.55c.3.14.72.29,1.25.47a11.27,11.27,0,0,1,1.64.64,3,3,0,0,1,1.08.94,2.68,2.68,0,0,1,.44,1.62A2.92,2.92,0,0,1,273.14,108.18Z"/><path class="cls-2" d="M12.34,132.89h-1.5a.5.5,0,0,1,0-1h1.5a.5.5,0,1,1,0,1Z"/><path class="cls-2" d="M353.82,132.89h-3a.5.5,0,0,1,0-1h3a.5.5,0,0,1,0,1Zm-7.94,0h-3a.5.5,0,0,1,0-1h3a.5.5,0,0,1,0,1Zm-7.94,0h-3a.5.5,0,0,1,0-1h3a.5.5,0,0,1,0,1Zm-7.94,0h-3a.5.5,0,0,1,0-1h3a.5.5,0,0,1,0,1Zm-7.94,0h-3a.5.5,0,0,1,0-1h3a.5.5,0,0,1,0,1Zm-7.94,0h-3a.5.5,0,0,1,0-1h3a.5.5,0,0,1,0,1Zm-7.95,0h-3a.5.5,0,0,1,0-1h3a.5.5,0,0,1,0,1Zm-7.94,0h-3a.5.5,0,0,1,0-1h3a.5.5,0,0,1,0,1Zm-7.94,0h-3a.5.5,0,0,1,0-1h3a.5.5,0,0,1,0,1Zm-7.94,0h-3a.5.5,0,0,1,0-1h3a.5.5,0,0,1,0,1Zm-7.94,0h-3a.5.5,0,0,1,0-1h3a.5.5,0,0,1,0,1Zm-7.94,0h-3a.5.5,0,0,1,0-1h3a.5.5,0,0,1,0,1Zm-7.94,0h-3a.5.5,0,0,1,0-1h3a.5.5,0,0,1,0,1Zm-7.95,0h-3a.5.5,0,0,1,0-1h3a.5.5,0,1,1,0,1Zm-7.94,0h-3a.5.5,0,1,1,0-1h3a.5.5,0,0,1,0,1Zm-7.94,0h-3a.5.5,0,0,1,0-1h3a.5.5,0,0,1,0,1Zm-7.94,0h-3a.5.5,0,1,1,0-1h3a.5.5,0,0,1,0,1Zm-7.94,0h-3a.5.5,0,0,1,0-1h3a.5.5,0,0,1,0,1Zm-7.94,0h-3a.5.5,0,1,1,0-1h3a.5.5,0,0,1,0,1Zm-7.94,0h-3a.5.5,0,0,1,0-1h3a.5.5,0,0,1,0,1Zm-7.94,0h-3a.5.5,0,1,1,0-1h3a.5.5,0,0,1,0,1Zm-7.95,0h-3a.5.5,0,0,1,0-1h3a.5.5,0,0,1,0,1Zm-7.94,0h-3a.5.5,0,0,1,0-1h3a.5.5,0,0,1,0,1Zm-7.94,0h-3a.5.5,0,0,1,0-1h3a.5.5,0,0,1,0,1Zm-7.94,0h-3a.5.5,0,0,1,0-1h3a.5.5,0,1,1,0,1Zm-7.94,0h-3a.5.5,0,0,1,0-1h3a.5.5,0,0,1,0,1Zm-7.94,0h-3a.5.5,0,0,1,0-1h3a.5.5,0,1,1,0,1Zm-7.94,0h-3a.5.5,0,0,1,0-1h3a.5.5,0,0,1,0,1Zm-7.95,0h-3a.5.5,0,0,1,0-1h3a.5.5,0,1,1,0,1Zm-7.94,0h-3a.5.5,0,0,1,0-1h3a.5.5,0,0,1,0,1Zm-7.94,0h-3a.5.5,0,0,1,0-1h3a.5.5,0,0,1,0,1Zm-7.94,0h-3a.5.5,0,0,1,0-1h3a.5.5,0,0,1,0,1Zm-7.94,0h-3a.5.5,0,0,1,0-1h3a.5.5,0,0,1,0,1Zm-7.94,0h-3a.5.5,0,0,1,0-1h3a.5.5,0,0,1,0,1Zm-7.94,0h-3a.5.5,0,0,1,0-1h3a.5.5,0,0,1,0,1Zm-7.95,0h-3a.5.5,0,0,1,0-1h3a.5.5,0,0,1,0,1Zm-7.94,0H65a.5.5,0,1,1,0-1h3a.5.5,0,0,1,0,1Zm-7.94,0H57a.5.5,0,1,1,0-1h3a.5.5,0,1,1,0,1Zm-7.94,0h-3a.5.5,0,1,1,0-1h3a.5.5,0,1,1,0,1Zm-7.94,0h-3a.5.5,0,1,1,0-1h3a.5.5,0,1,1,0,1Zm-7.94,0h-3a.5.5,0,0,1,0-1h3a.5.5,0,1,1,0,1Zm-7.94,0h-3a.5.5,0,0,1,0-1h3a.5.5,0,0,1,0,1Zm-7.94,0h-3a.5.5,0,0,1,0-1h3a.5.5,0,0,1,0,1Z"/><path class="cls-2" d="M360.29,132.89h-1.5a.5.5,0,0,1,0-1h1.5a.5.5,0,0,1,0,1Z"/><path class="cls-2" d="M113.07,297.65a8.25,8.25,0,1,1,8.25-8.25A8.26,8.26,0,0,1,113.07,297.65Zm0-15a6.75,6.75,0,1,0,6.75,6.75A6.76,6.76,0,0,0,113.07,282.65Z"/><path class="cls-2" d="M242.71,297.29H137.87a.5.5,0,0,1-.5-.5.51.51,0,0,1,.5-.5H242.71a.5.5,0,0,1,.5.5A.5.5,0,0,1,242.71,297.29Z"/><path class="cls-2" d="M113.07,272.47a8.25,8.25,0,1,1,8.25-8.25A8.26,8.26,0,0,1,113.07,272.47Zm0-15a6.75,6.75,0,1,0,6.75,6.75A6.76,6.76,0,0,0,113.07,257.47Z"/><path class="cls-2" d="M242.71,272.12H137.87a.51.51,0,0,1-.5-.5.5.5,0,0,1,.5-.5H242.71a.5.5,0,0,1,.5.5A.5.5,0,0,1,242.71,272.12Z"/><path class="cls-2" d="M113.07,247.29a8.25,8.25,0,1,1,8.25-8.25A8.26,8.26,0,0,1,113.07,247.29Zm0-15a6.75,6.75,0,1,0,6.75,6.75A6.76,6.76,0,0,0,113.07,232.29Z"/><path class="cls-2" d="M242.71,246.94H137.87a.51.51,0,0,1-.5-.5.5.5,0,0,1,.5-.5H242.71a.5.5,0,0,1,.5.5A.5.5,0,0,1,242.71,246.94Z"/><path class="cls-2" d="M113.07,222.11a8.25,8.25,0,1,1,8.25-8.25A8.26,8.26,0,0,1,113.07,222.11Zm0-15a6.75,6.75,0,1,0,6.75,6.75A6.76,6.76,0,0,0,113.07,207.11Z"/><path class="cls-2" d="M242.71,221.76H137.87a.51.51,0,0,1-.5-.5.5.5,0,0,1,.5-.5H242.71a.5.5,0,0,1,.5.5A.5.5,0,0,1,242.71,221.76Z"/><path class="cls-7" d="M45,174.2a17.51,17.51,0,0,0,24.15,16.19l4.38,3.47-1.3-5.11A17.5,17.5,0,1,0,45,174.2Z"/><path class="cls-5" d="M74.85,195.83l-5.78-4.58a18.3,18.3,0,1,1,4.05-2.18Zm-5.54-6.3,3,2.37-.89-3.48.44-.29a16.64,16.64,0,1,0-2.94,1.57Z"/><path class="cls-5" d="M70.59,184.83a.74.74,0,0,1-.61-.31l-2.86-4a.75.75,0,0,1,1.23-.87l2.16,3,3.74-6.74a.75.75,0,1,1,1.31.72l-4.31,7.79a.76.76,0,0,1-.62.38Z"/><path class="cls-5" d="M59.32,180.24a9.17,9.17,0,0,1-9.16-9.16.75.75,0,0,1,1.5,0,7.66,7.66,0,1,0,7.66-7.67.75.75,0,1,1,0-1.5,9.17,9.17,0,0,1,0,18.33Z"/><path class="cls-5" d="M56.14,164a.74.74,0,0,1-.69-.47.75.75,0,0,1,.41-1c.22-.09.46-.18.69-.25a.75.75,0,1,1,.46,1.43,5.89,5.89,0,0,0-.59.21A.71.71,0,0,1,56.14,164Z"/><path class="cls-5" d="M52.71,166.62a.76.76,0,0,1-.47-.16.75.75,0,0,1-.12-1.05,9.46,9.46,0,0,1,1-1,.75.75,0,1,1,1,1.09,7.39,7.39,0,0,0-.8.88A.77.77,0,0,1,52.71,166.62Z"/><path class="cls-5" d="M51.12,170l-.17,0a.74.74,0,0,1-.56-.9c0-.24.12-.48.19-.71a.75.75,0,0,1,1.43.45c-.06.2-.12.4-.16.6A.75.75,0,0,1,51.12,170Z"/><rect class="cls-5" x="58.57" y="166.69" width="1.46" height="5.12" rx="0.69"/><path class="cls-5" d="M52.62,171.08h0a.7.7,0,0,0,.67.72l6.14,0a.69.69,0,0,0,.66-.73h0a.7.7,0,0,0-.67-.73l-6.14,0A.7.7,0,0,0,52.62,171.08Z"/><text class="cls-8" transform="translate(108.33 179.04)">NOUVEAU TEST</text></g></g></svg>