<?xml version="1.0" encoding="utf-8"?>
<!-- Generator: Adobe Illustrator 23.1.1, SVG Export Plug-In . SVG Version: 6.00 Build 0)  -->
<svg version="1.1" id="Calque_1" xmlns="http://www.w3.org/2000/svg" xmlns:xlink="http://www.w3.org/1999/xlink" x="0px" y="0px"
	 viewBox="0 0 414.5 419.2" style="enable-background:new 0 0 414.5 419.2;" xml:space="preserve">
<style type="text/css">
	.st0{fill:#E9F1F4;}
	.st1{fill:#227FAD;}
	.st2{fill:#E34F27;stroke:#E34F27;stroke-width:0.5;stroke-miterlimit:10;}
	.st3{opacity:0.1;}
	.st4{fill:#2A4F71;}
</style>
<title>Fichier 1</title>
<g>
	<g id="NOTIFICATIONS">
		<path class="st0" d="M210.1,418.9c112.4,0,203.5-91.1,203.5-203.5c0-21-3.2-42-9.6-62H16.2c-6.4,20-9.6,41-9.6,62
			C6.6,327.8,97.7,418.9,210.1,418.9z"/>
		<path class="st1" d="M205.1,215.5h-35.6c-0.5,0-0.9-0.4-0.9-0.9v-24.2c0-0.5,0.4-0.9,0.9-0.9h35.7c0.5,0,0.9,0.4,0.9,0.9v24.2
			C206,215.1,205.6,215.5,205.1,215.5L205.1,215.5z M170.4,213.7h33.8v-22.4h-33.8V213.7z"/>
		<path class="st1" d="M246.1,228.1h-77.5c-0.5,0-0.9-0.4-0.9-0.9c0-0.5,0.4-0.9,0.9-0.9h77.5c0.5,0,0.9,0.4,0.9,0.9
			C247,227.7,246.6,228.1,246.1,228.1z"/>
		<path class="st1" d="M246.1,216.6h-31.4c-0.5,0-0.9-0.4-0.9-0.9c0-0.5,0.4-0.9,0.9-0.9h31.4c0.5,0,0.9,0.4,0.9,0.9
			C247,216.1,246.6,216.6,246.1,216.6z"/>
		<path class="st1" d="M246.1,205h-31.4c-0.5,0-0.9-0.4-0.9-0.9c0-0.5,0.4-0.9,0.9-0.9h31.4c0.5,0,0.9,0.4,0.9,0.9
			C247,204.6,246.6,205,246.1,205z"/>
		<path class="st1" d="M246.1,193.4h-31.4c-0.5,0-0.9-0.4-0.9-0.9c0-0.5,0.4-0.9,0.9-0.9h31.4c0.5,0,0.9,0.4,0.9,0.9
			C247,193,246.6,193.4,246.1,193.4z"/>
		<path class="st1" d="M246.1,239.7h-77.5c-0.5,0-0.9-0.4-0.9-0.9c0-0.5,0.4-0.9,0.9-0.9h77.5c0.5,0,0.9,0.4,0.9,0.9
			C247,239.3,246.6,239.7,246.1,239.7z"/>
		<path class="st1" d="M246.5,251.3H169c-0.5-0.1-0.9-0.5-0.8-1c0-0.4,0.4-0.8,0.8-0.8h77.5c0.5,0.1,0.9,0.5,0.8,1
			C247.2,250.9,246.9,251.2,246.5,251.3L246.5,251.3z"/>
		<path class="st2" d="M170.7,337.3c-3,1.2-6.5-0.3-7.7-3.3c-1.2-3,0.3-6.5,3.3-7.7c3-1.2,6.5,0.3,7.7,3.3c0.3,0.7,0.4,1.4,0.4,2.1
			l0,0C174.5,334.2,173,336.4,170.7,337.3z M183.4,344.6c-2.7,1.9-6.3,1.2-8.2-1.4c0,0,0,0,0,0l0,0c-1.9-2.7-1.2-6.3,1.4-8.2
			l9.8-6.9c1-0.7,2.2-1.1,3.4-1.1c0.8,0,1.6,0.2,2.3,0.5c2.5,1.1,4,3.8,3.5,6.5l0,0c-0.3,1.5-1.1,2.9-2.4,3.8L183.4,344.6z
			 M194.9,352.6c-2.6,2-6.3,1.5-8.3-1.1s-1.5-6.3,1.1-8.3c0.1-0.1,0.3-0.2,0.4-0.3l8.8-6.2c1-0.7,2.2-1.1,3.4-1.1
			c0.8,0,1.5,0.2,2.3,0.4c1.4,0.6,2.6,1.7,3.2,3.1c1.1,2.6,0.3,5.6-2,7.2L194.9,352.6z M207.3,360c-2.7,1.9-6.4,1.2-8.2-1.5
			c-0.2-0.3-0.4-0.7-0.6-1c-1.1-2.6-0.2-5.7,2.2-7.3l6.2-4.3c1-0.7,2.2-1.1,3.4-1.1c0.5,0,0.9,0,1.4,0.1c0.9,0.2,1.8,0.7,2.5,1.3
			c2.5,2.2,2.7,5.9,0.5,8.4c-0.3,0.3-0.6,0.7-1,0.9L207.3,360z M207.1,344.2c0.1-0.2,0.2-0.5,0.2-0.7l0.6,0.4
			C207.6,344,207.4,344.1,207.1,344.2L207.1,344.2z M219,358.9c-1.9,2.7-5.5,3.3-8.2,1.5l-0.8-0.6l4.5-3.1c2-1.4,3.1-3.6,3.1-6
			c0.7,0.5,1.2,1.1,1.6,1.8C220.4,354.4,220.4,356.9,219,358.9z M167.6,283.5l13.5,9.5c0.2,0.1,0.4,0.1,0.5,0.1
			c0,0,22.3-4.9,23.7-4.9c1,0.1,2,0.6,2.7,1.3l-22.3,18.9c-0.3,0.2-0.4,0.6-0.1,0.9c0,0,0,0,0.1,0.1l0,0c4.9,5.8,13.6,6.6,19.5,1.7
			c0,0,3.7-3.1,6.4-5.2l8.7,6.4c2.8,2.4,6.4,3.5,10.1,3.2c1.5-0.1,2.9-0.5,4.3-1.1l17.4,12.1c1.3,0.9,2.2,2.3,2.4,3.8
			c0.3,1.5-0.1,3.1-1,4.4c-1.9,2.7-5.5,3.3-8.2,1.5l-18.6-13c-0.3-0.2-0.7-0.1-0.9,0.2c0,0,0,0,0,0l0,0c-0.2,0.3-0.2,0.7,0.1,1
			c0,0,0,0,0,0l15.7,11c1.3,0.9,2.2,2.3,2.4,3.8c0.6,3.2-1.5,6.3-4.7,6.8c-1.6,0.3-3.2-0.1-4.4-1L218,333.4c-0.3-0.2-0.7-0.2-1,0.1
			c0,0,0,0,0,0c-0.2,0.3-0.2,0.7,0.1,0.9c0,0,0,0,0,0l12.8,8.8c1.4,1,2.4,2.6,2.5,4.4c0.1,1-0.1,1.9-0.5,2.8c-1.3,3-4.9,4.3-7.8,3
			c-0.3-0.2-0.7-0.3-1-0.5l-5.9-4.2c-0.2-0.8-0.5-1.6-1-2.3c-1.1-1.6-2.8-2.7-4.7-3c-0.6-0.1-1.3-0.1-1.9,0l-2.1-1.5l0,0
			c0.2-4-2.8-7.4-6.8-7.6c-1.4-0.1-2.9,0.3-4.1,1c0.9-2.2,0.5-4.7-0.9-6.7c-2.3-3.3-6.8-4.1-10.1-1.8l-9.8,6.9
			c-0.2,0.1-0.4,0.3-0.5,0.5c0.3-0.8,0.5-1.7,0.5-2.5c0-2.8-1.6-5.3-4.1-6.5c-0.2-0.3-0.4-0.6-0.7-0.8l-1.9-1.3
			c-6.1-4.3-16.8-11.8-19.4-13.5c0,0-0.6-0.6-1.1-0.1c-0.3,0.3-0.2,0.7,0,1c0,0,0.1,0.1,0.1,0.1l18.7,13.1l-3.1,2.2
			c-3.3,2.3-4.1,6.8-1.8,10.1c0.4,0.6,0.9,1.1,1.5,1.5c0.8,0.7,1.8,1.1,2.8,1.4c2.3,0.5,4.6-0.1,6.4-1.6c-0.8,2.2-0.5,4.7,0.9,6.7
			c1.1,1.6,2.8,2.7,4.7,3c0.4,0.1,0.9,0.1,1.3,0.1c1.5,0,2.9-0.5,4.1-1.3l0.5-0.3c-0.1,0.4-0.2,0.8-0.3,1.2c-0.7,4,2,7.7,5.9,8.4
			c0.5,0.1,0.9,0.1,1.4,0.1c1.5-0.1,2.9-0.5,4.1-1.4l1.3-0.9c-1.3,3.8,0.6,7.9,4.4,9.3c0.4,0.1,0.8,0.3,1.3,0.3
			c2,0.2,3.9-0.3,5.6-1.4l0.5-0.3l1.1,0.8c1,0.7,2.1,1.2,3.4,1.4c1.4,0.1,2.7-0.1,4-0.6c1-0.4,1.9-1.1,2.6-2c1.6-2,2-4.7,1.2-7.2
			l1.4,1c1.2,0.9,2.7,1.3,4.2,1.3c0.4,0,0.8,0,1.2-0.1c3.9-0.7,6.6-4.4,5.9-8.4c0,0,0,0,0,0c-0.1-0.4-0.2-0.8-0.3-1.2l0.5,0.3
			c1.2,0.9,2.7,1.3,4.2,1.3c0.4,0,0.9,0,1.3-0.1c1.9-0.3,3.6-1.4,4.7-3c1.1-1.6,1.5-3.5,1.2-5.4c-0.1-0.4-0.2-0.8-0.3-1.2
			c1.1,0.7,2.4,1,3.7,1c2.4,0,4.6-1.2,5.9-3.1c1.1-1.6,1.6-3.5,1.2-5.4c-0.3-1.9-1.4-3.6-3-4.7l-2.6-1.8l19.1-13.4
			c0.3-0.2,0.4-0.6,0.2-0.9c0,0,0-0.1-0.1-0.1c-0.4-0.5-1.2,0.1-1.2,0.1c-2.5,1.8-13.1,9.2-19.2,13.4l-13-9.1
			c1.4-0.8,2.6-1.9,3.7-3.1c0.3-0.3,0.3-0.7,0-0.9c0,0,0,0-0.1-0.1c-0.3-0.3-0.7-0.2-1,0c0,0,0,0,0,0l0,0c-4.4,5.3-12.2,6-17.4,1.6
			c0,0-0.1,0-0.1-0.1l-0.1,0l-9.2-6.8c-0.2-0.2-0.6-0.2-0.8,0c-2.7,2.2-6.8,5.6-6.8,5.6c-5.1,4.3-12.6,3.8-17.1-1
			c0,0,23.6-20.8,24.9-20.8c3,0,23.9,4.9,23.9,4.9c0.2,0,0.4,0,0.5-0.1l14.1-10c0,0,0.4-0.4,0.2-0.8c-0.2-0.3-0.5-0.4-0.8-0.3
			c0,0-0.1,0-0.1,0.1l-13.8,9.8c0,0-21.7-4.8-23.9-4.8c-1,0-3,1.7-3,1.7s-1.9-1.8-3.8-1.8c-2.7,0-23.6,4.9-23.6,4.9l-13.3-9.3
			c-0.2-0.1-0.4-0.2-0.6-0.1c-0.4,0-0.6,0.4-0.6,0.8C167.3,283.2,167.4,283.4,167.6,283.5L167.6,283.5z"/>
		<g class="st3">
			<path class="st1" d="M14,103.8c-7.7-7.7-12.3-15.4-13.6-23C-1,73.2,1.7,65.9,8.6,59.1c6.8-6.8,14-9.5,21.7-8.2
				c7.7,1.3,15.3,5.9,23,13.6C61,72.2,65.6,79.9,67,87.6s-1.3,14.9-8.2,21.7c-6.9,6.9-14.1,9.6-21.8,8.2
				C29.4,116.1,21.7,111.6,14,103.8z M41.4,76.4c-4.4-4.4-8.4-7.3-11.8-8.6c-3.4-1.3-6.6-0.4-9.7,2.7c-3.1,3.1-4,6.4-2.7,9.9
				s4.2,7.4,8.5,11.8c4.4,4.4,8.4,7.3,11.9,8.7c3.5,1.3,6.8,0.4,9.9-2.7s4-6.3,2.6-9.8S45.8,80.8,41.4,76.4z"/>
			<path class="st1" d="M73.6,76.5l-10-10l-8.4-53.6L68.1,0l30.6,30.6l6-6L115,35.1l-6,6l9.1,9.1l-12,12.1L97,53.1L73.6,76.5z
				 M70.8,25l4.5,28.9l12.2-12.2L70.8,25z"/>
		</g>
		<path class="st4" d="M210.2,419.2C97.6,419.2,6,327.6,6,215c-0.1-31.7,7.3-63,21.5-91.3c0.2-0.4,0.6-0.5,1-0.3
			c0.4,0.2,0.5,0.6,0.3,1c0,0,0,0,0,0C14.7,152.5,7.4,183.5,7.4,215c0,111.8,91,202.8,202.8,202.8S413,326.8,413,215
			S322,12.2,210.2,12.2c-31.3-0.1-62.2,7.1-90.2,21.1c-0.4,0.2-0.8,0-1-0.3c-0.2-0.4,0-0.8,0.3-1l0,0c28.2-14.1,59.3-21.4,90.9-21.3
			c112.6,0,204.3,91.6,204.3,204.2S322.8,419.2,210.2,419.2z"/>
		<path class="st1" d="M20.5,153H19c-0.3,0-0.5-0.2-0.5-0.5s0.2-0.5,0.5-0.5h1.5c0.3,0,0.5,0.2,0.5,0.5S20.8,153,20.5,153z"/>
		<path class="st1" d="M396.9,153h-3c-0.3,0-0.5-0.2-0.5-0.5s0.2-0.5,0.5-0.5h3c0.3,0,0.5,0.2,0.5,0.5S397.2,153,396.9,153z
			 M388.9,153h-3c-0.3,0-0.5-0.2-0.5-0.5s0.2-0.5,0.5-0.5h3c0.3,0,0.5,0.2,0.5,0.5S389.2,153,388.9,153z M380.9,153h-3
			c-0.3,0-0.5-0.2-0.5-0.5s0.2-0.5,0.5-0.5h3c0.3,0,0.5,0.2,0.5,0.5S381.2,153,380.9,153z M372.9,153h-3c-0.3,0-0.5-0.2-0.5-0.5
			s0.2-0.5,0.5-0.5h3c0.3,0,0.5,0.2,0.5,0.5S373.2,153,372.9,153z M364.9,153h-3c-0.3,0-0.5-0.2-0.5-0.5s0.2-0.5,0.5-0.5h3
			c0.3,0,0.5,0.2,0.5,0.5S365.2,153,364.9,153z M356.9,153h-3c-0.3,0-0.5-0.2-0.5-0.5s0.2-0.5,0.5-0.5h3c0.3,0,0.5,0.2,0.5,0.5
			S357.2,153,356.9,153z M348.9,153h-3c-0.3,0-0.5-0.2-0.5-0.5s0.2-0.5,0.5-0.5h3c0.3,0,0.5,0.2,0.5,0.5S349.2,153,348.9,153z
			 M340.9,153h-3c-0.3,0-0.5-0.2-0.5-0.5s0.2-0.5,0.5-0.5h3c0.3,0,0.5,0.2,0.5,0.5S341.2,153,340.9,153z M332.9,153h-3
			c-0.3,0-0.5-0.2-0.5-0.5s0.2-0.5,0.5-0.5h3c0.3,0,0.5,0.2,0.5,0.5S333.2,153,332.9,153z M324.9,153h-3c-0.3,0-0.5-0.2-0.5-0.5
			s0.2-0.5,0.5-0.5h3c0.3,0,0.5,0.2,0.5,0.5S325.2,153,324.9,153z M316.9,153h-3c-0.3,0-0.5-0.2-0.5-0.5s0.2-0.5,0.5-0.5h3
			c0.3,0,0.5,0.2,0.5,0.5S317.2,153,316.9,153z M308.9,153h-3c-0.3,0-0.5-0.2-0.5-0.5s0.2-0.5,0.5-0.5h3c0.3,0,0.5,0.2,0.5,0.5
			S309.2,153,308.9,153z M300.9,153h-3c-0.3,0-0.5-0.2-0.5-0.5s0.2-0.5,0.5-0.5h3c0.3,0,0.5,0.2,0.5,0.5S301.2,153,300.9,153z
			 M292.9,153h-3c-0.3,0-0.5-0.2-0.5-0.5s0.2-0.5,0.5-0.5h3c0.3,0,0.5,0.2,0.5,0.5S293.2,153,292.9,153z M284.9,153h-3
			c-0.3,0-0.5-0.2-0.5-0.5s0.2-0.5,0.5-0.5h3c0.3,0,0.5,0.2,0.5,0.5S285.2,153,284.9,153z M276.9,153h-3c-0.3,0-0.5-0.2-0.5-0.5
			s0.2-0.5,0.5-0.5h3c0.3,0,0.5,0.2,0.5,0.5S277.2,153,276.9,153z M268.9,153h-3c-0.3,0-0.5-0.2-0.5-0.5s0.2-0.5,0.5-0.5h3
			c0.3,0,0.5,0.2,0.5,0.5S269.2,153,268.9,153z M260.9,153h-3c-0.3,0-0.5-0.2-0.5-0.5s0.2-0.5,0.5-0.5h3c0.3,0,0.5,0.2,0.5,0.5
			S261.2,153,260.9,153z M252.9,153h-3c-0.3,0-0.5-0.2-0.5-0.5s0.2-0.5,0.5-0.5h3c0.3,0,0.5,0.2,0.5,0.5S253.2,153,252.9,153z
			 M244.9,153h-3c-0.3,0-0.5-0.2-0.5-0.5s0.2-0.5,0.5-0.5h3c0.3,0,0.5,0.2,0.5,0.5S245.2,153,244.9,153z M236.9,153h-3
			c-0.3,0-0.5-0.2-0.5-0.5s0.2-0.5,0.5-0.5h3c0.3,0,0.5,0.2,0.5,0.5S237.2,153,236.9,153z M228.9,153h-3c-0.3,0-0.5-0.2-0.5-0.5
			s0.2-0.5,0.5-0.5h3c0.3,0,0.5,0.2,0.5,0.5S229.2,153,228.9,153z M220.9,153h-3c-0.3,0-0.5-0.2-0.5-0.5s0.2-0.5,0.5-0.5h3
			c0.3,0,0.5,0.2,0.5,0.5S221.2,153,220.9,153z M212.9,153h-3c-0.3,0-0.5-0.2-0.5-0.5s0.2-0.5,0.5-0.5h3c0.3,0,0.5,0.2,0.5,0.5
			S213.2,153,212.9,153z M204.9,153h-3c-0.3,0-0.5-0.2-0.5-0.5s0.2-0.5,0.5-0.5h3c0.3,0,0.5,0.2,0.5,0.5S205.2,153,204.9,153z
			 M196.9,153h-3c-0.3,0-0.5-0.2-0.5-0.5s0.2-0.5,0.5-0.5h3c0.3,0,0.5,0.2,0.5,0.5S197.2,153,196.9,153z M188.9,153h-3
			c-0.3,0-0.5-0.2-0.5-0.5s0.2-0.5,0.5-0.5h3c0.3,0,0.5,0.2,0.5,0.5S189.2,153,188.9,153z M180.9,153h-3c-0.3,0-0.5-0.2-0.5-0.5
			s0.2-0.5,0.5-0.5h3c0.3,0,0.5,0.2,0.5,0.5S181.2,153,180.9,153z M172.9,153h-3c-0.3,0-0.5-0.2-0.5-0.5s0.2-0.5,0.5-0.5h3
			c0.3,0,0.5,0.2,0.5,0.5S173.2,153,172.9,153z M164.9,153h-3c-0.3,0-0.5-0.2-0.5-0.5s0.2-0.5,0.5-0.5h3c0.3,0,0.5,0.2,0.5,0.5
			S165.2,153,164.9,153z M156.9,153h-3c-0.3,0-0.5-0.2-0.5-0.5s0.2-0.5,0.5-0.5h3c0.3,0,0.5,0.2,0.5,0.5S157.2,153,156.9,153z
			 M148.9,153h-3c-0.3,0-0.5-0.2-0.5-0.5s0.2-0.5,0.5-0.5h3c0.3,0,0.5,0.2,0.5,0.5S149.2,153,148.9,153z M140.9,153h-3
			c-0.3,0-0.5-0.2-0.5-0.5s0.2-0.5,0.5-0.5h3c0.3,0,0.5,0.2,0.5,0.5S141.2,153,140.9,153z M132.9,153h-3c-0.3,0-0.5-0.2-0.5-0.5
			s0.2-0.5,0.5-0.5h3c0.3,0,0.5,0.2,0.5,0.5S133.2,153,132.9,153z M124.9,153h-3c-0.3,0-0.5-0.2-0.5-0.5s0.2-0.5,0.5-0.5h3
			c0.3,0,0.5,0.2,0.5,0.5S125.2,153,124.9,153z M116.9,153h-3c-0.3,0-0.5-0.2-0.5-0.5s0.2-0.5,0.5-0.5h3c0.3,0,0.5,0.2,0.5,0.5
			S117.2,153,116.9,153z M108.9,153h-3c-0.3,0-0.5-0.2-0.5-0.5s0.2-0.5,0.5-0.5h3c0.3,0,0.5,0.2,0.5,0.5S109.2,153,108.9,153z
			 M100.9,153h-3c-0.3,0-0.5-0.2-0.5-0.5s0.2-0.5,0.5-0.5h3c0.3,0,0.5,0.2,0.5,0.5S101.2,153,100.9,153z M92.9,153h-3
			c-0.3,0-0.5-0.2-0.5-0.5s0.2-0.5,0.5-0.5h3c0.3,0,0.5,0.2,0.5,0.5S93.2,153,92.9,153z M84.9,153h-3c-0.3,0-0.5-0.2-0.5-0.5
			s0.2-0.5,0.5-0.5h3c0.3,0,0.5,0.2,0.5,0.5S85.2,153,84.9,153z M76.9,153h-3c-0.3,0-0.5-0.2-0.5-0.5s0.2-0.5,0.5-0.5h3
			c0.3,0,0.5,0.2,0.5,0.5S77.2,153,76.9,153z M68.9,153h-3c-0.3,0-0.5-0.2-0.5-0.5s0.2-0.5,0.5-0.5h3c0.3,0,0.5,0.2,0.5,0.5
			S69.2,153,68.9,153z M60.9,153h-3c-0.3,0-0.5-0.2-0.5-0.5s0.2-0.5,0.5-0.5h3c0.3,0,0.5,0.2,0.5,0.5S61.2,153,60.9,153z M52.9,153
			h-3c-0.3,0-0.5-0.2-0.5-0.5s0.2-0.5,0.5-0.5h3c0.3,0,0.5,0.2,0.5,0.5S53.2,153,52.9,153z M44.9,153h-3c-0.3,0-0.5-0.2-0.5-0.5
			s0.2-0.5,0.5-0.5h3c0.3,0,0.5,0.2,0.5,0.5S45.2,153,44.9,153z M36.9,153h-3c-0.3,0-0.5-0.2-0.5-0.5s0.2-0.5,0.5-0.5h3
			c0.3,0,0.5,0.2,0.5,0.5S37.2,153,36.9,153z M28.9,153h-3c-0.3,0-0.5-0.2-0.5-0.5s0.2-0.5,0.5-0.5h3c0.3,0,0.5,0.2,0.5,0.5
			S29.2,153,28.9,153z"/>
		<path class="st1" d="M403.4,153h-1.5c-0.3,0-0.5-0.2-0.5-0.5s0.2-0.5,0.5-0.5h1.5c0.3,0,0.5,0.2,0.5,0.5S403.7,153,403.4,153z"/>
	</g>
</g>
</svg>
