<?xml version="1.0" encoding="utf-8"?>
<!-- Generator: Adobe Illustrator 23.1.1, SVG Export Plug-In . SVG Version: 6.00 Build 0)  -->
<svg version="1.1" id="Calque_1" xmlns="http://www.w3.org/2000/svg" xmlns:xlink="http://www.w3.org/1999/xlink" x="0px" y="0px"
	 viewBox="0 0 374.8 375.1" style="enable-background:new 0 0 374.8 375.1;" xml:space="preserve">
<style type="text/css">
	.st0{opacity:0.1;}
	.st1{fill:#227FAD;}
	.st2{fill:#E9F1F4;}
	.st3{fill:#2A4F71;}
	.st4{fill:#FFFFFF;}
	.st5{fill:#E34F27;}
	.st6{fill:none;stroke:#E34F27;stroke-width:2;stroke-linecap:round;stroke-linejoin:round;}
	.st7{opacity:0.5;}
</style>
<title>Fichier 3</title>
<g>
	<g id="NOTIFICATIONS">
		<g class="st0">
			<path class="st1" d="M12.7,87.5c-7-7-11.1-13.9-12.4-20.9c-1.3-7,1.2-13.5,7.5-19.8c6.2-6.2,12.8-8.7,19.7-7.5
				s13.9,5.4,20.9,12.3c7,7,11.2,14.1,12.4,21c1.3,7-1.2,13.6-7.4,19.8c-6.2,6.2-12.8,8.7-19.8,7.4S19.7,94.5,12.7,87.5z M37.7,62.5
				c-4.1-4-7.6-6.6-10.7-7.8s-6-0.4-8.9,2.4c-2.8,2.8-3.7,5.8-2.5,9c1.2,3.2,3.8,6.7,7.8,10.7c4,4,7.6,6.6,10.8,7.9s6.2,0.4,9-2.4
				c2.8-2.8,3.6-5.8,2.3-8.9C44.3,70.2,41.7,66.6,37.7,62.5L37.7,62.5z"/>
			<path class="st1" d="M64.8,18.1c-3.5-3.5-6.7-3.7-9.8-0.7c-1.6,1.4-2.3,3.5-1.9,5.5c0.4,2,1.8,4.3,4.2,6.8L46.7,40.4
				c-5.2-5.7-7.7-11.5-7.4-17.3s2.8-11,7.5-15.7C51.6,2.5,56.5,0,61.5,0s9.4,2,13.3,5.9c4.4,4.4,7,10.3,7.8,17.9
				c0.8,7.6,0.3,15.2-1.4,22.6l17.7-17.8l8.8,8.8L75.6,69.5l-8.1-8.1C71.3,38.2,70.4,23.8,64.8,18.1z"/>
		</g>
		<path class="st2" d="M189,374.7c102.2,0,185-82.8,185-185c0-19.1-2.9-38.1-8.8-56.3H12.7C6.9,151.6,4,170.6,4,189.7
			C4,291.9,86.8,374.7,189,374.7z"/>
		<path class="st3" d="M189.1,375.1C86.7,375.1,3.3,291.7,3.3,189.3c-0.1-28.8,6.6-57.2,19.5-83c0.2-0.4,0.6-0.5,1-0.3
			c0.4,0.2,0.5,0.6,0.3,1c-12.8,25.5-19.5,53.8-19.4,82.3c0,101.6,82.7,184.2,184.2,184.2s184.2-82.6,184.2-184.2
			S290.7,5.1,189.1,5.1c-28.5-0.1-56.5,6.5-82,19.2c-0.4,0.2-0.8,0-1-0.3c0,0,0,0,0,0c-0.2-0.4,0-0.8,0.3-1
			c25.7-12.8,54-19.4,82.7-19.4c102.4,0,185.8,83.3,185.8,185.8S291.5,375.1,189.1,375.1z"/>
		<path class="st1" d="M16.8,132.8h-1.5c-0.3,0-0.5-0.2-0.5-0.5c0-0.3,0.2-0.5,0.5-0.5h1.5c0.3,0,0.5,0.2,0.5,0.5
			S17,132.8,16.8,132.8z"/>
		<path class="st1" d="M358.2,132.8h-3c-0.3,0-0.5-0.2-0.5-0.5s0.2-0.5,0.5-0.5h3c0.3,0,0.5,0.2,0.5,0.5S358.5,132.8,358.2,132.8z
			 M350.3,132.8h-3c-0.3,0-0.5-0.2-0.5-0.5c0-0.3,0.2-0.5,0.5-0.5h3c0.3,0,0.5,0.2,0.5,0.5S350.6,132.8,350.3,132.8z M342.4,132.8
			h-3c-0.3,0-0.5-0.2-0.5-0.5c0-0.3,0.2-0.5,0.5-0.5h3c0.3,0,0.5,0.2,0.5,0.5S342.6,132.8,342.4,132.8z M334.4,132.8h-3
			c-0.3,0-0.5-0.2-0.5-0.5c0-0.3,0.2-0.5,0.5-0.5h3c0.3,0,0.5,0.2,0.5,0.5S334.7,132.8,334.4,132.8z M326.5,132.8h-3
			c-0.3,0-0.5-0.2-0.5-0.5s0.2-0.5,0.5-0.5h3c0.3,0,0.5,0.2,0.5,0.5S326.8,132.8,326.5,132.8z M318.5,132.8h-3
			c-0.3,0-0.5-0.2-0.5-0.5s0.2-0.5,0.5-0.5h3c0.3,0,0.5,0.2,0.5,0.5C319,132.5,318.8,132.7,318.5,132.8z M310.6,132.8h-3
			c-0.3,0-0.5-0.2-0.5-0.5s0.2-0.5,0.5-0.5h3c0.3,0,0.5,0.2,0.5,0.5C311.1,132.5,310.9,132.7,310.6,132.8z M302.7,132.8h-3
			c-0.3,0-0.5-0.2-0.5-0.5s0.2-0.5,0.5-0.5h3c0.3,0,0.5,0.2,0.5,0.5C303.2,132.5,302.9,132.7,302.7,132.8L302.7,132.8z M294.7,132.8
			h-3c-0.3,0-0.5-0.2-0.5-0.5s0.2-0.5,0.5-0.5h3c0.3,0,0.5,0.2,0.5,0.5C295.2,132.5,295,132.7,294.7,132.8L294.7,132.8z
			 M286.8,132.8h-3c-0.3,0-0.5-0.2-0.5-0.5c0-0.3,0.2-0.5,0.5-0.5h3c0.3,0,0.5,0.2,0.5,0.5C287.3,132.5,287.1,132.7,286.8,132.8
			L286.8,132.8z M278.8,132.8h-3c-0.3,0-0.5-0.2-0.5-0.5c0-0.3,0.2-0.5,0.5-0.5h3c0.3,0,0.5,0.2,0.5,0.5
			C279.3,132.5,279.1,132.7,278.8,132.8L278.8,132.8z M270.9,132.8h-3c-0.3,0-0.5-0.2-0.5-0.5c0-0.3,0.2-0.5,0.5-0.5h3
			c0.3,0,0.5,0.2,0.5,0.5C271.4,132.5,271.2,132.7,270.9,132.8L270.9,132.8z M263,132.8h-3c-0.3,0-0.5-0.2-0.5-0.5s0.2-0.5,0.5-0.5
			h3c0.3,0,0.5,0.2,0.5,0.5C263.5,132.5,263.3,132.7,263,132.8L263,132.8z M255,132.8h-3c-0.3,0-0.5-0.2-0.5-0.5s0.2-0.5,0.5-0.5h3
			c0.3,0,0.5,0.2,0.5,0.5C255.5,132.5,255.3,132.8,255,132.8C255,132.8,255,132.8,255,132.8L255,132.8z M247,132.8h-3
			c-0.3,0-0.5-0.2-0.5-0.5s0.2-0.5,0.5-0.5h3c0.3,0,0.5,0.2,0.5,0.5C247.5,132.5,247.3,132.7,247,132.8L247,132.8z M239.1,132.8h-3
			c-0.3,0-0.5-0.2-0.5-0.5s0.2-0.5,0.5-0.5h3c0.3,0,0.5,0.2,0.5,0.5C239.6,132.5,239.4,132.7,239.1,132.8L239.1,132.8z M231.1,132.8
			h-3c-0.3,0-0.5-0.2-0.5-0.5c0-0.3,0.2-0.5,0.5-0.5h3c0.3,0,0.5,0.2,0.5,0.5C231.6,132.5,231.4,132.7,231.1,132.8L231.1,132.8z
			 M223.2,132.8h-3c-0.3,0-0.5-0.2-0.5-0.5c0-0.3,0.2-0.5,0.5-0.5h3c0.3,0,0.5,0.2,0.5,0.5C223.7,132.5,223.5,132.7,223.2,132.8
			L223.2,132.8z M215.3,132.8h-3c-0.3,0-0.5-0.2-0.5-0.5c0-0.3,0.2-0.5,0.5-0.5h3c0.3,0,0.5,0.2,0.5,0.5
			C215.8,132.5,215.6,132.7,215.3,132.8L215.3,132.8z M207.3,132.8h-3c-0.3,0-0.5-0.2-0.5-0.5s0.2-0.5,0.5-0.5h3
			c0.3,0,0.5,0.2,0.5,0.5C207.8,132.5,207.6,132.7,207.3,132.8L207.3,132.8z M199.4,132.8h-3c-0.3,0-0.5-0.2-0.5-0.5
			s0.2-0.5,0.5-0.5h3c0.3,0,0.5,0.2,0.5,0.5C199.9,132.5,199.7,132.7,199.4,132.8L199.4,132.8z M191.4,132.8h-3
			c-0.3,0-0.5-0.2-0.5-0.5s0.2-0.5,0.5-0.5h3c0.3,0,0.5,0.2,0.5,0.5C191.9,132.5,191.7,132.7,191.4,132.8L191.4,132.8z M183.4,132.8
			h-3c-0.3,0-0.5-0.2-0.5-0.5s0.2-0.5,0.5-0.5h3c0.3,0,0.5,0.2,0.5,0.5c0,0.2-0.2,0.5-0.4,0.5H183.4z M175.5,132.8h-3
			c-0.3,0-0.5-0.2-0.5-0.5c0-0.3,0.2-0.5,0.5-0.5h3c0.3,0,0.5,0.2,0.5,0.5c0,0.2-0.2,0.5-0.4,0.5H175.5z M167.6,132.8h-3
			c-0.3,0-0.5-0.2-0.5-0.5c0-0.3,0.2-0.5,0.5-0.5h3c0.3,0,0.5,0.2,0.5,0.5c0,0.2-0.2,0.5-0.4,0.5H167.6z M159.6,132.8h-3
			c-0.3,0-0.5-0.2-0.5-0.5c0-0.3,0.2-0.5,0.5-0.5h3c0.3,0,0.5,0.2,0.5,0.5c0,0.2-0.2,0.5-0.4,0.5H159.6z M151.7,132.8h-3
			c-0.3,0-0.5-0.2-0.5-0.5s0.2-0.5,0.5-0.5h3c0.3,0,0.5,0.2,0.5,0.5c0,0.2-0.2,0.5-0.4,0.5H151.7z M143.7,132.8h-3
			c-0.3,0-0.5-0.2-0.5-0.5s0.2-0.5,0.5-0.5h3c0.3,0,0.5,0.2,0.5,0.5c0,0.2-0.2,0.4-0.4,0.5H143.7z M135.8,132.8h-3
			c-0.3,0-0.5-0.2-0.5-0.5s0.2-0.5,0.5-0.5h3c0.3,0,0.5,0.2,0.5,0.5c0,0.2-0.2,0.4-0.4,0.5H135.8z M127.8,132.8h-3
			c-0.3,0-0.5-0.2-0.5-0.5s0.2-0.5,0.5-0.5h3c0.3,0,0.5,0.2,0.5,0.5c0,0.2-0.1,0.4-0.3,0.5H127.8z M119.9,132.8h-3
			c-0.3,0-0.5-0.2-0.5-0.5s0.2-0.5,0.5-0.5h3c0.3,0,0.5,0.2,0.5,0.5c0,0.2-0.1,0.4-0.4,0.5H119.9z M111.9,132.8h-3
			c-0.3,0-0.5-0.2-0.5-0.5c0-0.3,0.2-0.5,0.5-0.5h3c0.3,0,0.5,0.2,0.5,0.5c0,0.2-0.1,0.4-0.3,0.5H111.9z M104,132.8h-3
			c-0.3,0-0.5-0.2-0.5-0.5c0-0.3,0.2-0.5,0.5-0.5h3c0.3,0,0.5,0.2,0.5,0.5c0,0.2-0.1,0.4-0.3,0.5H104z M96,132.8h-3
			c-0.3,0-0.5-0.2-0.5-0.5c0-0.3,0.2-0.5,0.5-0.5h3c0.3,0,0.5,0.2,0.5,0.5c0,0.2-0.1,0.4-0.3,0.5H96z M88.1,132.8h-3
			c-0.3,0-0.5-0.2-0.5-0.5s0.2-0.5,0.5-0.5h3c0.3,0,0.5,0.2,0.5,0.5c0,0.2-0.1,0.4-0.3,0.5H88.1z M80.2,132.8h-3
			c-0.3,0-0.5-0.2-0.5-0.5s0.2-0.5,0.5-0.5h3c0.3,0,0.5,0.2,0.5,0.5c0,0.2-0.1,0.4-0.3,0.5H80.2z M72.2,132.8h-3
			c-0.3,0-0.5-0.2-0.5-0.5s0.2-0.5,0.5-0.5h3c0.3,0,0.5,0.2,0.5,0.5c0,0.2-0.1,0.4-0.3,0.5H72.2z M64.2,132.8h-3
			c-0.3,0-0.5-0.2-0.5-0.5s0.2-0.5,0.5-0.5h3c0.3,0,0.5,0.2,0.5,0.5c0,0.2-0.1,0.4-0.3,0.5H64.2z M56.3,132.8h-3
			c-0.3,0-0.5-0.2-0.5-0.5c0-0.3,0.2-0.5,0.5-0.5h3c0.3,0,0.5,0.2,0.5,0.5c0,0.2-0.1,0.4-0.3,0.5H56.3z M48.3,132.8h-3
			c-0.3,0-0.5-0.2-0.5-0.5c0-0.3,0.2-0.5,0.5-0.5h3c0.3,0,0.5,0.2,0.5,0.5c0,0.2-0.1,0.4-0.3,0.5H48.3z M40.4,132.8h-3
			c-0.3,0-0.5-0.2-0.5-0.5c0-0.3,0.2-0.5,0.5-0.5h3c0.3,0,0.5,0.2,0.5,0.5c0,0.2-0.1,0.4-0.3,0.5H40.4z M32.5,132.8h-3
			c-0.3,0-0.5-0.2-0.5-0.5s0.2-0.5,0.5-0.5h3c0.3,0,0.5,0.2,0.5,0.5c0,0.2-0.1,0.4-0.3,0.5H32.5z M24.5,132.8h-3
			c-0.3,0-0.5-0.2-0.5-0.5s0.2-0.5,0.5-0.5h3c0.3,0,0.5,0.2,0.5,0.5c0,0.2-0.1,0.4-0.3,0.5H24.5z"/>
		<path class="st1" d="M364.7,132.8h-1.5c-0.3,0-0.5-0.2-0.5-0.5s0.2-0.5,0.5-0.5h1.5c0.3,0,0.5,0.2,0.5,0.5
			C365.2,132.5,365,132.7,364.7,132.8z"/>
		<path class="st4" d="M66.7,241.3c0,16.6,13.4,30,30,30c3.9,0,7.8-0.8,11.4-2.3l7.5,5.9l-2.2-8.8c13.8-9.2,17.5-27.8,8.3-41.6
			c-9.2-13.8-27.8-17.5-41.6-8.3C71.7,222,66.7,231.3,66.7,241.3z"/>
		<path class="st5" d="M117.3,277.6l-9.4-7.4c-16,6.2-33.9-1.7-40.1-17.6c-6.2-16,1.7-33.9,17.6-40.1c16-6.2,33.9,1.7,40.1,17.6
			c5.2,13.3,0.6,28.4-11,36.6L117.3,277.6z M108.3,267.9l5.7,4.5l-1.7-6.6l0.6-0.4c13.3-8.9,16.8-26.8,7.9-40.1
			c-8.9-13.3-26.8-16.8-40.1-7.9c-13.3,8.9-16.8,26.8-7.9,40.1c7.7,11.4,22.3,15.9,35,10.7L108.3,267.9z"/>
		<polyline class="st6" points="105.6,251.4 110.5,258.3 117.9,244.9 		"/>
		<path class="st5" d="M91.2,251.4c-8.5,0-15.4-6.9-15.4-15.4c0-0.6,0.4-1,1-1s1,0.4,1,1c0,7.4,6,13.4,13.4,13.4s13.4-6,13.4-13.4
			c0-7.4-6-13.4-13.4-13.4c0,0,0,0,0,0c-0.6,0-1-0.4-1-1s0.4-1,1-1c8.5,0,15.4,6.9,15.4,15.4C106.6,244.5,99.7,251.4,91.2,251.4
			L91.2,251.4z"/>
		<path class="st5" d="M86.2,223.4c-0.6,0-1-0.4-1-1c0-0.4,0.3-0.8,0.7-0.9l0.7-0.2c0.5-0.2,1.1,0.1,1.3,0.6c0,0,0,0,0,0
			c0.2,0.5-0.1,1.1-0.7,1.2l-0.6,0.2C86.4,223.4,86.3,223.4,86.2,223.4z"/>
		<path class="st5" d="M78.6,229.8c-0.2,0-0.3,0-0.5-0.1c-0.5-0.3-0.7-0.9-0.4-1.4c0,0,0,0,0,0c0.3-0.5,0.6-0.9,0.9-1.4
			c0.3-0.4,0.9-0.5,1.4-0.2c0.4,0.3,0.6,0.9,0.2,1.4c0,0,0,0,0,0c-0.3,0.4-0.5,0.8-0.8,1.2C79.3,229.6,79,229.8,78.6,229.8z
			 M81.8,226c-0.3,0-0.6-0.1-0.8-0.4c-0.4-0.4-0.3-1.1,0.1-1.4c0,0,0,0,0,0c0.4-0.3,0.8-0.7,1.3-1c0.5-0.3,1.1-0.2,1.4,0.2
			c0.3,0.5,0.2,1.1-0.2,1.4c0,0,0,0,0,0c-0.4,0.3-0.8,0.6-1.1,0.9C82.3,225.9,82.1,226,81.8,226L81.8,226z"/>
		<path class="st5" d="M77.1,233.7c-0.1,0-0.1,0-0.2,0c-0.5-0.1-0.9-0.7-0.8-1.2l0.2-0.7c0.2-0.5,0.7-0.8,1.2-0.7
			c0.5,0.2,0.8,0.7,0.7,1.2c-0.1,0.2-0.1,0.4-0.2,0.6C77.9,233.4,77.5,233.7,77.1,233.7z"/>
		<path class="st5" d="M91.1,228.4h0.1c0.7,0,1.2,0.5,1.2,1.2v6.4c0,0.7-0.5,1.2-1.2,1.2h-0.1c-0.7,0-1.2-0.5-1.2-1.2v-6.4
			C89.9,229,90.4,228.4,91.1,228.4z"/>
		<path class="st5" d="M79.7,236L79.7,236c0,0.7,0.5,1.2,1.2,1.2h10.5c0.7,0,1.2-0.6,1.1-1.3l0,0c0-0.7-0.5-1.2-1.2-1.2H80.8
			C80.1,234.8,79.6,235.3,79.7,236z"/>
		<path class="st1" d="M257,182.2c-4.3,0-7.8-3.4-7.8-7.7c0-4.3,3.4-7.8,7.7-7.8c4.3,0,7.8,3.4,7.8,7.7c0,0,0,0,0,0
			C264.8,178.7,261.4,182.2,257,182.2C257,182.2,257,182.2,257,182.2z M257,168.2c-3.5,0-6.3,2.8-6.3,6.2s2.8,6.3,6.2,6.3
			c3.5,0,6.3-2.8,6.3-6.2c0,0,0-0.1,0-0.1C263.2,171,260.4,168.2,257,168.2z"/>
		<path class="st1" d="M256.9,197.4L256.9,197.4c-5,0-9.7-2-13.2-5.6c-0.1-0.1-0.2-0.3-0.2-0.5c0-5.3,3.3-9,8.1-9h10.6
			c4.8,0,8.2,3.7,8.2,9c0,0.2-0.1,0.4-0.2,0.5C266.7,195.5,261.9,197.5,256.9,197.4z M245,191.1c3.1,3.1,7.4,4.9,11.8,4.9h0.1
			c4.5,0,8.8-1.7,12-4.9c-0.1-3.5-2.2-7.2-6.7-7.2h-10.6C247.2,183.9,245.1,187.4,245,191.1z M269.6,191.4L269.6,191.4z"/>
		<path class="st1" d="M257,200c-11.5,0-20.8-9.2-20.8-20.7s9.2-20.8,20.7-20.8c11.5,0,20.8,9.2,20.8,20.7
			C277.7,190.7,268.5,200,257,200z M257,160c-10.6,0-19.3,8.6-19.3,19.2c0,10.6,8.6,19.3,19.2,19.3c10.6,0,19.3-8.6,19.3-19.2
			c0,0,0-0.1,0-0.1C276.2,168.6,267.6,160,257,160z"/>
		<path class="st1" d="M257,243.6c-4.3,0-7.8-3.4-7.8-7.7c0-4.3,3.4-7.8,7.7-7.8c4.3,0,7.8,3.4,7.8,7.7c0,0,0,0,0,0
			C264.8,240.1,261.4,243.6,257,243.6C257,243.6,257,243.6,257,243.6z M257,229.6c-3.5,0-6.3,2.8-6.3,6.2s2.8,6.3,6.2,6.3
			c3.5,0,6.3-2.8,6.3-6.2c0,0,0-0.1,0-0.1C263.2,232.4,260.4,229.6,257,229.6z"/>
		<path class="st1" d="M256.9,258.8L256.9,258.8c-5,0-9.7-2-13.2-5.5c-0.1-0.1-0.2-0.3-0.2-0.5c0-5.3,3.3-9,8.1-9h10.6
			c4.8,0,8.2,3.7,8.2,9c0,0.2-0.1,0.4-0.2,0.5C266.7,256.9,261.9,258.9,256.9,258.8z M245,252.5c3.1,3.1,7.4,4.9,11.8,4.9h0.1
			c4.5,0,8.8-1.7,12-4.9c-0.1-3.5-2.2-7.2-6.7-7.2h-10.6C247.2,245.3,245.1,248.8,245,252.5z M269.6,252.8L269.6,252.8z"/>
		<path class="st1" d="M257,261.3c-11.5,0-20.8-9.3-20.8-20.8s9.3-20.8,20.8-20.8c11.5,0,20.8,9.3,20.8,20.8l0,0
			C277.7,252,268.5,261.3,257,261.3z M257,221.3c-10.6,0-19.2,8.6-19.2,19.2s8.6,19.2,19.2,19.2c10.6,0,19.2-8.6,19.2-19.2
			C276.2,230,267.6,221.3,257,221.3L257,221.3z"/>
		<path class="st1" d="M257,305c-4.3,0-7.8-3.4-7.8-7.7c0-4.3,3.4-7.8,7.7-7.8c4.3,0,7.8,3.4,7.8,7.7
			C264.8,301.4,261.4,304.9,257,305C257,305,257,305,257,305z M257,291c-3.5,0-6.3,2.8-6.3,6.2s2.8,6.3,6.2,6.3
			c3.5,0,6.3-2.8,6.3-6.2c0,0,0-0.1,0-0.1C263.2,293.8,260.4,291,257,291z"/>
		<path class="st1" d="M256.9,320.2L256.9,320.2c-5,0-9.7-2-13.2-5.5c-0.1-0.1-0.2-0.3-0.2-0.5c0-5.3,3.3-9,8.1-9h10.6
			c4.8,0,8.2,3.7,8.2,9c0,0.2-0.1,0.4-0.2,0.5C266.7,318.2,261.9,320.2,256.9,320.2z M245,313.8c3.1,3.1,7.4,4.9,11.8,4.9h0.1
			c4.5,0,8.8-1.7,12-4.9c-0.1-3.5-2.2-7.2-6.7-7.2h-10.6C247.2,306.6,245.1,310.2,245,313.8z M269.6,314.1L269.6,314.1z"/>
		<path class="st1" d="M257,322.7c-11.5,0-20.8-9.2-20.8-20.7c0-11.5,9.2-20.8,20.7-20.8c11.5,0,20.8,9.2,20.8,20.7c0,0,0,0.1,0,0.1
			C277.7,313.4,268.4,322.7,257,322.7z M257,282.7c-10.6,0-19.3,8.6-19.3,19.2s8.6,19.3,19.2,19.3c10.6,0,19.3-8.6,19.3-19.2
			c0,0,0,0,0,0C276.2,291.4,267.6,282.8,257,282.7z"/>
		<g class="st7">
			<polygon class="st1" points="214.4,240.1 204.4,235 204.4,238 152.3,238 152.3,242.3 204.4,242.3 204.4,245.3 			"/>
			<polygon class="st1" points="152.3,212.3 152.3,216.1 202.8,192.9 200.4,189.2 			"/>
			<polygon class="st1" points="198.7,186.6 204.5,195.5 210.2,186.6 			"/>
			<polygon class="st1" points="202.8,287.3 152.3,264.2 152.3,268 200.4,291.1 			"/>
			<polygon class="st1" points="204.5,284.8 198.7,293.7 210.2,293.7 			"/>
		</g>
	</g>
</g>
</svg>
