<svg xmlns="http://www.w3.org/2000/svg" viewBox="0 0 374.84 375.06"><defs><style>.cls-1{opacity:0.1;}.cls-2{fill:#227fad;}.cls-3{fill:#e9f1f4;}.cls-4{fill:#2a4f71;}.cls-5{fill:#1f3552;}.cls-6{fill:#fff;}.cls-7{fill:#e34f27;}.cls-8{fill:none;stroke:#e34f27;stroke-linecap:round;stroke-linejoin:round;stroke-width:2px;}.cls-9{opacity:0.5;}</style></defs><title>Fichier 3</title><g id="Calque_2" data-name="Calque 2"><g id="NOTIFICATIONS"><g class="cls-1"><path class="cls-2" d="M12.69,87.47Q2.19,77,.31,66.57T7.79,46.81q9.3-9.3,19.73-7.45T48.46,51.71Q59,62.27,60.9,72.74T53.49,92.5q-9.36,9.36-19.8,7.44T12.69,87.47Zm25-24.94Q31.6,56.47,27,54.7T18.1,57.12q-4.26,4.26-2.48,9t7.76,10.69q6.06,6,10.79,7.86t9-2.45q4.2-4.2,2.35-8.91T37.64,62.53Z"/><path class="cls-2" d="M64.75,18.1Q59.53,12.9,55,17.4a5.87,5.87,0,0,0-1.94,5.51q.6,3,4.23,6.84L46.68,40.38q-7.83-8.6-7.39-17.31T46.74,7.35Q54.06,0,61.47,0T74.8,5.89q6.56,6.56,7.8,17.85a66.26,66.26,0,0,1-1.43,22.62L98.92,28.61l8.78,8.78L75.63,69.46l-8.14-8.14Q73.28,26.62,64.75,18.1Z"/></g><path class="cls-3" d="M189,374.68c102.17,0,185-82.83,185-185a184.7,184.7,0,0,0-8.75-56.34H12.71A184.7,184.7,0,0,0,4,189.68C4,291.85,86.79,374.68,189,374.68Z"/><path class="cls-4" d="M189.09,375.06C86.66,375.06,3.34,291.73,3.34,189.31a183.91,183.91,0,0,1,19.55-83,.76.76,0,0,1,1-.34.75.75,0,0,1,.33,1A182.34,182.34,0,0,0,4.84,189.31c0,101.6,82.65,184.25,184.25,184.25s184.25-82.65,184.25-184.25S290.68,5.06,189.09,5.06a182.41,182.41,0,0,0-82,19.18.74.74,0,0,1-1-.33.75.75,0,0,1,.34-1A183.91,183.91,0,0,1,189.09,3.56c102.42,0,185.75,83.33,185.75,185.75S291.51,375.06,189.09,375.06Z"/><path class="cls-5" d="M117,74.2v3.21h3.9v1.31H117V82h4.35v1.4h-6.06V72.82h6.06V74.2Z"/><path class="cls-5" d="M132.33,83.41h-1.71l-5.15-7.82v7.82h-1.71V72.83h1.71l5.15,7.84V72.83h1.71Z"/><path class="cls-5" d="M136.21,72.82l3,8.76,3.06-8.76h1.86l-3.83,10.59h-2.19l-3.81-10.59Z"/><path class="cls-5" d="M153.77,73.37a4.89,4.89,0,0,1,1.87,1.93,6,6,0,0,1,0,5.59,5,5,0,0,1-1.87,1.94,5.44,5.44,0,0,1-5.34,0,5,5,0,0,1-1.88-1.94,6,6,0,0,1,0-5.59,4.92,4.92,0,0,1,1.88-1.93,5.51,5.51,0,0,1,5.34,0Zm-4.48,1.37a3.19,3.19,0,0,0-1.24,1.33,4.88,4.88,0,0,0,0,4.05,3.22,3.22,0,0,0,1.24,1.34,3.64,3.64,0,0,0,1.82.46,3.56,3.56,0,0,0,1.79-.46,3.26,3.26,0,0,0,1.23-1.34,4.88,4.88,0,0,0,0-4.05,3.24,3.24,0,0,0-1.23-1.33,3.37,3.37,0,0,0-1.79-.47A3.45,3.45,0,0,0,149.29,74.74Z"/><path class="cls-5" d="M166.8,72.82l-3.53,6.73v3.86h-1.72V79.55L158,72.82h2l2.43,4.9,2.43-4.9Z"/><path class="cls-5" d="M170.53,74.2v3.21h3.9v1.31h-3.9V82h4.35v1.4h-6.06V72.82h6.06V74.2Z"/><path class="cls-5" d="M178.8,82h5.14v1.4h-7.05V82.07l5-7.86H177V72.82h6.87v1.33Z"/><path class="cls-5" d="M192.32,82.07H196v1.34h-5.37V72.82h1.71Z"/><path class="cls-5" d="M199.78,74.2v3.21h3.9v1.31h-3.9V82h4.35v1.4h-6.06V72.82h6.06V74.2Z"/><path class="cls-5" d="M213.13,82A2.71,2.71,0,0,1,212,83.11a4,4,0,0,1-1.88.4,4.75,4.75,0,0,1-1.93-.38,3.44,3.44,0,0,1-1.37-1.08,3,3,0,0,1-.58-1.58h1.83a1.91,1.91,0,0,0,.59,1.18,1.94,1.94,0,0,0,1.39.5,1.63,1.63,0,0,0,1.21-.43,1.42,1.42,0,0,0,.42-1.07,1.37,1.37,0,0,0-.31-.94,2.16,2.16,0,0,0-.78-.58c-.31-.14-.74-.3-1.28-.48a11.3,11.3,0,0,1-1.61-.63,3,3,0,0,1-1.06-.91,2.64,2.64,0,0,1-.43-1.58,2.69,2.69,0,0,1,.42-1.5,2.77,2.77,0,0,1,1.2-1,4.41,4.41,0,0,1,1.8-.35,3.92,3.92,0,0,1,2.57.78,2.92,2.92,0,0,1,1.09,2h-1.85a1.79,1.79,0,0,0-.56-1,2.06,2.06,0,0,0-2.41-.06,1.5,1.5,0,0,0-.13,2,2.06,2.06,0,0,0,.76.56c.3.13.72.29,1.25.47A10.23,10.23,0,0,1,212,78a2.78,2.78,0,0,1,1.08.94,2.68,2.68,0,0,1,.44,1.62A2.86,2.86,0,0,1,213.13,82Z"/><path class="cls-5" d="M227,72.82V74.2h-2.95v9.21h-1.73V74.2h-2.94V72.82Z"/><path class="cls-5" d="M230.77,74.2v3.21h3.9v1.31h-3.9V82h4.35v1.4h-6.06V72.82h6.06V74.2Z"/><path class="cls-5" d="M244.12,82A2.71,2.71,0,0,1,243,83.11a4,4,0,0,1-1.88.4,4.75,4.75,0,0,1-1.93-.38,3.44,3.44,0,0,1-1.37-1.08,3,3,0,0,1-.58-1.58h1.83a1.91,1.91,0,0,0,.59,1.18,1.94,1.94,0,0,0,1.39.5,1.63,1.63,0,0,0,1.21-.43,1.42,1.42,0,0,0,.42-1.07,1.37,1.37,0,0,0-.31-.94,2.16,2.16,0,0,0-.78-.58c-.31-.14-.74-.3-1.28-.48a11.3,11.3,0,0,1-1.61-.63,3,3,0,0,1-1.06-.91,2.64,2.64,0,0,1-.43-1.58,2.69,2.69,0,0,1,.42-1.5,2.77,2.77,0,0,1,1.2-1,4.41,4.41,0,0,1,1.8-.35,3.92,3.92,0,0,1,2.57.78,2.92,2.92,0,0,1,1.09,2h-1.85a1.79,1.79,0,0,0-.56-1,2.06,2.06,0,0,0-2.41-.06,1.5,1.5,0,0,0-.13,2,2.06,2.06,0,0,0,.76.56c.3.13.72.29,1.25.47A10.23,10.23,0,0,1,243,78a2.78,2.78,0,0,1,1.08.94,2.68,2.68,0,0,1,.44,1.62A2.86,2.86,0,0,1,244.12,82Z"/><path class="cls-5" d="M253.76,72.82V74.2h-2.95v9.21h-1.73V74.2h-2.94V72.82Z"/><path class="cls-5" d="M262.37,82a2.71,2.71,0,0,1-1.14,1.08,4,4,0,0,1-1.87.4,4.8,4.8,0,0,1-1.94-.38,3.41,3.41,0,0,1-1.36-1.08,3,3,0,0,1-.59-1.58h1.83a1.88,1.88,0,0,0,.6,1.18,1.9,1.9,0,0,0,1.38.5,1.61,1.61,0,0,0,1.21-.43,1.39,1.39,0,0,0,.43-1.07,1.37,1.37,0,0,0-.32-.94,2.16,2.16,0,0,0-.78-.58c-.31-.14-.73-.3-1.27-.48a10.84,10.84,0,0,1-1.61-.63,2.89,2.89,0,0,1-1.06-.91,2.64,2.64,0,0,1-.44-1.58,2.69,2.69,0,0,1,.42-1.5,2.77,2.77,0,0,1,1.2-1,4.41,4.41,0,0,1,1.8-.35,4,4,0,0,1,2.58.78,3,3,0,0,1,1.08,2h-1.84a1.85,1.85,0,0,0-.56-1,1.81,1.81,0,0,0-1.26-.42,1.74,1.74,0,0,0-1.15.36,1.48,1.48,0,0,0-.14,2,2.15,2.15,0,0,0,.76.56c.31.13.72.29,1.25.47a10.79,10.79,0,0,1,1.65.64,2.92,2.92,0,0,1,1.08.94,2.75,2.75,0,0,1,.44,1.62A2.87,2.87,0,0,1,262.37,82Z"/><path class="cls-5" d="M77.67,107.11H73.2l-.81,2.3H70.56L74.46,99h2l3.89,10.43H78.48ZM76.3,97v1.2L73,96.47V95.14Zm.89,8.82-1.76-5-1.75,5Z"/><path class="cls-5" d="M87.66,98.82l3,8.76,3.06-8.76h1.86L91.8,109.41H89.61L85.8,98.82Z"/><path class="cls-5" d="M105.21,99.37a4.92,4.92,0,0,1,1.88,1.93,6.08,6.08,0,0,1,0,5.59,5,5,0,0,1-1.88,1.94,5.2,5.2,0,0,1-2.66.7,5.28,5.28,0,0,1-2.68-.7A5.08,5.08,0,0,1,98,106.89a6,6,0,0,1,0-5.59,5,5,0,0,1,1.88-1.93,5.27,5.27,0,0,1,2.68-.69A5.2,5.2,0,0,1,105.21,99.37Zm-4.47,1.37a3.13,3.13,0,0,0-1.24,1.33,4.88,4.88,0,0,0,0,4.05,3.16,3.16,0,0,0,1.24,1.34,3.61,3.61,0,0,0,1.81.46,3.53,3.53,0,0,0,1.79-.46,3.14,3.14,0,0,0,1.23-1.34,4.78,4.78,0,0,0,0-4.05,3.11,3.11,0,0,0-1.23-1.33,3.35,3.35,0,0,0-1.79-.47A3.42,3.42,0,0,0,100.74,100.74Z"/><path class="cls-5" d="M116.83,108a2.71,2.71,0,0,1-1.14,1.08,4,4,0,0,1-1.87.4,4.8,4.8,0,0,1-1.94-.38,3.41,3.41,0,0,1-1.36-1.08,3,3,0,0,1-.59-1.58h1.83a1.91,1.91,0,0,0,.59,1.18,1.94,1.94,0,0,0,1.39.5,1.63,1.63,0,0,0,1.21-.43,1.43,1.43,0,0,0,.43-1.07,1.37,1.37,0,0,0-.32-.94,2.16,2.16,0,0,0-.78-.58c-.31-.14-.73-.3-1.27-.48a11.49,11.49,0,0,1-1.62-.63,2.94,2.94,0,0,1-1-.91,2.64,2.64,0,0,1-.44-1.58,2.69,2.69,0,0,1,.42-1.5,2.77,2.77,0,0,1,1.2-1,4.41,4.41,0,0,1,1.8-.35,3.92,3.92,0,0,1,2.57.78,2.92,2.92,0,0,1,1.09,2h-1.84a1.8,1.8,0,0,0-.57-1,1.77,1.77,0,0,0-1.25-.42,1.74,1.74,0,0,0-1.15.36,1.48,1.48,0,0,0-.14,2,2.06,2.06,0,0,0,.76.56c.3.13.72.29,1.25.47a10.23,10.23,0,0,1,1.64.64,2.78,2.78,0,0,1,1.08.94,2.68,2.68,0,0,1,.45,1.62A2.87,2.87,0,0,1,116.83,108Z"/><path class="cls-5" d="M131.89,99.7a4.86,4.86,0,0,1,1.74,2.68h-1.81a3.28,3.28,0,0,0-1.2-1.52,3.46,3.46,0,0,0-2-.56,3.22,3.22,0,0,0-1.69.46,3.37,3.37,0,0,0-1.17,1.33,4.58,4.58,0,0,0-.42,2,4.5,4.5,0,0,0,.42,2,3.24,3.24,0,0,0,1.17,1.33,3.14,3.14,0,0,0,1.69.47,3.4,3.4,0,0,0,2-.57,3.17,3.17,0,0,0,1.2-1.5h1.81a4.76,4.76,0,0,1-1.74,2.67,5.17,5.17,0,0,1-3.24,1,5.06,5.06,0,0,1-2.65-.69,4.62,4.62,0,0,1-1.79-1.9,6.54,6.54,0,0,1,0-5.6A4.71,4.71,0,0,1,126,99.4a5.06,5.06,0,0,1,2.65-.69A5.17,5.17,0,0,1,131.89,99.7Z"/><path class="cls-5" d="M142.41,107.11h-4.47l-.81,2.3H135.3L139.2,99h2l3.89,10.43h-1.83Zm-.48-1.32-1.76-5-1.75,5Z"/><path class="cls-5" d="M155.64,109.41h-1.71l-5.15-7.82v7.82h-1.71V98.83h1.71l5.15,7.84V98.83h1.71Z"/><path class="cls-5" d="M166.89,106.89a4.55,4.55,0,0,1-1.9,1.86,6.34,6.34,0,0,1-3,.66h-3.54V98.82H162a6.34,6.34,0,0,1,3,.65,4.48,4.48,0,0,1,1.9,1.83,6.25,6.25,0,0,1,0,5.59Zm-2.1,0a4.28,4.28,0,0,0,0-5.55,4.06,4.06,0,0,0-2.93-1h-1.69v7.53h1.69A4.06,4.06,0,0,0,164.79,106.87Z"/><path class="cls-5" d="M171.73,98.82v10.59H170V98.82Z"/><path class="cls-5" d="M183,106.89a4.57,4.57,0,0,1-1.91,1.86,6.32,6.32,0,0,1-3,.66h-3.54V98.82h3.54a6.32,6.32,0,0,1,3,.65A4.5,4.5,0,0,1,183,101.3a6.33,6.33,0,0,1,0,5.59Zm-2.11,0a4.28,4.28,0,0,0,0-5.55,4,4,0,0,0-2.92-1h-1.7v7.53H178A4,4,0,0,0,180.88,106.87Z"/><path class="cls-5" d="M192.43,107.11H188l-.81,2.3h-1.83L189.22,99h2l3.88,10.43h-1.83Zm-.48-1.32-1.76-5-1.75,5Z"/><path class="cls-5" d="M203.9,98.82v1.38h-3v9.21h-1.73V100.2h-2.94V98.82Z"/><path class="cls-5" d="M212.51,108a2.71,2.71,0,0,1-1.14,1.08,4,4,0,0,1-1.87.4,4.8,4.8,0,0,1-1.94-.38,3.41,3.41,0,0,1-1.36-1.08,3,3,0,0,1-.59-1.58h1.83a1.88,1.88,0,0,0,.6,1.18,1.9,1.9,0,0,0,1.38.5,1.61,1.61,0,0,0,1.21-.43,1.39,1.39,0,0,0,.43-1.07,1.37,1.37,0,0,0-.32-.94,2.16,2.16,0,0,0-.78-.58c-.31-.14-.73-.3-1.27-.48a10.84,10.84,0,0,1-1.61-.63,2.89,2.89,0,0,1-1.06-.91,2.64,2.64,0,0,1-.44-1.58A2.69,2.69,0,0,1,206,100a2.77,2.77,0,0,1,1.2-1,4.41,4.41,0,0,1,1.8-.35,4,4,0,0,1,2.58.78,3,3,0,0,1,1.08,2h-1.84a1.85,1.85,0,0,0-.56-1,1.81,1.81,0,0,0-1.26-.42,1.74,1.74,0,0,0-1.15.36,1.48,1.48,0,0,0-.14,2,2.15,2.15,0,0,0,.76.56c.31.13.72.29,1.25.47a10.79,10.79,0,0,1,1.65.64,2.92,2.92,0,0,1,1.08.94,2.75,2.75,0,0,1,.44,1.62A2.87,2.87,0,0,1,212.51,108Z"/><path class="cls-5" d="M221.32,105.3v4.11h-1.71V98.82h3.6a3.91,3.91,0,0,1,2.75.86,3.11,3.11,0,0,1,.92,2.39,3,3,0,0,1-.94,2.36,3.89,3.89,0,0,1-2.73.87Zm3.82-3.23a1.76,1.76,0,0,0-.5-1.37,2.26,2.26,0,0,0-1.61-.48h-1.71v3.68H223C224.44,103.9,225.14,103.29,225.14,102.07Z"/><path class="cls-5" d="M236.7,99.37a4.92,4.92,0,0,1,1.88,1.93,6.08,6.08,0,0,1,0,5.59,5,5,0,0,1-1.88,1.94,5.2,5.2,0,0,1-2.66.7,5.28,5.28,0,0,1-2.68-.7,5.08,5.08,0,0,1-1.88-1.94,6,6,0,0,1,0-5.59,5,5,0,0,1,1.88-1.93,5.27,5.27,0,0,1,2.68-.69A5.2,5.2,0,0,1,236.7,99.37Zm-4.48,1.37a3.11,3.11,0,0,0-1.23,1.33,4.78,4.78,0,0,0,0,4.05,3.14,3.14,0,0,0,1.23,1.34,3.64,3.64,0,0,0,1.82.46,3.53,3.53,0,0,0,1.79-.46,3.14,3.14,0,0,0,1.23-1.34,4.88,4.88,0,0,0,0-4.05,3.11,3.11,0,0,0-1.23-1.33,3.35,3.35,0,0,0-1.79-.47A3.45,3.45,0,0,0,232.22,100.74Z"/><path class="cls-5" d="M248.54,98.82v1.38h-2.95v9.21h-1.73V100.2h-2.94V98.82Z"/><path class="cls-5" d="M252.28,100.2v3.21h3.9v1.31h-3.9V108h4.35v1.4h-6.06V98.82h6.06v1.38Z"/><path class="cls-5" d="M267.61,109.41H265.9l-5.15-7.82v7.82H259V98.83h1.71l5.15,7.84V98.83h1.71Z"/><path class="cls-5" d="M277.24,98.82v1.38h-3v9.21h-1.72V100.2h-2.94V98.82Z"/><path class="cls-5" d="M281,98.82v10.59h-1.71V98.82Z"/><path class="cls-5" d="M285.5,100.2v3.21h3.9v1.31h-3.9V108h4.35v1.4h-6.06V98.82h6.06v1.38Z"/><path class="cls-5" d="M294,108.07h3.66v1.34h-5.37V98.82H294Z"/><path class="cls-5" d="M306.31,108a2.71,2.71,0,0,1-1.14,1.08,4,4,0,0,1-1.88.4,4.75,4.75,0,0,1-1.93-.38,3.44,3.44,0,0,1-1.37-1.08,3,3,0,0,1-.58-1.58h1.83a1.86,1.86,0,0,0,.59,1.18,1.92,1.92,0,0,0,1.39.5,1.59,1.59,0,0,0,1.2-.43,1.39,1.39,0,0,0,.43-1.07,1.37,1.37,0,0,0-.31-.94,2.16,2.16,0,0,0-.78-.58c-.31-.14-.74-.3-1.28-.48a10.84,10.84,0,0,1-1.61-.63,2.89,2.89,0,0,1-1.06-.91,2.64,2.64,0,0,1-.43-1.58,2.69,2.69,0,0,1,.42-1.5,2.77,2.77,0,0,1,1.2-1,4.41,4.41,0,0,1,1.8-.35,3.94,3.94,0,0,1,2.57.78,3,3,0,0,1,1.09,2h-1.85a1.85,1.85,0,0,0-.56-1,2.06,2.06,0,0,0-2.41-.06,1.5,1.5,0,0,0-.13,2,2.11,2.11,0,0,0,.75.56c.31.13.73.29,1.26.47a10.62,10.62,0,0,1,1.64.64,2.92,2.92,0,0,1,1.08.94,2.75,2.75,0,0,1,.44,1.62A2.86,2.86,0,0,1,306.31,108Z"/><path class="cls-2" d="M16.77,132.75h-1.5a.51.51,0,0,1-.5-.5.5.5,0,0,1,.5-.5h1.5a.5.5,0,0,1,.5.5A.5.5,0,0,1,16.77,132.75Z"/><path class="cls-2" d="M358.25,132.75h-3a.5.5,0,0,1-.5-.5.5.5,0,0,1,.5-.5h3a.5.5,0,0,1,.5.5A.5.5,0,0,1,358.25,132.75Zm-7.94,0h-3a.51.51,0,0,1-.5-.5.5.5,0,0,1,.5-.5h3a.5.5,0,0,1,.5.5A.5.5,0,0,1,350.31,132.75Zm-7.94,0h-3a.51.51,0,0,1-.5-.5.5.5,0,0,1,.5-.5h3a.5.5,0,0,1,.5.5A.5.5,0,0,1,342.37,132.75Zm-7.94,0h-3a.51.51,0,0,1-.5-.5.5.5,0,0,1,.5-.5h3a.5.5,0,0,1,.5.5A.5.5,0,0,1,334.43,132.75Zm-7.94,0h-3a.5.5,0,0,1-.5-.5.5.5,0,0,1,.5-.5h3a.5.5,0,0,1,.5.5A.5.5,0,0,1,326.49,132.75Zm-7.94,0h-3a.5.5,0,0,1-.5-.5.5.5,0,0,1,.5-.5h3a.5.5,0,0,1,.5.5A.51.51,0,0,1,318.55,132.75Zm-7.94,0h-3a.5.5,0,0,1-.5-.5.5.5,0,0,1,.5-.5h3a.5.5,0,0,1,.5.5A.51.51,0,0,1,310.61,132.75Zm-7.95,0h-3a.5.5,0,0,1-.5-.5.5.5,0,0,1,.5-.5h3a.5.5,0,0,1,.5.5A.5.5,0,0,1,302.66,132.75Zm-7.94,0h-3a.5.5,0,0,1-.5-.5.5.5,0,0,1,.5-.5h3a.5.5,0,0,1,.5.5A.5.5,0,0,1,294.72,132.75Zm-7.94,0h-3a.51.51,0,0,1-.5-.5.5.5,0,0,1,.5-.5h3a.5.5,0,0,1,.5.5A.5.5,0,0,1,286.78,132.75Zm-7.94,0h-3a.51.51,0,0,1-.5-.5.5.5,0,0,1,.5-.5h3a.5.5,0,0,1,.5.5A.5.5,0,0,1,278.84,132.75Zm-7.94,0h-3a.51.51,0,0,1-.5-.5.5.5,0,0,1,.5-.5h3a.5.5,0,0,1,.5.5A.5.5,0,0,1,270.9,132.75Zm-7.94,0h-3a.5.5,0,0,1-.5-.5.5.5,0,0,1,.5-.5h3a.5.5,0,0,1,.5.5A.51.51,0,0,1,263,132.75Zm-7.94,0h-3a.5.5,0,0,1-.5-.5.5.5,0,0,1,.5-.5h3a.5.5,0,0,1,.5.5A.51.51,0,0,1,255,132.75Zm-8,0h-3a.5.5,0,0,1-.5-.5.5.5,0,0,1,.5-.5h3a.5.5,0,0,1,.5.5A.5.5,0,0,1,247.07,132.75Zm-7.94,0h-3a.5.5,0,0,1-.5-.5.5.5,0,0,1,.5-.5h3a.5.5,0,0,1,.5.5A.5.5,0,0,1,239.13,132.75Zm-7.94,0h-3a.51.51,0,0,1-.5-.5.5.5,0,0,1,.5-.5h3a.5.5,0,0,1,.5.5A.5.5,0,0,1,231.19,132.75Zm-7.94,0h-3a.51.51,0,0,1-.5-.5.5.5,0,0,1,.5-.5h3a.5.5,0,0,1,.5.5A.5.5,0,0,1,223.25,132.75Zm-7.94,0h-3a.51.51,0,0,1-.5-.5.5.5,0,0,1,.5-.5h3a.5.5,0,0,1,.5.5A.5.5,0,0,1,215.31,132.75Zm-7.94,0h-3a.5.5,0,0,1-.5-.5.5.5,0,0,1,.5-.5h3a.5.5,0,0,1,.5.5A.5.5,0,0,1,207.37,132.75Zm-7.94,0h-3a.5.5,0,0,1-.5-.5.5.5,0,0,1,.5-.5h3a.5.5,0,0,1,.5.5A.51.51,0,0,1,199.43,132.75Zm-7.94,0h-3a.5.5,0,0,1-.5-.5.5.5,0,0,1,.5-.5h3a.5.5,0,0,1,.5.5A.51.51,0,0,1,191.49,132.75Zm-8,0h-3a.5.5,0,0,1-.5-.5.5.5,0,0,1,.5-.5h3a.5.5,0,0,1,.5.5A.5.5,0,0,1,183.54,132.75Zm-7.94,0h-3a.51.51,0,0,1-.5-.5.5.5,0,0,1,.5-.5h3a.5.5,0,0,1,.5.5A.5.5,0,0,1,175.6,132.75Zm-7.94,0h-3a.51.51,0,0,1-.5-.5.5.5,0,0,1,.5-.5h3a.5.5,0,0,1,.5.5A.5.5,0,0,1,167.66,132.75Zm-7.94,0h-3a.51.51,0,0,1-.5-.5.5.5,0,0,1,.5-.5h3a.5.5,0,0,1,.5.5A.5.5,0,0,1,159.72,132.75Zm-7.94,0h-3a.5.5,0,0,1-.5-.5.5.5,0,0,1,.5-.5h3a.5.5,0,0,1,.5.5A.5.5,0,0,1,151.78,132.75Zm-7.94,0h-3a.5.5,0,0,1-.5-.5.5.5,0,0,1,.5-.5h3a.5.5,0,0,1,.5.5A.51.51,0,0,1,143.84,132.75Zm-7.94,0h-3a.5.5,0,0,1-.5-.5.5.5,0,0,1,.5-.5h3a.5.5,0,0,1,.5.5A.51.51,0,0,1,135.9,132.75Zm-8,0h-3a.5.5,0,0,1-.5-.5.5.5,0,0,1,.5-.5h3a.5.5,0,0,1,.5.5A.5.5,0,0,1,128,132.75Zm-7.94,0h-3a.5.5,0,0,1-.5-.5.5.5,0,0,1,.5-.5h3a.5.5,0,0,1,.5.5A.5.5,0,0,1,120,132.75Zm-7.94,0h-3a.51.51,0,0,1-.5-.5.5.5,0,0,1,.5-.5h3a.5.5,0,0,1,.5.5A.5.5,0,0,1,112.07,132.75Zm-7.94,0h-3a.51.51,0,0,1-.5-.5.5.5,0,0,1,.5-.5h3a.5.5,0,0,1,.5.5A.5.5,0,0,1,104.13,132.75Zm-7.94,0h-3a.51.51,0,0,1-.5-.5.5.5,0,0,1,.5-.5h3a.5.5,0,0,1,.5.5A.5.5,0,0,1,96.19,132.75Zm-7.94,0h-3a.5.5,0,0,1-.5-.5.5.5,0,0,1,.5-.5h3a.5.5,0,0,1,.5.5A.51.51,0,0,1,88.25,132.75Zm-7.94,0h-3a.5.5,0,0,1-.5-.5.5.5,0,0,1,.5-.5h3a.5.5,0,0,1,.5.5A.51.51,0,0,1,80.31,132.75Zm-8,0h-3a.5.5,0,0,1-.5-.5.5.5,0,0,1,.5-.5h3a.5.5,0,0,1,.5.5A.5.5,0,0,1,72.36,132.75Zm-7.94,0h-3a.5.5,0,0,1-.5-.5.5.5,0,0,1,.5-.5h3a.5.5,0,0,1,.5.5A.5.5,0,0,1,64.42,132.75Zm-7.94,0h-3a.51.51,0,0,1-.5-.5.5.5,0,0,1,.5-.5h3a.5.5,0,0,1,.5.5A.5.5,0,0,1,56.48,132.75Zm-7.94,0h-3a.51.51,0,0,1-.5-.5.5.5,0,0,1,.5-.5h3a.5.5,0,0,1,.5.5A.5.5,0,0,1,48.54,132.75Zm-7.94,0h-3a.51.51,0,0,1-.5-.5.5.5,0,0,1,.5-.5h3a.5.5,0,0,1,.5.5A.5.5,0,0,1,40.6,132.75Zm-7.94,0h-3a.5.5,0,0,1-.5-.5.5.5,0,0,1,.5-.5h3a.5.5,0,0,1,.5.5A.51.51,0,0,1,32.66,132.75Zm-7.94,0h-3a.5.5,0,0,1-.5-.5.5.5,0,0,1,.5-.5h3a.5.5,0,0,1,.5.5A.51.51,0,0,1,24.72,132.75Z"/><path class="cls-2" d="M364.72,132.75h-1.5a.5.5,0,0,1-.5-.5.5.5,0,0,1,.5-.5h1.5a.5.5,0,0,1,.5.5A.51.51,0,0,1,364.72,132.75Z"/><path class="cls-6" d="M66.67,241.32a30,30,0,0,0,41.4,27.76l7.51,5.94-2.23-8.76a30,30,0,1,0-46.68-24.94Z"/><path class="cls-7" d="M117.28,277.64l-9.37-7.42a31,31,0,1,1,6.58-3.53Zm-9-9.71,5.65,4.47-1.68-6.58.59-.39a28.92,28.92,0,1,0-5.1,2.72Z"/><polyline class="cls-8" points="105.58 251.38 110.47 258.26 117.87 244.91"/><path class="cls-7" d="M91.15,251.38A15.44,15.44,0,0,1,75.73,236a1,1,0,0,1,2,0,13.42,13.42,0,1,0,13.42-13.42,1,1,0,0,1,0-2,15.42,15.42,0,0,1,0,30.84Z"/><path class="cls-7" d="M86.15,223.43a1,1,0,0,1-.35-1.94l.69-.24a1,1,0,0,1,1.26.66,1,1,0,0,1-.65,1.25l-.6.2A.87.87,0,0,1,86.15,223.43Z"/><path class="cls-7" d="M78.61,229.83a1,1,0,0,1-.49-.13,1,1,0,0,1-.38-1.37c.27-.46.56-.92.88-1.36a1,1,0,0,1,1.39-.23,1,1,0,0,1,.23,1.4c-.27.38-.53.78-.76,1.18A1,1,0,0,1,78.61,229.83Zm3.2-3.86a1,1,0,0,1-.76-.36,1,1,0,0,1,.12-1.41c.41-.34.84-.67,1.28-1a1,1,0,1,1,1.13,1.65c-.38.27-.76.55-1.12.86A1,1,0,0,1,81.81,226Z"/><path class="cls-7" d="M77.09,233.74a.82.82,0,0,1-.22,0,1,1,0,0,1-.76-1.19l.18-.72a1,1,0,1,1,1.93.55c-.06.2-.11.4-.16.6A1,1,0,0,1,77.09,233.74Z"/><rect class="cls-7" x="89.87" y="228.44" width="2.5" height="8.77" rx="1.18"/><path class="cls-7" d="M79.66,236h0a1.21,1.21,0,0,0,1.16,1.24l10.52,0a1.2,1.2,0,0,0,1.13-1.26h0a1.2,1.2,0,0,0-1.15-1.24l-10.52,0A1.21,1.21,0,0,0,79.66,236Z"/><path class="cls-2" d="M257,182.25a7.79,7.79,0,1,1,7.73-7.84A7.75,7.75,0,0,1,257,182.25Zm0-14.07a6.29,6.29,0,1,0,6.23,6.23A6.29,6.29,0,0,0,257,168.18Z"/><path class="cls-2" d="M256.91,197.45h-.08a18.15,18.15,0,0,1-13.09-5.55.72.72,0,0,1-.21-.52c0-5.3,3.32-9,8.07-9h10.58c4.82,0,8.19,3.7,8.19,9a.74.74,0,0,1-.21.53A18.46,18.46,0,0,1,256.91,197.45ZM245,191.08a16.7,16.7,0,0,0,11.8,4.87h.08a17,17,0,0,0,12-4.87c-.12-3.53-2.22-7.2-6.69-7.2H251.6C247.18,183.88,245.14,187.45,245,191.08Zm24.59.3h0Z"/><path class="cls-2" d="M257,200A20.75,20.75,0,1,1,277.7,179.2,20.78,20.78,0,0,1,257,200Zm0-40A19.25,19.25,0,1,0,276.2,179.2,19.28,19.28,0,0,0,257,160Z"/><path class="cls-2" d="M257,243.63a7.79,7.79,0,1,1,7.73-7.84A7.75,7.75,0,0,1,257,243.63Zm0-14.07a6.29,6.29,0,1,0,6.23,6.23A6.29,6.29,0,0,0,257,229.56Z"/><path class="cls-2" d="M256.91,258.83h-.08a18.18,18.18,0,0,1-13.09-5.54.74.74,0,0,1-.21-.53c0-5.3,3.32-9,8.07-9h10.58c4.82,0,8.19,3.7,8.19,9a.74.74,0,0,1-.21.53A18.42,18.42,0,0,1,256.91,258.83ZM245,252.46a16.66,16.66,0,0,0,11.8,4.87h.08a16.93,16.93,0,0,0,12-4.87c-.12-3.53-2.22-7.2-6.69-7.2H251.6C247.18,245.26,245.14,248.83,245,252.46Zm24.59.3h0Z"/><path class="cls-2" d="M257,261.33a20.75,20.75,0,1,1,20.75-20.75A20.78,20.78,0,0,1,257,261.33Zm0-40a19.25,19.25,0,1,0,19.25,19.25A19.28,19.28,0,0,0,257,221.33Z"/><path class="cls-2" d="M257,305a7.78,7.78,0,1,1,7.73-7.84A7.75,7.75,0,0,1,257,305ZM257,291a6.28,6.28,0,1,0,6.23,6.22A6.29,6.29,0,0,0,257,291Z"/><path class="cls-2" d="M256.91,320.21h-.08a18.18,18.18,0,0,1-13.09-5.54.73.73,0,0,1-.21-.52c0-5.31,3.32-9,8.07-9h10.58c4.82,0,8.19,3.7,8.19,9a.73.73,0,0,1-.21.52A18.42,18.42,0,0,1,256.91,320.21ZM245,313.84a16.62,16.62,0,0,0,11.8,4.87h.08a16.93,16.93,0,0,0,12-4.87c-.12-3.52-2.22-7.2-6.69-7.2H251.6C247.18,306.64,245.14,310.21,245,313.84Zm24.59.31h0Z"/><path class="cls-2" d="M257,322.71A20.75,20.75,0,1,1,277.7,302,20.78,20.78,0,0,1,257,322.71Zm0-40A19.25,19.25,0,1,0,276.2,302,19.28,19.28,0,0,0,257,282.71Z"/><g class="cls-9"><polygon class="cls-2" points="214.38 240.15 204.41 235.03 204.41 237.96 152.34 237.96 152.34 242.33 204.41 242.33 204.41 245.26 214.38 240.15"/><polygon class="cls-2" points="152.34 212.31 152.34 216.09 202.82 192.95 200.37 189.17 152.34 212.31"/><polygon class="cls-2" points="198.71 186.63 204.47 195.5 210.23 186.63 198.71 186.63"/><polygon class="cls-2" points="202.82 287.34 152.34 264.2 152.34 267.98 200.37 291.12 202.82 287.34"/><polygon class="cls-2" points="204.47 284.8 198.71 293.66 210.23 293.66 204.47 284.8"/></g></g></g></svg>