<?xml version="1.0" encoding="utf-8"?>
<!-- Generator: Adobe Illustrator 23.1.1, SVG Export Plug-In . SVG Version: 6.00 Build 0)  -->
<svg version="1.1" id="Calque_1" xmlns="http://www.w3.org/2000/svg" xmlns:xlink="http://www.w3.org/1999/xlink" x="0px" y="0px"
	 viewBox="0 0 374.6 376.9" style="enable-background:new 0 0 374.6 376.9;" xml:space="preserve">
<style type="text/css">
	.st0{opacity:0.1;}
	.st1{fill:#227FAD;}
	.st2{fill:#E9F1F4;}
	.st3{fill:#2A4F71;}
	.st4{fill:none;stroke:#227FAD;stroke-linecap:round;stroke-linejoin:round;}
	.st5{fill:none;stroke:#227FAD;stroke-linecap:round;stroke-linejoin:round;stroke-dasharray:2.98,4.96;}
	.st6{fill:#E34F27;}
	.st7{fill:none;stroke:#227FAD;stroke-width:1.5;stroke-linecap:round;stroke-linejoin:round;}
</style>
<title>Fichier 2</title>
<g>
	<g id="NOTIFICATIONS">
		<g class="st0">
			<path class="st1" d="M12.7,89.1c-7-7-11.1-14-12.4-20.9s1.2-13.5,7.5-19.8c6.2-6.2,12.8-8.7,19.7-7.5c7,1.2,13.9,5.3,20.9,12.3
				c7,7,11.2,14,12.4,21c1.3,7-1.2,13.6-7.4,19.8c-6.2,6.2-12.8,8.7-19.8,7.4C26.7,100.3,19.7,96.1,12.7,89.1z M37.7,64.1
				c-4-4-7.6-6.6-10.7-7.8s-6.1-0.4-8.9,2.4c-2.8,2.8-3.7,5.8-2.5,9c1.2,3.2,3.8,6.7,7.8,10.7c4,4,7.6,6.6,10.8,7.9
				c3.2,1.2,6.2,0.4,9-2.4c2.8-2.8,3.6-5.8,2.3-8.9C44.3,71.8,41.7,68.2,37.7,64.1L37.7,64.1z"/>
			<path class="st1" d="M55.9,1.1c6.2-2.4,13.2-0.8,17.7,4c2.9,2.9,4.5,6,4.8,9.3c0.3,3.2-0.5,6.3-2.3,9l0.3,0.3
				c7.7-3.9,14.2-3.2,19.6,2.2c2.5,2.4,4.2,5.4,5.1,8.7c0.8,3.3,0.7,6.7-0.5,9.9c-1.4,3.7-3.6,7.1-6.5,9.9c-5.2,5.2-10.6,8-16.1,8.5
				S67,61.1,61.6,56.1l10.6-10.6c1.7,1.7,4,2.8,6.4,3c2.4,0,4.6-1,6.2-2.7c2.8-2.4,3.1-6.7,0.7-9.5c-0.2-0.2-0.4-0.4-0.6-0.6
				c-3.7-3.7-8.2-2.9-13.6,2.5l-2,2l-8.8-8.9l2-2c4.9-4.7,5.5-8.8,2-12.4c-1.2-1.4-2.9-2.2-4.8-2.3c-1.8,0.1-3.4,0.8-4.6,2.2
				c-1.4,1.3-2.2,3.2-2.1,5.2c0.2,2.1,1.2,4.1,2.6,5.7L45,38.3c-4.5-5-6.7-10.1-6.5-15.4s2.8-10.4,7.8-15.4
				C49,4.7,52.3,2.5,55.9,1.1z"/>
		</g>
		<path class="st2" d="M188.8,376.5c102.2,0,185-82.8,185-185c0-19.1-2.9-38.1-8.8-56.3H12.6c-5.8,18.2-8.8,37.2-8.8,56.3
			C3.8,293.7,86.7,376.5,188.8,376.5z"/>
		<path class="st3" d="M188.8,376.9C86.4,376.9,3.1,293.6,3.1,191.2c-0.1-28.8,6.6-57.3,19.5-83.1c0.2-0.4,0.6-0.5,1-0.3
			c0.4,0.2,0.5,0.6,0.3,1c-12.8,25.6-19.5,53.8-19.4,82.4c0,101.6,82.7,184.2,184.2,184.2s184.2-82.6,184.2-184.2
			S290.4,6.9,188.8,6.9c-28.5-0.1-56.5,6.5-82,19.2c-0.4,0.2-0.8,0-1-0.3c-0.2-0.4,0-0.8,0.3-1c25.7-12.8,54-19.4,82.7-19.3
			c102.4,0,185.8,83.3,185.8,185.8S291.2,376.9,188.8,376.9z"/>
		<line class="st4" x1="16" y1="134.1" x2="17.5" y2="134.1"/>
		<line class="st5" x1="22.4" y1="134.1" x2="361.4" y2="134.1"/>
		<line class="st4" x1="363.9" y1="134.1" x2="365.4" y2="134.1"/>
		<path class="st6" d="M175.8,162.7c0.2,0.2,0.5,0.3,0.8,0.3c0.5,0,1-0.3,1.1-0.8c0.2-0.8,0.3-1.6,0.3-2.4c-0.2,0.4-0.5,0.7-0.9,0.9
			c-0.5,0.2-1,0.4-1.5,0.3c-1,0.1-1.9-0.3-2.6-1c-0.7-0.8-1.1-1.9-1-2.9c0-0.8,0.2-1.5,0.5-2.2c0.3-0.6,0.9-1.1,1.5-1.4
			c0.7-0.4,1.5-0.5,2.3-0.5c1-0.1,2,0.2,2.9,0.8c0.7,0.5,1.2,1.3,1.4,2.1c0.3,1,0.4,2.1,0.4,3.2c0.1,1.7-0.2,3.5-1,5
			c-0.7,1.1-2,1.8-3.4,1.7c-0.8,0-1.6-0.2-2.3-0.6c-0.6-0.3-1.1-0.8-1.5-1.4c-0.3-0.6-0.5-1.3-0.6-1.9h3.1
			C175.5,162.1,175.6,162.4,175.8,162.7z M177.5,156.2c-0.6-0.5-1.4-0.5-2,0c-0.5,0.6-0.5,1.4,0,2c0.3,0.2,0.6,0.4,1,0.4
			c0.4,0,0.7-0.1,1-0.3c0.3-0.3,0.4-0.6,0.4-1C177.9,156.8,177.7,156.4,177.5,156.2L177.5,156.2z"/>
		<path class="st6" d="M186.7,159.7c0.8-0.7,1.3-1.6,1.4-2.6c0-0.8-0.3-1.1-0.9-1.1c-0.3,0-0.6,0.1-0.7,0.4
			c-0.2,0.4-0.3,0.8-0.2,1.3H183c-0.1-2.3,1.7-4.4,4-4.5c0.2,0,0.3,0,0.5,0c1.1-0.1,2.2,0.3,3,1c0.7,0.7,1,1.6,1,2.6
			c0,1.2-0.4,2.3-1.2,3.2c-0.8,1-1.8,1.9-2.9,2.6h4.3v2.7H183v-2.5C184.3,161.9,185.6,160.9,186.7,159.7z"/>
		<path class="st6" d="M198.4,154.1c0.6,0.6,0.9,1.4,0.8,2.2c0.1,0.8-0.2,1.6-0.8,2.2c-0.6,0.5-1.3,0.8-2.1,0.8
			c-0.8,0-1.5-0.2-2.1-0.8c-0.6-0.6-0.9-1.4-0.8-2.2c-0.1-0.8,0.2-1.6,0.8-2.2c0.6-0.5,1.3-0.8,2.1-0.8
			C197.1,153.3,197.8,153.5,198.4,154.1z M205,153.5l-6.4,12.1h-3.2l6.4-12.1H205z M195.7,157c0.1,0.2,0.3,0.3,0.5,0.3
			c0.2,0,0.4-0.1,0.6-0.3c0.2-0.2,0.2-0.5,0.2-0.7c0-0.3-0.1-0.5-0.2-0.8c-0.1-0.2-0.3-0.3-0.6-0.3c-0.2,0-0.4,0.1-0.5,0.3
			c-0.1,0.2-0.2,0.5-0.2,0.8C195.5,156.5,195.6,156.8,195.7,157z M206.2,160.5c0.6,0.6,0.9,1.4,0.8,2.2c0.1,0.8-0.2,1.6-0.8,2.2
			c-0.6,0.5-1.3,0.8-2.1,0.8c-0.8,0-1.5-0.2-2.1-0.8c-0.6-0.6-0.9-1.4-0.8-2.2c-0.1-0.8,0.2-1.6,0.8-2.2c0.6-0.5,1.3-0.8,2.1-0.8
			C204.8,159.7,205.6,160,206.2,160.5L206.2,160.5z M203.5,163.5c0.1,0.2,0.3,0.3,0.6,0.3c0.2,0,0.4-0.1,0.6-0.3
			c0.2-0.2,0.2-0.5,0.2-0.8c0-0.3-0.1-0.5-0.2-0.8c-0.1-0.2-0.3-0.3-0.6-0.3c-0.2,0-0.4,0.1-0.6,0.3c-0.1,0.2-0.2,0.5-0.2,0.8
			C203.3,163,203.4,163.3,203.5,163.5L203.5,163.5z"/>
		<path class="st6" d="M83,197c0.4-0.6,0.9-1,1.5-1.3c1.6-0.7,3.3-0.7,4.9,0c0.6,0.3,1.1,0.7,1.5,1.3c0.3,0.5,0.5,1.1,0.5,1.6
			c0,0.6-0.1,1.1-0.4,1.6c-0.3,0.4-0.7,0.8-1.2,1c1.2,0.5,1.9,1.7,1.9,3c0,0.8-0.2,1.5-0.6,2.1c-0.4,0.6-1,1.1-1.7,1.3
			c-1.5,0.6-3.2,0.6-4.7,0c-0.7-0.3-1.3-0.7-1.7-1.3c-0.4-0.6-0.6-1.4-0.6-2.1c-0.1-1.3,0.7-2.5,1.9-3c-1-0.5-1.6-1.5-1.6-2.6
			C82.5,198,82.7,197.5,83,197z M85.9,205.1c0.3,0.3,0.7,0.4,1.1,0.4c0.4,0,0.8-0.1,1.1-0.4c0.3-0.3,0.4-0.6,0.4-1
			c0-0.4-0.1-0.7-0.4-1c-0.3-0.3-0.7-0.4-1.1-0.4c-0.4,0-0.7,0.1-1,0.4C85.4,203.7,85.4,204.5,85.9,205.1L85.9,205.1z M86.1,200.1
			c0.5,0.4,1.2,0.4,1.6,0c0.2-0.3,0.3-0.6,0.3-0.9c0-0.3-0.1-0.7-0.3-0.9c-0.4-0.4-1.2-0.5-1.6,0c0,0,0,0,0,0
			c-0.2,0.3-0.3,0.6-0.3,0.9C85.8,199.5,85.9,199.9,86.1,200.1L86.1,200.1z"/>
		<path class="st6" d="M103.1,198.6h-5.2v1.9c0.3-0.3,0.6-0.4,0.9-0.6c0.4-0.1,0.8-0.2,1.3-0.2c0.7,0,1.4,0.2,2,0.5
			c0.5,0.4,1,0.9,1.2,1.4c0.3,0.6,0.4,1.3,0.4,2c0.1,1.2-0.3,2.3-1.1,3.1c-0.9,0.8-2,1.2-3.1,1.1c-0.8,0-1.7-0.1-2.4-0.5
			c-0.6-0.3-1.2-0.8-1.6-1.4c-0.4-0.6-0.6-1.3-0.6-2h3.3c0,0.3,0.1,0.5,0.3,0.7c0.5,0.4,1.3,0.4,1.7-0.1c0.2-0.3,0.3-0.7,0.3-1.1
			c0-0.4-0.1-0.7-0.3-1c-0.5-0.4-1.1-0.5-1.6-0.1c-0.2,0.1-0.3,0.3-0.3,0.5h-3.3v-7.5h8.2V198.6z"/>
		<path class="st6" d="M110.7,196.6c1.1,1.3,1.1,3.1,0,4.4c-0.6,0.5-1.3,0.8-2.1,0.8c-0.8,0-1.6-0.2-2.1-0.8
			c-0.6-0.6-0.9-1.4-0.8-2.2c-0.1-0.8,0.2-1.6,0.8-2.2c0.6-0.5,1.4-0.8,2.1-0.8C109.4,195.8,110.1,196,110.7,196.6z M117.3,196
			l-6.4,12h-3.2l6.4-12L117.3,196z M108,199.5c0.1,0.2,0.3,0.3,0.5,0.3c0.2,0,0.4-0.1,0.6-0.3c0.2-0.2,0.2-0.5,0.2-0.7
			c0-0.3-0.1-0.5-0.2-0.8c-0.1-0.2-0.3-0.3-0.6-0.3c-0.2,0-0.4,0.1-0.5,0.3c-0.1,0.2-0.2,0.5-0.2,0.8
			C107.8,199,107.9,199.3,108,199.5z M118.5,203c1.1,1.3,1.1,3.1,0,4.4c-0.6,0.5-1.3,0.8-2.1,0.8c-0.8,0-1.5-0.2-2.1-0.8
			c-1.1-1.3-1.1-3.1,0-4.4c0.6-0.5,1.3-0.8,2.1-0.8C117.2,202.2,117.9,202.5,118.5,203z M115.8,205.9c0.1,0.2,0.3,0.3,0.6,0.3
			c0.2,0,0.4-0.1,0.6-0.3c0.1-0.2,0.2-0.5,0.2-0.8c0-0.3-0.1-0.5-0.2-0.7c-0.1-0.2-0.3-0.3-0.6-0.3c-0.2,0-0.4,0.1-0.6,0.3
			c-0.1,0.2-0.2,0.5-0.2,0.7C115.6,205.5,115.7,205.8,115.8,205.9L115.8,205.9z"/>
		<path class="st6" d="M269,211.8l-4.2,9.7h-3.5l4.3-9.3h-4.7v-2.9h8.1V211.8z"/>
		<path class="st6" d="M278.5,211.8l-4.2,9.7h-3.5l4.3-9.3h-4.7v-2.9h8.1V211.8z"/>
		<path class="st6" d="M285.1,210.1c0.6,0.6,0.9,1.4,0.8,2.2c0.1,0.8-0.2,1.6-0.8,2.2c-0.6,0.5-1.3,0.8-2.1,0.8
			c-0.8,0-1.5-0.2-2.1-0.8c-0.6-0.6-0.9-1.4-0.8-2.2c-0.1-0.8,0.2-1.6,0.8-2.2c0.6-0.5,1.3-0.8,2.1-0.8
			C283.7,209.3,284.5,209.6,285.1,210.1z M291.7,209.5l-6.5,12.1H282l6.4-12.1L291.7,209.5z M282.4,213c0.1,0.2,0.3,0.3,0.5,0.2
			c0.2,0,0.4-0.1,0.6-0.3c0.1-0.2,0.2-0.5,0.2-0.7c0-0.3-0.1-0.5-0.2-0.8c-0.1-0.2-0.3-0.3-0.6-0.3c-0.2,0-0.4,0.1-0.5,0.3
			c-0.1,0.2-0.2,0.5-0.2,0.8C282.2,212.5,282.2,212.8,282.4,213z M292.9,216.5c0.6,0.6,0.9,1.4,0.8,2.2c0.1,0.8-0.2,1.6-0.8,2.2
			c-0.6,0.5-1.3,0.8-2.1,0.8c-0.8,0-1.5-0.2-2.1-0.8c-0.6-0.6-0.9-1.4-0.8-2.2c-0.1-0.8,0.2-1.6,0.8-2.2c0.6-0.5,1.3-0.8,2.1-0.8
			C291.5,215.7,292.3,216,292.9,216.5L292.9,216.5z M290.2,219.5c0.1,0.2,0.3,0.3,0.5,0.3c0.2,0,0.4-0.1,0.6-0.3
			c0.2-0.2,0.2-0.5,0.2-0.8c0-0.3-0.1-0.5-0.2-0.7c-0.1-0.2-0.3-0.3-0.6-0.3c-0.2,0-0.4,0.1-0.5,0.3c-0.1,0.2-0.2,0.5-0.2,0.7
			C290,219,290,219.3,290.2,219.5L290.2,219.5z"/>
		<path class="st1" d="M188.9,198.8c-4.3,0-7.8-3.4-7.8-7.7s3.4-7.8,7.7-7.8c4.3,0,7.8,3.4,7.8,7.7
			C196.6,195.2,193.2,198.8,188.9,198.8C188.9,198.8,188.9,198.8,188.9,198.8z M188.9,184.8c-3.5,0-6.3,2.8-6.3,6.2s2.8,6.3,6.2,6.3
			s6.3-2.8,6.3-6.2c0,0,0-0.1,0-0.1C195,187.6,192.3,184.8,188.9,184.8z"/>
		<path class="st1" d="M188.8,214L188.8,214c-5,0-9.7-2-13.2-5.5c-0.1-0.1-0.2-0.3-0.2-0.5c0-5.3,3.3-9,8.1-9h10.6
			c4.8,0,8.2,3.7,8.2,9c0,0.2-0.1,0.4-0.2,0.5C198.6,212,193.8,214,188.8,214z M176.9,207.6c3.1,3.1,7.4,4.9,11.8,4.9h0.1
			c4.5,0,8.8-1.7,12-4.9c-0.1-3.5-2.2-7.2-6.7-7.2h-10.6C179.1,200.4,177.1,204,176.9,207.6L176.9,207.6z M201.5,207.9L201.5,207.9z
			"/>
		<path class="st1" d="M188.9,216.5c-11.5,0-20.8-9.3-20.8-20.8s9.3-20.8,20.8-20.8s20.8,9.3,20.8,20.8l0,0
			C209.6,207.2,200.3,216.5,188.9,216.5z M188.9,176.5c-10.6,0-19.2,8.6-19.2,19.2s8.6,19.2,19.2,19.2s19.2-8.6,19.2-19.2l0,0
			C208.1,185.1,199.5,176.5,188.9,176.5z"/>
		<path class="st1" d="M99.9,242.1c-4.3,0-7.8-3.4-7.8-7.7c0-4.3,3.4-7.8,7.7-7.8c4.3,0,7.8,3.4,7.8,7.7c0,0,0,0,0,0
			C107.7,238.5,104.3,242,99.9,242.1C100,242,100,242,99.9,242.1z M99.9,228c-3.5,0-6.3,2.8-6.3,6.2c0,3.5,2.8,6.3,6.2,6.3
			c3.5,0,6.3-2.8,6.3-6.2c0,0,0-0.1,0-0.1C106.1,230.8,103.4,228,99.9,228L99.9,228z"/>
		<path class="st1" d="M99.9,257.2L99.9,257.2c-5,0-9.7-2-13.2-5.6c-0.1-0.1-0.2-0.3-0.2-0.5c0-5.3,3.3-9,8.1-9h10.6
			c4.8,0,8.2,3.7,8.2,9c0,0.2-0.1,0.4-0.2,0.5C109.7,255.3,104.9,257.3,99.9,257.2z M88,250.9c3.1,3.1,7.4,4.9,11.8,4.9h0.1
			c4.5,0,8.8-1.7,12-4.9c-0.1-3.5-2.2-7.2-6.7-7.2H94.6C90.2,243.7,88.1,247.2,88,250.9z M112.6,251.2L112.6,251.2z"/>
		<path class="st1" d="M99.9,259.8c-11.5,0-20.8-9.3-20.8-20.8s9.3-20.8,20.8-20.8s20.8,9.3,20.8,20.8l0,0
			C120.7,250.5,111.4,259.7,99.9,259.8z M99.9,219.8c-10.6,0-19.2,8.6-19.2,19.2s8.6,19.2,19.2,19.2s19.2-8.6,19.2-19.2
			C119.2,228.4,110.6,219.8,99.9,219.8z"/>
		<path class="st1" d="M277.8,255.8c-4.3,0-7.8-3.4-7.8-7.7c0-4.3,3.4-7.8,7.7-7.8c4.3,0,7.8,3.4,7.8,7.7
			C285.5,252.3,282.1,255.8,277.8,255.8C277.8,255.8,277.8,255.8,277.8,255.8z M277.8,241.8c-3.5,0-6.3,2.8-6.3,6.2
			c0,3.5,2.8,6.3,6.2,6.3c3.5,0,6.3-2.8,6.3-6.2c0,0,0-0.1,0-0.1C284,244.6,281.2,241.8,277.8,241.8z"/>
		<path class="st1" d="M277.7,271L277.7,271c-5,0-9.7-2-13.2-5.5c-0.1-0.1-0.2-0.3-0.2-0.5c0-5.3,3.3-9,8.1-9H283
			c4.8,0,8.2,3.7,8.2,9c0,0.2-0.1,0.4-0.2,0.5C287.5,269.1,282.7,271.1,277.7,271z M265.9,264.7c3.1,3.1,7.4,4.9,11.8,4.9
			c4.5,0,8.8-1.7,12-4.9c-0.1-3.5-2.2-7.2-6.7-7.2h-10.6C268,257.5,266,261,265.9,264.7L265.9,264.7z M290.5,265L290.5,265z"/>
		<path class="st1" d="M277.8,273.5c-11.5,0-20.8-9.3-20.8-20.8c0-11.5,9.3-20.8,20.8-20.8s20.8,9.3,20.8,20.8
			C298.5,264.2,289.2,273.5,277.8,273.5z M277.8,233.5c-10.6,0-19.3,8.6-19.3,19.2c0,10.6,8.6,19.3,19.2,19.3
			c10.6,0,19.3-8.6,19.3-19.2c0,0,0,0,0,0C297,242.2,288.4,233.6,277.8,233.5L277.8,233.5z"/>
		<path class="st1" d="M145.2,276.5H56.8c-0.4,0-0.8-0.3-0.8-0.8s0.3-0.8,0.8-0.8h88.4V276.5z"/>
		<path class="st1" d="M233,290c-0.4,0-0.8-0.3-0.8-0.8v-54.6h-86.9v40.6c0,0.4-0.3,0.8-0.8,0.8s-0.8-0.3-0.8-0.8v-41.4
			c0-0.4,0.3-0.7,0.8-0.8H233c0.4,0,0.8,0.3,0.8,0.8v55.4C233.7,289.7,233.4,290,233,290z"/>
		<line class="st7" x1="233.1" y1="289.3" x2="324.2" y2="289.3"/>
	</g>
</g>
</svg>
