<svg xmlns="http://www.w3.org/2000/svg" viewBox="0 0 374.56 376.93"><defs><style>.cls-1{opacity:0.1;}.cls-2{fill:#227fad;}.cls-3{fill:#e9f1f4;}.cls-4{fill:#2a4f71;}.cls-5{fill:#1f3552;}.cls-6,.cls-7,.cls-9{fill:none;stroke:#227fad;stroke-linecap:round;stroke-linejoin:round;}.cls-7{stroke-dasharray:2.98 4.96;}.cls-8{fill:#e34f27;}.cls-9{stroke-width:1.5px;}</style></defs><title>Fichier 2</title><g id="Calque_2" data-name="Calque 2"><g id="NOTIFICATIONS"><g class="cls-1"><path class="cls-2" d="M12.69,89.06Q2.19,78.56.31,68.16T7.79,48.4q9.3-9.3,19.73-7.45T48.46,53.3Q59,63.86,60.9,74.33T53.49,94.09q-9.36,9.36-19.8,7.45T12.69,89.06Zm25-24.94q-6-6-10.69-7.83T18.1,58.71q-4.26,4.26-2.48,9t7.76,10.69q6.06,6,10.79,7.86t9-2.45q4.2-4.2,2.35-8.91T37.64,64.12Z"/><path class="cls-2" d="M55.93,1.08a16.37,16.37,0,0,1,17.73,4q4.4,4.4,4.8,9.32a13.86,13.86,0,0,1-2.26,9l.32.31Q88,17.79,96.12,25.87a18.87,18.87,0,0,1,5.13,8.69,17.13,17.13,0,0,1-.48,9.89,25.93,25.93,0,0,1-6.49,9.87q-7.77,7.76-16.13,8.49T61.57,56.1L72.19,45.47a10.32,10.32,0,0,0,6.37,3.05,8,8,0,0,0,6.17-2.73,6.74,6.74,0,0,0,.06-10.12q-5.54-5.54-13.55,2.48l-2,2-8.84-8.85,2-2q7.32-7.07,2-12.35a6.79,6.79,0,0,0-4.78-2.29A6.39,6.39,0,0,0,55,16.83,6.44,6.44,0,0,0,52.94,22a9.9,9.9,0,0,0,2.64,5.69L45,38.34q-6.81-7.44-6.49-15.4t7.76-15.4A26.18,26.18,0,0,1,55.93,1.08Z"/></g><path class="cls-3" d="M188.83,376.55c102.17,0,185-82.82,185-185a184.63,184.63,0,0,0-8.75-56.33H12.58a184.63,184.63,0,0,0-8.75,56.33C3.83,293.73,86.66,376.55,188.83,376.55Z"/><path class="cls-4" d="M188.81,376.93C86.38,376.93,3.06,293.61,3.06,191.18a183.94,183.94,0,0,1,19.55-83.05.76.76,0,0,1,1-.34.75.75,0,0,1,.33,1A182.4,182.4,0,0,0,4.56,191.18c0,101.6,82.65,184.25,184.25,184.25s184.25-82.65,184.25-184.25S290.4,6.93,188.81,6.93a182.42,182.42,0,0,0-82,19.19.75.75,0,0,1-.66-1.35A183.91,183.91,0,0,1,188.81,5.43c102.42,0,185.75,83.33,185.75,185.75S291.23,376.93,188.81,376.93Z"/><path class="cls-5" d="M93.23,74.69l3,8.76,3.07-8.76h1.86L97.37,85.28H95.18L91.37,74.69Z"/><path class="cls-5" d="M104.93,74.69V85.28h-1.71V74.69Z"/><path class="cls-5" d="M114.34,83.91A2.75,2.75,0,0,1,113.2,85a4,4,0,0,1-1.88.4,4.59,4.59,0,0,1-1.93-.38A3.27,3.27,0,0,1,108,83.93a3.05,3.05,0,0,1-.59-1.59h1.84a1.79,1.79,0,0,0,.59,1.18,1.92,1.92,0,0,0,1.39.5,1.62,1.62,0,0,0,1.2-.42,1.43,1.43,0,0,0,.43-1.08,1.41,1.41,0,0,0-.32-.94,2.24,2.24,0,0,0-.77-.58c-.31-.14-.74-.3-1.28-.48a10.84,10.84,0,0,1-1.61-.63,2.89,2.89,0,0,1-1.06-.91,2.64,2.64,0,0,1-.43-1.58,2.69,2.69,0,0,1,.42-1.5,2.66,2.66,0,0,1,1.19-1,4.3,4.3,0,0,1,1.81-.36,3.94,3.94,0,0,1,2.57.78,3,3,0,0,1,1.08,2h-1.84a1.79,1.79,0,0,0-.56-1,1.76,1.76,0,0,0-1.25-.43,1.72,1.72,0,0,0-1.16.37,1.29,1.29,0,0,0-.44,1,1.36,1.36,0,0,0,.31.9,2,2,0,0,0,.75.55c.31.14.73.29,1.26.47a11.75,11.75,0,0,1,1.64.64,3.12,3.12,0,0,1,1.08.94,2.75,2.75,0,0,1,.44,1.62A2.92,2.92,0,0,1,114.34,83.91Z"/><path class="cls-5" d="M118.81,74.69V81a3,3,0,0,0,.62,2.1,2.54,2.54,0,0,0,3.48,0,3.08,3.08,0,0,0,.62-2.1V74.69h1.71V81a4.47,4.47,0,0,1-1.12,3.3,4.05,4.05,0,0,1-3,1.11,4,4,0,0,1-2.93-1.11A4.51,4.51,0,0,1,117.1,81V74.69Z"/><path class="cls-5" d="M134.3,83h-4.47l-.81,2.3h-1.83l3.9-10.43h2l3.88,10.43h-1.83Zm-.48-1.32-1.76-5-1.75,5Z"/><path class="cls-5" d="M140.67,83.94h3.66v1.34H139V74.69h1.71Z"/><path class="cls-5" d="M148.13,74.69V85.28h-1.71V74.69Z"/><path class="cls-5" d="M157.53,83.91A2.75,2.75,0,0,1,156.39,85a4,4,0,0,1-1.87.4,4.63,4.63,0,0,1-1.94-.38,3.3,3.3,0,0,1-1.36-1.07,3.05,3.05,0,0,1-.59-1.59h1.83a1.85,1.85,0,0,0,.6,1.18,1.9,1.9,0,0,0,1.38.5,1.65,1.65,0,0,0,1.21-.42,1.43,1.43,0,0,0,.43-1.08,1.41,1.41,0,0,0-.32-.94A2.28,2.28,0,0,0,155,81c-.31-.14-.73-.3-1.27-.48a10.84,10.84,0,0,1-1.61-.63A2.89,2.89,0,0,1,151,79a2.64,2.64,0,0,1-.44-1.58,2.6,2.6,0,0,1,1.62-2.49,4.25,4.25,0,0,1,1.8-.36,4,4,0,0,1,2.58.78,3,3,0,0,1,1.08,2h-1.84a1.79,1.79,0,0,0-.56-1,1.77,1.77,0,0,0-1.26-.43,1.69,1.69,0,0,0-1.15.37,1.29,1.29,0,0,0-.44,1,1.36,1.36,0,0,0,.3.9,2.13,2.13,0,0,0,.76.55c.31.14.72.29,1.25.47a11.94,11.94,0,0,1,1.65.64,3.12,3.12,0,0,1,1.08.94,2.75,2.75,0,0,1,.44,1.62A2.93,2.93,0,0,1,157.53,83.91Z"/><path class="cls-5" d="M162.08,76.07v3.21H166V80.6h-3.9v3.28h4.35v1.4h-6.06V74.69h6.06v1.38Z"/><path class="cls-5" d="M170.34,83.88h5.15v1.4h-7.05V83.94l5-7.86h-4.94V74.69h6.87V76Z"/><path class="cls-5" d="M183.87,76.07v3.21h3.9V80.6h-3.9v3.28h4.35v1.4h-6.06V74.69h6.06v1.38Z"/><path class="cls-5" d="M197.45,74.69v1.38h-3v9.21h-1.72V76.07h-2.94V74.69Z"/><path class="cls-5" d="M211.7,75.57a4.85,4.85,0,0,1,1.74,2.69h-1.82a3.16,3.16,0,0,0-1.19-1.52,3.4,3.4,0,0,0-2-.57,3.11,3.11,0,0,0-1.69.47A3.17,3.17,0,0,0,205.57,78a4.51,4.51,0,0,0-.43,2,4.57,4.57,0,0,0,.43,2,3.21,3.21,0,0,0,1.17,1.32,3.11,3.11,0,0,0,1.69.47,3.46,3.46,0,0,0,2-.56,3.23,3.23,0,0,0,1.19-1.51h1.82a4.82,4.82,0,0,1-1.74,2.68,5.71,5.71,0,0,1-5.9.3A4.62,4.62,0,0,1,204,82.78a6.52,6.52,0,0,1,0-5.59,4.65,4.65,0,0,1,1.78-1.92,5.09,5.09,0,0,1,2.66-.69A5.17,5.17,0,0,1,211.7,75.57Z"/><path class="cls-5" d="M223.47,75.24a5,5,0,0,1,1.87,1.93,6.1,6.1,0,0,1,0,5.6,5,5,0,0,1-1.87,1.93,5.44,5.44,0,0,1-5.34,0,5,5,0,0,1-1.89-1.93,6,6,0,0,1,0-5.6,5,5,0,0,1,1.89-1.93,5.51,5.51,0,0,1,5.34,0ZM219,76.61a3.19,3.19,0,0,0-1.24,1.33,4.88,4.88,0,0,0,0,4A3.22,3.22,0,0,0,219,83.33a3.77,3.77,0,0,0,3.61,0A3.26,3.26,0,0,0,223.83,82a4.88,4.88,0,0,0,0-4,3.24,3.24,0,0,0-1.23-1.33,3.7,3.7,0,0,0-3.61,0Z"/><path class="cls-5" d="M239.48,74.85V85.28h-1.73V77.46l-3,7.82h-1.5l-3-7.82v7.82H228.5V74.85h2.07L234,83.18l3.39-8.33Z"/><path class="cls-5" d="M244,81.17v4.11h-1.71V74.69h3.6a3.91,3.91,0,0,1,2.76.87,3.13,3.13,0,0,1,.92,2.38,3.07,3.07,0,0,1-.95,2.37,3.94,3.94,0,0,1-2.73.86Zm3.83-3.23a1.78,1.78,0,0,0-.51-1.37,2.31,2.31,0,0,0-1.61-.47H244v3.67h1.71C247.11,79.77,247.82,79.16,247.82,77.94Z"/><path class="cls-5" d="M258.12,83h-4.47l-.81,2.3H251l3.9-10.43h2l3.88,10.43h-1.83Zm-.48-1.32-1.75-5-1.76,5Z"/><path class="cls-5" d="M268.35,85.28l-2.64-4.23H264.5v4.23h-1.71V74.69h3.73a3.85,3.85,0,0,1,2.75.88,3.05,3.05,0,0,1,.94,2.34,3,3,0,0,1-.7,2,3.29,3.29,0,0,1-2,1l2.77,4.31Zm-3.85-5.45h1.89q2.07,0,2.07-1.83a1.76,1.76,0,0,0-.51-1.35,2.13,2.13,0,0,0-1.56-.49H264.5Z"/><path class="cls-5" d="M274.22,76.07v3.21h3.9V80.6h-3.9v3.28h4.35v1.4h-6.06V74.69h6.06v1.38Z"/><path class="cls-5" d="M282.48,83.88h5.15v1.4h-7.05V83.94l5-7.86h-4.94V74.69h6.87V76Z"/><path class="cls-5" d="M57.37,109.94H61v1.34H55.66V100.69h1.71Z"/><path class="cls-5" d="M64.83,102.07v3.21h3.9v1.32h-3.9v3.28h4.35v1.4H63.12V100.69h6.06v1.38Z"/><path class="cls-5" d="M78.18,109.91A2.75,2.75,0,0,1,77,111a4,4,0,0,1-1.88.4,4.59,4.59,0,0,1-1.93-.38,3.34,3.34,0,0,1-1.37-1.07,3,3,0,0,1-.58-1.59h1.83a1.89,1.89,0,0,0,.59,1.18,1.94,1.94,0,0,0,1.39.5,1.66,1.66,0,0,0,1.21-.42,1.46,1.46,0,0,0,.42-1.08,1.4,1.4,0,0,0-.31-.94,2.28,2.28,0,0,0-.78-.58c-.31-.14-.74-.3-1.28-.48a11.3,11.3,0,0,1-1.61-.63,3,3,0,0,1-1.06-.91,2.64,2.64,0,0,1-.43-1.58,2.6,2.6,0,0,1,1.62-2.49,4.25,4.25,0,0,1,1.8-.36,3.94,3.94,0,0,1,2.57.78,2.92,2.92,0,0,1,1.09,2H76.48a1.9,1.9,0,0,0-3-1.08,1.28,1.28,0,0,0-.43,1,1.36,1.36,0,0,0,.3.9,2,2,0,0,0,.76.55c.3.14.72.29,1.25.47a11.75,11.75,0,0,1,1.64.64,3,3,0,0,1,1.08.94,2.68,2.68,0,0,1,.44,1.62A2.92,2.92,0,0,1,78.18,109.91Z"/><path class="cls-5" d="M90.84,111.28l-2.64-4.23H87v4.23H85.27V100.69H89a3.85,3.85,0,0,1,2.75.88,3.05,3.05,0,0,1,.94,2.34,3,3,0,0,1-.7,2,3.31,3.31,0,0,1-2,1l2.78,4.31ZM87,105.83h1.89q2.07,0,2.07-1.83a1.8,1.8,0,0,0-.5-1.35,2.17,2.17,0,0,0-1.57-.49H87Z"/><path class="cls-5" d="M96.7,102.07v3.21h3.9v1.32H96.7v3.28h4.35v1.4H95V100.69h6.06v1.38Zm3.71-3.72L97.09,100v-1.2L100.41,97Z"/><path class="cls-5" d="M110.05,109.91a2.75,2.75,0,0,1-1.14,1.07,4,4,0,0,1-1.87.4,4.63,4.63,0,0,1-1.94-.38,3.3,3.3,0,0,1-1.36-1.07,3.05,3.05,0,0,1-.59-1.59H105a1.89,1.89,0,0,0,.59,1.18,1.94,1.94,0,0,0,1.39.5,1.66,1.66,0,0,0,1.21-.42,1.47,1.47,0,0,0,.43-1.08,1.41,1.41,0,0,0-.32-.94,2.28,2.28,0,0,0-.78-.58c-.31-.14-.73-.3-1.27-.48a11.49,11.49,0,0,1-1.62-.63,2.94,2.94,0,0,1-1-.91,2.64,2.64,0,0,1-.44-1.58,2.6,2.6,0,0,1,1.62-2.49,4.25,4.25,0,0,1,1.8-.36,3.92,3.92,0,0,1,2.57.78,2.92,2.92,0,0,1,1.09,2h-1.84a1.75,1.75,0,0,0-.57-1,1.73,1.73,0,0,0-1.25-.43,1.69,1.69,0,0,0-1.15.37,1.29,1.29,0,0,0-.44,1,1.36,1.36,0,0,0,.3.9,2,2,0,0,0,.76.55c.3.14.72.29,1.25.47a11.27,11.27,0,0,1,1.64.64,3,3,0,0,1,1.08.94,2.68,2.68,0,0,1,.45,1.62A2.93,2.93,0,0,1,110.05,109.91Z"/><path class="cls-5" d="M114.52,100.69V107a3.08,3.08,0,0,0,.62,2.1,2.25,2.25,0,0,0,1.75.69,2.2,2.2,0,0,0,1.73-.69,3,3,0,0,0,.63-2.1v-6.28H121V107a4.47,4.47,0,0,1-1.13,3.3,4,4,0,0,1-3,1.11,4,4,0,0,1-2.94-1.11,4.51,4.51,0,0,1-1.11-3.3v-6.28Z"/><path class="cls-5" d="M125.41,109.94h3.66v1.34H123.7V100.69h1.71Z"/><path class="cls-5" d="M138,100.69v1.38h-3v9.21h-1.72v-9.21h-2.94v-1.38Z"/><path class="cls-5" d="M146.31,109h-4.47l-.81,2.3H139.2l3.9-10.43h2L149,111.28h-1.83Zm-.48-1.32-1.76-5-1.75,5Z"/><path class="cls-5" d="M157.78,100.69v1.38h-2.95v9.21H153.1v-9.21h-2.94v-1.38Z"/><path class="cls-5" d="M166.39,109.91a2.75,2.75,0,0,1-1.14,1.07,4,4,0,0,1-1.87.4,4.63,4.63,0,0,1-1.94-.38,3.3,3.3,0,0,1-1.36-1.07,3.05,3.05,0,0,1-.59-1.59h1.83a1.89,1.89,0,0,0,.59,1.18,1.94,1.94,0,0,0,1.39.5,1.66,1.66,0,0,0,1.21-.42,1.47,1.47,0,0,0,.43-1.08,1.41,1.41,0,0,0-.32-.94,2.28,2.28,0,0,0-.78-.58c-.31-.14-.73-.3-1.27-.48a11.49,11.49,0,0,1-1.62-.63,2.94,2.94,0,0,1-1-.91,2.64,2.64,0,0,1-.44-1.58,2.6,2.6,0,0,1,1.62-2.49,4.25,4.25,0,0,1,1.8-.36,3.92,3.92,0,0,1,2.57.78,2.92,2.92,0,0,1,1.09,2H164.7a1.75,1.75,0,0,0-.57-1,1.73,1.73,0,0,0-1.25-.43,1.69,1.69,0,0,0-1.15.37,1.29,1.29,0,0,0-.44,1,1.36,1.36,0,0,0,.3.9,2,2,0,0,0,.76.55c.3.14.72.29,1.25.47a11.27,11.27,0,0,1,1.64.64,3,3,0,0,1,1.08.94,2.68,2.68,0,0,1,.45,1.62A2.93,2.93,0,0,1,166.39,109.91Z"/><path class="cls-5" d="M181.92,108.77a4.52,4.52,0,0,1-1.9,1.85,6.34,6.34,0,0,1-3,.66h-3.54V100.69H177a6.47,6.47,0,0,1,3,.65,4.5,4.5,0,0,1,1.9,1.84,5.64,5.64,0,0,1,.66,2.79A5.71,5.71,0,0,1,181.92,108.77Zm-2.1,0a4.28,4.28,0,0,0,0-5.55,4,4,0,0,0-2.93-1H175.2v7.53h1.69A4,4,0,0,0,179.82,108.74Z"/><path class="cls-5" d="M186.76,102.07v3.21h3.9v1.32h-3.9v3.28h4.35v1.4h-6.06V100.69h6.06v1.38Z"/><path class="cls-5" d="M198.85,100.69l3,8.76,3.06-8.76h1.86L203,111.28H200.8L197,100.69Z"/><path class="cls-5" d="M216.41,101.24a5,5,0,0,1,1.87,1.93,6.1,6.1,0,0,1,0,5.6,5,5,0,0,1-1.87,1.93,5.44,5.44,0,0,1-5.34,0,5,5,0,0,1-1.89-1.93,6,6,0,0,1,0-5.6,5,5,0,0,1,1.89-1.93,5.51,5.51,0,0,1,5.34,0Zm-4.48,1.37a3.19,3.19,0,0,0-1.24,1.33,4.88,4.88,0,0,0,0,4,3.22,3.22,0,0,0,1.24,1.34,3.77,3.77,0,0,0,3.61,0,3.26,3.26,0,0,0,1.23-1.34,4.88,4.88,0,0,0,0-4,3.24,3.24,0,0,0-1.23-1.33,3.7,3.7,0,0,0-3.61,0Z"/><path class="cls-5" d="M228,109.91a2.75,2.75,0,0,1-1.14,1.07,4,4,0,0,1-1.87.4,4.63,4.63,0,0,1-1.94-.38,3.3,3.3,0,0,1-1.36-1.07,3.05,3.05,0,0,1-.59-1.59H223a1.85,1.85,0,0,0,.6,1.18,1.9,1.9,0,0,0,1.38.5,1.65,1.65,0,0,0,1.21-.42,1.43,1.43,0,0,0,.43-1.08,1.41,1.41,0,0,0-.32-.94,2.28,2.28,0,0,0-.78-.58c-.31-.14-.73-.3-1.27-.48a10.84,10.84,0,0,1-1.61-.63,2.89,2.89,0,0,1-1.06-.91,2.64,2.64,0,0,1-.44-1.58,2.6,2.6,0,0,1,1.62-2.49,4.25,4.25,0,0,1,1.8-.36,4,4,0,0,1,2.58.78,3,3,0,0,1,1.08,2h-1.84a1.79,1.79,0,0,0-.56-1,1.77,1.77,0,0,0-1.26-.43,1.69,1.69,0,0,0-1.15.37,1.29,1.29,0,0,0-.44,1,1.36,1.36,0,0,0,.3.9,2.13,2.13,0,0,0,.76.55c.31.14.72.29,1.25.47a11.94,11.94,0,0,1,1.65.64,3.12,3.12,0,0,1,1.08.94,2.75,2.75,0,0,1,.44,1.62A2.93,2.93,0,0,1,228,109.91Z"/><path class="cls-5" d="M243.08,101.57a4.85,4.85,0,0,1,1.74,2.69H243a3.22,3.22,0,0,0-1.19-1.52,3.45,3.45,0,0,0-2-.57A3.09,3.09,0,0,0,237,104a4.38,4.38,0,0,0-.43,2,4.44,4.44,0,0,0,.43,2,3.14,3.14,0,0,0,1.17,1.32,3.08,3.08,0,0,0,1.68.47,3.52,3.52,0,0,0,2-.56,3.29,3.29,0,0,0,1.19-1.51h1.81a4.82,4.82,0,0,1-1.74,2.68,5.22,5.22,0,0,1-3.24,1,5.15,5.15,0,0,1-2.65-.68,4.65,4.65,0,0,1-1.79-1.91,6.52,6.52,0,0,1,0-5.59,4.67,4.67,0,0,1,1.79-1.92,5.06,5.06,0,0,1,2.65-.69A5.17,5.17,0,0,1,243.08,101.57Z"/><path class="cls-5" d="M253.6,109h-4.47l-.81,2.3h-1.83l3.9-10.43h2l3.89,10.43h-1.83Zm-.48-1.32-1.76-5-1.75,5Z"/><path class="cls-5" d="M266.83,111.28h-1.71L260,103.46v7.82h-1.71V100.7H260l5.15,7.85V100.7h1.71Z"/><path class="cls-5" d="M278.09,108.77a4.55,4.55,0,0,1-1.91,1.85,6.32,6.32,0,0,1-3,.66h-3.54V100.69h3.54a6.44,6.44,0,0,1,3,.65,4.53,4.53,0,0,1,1.91,1.84,5.75,5.75,0,0,1,.65,2.79A5.82,5.82,0,0,1,278.09,108.77Zm-2.11,0a4.28,4.28,0,0,0,0-5.55,4,4,0,0,0-2.93-1h-1.69v7.53h1.69A4,4,0,0,0,276,108.74Z"/><path class="cls-5" d="M282.92,100.69v10.59h-1.71V100.69Z"/><path class="cls-5" d="M294.18,108.77a4.55,4.55,0,0,1-1.91,1.85,6.32,6.32,0,0,1-3,.66h-3.54V100.69h3.54a6.44,6.44,0,0,1,3,.65,4.53,4.53,0,0,1,1.91,1.84,5.75,5.75,0,0,1,.65,2.79A5.82,5.82,0,0,1,294.18,108.77Zm-2.11,0a4.28,4.28,0,0,0,0-5.55,4,4,0,0,0-2.92-1h-1.7v7.53h1.7A4,4,0,0,0,292.07,108.74Z"/><path class="cls-5" d="M303.62,109h-4.47l-.81,2.3h-1.83l3.9-10.43h2l3.88,10.43h-1.83Zm-.48-1.32-1.75-5-1.76,5Z"/><path class="cls-5" d="M315.1,100.69v1.38h-3v9.21h-1.72v-9.21h-2.94v-1.38Z"/><path class="cls-5" d="M323.71,109.91a2.75,2.75,0,0,1-1.14,1.07,4,4,0,0,1-1.88.4,4.59,4.59,0,0,1-1.93-.38,3.34,3.34,0,0,1-1.37-1.07,3,3,0,0,1-.58-1.59h1.83a1.84,1.84,0,0,0,.59,1.18,1.92,1.92,0,0,0,1.39.5,1.62,1.62,0,0,0,1.2-.42,1.43,1.43,0,0,0,.43-1.08,1.4,1.4,0,0,0-.31-.94,2.28,2.28,0,0,0-.78-.58c-.31-.14-.74-.3-1.28-.48a10.84,10.84,0,0,1-1.61-.63,2.89,2.89,0,0,1-1.06-.91,2.64,2.64,0,0,1-.43-1.58,2.6,2.6,0,0,1,1.62-2.49,4.25,4.25,0,0,1,1.8-.36,3.94,3.94,0,0,1,2.57.78,3,3,0,0,1,1.09,2H322a1.79,1.79,0,0,0-.56-1,1.74,1.74,0,0,0-1.25-.43,1.72,1.72,0,0,0-1.16.37,1.28,1.28,0,0,0-.43,1,1.36,1.36,0,0,0,.3.9,2.09,2.09,0,0,0,.75.55c.31.14.73.29,1.26.47a11.75,11.75,0,0,1,1.64.64,3.12,3.12,0,0,1,1.08.94,2.75,2.75,0,0,1,.44,1.62A2.92,2.92,0,0,1,323.71,109.91Z"/><line class="cls-6" x1="15.97" y1="134.12" x2="17.47" y2="134.12"/><line class="cls-7" x1="22.44" y1="134.12" x2="361.43" y2="134.12"/><line class="cls-6" x1="363.91" y1="134.12" x2="365.41" y2="134.12"/><path class="cls-8" d="M175.84,162.67a1.08,1.08,0,0,0,.83.31,1.1,1.1,0,0,0,1.1-.78,6.43,6.43,0,0,0,.27-2.42,2,2,0,0,1-.93.92,3.11,3.11,0,0,1-1.48.34,3.48,3.48,0,0,1-2.64-1,4,4,0,0,1-1-2.92,4.39,4.39,0,0,1,.52-2.18,3.57,3.57,0,0,1,1.48-1.45,4.82,4.82,0,0,1,2.32-.52,4.72,4.72,0,0,1,2.86.76,4,4,0,0,1,1.43,2.09,11.3,11.3,0,0,1,.4,3.2,9.81,9.81,0,0,1-1,5,3.58,3.58,0,0,1-3.35,1.68,4.54,4.54,0,0,1-2.31-.55,3.79,3.79,0,0,1-1.47-1.42,4.43,4.43,0,0,1-.58-1.93h3.13A1.67,1.67,0,0,0,175.84,162.67Zm1.62-6.49a1.59,1.59,0,0,0-2,0,1.54,1.54,0,0,0,0,2,1.38,1.38,0,0,0,1,.35,1.41,1.41,0,0,0,1-.34,1.21,1.21,0,0,0,.39-1A1.38,1.38,0,0,0,177.46,156.18Z"/><path class="cls-8" d="M186.71,159.72a4,4,0,0,0,1.4-2.59c0-.75-.3-1.12-.9-1.12a.79.79,0,0,0-.74.39,2.68,2.68,0,0,0-.25,1.29H183a4.25,4.25,0,0,1,4.51-4.49,4,4,0,0,1,3,1,3.54,3.54,0,0,1,1,2.58,5.2,5.2,0,0,1-1.2,3.23,11,11,0,0,1-2.95,2.63h4.32v2.71H183v-2.5A30.74,30.74,0,0,0,186.71,159.72Z"/><path class="cls-8" d="M198.39,154.06a2.87,2.87,0,0,1,.82,2.2,2.84,2.84,0,0,1-.81,2.18,3,3,0,0,1-2.12.77,3,3,0,0,1-2.13-.77,2.81,2.81,0,0,1-.82-2.18,2.87,2.87,0,0,1,.82-2.2,3,3,0,0,1,2.13-.77A3,3,0,0,1,198.39,154.06Zm6.6-.6-6.45,12.07h-3.19l6.44-12.07ZM195.71,157a.65.65,0,0,0,.54.26.7.7,0,0,0,.57-.26,1.15,1.15,0,0,0,.21-.73,1.18,1.18,0,0,0-.21-.75.68.68,0,0,0-.57-.27.63.63,0,0,0-.54.27,1.24,1.24,0,0,0-.19.75A1.18,1.18,0,0,0,195.71,157Zm10.48,3.54a2.84,2.84,0,0,1,.82,2.2,2.87,2.87,0,0,1-.82,2.2,3,3,0,0,1-2.12.77,3,3,0,0,1-2.13-.77,2.91,2.91,0,0,1-.81-2.2,2.88,2.88,0,0,1,.81-2.2,3,3,0,0,1,2.13-.76A3,3,0,0,1,206.19,160.53Zm-2.69,2.95a.63.63,0,0,0,.55.26.65.65,0,0,0,.56-.26,1.18,1.18,0,0,0,.21-.75,1.19,1.19,0,0,0-.21-.75.67.67,0,0,0-.56-.26.65.65,0,0,0-.55.26,1.26,1.26,0,0,0-.19.75A1.24,1.24,0,0,0,203.5,163.48Z"/><path class="cls-8" d="M83,197a3.59,3.59,0,0,1,1.5-1.27,6.27,6.27,0,0,1,4.86,0,3.59,3.59,0,0,1,1.5,1.27,3,3,0,0,1,.49,1.64,2.89,2.89,0,0,1-.42,1.58,2.69,2.69,0,0,1-1.18,1,3.14,3.14,0,0,1,1.87,3,3.66,3.66,0,0,1-.63,2.15,3.85,3.85,0,0,1-1.7,1.34,6.41,6.41,0,0,1-4.72,0,3.85,3.85,0,0,1-1.7-1.34,3.66,3.66,0,0,1-.63-2.15,3.14,3.14,0,0,1,1.87-3,2.74,2.74,0,0,1-1.6-2.6A3,3,0,0,1,83,197Zm2.87,8.09a1.45,1.45,0,0,0,1.06.38,1.49,1.49,0,0,0,1.07-.38,1.36,1.36,0,0,0,.39-1,1.34,1.34,0,0,0-.4-1,1.48,1.48,0,0,0-1.06-.38,1.4,1.4,0,0,0-1,.38,1.53,1.53,0,0,0,0,2Zm.24-5a1.24,1.24,0,0,0,1.64,0,1.26,1.26,0,0,0,.3-.91,1.3,1.3,0,0,0-.31-.92,1.13,1.13,0,0,0-1.62,0,1.3,1.3,0,0,0-.31.92A1.26,1.26,0,0,0,86.1,200.15Z"/><path class="cls-8" d="M103.07,198.59H97.9v1.94a2.51,2.51,0,0,1,.93-.56,3.64,3.64,0,0,1,1.27-.2,3.48,3.48,0,0,1,2,.54,3.27,3.27,0,0,1,1.2,1.45,5.06,5.06,0,0,1,.39,2,4.29,4.29,0,0,1-1.12,3.15A4.21,4.21,0,0,1,99.42,208a5.64,5.64,0,0,1-2.45-.49,3.67,3.67,0,0,1-1.58-1.37,3.76,3.76,0,0,1-.55-2h3.27a1.31,1.31,0,0,0,.32.73,1.23,1.23,0,0,0,1.71-.1,1.71,1.71,0,0,0,.3-1.06,1.38,1.38,0,0,0-.33-1,1.35,1.35,0,0,0-1.62-.13.84.84,0,0,0-.35.52H94.88v-7.46h8.19Z"/><path class="cls-8" d="M110.7,196.56a3.35,3.35,0,0,1,0,4.38,2.94,2.94,0,0,1-2.11.76,3,3,0,0,1-2.14-.76,2.83,2.83,0,0,1-.82-2.18,2.87,2.87,0,0,1,.82-2.2,3,3,0,0,1,2.14-.77A2.94,2.94,0,0,1,110.7,196.56Zm6.6-.6L110.86,208h-3.2L114.1,196ZM108,199.49a.63.63,0,0,0,.53.26.68.68,0,0,0,.57-.27,1.1,1.1,0,0,0,.21-.72,1.16,1.16,0,0,0-.21-.75.68.68,0,0,0-.57-.27.61.61,0,0,0-.53.27,1.22,1.22,0,0,0-.2.75A1.18,1.18,0,0,0,108,199.49ZM118.51,203a3.38,3.38,0,0,1,0,4.39,3,3,0,0,1-2.13.78,2.93,2.93,0,0,1-2.12-.78,3.35,3.35,0,0,1,0-4.39,3,3,0,0,1,2.12-.76A3,3,0,0,1,118.51,203Zm-2.7,2.95a.66.66,0,0,0,.55.26.7.7,0,0,0,.57-.26,1.27,1.27,0,0,0,.2-.76,1.25,1.25,0,0,0-.2-.74.7.7,0,0,0-.57-.26.66.66,0,0,0-.55.26,1.25,1.25,0,0,0-.19.74A1.28,1.28,0,0,0,115.81,206Z"/><path class="cls-8" d="M269,211.84l-4.22,9.71h-3.45l4.27-9.3h-4.73V209.4H269Z"/><path class="cls-8" d="M278.53,211.84l-4.22,9.71h-3.45l4.27-9.3H270.4V209.4h8.13Z"/><path class="cls-8" d="M285.07,210.08a2.88,2.88,0,0,1,.82,2.21,2.84,2.84,0,0,1-.81,2.17,3,3,0,0,1-2.12.77,3,3,0,0,1-2.13-.77,2.81,2.81,0,0,1-.82-2.17,2.88,2.88,0,0,1,.82-2.21,3,3,0,0,1,2.13-.77A3,3,0,0,1,285.07,210.08Zm6.6-.6-6.45,12.07H282l6.44-12.07ZM282.39,213a.64.64,0,0,0,.54.25.7.7,0,0,0,.57-.26,1.14,1.14,0,0,0,.21-.72,1.21,1.21,0,0,0-.21-.76.68.68,0,0,0-.57-.26.62.62,0,0,0-.54.26,1.28,1.28,0,0,0-.19.76A1.2,1.2,0,0,0,282.39,213Zm10.48,3.53a2.84,2.84,0,0,1,.82,2.2,2.87,2.87,0,0,1-.82,2.2,3,3,0,0,1-2.12.77,3,3,0,0,1-2.13-.77,2.91,2.91,0,0,1-.81-2.2,2.88,2.88,0,0,1,.81-2.2,3,3,0,0,1,2.13-.76A3,3,0,0,1,292.87,216.55Zm-2.69,2.95a.63.63,0,0,0,.55.27.65.65,0,0,0,.56-.27,1.18,1.18,0,0,0,.21-.75,1.14,1.14,0,0,0-.21-.74.65.65,0,0,0-.56-.27.63.63,0,0,0-.55.27,1.21,1.21,0,0,0-.2.74A1.24,1.24,0,0,0,290.18,219.5Z"/><path class="cls-2" d="M188.86,198.81a7.78,7.78,0,1,1,7.72-7.84A7.75,7.75,0,0,1,188.86,198.81Zm0-14.06a6.28,6.28,0,1,0,6.22,6.22A6.29,6.29,0,0,0,188.86,184.75Z"/><path class="cls-2" d="M188.82,214h-.08a18.18,18.18,0,0,1-13.09-5.54.73.73,0,0,1-.21-.52c0-5.31,3.32-9,8.07-9h10.58c4.82,0,8.19,3.7,8.19,9a.78.78,0,0,1-.21.52A18.43,18.43,0,0,1,188.82,214Zm-11.88-6.38a16.62,16.62,0,0,0,11.8,4.87h.08a16.94,16.94,0,0,0,12-4.88c-.12-3.53-2.22-7.2-6.69-7.2H183.51C179.09,200.44,177.05,204,176.94,207.64Zm24.59.31h0Z"/><path class="cls-2" d="M188.86,216.51a20.75,20.75,0,1,1,20.75-20.75A20.78,20.78,0,0,1,188.86,216.51Zm0-40a19.25,19.25,0,1,0,19.25,19.25A19.28,19.28,0,0,0,188.86,176.51Z"/><path class="cls-2" d="M99.94,242.05a7.79,7.79,0,1,1,7.73-7.84A7.76,7.76,0,0,1,99.94,242.05Zm0-14.07a6.29,6.29,0,1,0,6.23,6.23A6.29,6.29,0,0,0,99.94,228Z"/><path class="cls-2" d="M99.9,257.25h-.08a18.15,18.15,0,0,1-13.09-5.55.78.78,0,0,1-.21-.52c0-5.3,3.32-9,8.08-9h10.58c4.82,0,8.19,3.7,8.19,9a.75.75,0,0,1-.22.53A18.46,18.46,0,0,1,99.9,257.25ZM88,250.88a16.68,16.68,0,0,0,11.8,4.87h.07a16.94,16.94,0,0,0,12-4.88c-.11-3.52-2.22-7.19-6.68-7.19H94.6C90.18,243.68,88.13,247.24,88,250.88Zm24.59.3h0Z"/><path class="cls-2" d="M99.94,259.75A20.75,20.75,0,1,1,120.69,239,20.78,20.78,0,0,1,99.94,259.75Zm0-40A19.25,19.25,0,1,0,119.19,239,19.27,19.27,0,0,0,99.94,219.75Z"/><path class="cls-2" d="M277.77,255.84A7.78,7.78,0,1,1,285.5,248,7.76,7.76,0,0,1,277.77,255.84Zm0-14.06A6.28,6.28,0,1,0,284,248,6.23,6.23,0,0,0,277.77,241.78Z"/><path class="cls-2" d="M277.73,271.05h-.08a18.18,18.18,0,0,1-13.09-5.54.78.78,0,0,1-.21-.52c0-5.31,3.32-9,8.08-9H283c4.82,0,8.19,3.7,8.19,9a.74.74,0,0,1-.22.52A18.43,18.43,0,0,1,277.73,271.05Zm-11.87-6.38a16.6,16.6,0,0,0,11.8,4.87,17,17,0,0,0,12-4.87c-.11-3.52-2.22-7.2-6.68-7.2H272.43C268,257.47,266,261,265.86,264.67Zm24.59.31h0Z"/><path class="cls-2" d="M277.77,273.54a20.75,20.75,0,1,1,20.75-20.75A20.78,20.78,0,0,1,277.77,273.54Zm0-40A19.25,19.25,0,1,0,297,252.79,19.28,19.28,0,0,0,277.77,233.54Z"/><path class="cls-2" d="M145.23,276.54H56.8a.75.75,0,0,1,0-1.5h88.43Z"/><path class="cls-2" d="M233,290a.75.75,0,0,1-.75-.75V234.67H145.3v40.64a.75.75,0,0,1-1.5,0V233.92a.76.76,0,0,1,.75-.75H233a.75.75,0,0,1,.75.75v55.37A.74.74,0,0,1,233,290Z"/><line class="cls-9" x1="233.07" y1="289.29" x2="324.19" y2="289.29"/></g></g></svg>