<?xml version="1.0" encoding="utf-8"?>
<!-- Generator: Adobe Illustrator 23.1.1, SVG Export Plug-In . SVG Version: 6.00 Build 0)  -->
<svg version="1.1" id="Calque_1" xmlns="http://www.w3.org/2000/svg" xmlns:xlink="http://www.w3.org/1999/xlink" x="0px" y="0px"
	 viewBox="0 0 371.5 375.2" style="enable-background:new 0 0 371.5 375.2;" xml:space="preserve">
<style type="text/css">
	.st0{opacity:0.1;}
	.st1{fill:#227FAD;}
	.st2{fill:#E9F1F4;}
	.st3{fill:#2A4F71;}
	.st4{fill:#E34F27;}
	.st5{fill:#FFFFFF;}
	.st6{fill:#1F3552;}
	.st7{font-family:'Poppins-Medium';}
	.st8{font-size:12px;}
</style>
<title>Fichier 4</title>
<g>
	<g id="NOTIFICATIONS">
		<g class="st0">
			<path class="st1" d="M17.8,79.2c-7-7-11.1-14-12.4-20.9s1.2-13.5,7.5-19.8c6.2-6.2,12.8-8.7,19.7-7.4c7,1.2,13.9,5.4,20.9,12.4
				c7,7,11.2,14,12.4,21s-1.2,13.6-7.4,19.8c-6.2,6.2-12.8,8.7-19.8,7.4S24.8,86.3,17.8,79.2z M42.8,54.2c-4-4-7.6-6.6-10.7-7.8
				S26,46,23.3,48.8c-2.8,2.8-3.7,5.8-2.5,9c1.2,3.2,3.8,6.7,7.8,10.7c4,4,7.6,6.6,10.8,7.9s6.2,0.4,9-2.4c2.8-2.8,3.6-5.8,2.3-8.9
				C49.4,61.9,46.8,58.3,42.8,54.2L42.8,54.2z"/>
			<path class="st1" d="M45,28.4L34.8,18.2L53,0l45,45L86.5,56.5L51.7,21.6L45,28.4z"/>
		</g>
		<path class="st2" d="M185.6,374.8c102.2-0.1,185.1-83,185-185.2c0-19-3-38-8.7-56.1H9.4c-5.8,18.2-8.8,37.2-8.8,56.3
			C0.6,292,83.4,374.8,185.6,374.8z"/>
		<path class="st3" d="M185.8,375.2C83.3,375.2,0,291.9,0,189.4c-0.1-28.8,6.6-57.2,19.6-83c0.2-0.4,0.6-0.5,1-0.3c0,0,0,0,0,0
			c0.4,0.2,0.5,0.6,0.3,1C8.1,132.7,1.4,160.9,1.5,189.4c0,101.6,82.7,184.3,184.2,184.3S370,291,370,189.4S287.4,5.2,185.8,5.2
			c-28.4-0.1-56.5,6.5-81.9,19.2c-0.4,0.2-0.8,0-1-0.3c-0.2-0.4,0-0.8,0.3-1c25.7-12.8,53.9-19.4,82.6-19.3
			c102.4,0,185.8,83.3,185.8,185.8S288.2,375.2,185.8,375.2z"/>
		<path class="st4" d="M284.3,276.8c-0.3,0-0.6-0.2-0.8-0.4l-20.2-28.4c-0.3-0.5-0.1-1.1,0.4-1.4c0.4-0.2,1-0.2,1.3,0.2l19.3,27.1
			l29.8-53.8c0.3-0.5,0.9-0.7,1.4-0.4s0.7,0.9,0.4,1.4l0,0l-30.6,55.2C285,276.6,284.7,276.8,284.3,276.8L284.3,276.8z"/>
		<path class="st1" d="M12.3,132.9h-1.5c-0.3,0-0.5-0.2-0.5-0.5s0.2-0.5,0.5-0.5h1.5c0.3,0,0.5,0.2,0.5,0.5S12.6,132.9,12.3,132.9z"
			/>
		<path class="st1" d="M353.8,132.9h-3c-0.3,0-0.5-0.2-0.5-0.5s0.2-0.5,0.5-0.5h3c0.3,0,0.5,0.2,0.5,0.5S354.1,132.9,353.8,132.9z
			 M345.9,132.9h-3c-0.3,0-0.5-0.2-0.5-0.5s0.2-0.5,0.5-0.5h3c0.3,0,0.5,0.2,0.5,0.5S346.2,132.9,345.9,132.9z M337.9,132.9h-3
			c-0.3,0-0.5-0.2-0.5-0.5s0.2-0.5,0.5-0.5h3c0.3,0,0.5,0.2,0.5,0.5S338.2,132.9,337.9,132.9z M330,132.9h-3c-0.3,0-0.5-0.2-0.5-0.5
			s0.2-0.5,0.5-0.5h3c0.3,0,0.5,0.2,0.5,0.5S330.3,132.9,330,132.9z M322.1,132.9h-3c-0.3,0-0.5-0.2-0.5-0.5s0.2-0.5,0.5-0.5h3
			c0.3,0,0.5,0.2,0.5,0.5S322.3,132.9,322.1,132.9z M314.1,132.9h-3c-0.3,0-0.5-0.2-0.5-0.5s0.2-0.5,0.5-0.5h3
			c0.3,0,0.5,0.2,0.5,0.5S314.4,132.9,314.1,132.9z M306.2,132.9h-3c-0.3,0-0.5-0.2-0.5-0.5s0.2-0.5,0.5-0.5h3
			c0.3,0,0.5,0.2,0.5,0.5S306.4,132.9,306.2,132.9z M298.2,132.9h-3c-0.3,0-0.5-0.2-0.5-0.5s0.2-0.5,0.5-0.5h3
			c0.3,0,0.5,0.2,0.5,0.5S298.5,132.9,298.2,132.9z M290.3,132.9h-3c-0.3,0-0.5-0.2-0.5-0.5s0.2-0.5,0.5-0.5h3
			c0.3,0,0.5,0.2,0.5,0.5S290.6,132.9,290.3,132.9z M282.3,132.9h-3c-0.3,0-0.5-0.2-0.5-0.5s0.2-0.5,0.5-0.5h3
			c0.3,0,0.5,0.2,0.5,0.5S282.6,132.9,282.3,132.9z M274.4,132.9h-3c-0.3,0-0.5-0.2-0.5-0.5s0.2-0.5,0.5-0.5h3
			c0.3,0,0.5,0.2,0.5,0.5S274.7,132.9,274.4,132.9z M266.5,132.9h-3c-0.3,0-0.5-0.2-0.5-0.5s0.2-0.5,0.5-0.5h3
			c0.3,0,0.5,0.2,0.5,0.5S266.7,132.9,266.5,132.9z M258.5,132.9h-3c-0.3,0-0.5-0.2-0.5-0.5s0.2-0.5,0.5-0.5h3
			c0.3,0,0.5,0.2,0.5,0.5S258.8,132.9,258.5,132.9z M250.6,132.9h-3c-0.3,0-0.5-0.2-0.5-0.5s0.2-0.5,0.5-0.5h3
			c0.3,0,0.5,0.2,0.5,0.5S250.9,132.9,250.6,132.9z M242.6,132.9h-3c-0.3,0-0.5-0.2-0.5-0.5s0.2-0.5,0.5-0.5h3
			c0.3,0,0.5,0.2,0.5,0.5S242.9,132.9,242.6,132.9z M234.7,132.9h-3c-0.3,0-0.5-0.2-0.5-0.5s0.2-0.5,0.5-0.5h3
			c0.3,0,0.5,0.2,0.5,0.5S235,132.9,234.7,132.9z M226.8,132.9h-3c-0.3,0-0.5-0.2-0.5-0.5s0.2-0.5,0.5-0.5h3c0.3,0,0.5,0.2,0.5,0.5
			S227,132.9,226.8,132.9z M218.8,132.9h-3c-0.3,0-0.5-0.2-0.5-0.5s0.2-0.5,0.5-0.5h3c0.3,0,0.5,0.2,0.5,0.5
			S219.1,132.9,218.8,132.9z M210.9,132.9h-3c-0.3,0-0.5-0.2-0.5-0.5s0.2-0.5,0.5-0.5h3c0.3,0,0.5,0.2,0.5,0.5
			S211.2,132.9,210.9,132.9z M202.9,132.9h-3c-0.3,0-0.5-0.2-0.5-0.5s0.2-0.5,0.5-0.5h3c0.3,0,0.5,0.2,0.5,0.5
			S203.2,132.9,202.9,132.9z M195,132.9h-3c-0.3,0-0.5-0.2-0.5-0.5s0.2-0.5,0.5-0.5h3c0.3,0,0.5,0.2,0.5,0.5S195.3,132.9,195,132.9z
			 M187,132.9h-3c-0.3,0-0.5-0.2-0.5-0.5s0.2-0.5,0.5-0.5h3c0.3,0,0.5,0.2,0.5,0.5S187.3,132.9,187,132.9z M179.1,132.9h-3
			c-0.3,0-0.5-0.2-0.5-0.5s0.2-0.5,0.5-0.5h3c0.3,0,0.5,0.2,0.5,0.5S179.4,132.9,179.1,132.9z M171.2,132.9h-3
			c-0.3,0-0.5-0.2-0.5-0.5s0.2-0.5,0.5-0.5h3c0.3,0,0.5,0.2,0.5,0.5S171.4,132.9,171.2,132.9z M163.2,132.9h-3
			c-0.3,0-0.5-0.2-0.5-0.5s0.2-0.5,0.5-0.5h3c0.3,0,0.5,0.2,0.5,0.5S163.5,132.9,163.2,132.9z M155.3,132.9h-3
			c-0.3,0-0.5-0.2-0.5-0.5s0.2-0.5,0.5-0.5h3c0.3,0,0.5,0.2,0.5,0.5S155.6,132.9,155.3,132.9z M147.3,132.9h-3
			c-0.3,0-0.5-0.2-0.5-0.5s0.2-0.5,0.5-0.5h3c0.3,0,0.5,0.2,0.5,0.5S147.6,132.9,147.3,132.9z M139.4,132.9h-3
			c-0.3,0-0.5-0.2-0.5-0.5s0.2-0.5,0.5-0.5h3c0.3,0,0.5,0.2,0.5,0.5S139.7,132.9,139.4,132.9z M131.5,132.9h-3
			c-0.3,0-0.5-0.2-0.5-0.5s0.2-0.5,0.5-0.5h3c0.3,0,0.5,0.2,0.5,0.5S131.7,132.9,131.5,132.9z M123.5,132.9h-3
			c-0.3,0-0.5-0.2-0.5-0.5s0.2-0.5,0.5-0.5h3c0.3,0,0.5,0.2,0.5,0.5S123.8,132.9,123.5,132.9z M115.6,132.9h-3
			c-0.3,0-0.5-0.2-0.5-0.5s0.2-0.5,0.5-0.5h3c0.3,0,0.5,0.2,0.5,0.5S115.9,132.9,115.6,132.9z M107.6,132.9h-3
			c-0.3,0-0.5-0.2-0.5-0.5s0.2-0.5,0.5-0.5h3c0.3,0,0.5,0.2,0.5,0.5S107.9,132.9,107.6,132.9z M99.7,132.9h-3
			c-0.3,0-0.5-0.2-0.5-0.5s0.2-0.5,0.5-0.5h3c0.3,0,0.5,0.2,0.5,0.5S100,132.9,99.7,132.9z M91.8,132.9h-3c-0.3,0-0.5-0.2-0.5-0.5
			s0.2-0.5,0.5-0.5h3c0.3,0,0.5,0.2,0.5,0.5S92,132.9,91.8,132.9z M83.8,132.9h-3c-0.3,0-0.5-0.2-0.5-0.5s0.2-0.5,0.5-0.5h3
			c0.3,0,0.5,0.2,0.5,0.5S84.1,132.9,83.8,132.9z M75.9,132.9h-3c-0.3,0-0.5-0.2-0.5-0.5s0.2-0.5,0.5-0.5h3c0.3,0,0.5,0.2,0.5,0.5
			S76.1,132.9,75.9,132.9z M67.9,132.9H65c-0.3,0-0.5-0.2-0.5-0.5s0.2-0.5,0.5-0.5h3c0.3,0,0.5,0.2,0.5,0.5S68.3,132.9,67.9,132.9
			L67.9,132.9z M60,132.9h-3c-0.3,0-0.5-0.2-0.5-0.5s0.2-0.5,0.5-0.5h3c0.3,0,0.5,0.2,0.5,0.5S60.3,132.9,60,132.9L60,132.9z
			 M52,132.9h-3c-0.3,0-0.5-0.2-0.5-0.5s0.2-0.5,0.5-0.5h3c0.3,0,0.5,0.2,0.5,0.5S52.3,132.9,52,132.9z M44.1,132.9h-3
			c-0.3,0-0.5-0.2-0.5-0.5s0.2-0.5,0.5-0.5h3c0.3,0,0.5,0.2,0.5,0.5S44.4,132.9,44.1,132.9z M36.2,132.9h-3c-0.3,0-0.5-0.2-0.5-0.5
			s0.2-0.5,0.5-0.5h3c0.3,0,0.5,0.2,0.5,0.5S36.4,132.9,36.2,132.9z M28.2,132.9h-3c-0.3,0-0.5-0.2-0.5-0.5s0.2-0.5,0.5-0.5h3
			c0.3,0,0.5,0.2,0.5,0.5S28.5,132.9,28.2,132.9z M20.3,132.9h-3c-0.3,0-0.5-0.2-0.5-0.5s0.2-0.5,0.5-0.5h3c0.3,0,0.5,0.2,0.5,0.5
			S20.6,132.9,20.3,132.9z"/>
		<path class="st1" d="M360.3,132.9h-1.5c-0.3,0-0.5-0.2-0.5-0.5s0.2-0.5,0.5-0.5h1.5c0.3,0,0.5,0.2,0.5,0.5
			S360.6,132.9,360.3,132.9z"/>
		<path class="st1" d="M113.1,297.6c-4.6,0-8.2-3.7-8.2-8.2s3.7-8.2,8.2-8.2s8.2,3.7,8.2,8.2C121.3,294,117.6,297.6,113.1,297.6z
			 M113.1,282.6c-3.7,0-6.8,3-6.8,6.8s3,6.8,6.8,6.8s6.8-3,6.8-6.8l0,0C119.8,285.7,116.8,282.7,113.1,282.6z"/>
		<path class="st1" d="M242.7,297.3H137.9c-0.3,0-0.5-0.2-0.5-0.5c0-0.3,0.2-0.5,0.5-0.5h104.8c0.3,0,0.5,0.2,0.5,0.5
			S243,297.3,242.7,297.3z"/>
		<path class="st1" d="M113.1,272.5c-4.6,0-8.2-3.7-8.2-8.2s3.7-8.2,8.2-8.2s8.2,3.7,8.2,8.2l0,0
			C121.3,268.8,117.6,272.5,113.1,272.5z M113.1,257.5c-3.7,0-6.8,3-6.8,6.8s3,6.8,6.8,6.8s6.8-3,6.8-6.8l0,0
			C119.8,260.5,116.8,257.5,113.1,257.5z"/>
		<path class="st1" d="M242.7,272.1H137.9c-0.3,0-0.5-0.2-0.5-0.5c0-0.3,0.2-0.5,0.5-0.5h104.8c0.3,0,0.5,0.2,0.5,0.5
			S243,272.1,242.7,272.1z"/>
		<path class="st1" d="M113.1,247.3c-4.6,0-8.2-3.7-8.2-8.2s3.7-8.2,8.2-8.2s8.2,3.7,8.2,8.2l0,0
			C121.3,243.6,117.6,247.3,113.1,247.3z M113.1,232.3c-3.7,0-6.8,3-6.8,6.8s3,6.8,6.8,6.8s6.8-3,6.8-6.8l0,0
			C119.8,235.3,116.8,232.3,113.1,232.3z"/>
		<path class="st1" d="M242.7,246.9H137.9c-0.3,0-0.5-0.2-0.5-0.5c0-0.3,0.2-0.5,0.5-0.5h104.8c0.3,0,0.5,0.2,0.5,0.5
			S243,246.9,242.7,246.9z"/>
		<path class="st1" d="M113.1,222.1c-4.6,0-8.2-3.7-8.2-8.2s3.7-8.2,8.2-8.2s8.2,3.7,8.2,8.2C121.3,218.4,117.6,222.1,113.1,222.1z
			 M113.1,207.1c-3.7,0-6.8,3-6.8,6.8s3,6.8,6.8,6.8s6.8-3,6.8-6.8C119.8,210.1,116.8,207.1,113.1,207.1z"/>
		<path class="st1" d="M242.7,221.8H137.9c-0.3,0-0.5-0.2-0.5-0.5c0-0.3,0.2-0.5,0.5-0.5h104.8c0.3,0,0.5,0.2,0.5,0.5
			S243,221.8,242.7,221.8z"/>
		<path class="st5" d="M45,174.2c0,9.7,7.9,17.5,17.5,17.5c2.3,0,4.5-0.4,6.6-1.3l4.4,3.5l-1.3-5.1c8-5.4,10.2-16.2,4.8-24.3
			c-5.4-8-16.2-10.2-24.3-4.8C47.9,162.9,45,168.4,45,174.2z"/>
		<path class="st4" d="M74.8,195.8l-5.8-4.6c-9.4,3.6-20-1.1-23.7-10.5c-3.6-9.4,1.1-20,10.5-23.7s20,1.1,23.7,10.5
			c3,7.8,0.4,16.6-6.4,21.5L74.8,195.8z M69.3,189.5l3,2.4l-0.9-3.5l0.4-0.3c7.6-5.1,9.7-15.5,4.6-23.1c-5.1-7.6-15.5-9.7-23.1-4.6
			c-7.6,5.1-9.7,15.5-4.6,23.1c4.4,6.6,12.8,9.1,20.1,6.1L69.3,189.5z"/>
		<path class="st4" d="M70.6,184.8c-0.2,0-0.5-0.1-0.6-0.3l-2.9-4c-0.2-0.3-0.2-0.8,0.2-1.1c0.3-0.2,0.8-0.2,1.1,0.2l2.2,3l3.7-6.7
			c0.2-0.4,0.6-0.5,1-0.4c0.4,0.2,0.5,0.6,0.4,1c0,0,0,0.1-0.1,0.1l-4.3,7.8C71.1,184.6,70.9,184.8,70.6,184.8L70.6,184.8z"/>
		<path class="st4" d="M59.3,180.2c-5.1,0-9.2-4.1-9.2-9.2c0-0.4,0.3-0.8,0.8-0.8s0.8,0.3,0.8,0.8c0,4.2,3.4,7.7,7.7,7.6
			s7.7-3.4,7.6-7.7c0-4.2-3.4-7.7-7.7-7.7c-0.4,0-0.8-0.3-0.8-0.8s0.3-0.8,0.8-0.8c5.1,0.2,9,4.4,8.9,9.5
			C68,176.2,64.1,180.1,59.3,180.2z"/>
		<path class="st4" d="M56.1,164c-0.3,0-0.6-0.2-0.7-0.5c-0.2-0.4,0-0.8,0.4-1c0,0,0,0,0,0c0.2-0.1,0.5-0.2,0.7-0.2
			c0.4-0.1,0.8,0.1,0.9,0.5s-0.1,0.8-0.5,0.9c-0.2,0.1-0.4,0.1-0.6,0.2C56.3,164,56.2,164,56.1,164z"/>
		<path class="st4" d="M52.7,166.6c-0.2,0-0.3-0.1-0.5-0.2c-0.3-0.3-0.4-0.7-0.1-1.1c0.3-0.4,0.6-0.7,1-1c0.3-0.3,0.7-0.4,1.1-0.1
			c0.3,0.3,0.4,0.7,0.1,1.1c-0.1,0.1-0.1,0.1-0.2,0.2c-0.3,0.3-0.6,0.6-0.8,0.9C53.2,166.5,52.9,166.6,52.7,166.6z"/>
		<path class="st4" d="M51.1,170H51c-0.4-0.1-0.7-0.5-0.6-0.9c0,0,0,0,0,0c0-0.2,0.1-0.5,0.2-0.7c0.1-0.4,0.6-0.6,1-0.5
			c0.4,0.1,0.6,0.5,0.5,0.9c-0.1,0.2-0.1,0.4-0.2,0.6C51.8,169.8,51.5,170,51.1,170z"/>
		<path class="st4" d="M59.3,166.7L59.3,166.7c0.5,0,0.8,0.3,0.8,0.7v3.7c0,0.4-0.3,0.7-0.7,0.7h-0.1c-0.4,0-0.7-0.3-0.7-0.7v-3.7
			C58.6,167,58.9,166.7,59.3,166.7z"/>
		<path class="st4" d="M52.6,171.1L52.6,171.1c0,0.4,0.3,0.7,0.7,0.7h6.1c0.4,0,0.7-0.3,0.7-0.7c0,0,0,0,0,0l0,0
			c0-0.4-0.3-0.7-0.7-0.7c0,0,0,0,0,0h-6.1C52.9,170.4,52.6,170.7,52.6,171.1C52.6,171.1,52.6,171.1,52.6,171.1z"/>
		<text transform="matrix(1 0 0 1 108.33 179.04)" class="st6 st7 st8">NOUVEAU TEST</text>
	</g>
</g>
</svg>
