<svg xmlns="http://www.w3.org/2000/svg" viewBox="0 0 414.45 419.21"><defs><style>.cls-1{fill:#e9f1f4;}.cls-2{fill:#227fad;}.cls-3{fill:#e34f27;stroke:#e34f27;stroke-miterlimit:10;stroke-width:0.5px;}.cls-4{opacity:0.1;}.cls-5{fill:#2a4f71;}.cls-6{fill:#1f3552;}</style></defs><title>Fichier 1</title><g id="Calque_2" data-name="Calque 2"><g id="NOTIFICATIONS"><path class="cls-1" d="M210.06,418.86c112.39,0,203.5-91.11,203.5-203.5a203.07,203.07,0,0,0-9.63-62H16.18a203.37,203.37,0,0,0-9.62,62C6.56,327.75,97.67,418.86,210.06,418.86Z"/><path class="cls-2" d="M205.11,215.46H169.46a.9.9,0,0,1-.9-.9V190.32a.9.9,0,0,1,.9-.9h35.65a.9.9,0,0,1,.9.9v24.24A.9.9,0,0,1,205.11,215.46Zm-34.75-1.8h33.85V191.22H170.36Z"/><path class="cls-2" d="M246.06,228.13H168.6a.9.9,0,1,1,0-1.8h77.46a.9.9,0,0,1,0,1.8Z"/><path class="cls-2" d="M246.06,216.55H214.63a.9.9,0,0,1,0-1.8h31.43a.9.9,0,0,1,0,1.8Z"/><path class="cls-2" d="M246.06,205H214.63a.9.9,0,1,1,0-1.8h31.43a.9.9,0,1,1,0,1.8Z"/><path class="cls-2" d="M246.06,193.4H214.63a.9.9,0,0,1,0-1.8h31.43a.9.9,0,0,1,0,1.8Z"/><path class="cls-2" d="M246.06,239.71H168.6a.9.9,0,1,1,0-1.8h77.46a.9.9,0,0,1,0,1.8Z"/><path class="cls-2" d="M246.49,251.29H169a.91.91,0,0,1,0-1.81h77.46a.91.91,0,0,1,0,1.81Z"/><path class="cls-3" d="M170.74,337.27a5.91,5.91,0,1,1,3.74-5.52v0A5.81,5.81,0,0,1,170.74,337.27Zm12.7,7.3a5.88,5.88,0,0,1-8.2-1.43h0a5.9,5.9,0,0,1,1.44-8.21l9.79-6.85a5.85,5.85,0,0,1,3.37-1.08,7,7,0,0,1,2.34.46,5.81,5.81,0,0,1,3.48,6.46h0a5.93,5.93,0,0,1-2.41,3.81Zm11.45,8a5.9,5.9,0,1,1-6.76-9.66l8.81-6.16a5.8,5.8,0,0,1,3.37-1.08,6.58,6.58,0,0,1,2.27.43,5.63,5.63,0,0,1,3.16,3.1,5.91,5.91,0,0,1-2,7.2ZM207.33,360a5.91,5.91,0,0,1-8.81-2.52,6,6,0,0,1,2.23-7.27l6.19-4.33a5.71,5.71,0,0,1,3.36-1.06,7,7,0,0,1,1.38.14,5.62,5.62,0,0,1,2.52,1.29,5.93,5.93,0,0,1-.5,9.29Zm-.23-15.77a4.76,4.76,0,0,0,.2-.74l.59.41A5.48,5.48,0,0,0,207.1,344.19ZM219,358.85a5.92,5.92,0,0,1-8.21,1.45l-.79-.56,4.48-3.13a7.25,7.25,0,0,0,3.08-6,5.47,5.47,0,0,1,1.65,1.77A5.86,5.86,0,0,1,219,358.85Zm-51.43-75.31L181.1,293a.78.78,0,0,0,.54.11s22.33-4.9,23.69-4.9a4.59,4.59,0,0,1,2.68,1.31l-22.28,18.92a.67.67,0,0,0-.09,1h0a13.84,13.84,0,0,0,19.48,1.71s3.69-3.07,6.35-5.25l8.7,6.43a13.63,13.63,0,0,0,10.08,3.2,14,14,0,0,0,4.32-1.11l17.36,12.15a5.94,5.94,0,0,1,2.43,3.82,5.84,5.84,0,0,1-1,4.39,5.9,5.9,0,0,1-8.21,1.45l-18.61-13a.67.67,0,0,0-.94.16h0a.69.69,0,0,0,.16,1l15.67,11a5.83,5.83,0,0,1,2.43,3.8,5.88,5.88,0,0,1-9.18,5.85l-16.65-11.66a.69.69,0,0,0-1,.18.66.66,0,0,0,.16.94L230,343.32a6.09,6.09,0,0,1,2.51,4.41,5.36,5.36,0,0,1-.52,2.79,5.93,5.93,0,0,1-8.8,2.43l-5.93-4.16a7,7,0,0,0-1-2.28,7.19,7.19,0,0,0-4.69-3,7,7,0,0,0-1.88,0L207.58,342h0a7.2,7.2,0,0,0-10.9-6.58,7.11,7.11,0,0,0-.85-6.67,7.27,7.27,0,0,0-10.1-1.77l-9.81,6.86c-.18.14-.35.29-.52.45a7,7,0,0,0,.48-2.55,7.26,7.26,0,0,0-4.15-6.53,3.09,3.09,0,0,0-.72-.81l-1.88-1.3c-6.08-4.27-16.84-11.79-19.36-13.55,0,0-.62-.64-1.13-.07a.68.68,0,0,0,.17,1.06l18.74,13.11-3.11,2.2a7.24,7.24,0,0,0-.3,11.63,6.58,6.58,0,0,0,2.8,1.35,7.32,7.32,0,0,0,6.36-1.58,7.24,7.24,0,0,0,.85,6.7,7.12,7.12,0,0,0,4.68,3,6.85,6.85,0,0,0,1.28.12,7.15,7.15,0,0,0,4.14-1.32l.48-.33a8,8,0,0,0-.33,1.16,7.28,7.28,0,0,0,7.31,8.52,7.57,7.57,0,0,0,4.15-1.42l1.31-.91a7.26,7.26,0,0,0,5.67,9.59,8.72,8.72,0,0,0,5.56-1.4l.46-.33,1.06.75a7.39,7.39,0,0,0,3.36,1.36,8,8,0,0,0,4-.59,6.53,6.53,0,0,0,2.57-2A7.37,7.37,0,0,0,221,353l1.44,1a7.18,7.18,0,0,0,4.18,1.32,5.81,5.81,0,0,0,1.25-.11,7.23,7.23,0,0,0,5.89-8.37,8,8,0,0,0-.31-1.19l.46.33a7.2,7.2,0,0,0,4.16,1.31,6,6,0,0,0,1.27-.11,7.09,7.09,0,0,0,4.68-3,7.19,7.19,0,0,0,1.21-5.42,8.61,8.61,0,0,0-.34-1.23,7.15,7.15,0,0,0,3.66,1,7.23,7.23,0,0,0,5.95-3.1,7.13,7.13,0,0,0,1.21-5.41,7.31,7.31,0,0,0-3-4.7l-2.58-1.8,19.05-13.36a.67.67,0,0,0,.15-1c-.42-.47-1.22.12-1.22.12-2.54,1.77-13.1,9.16-19.17,13.43l-13-9.09a13.87,13.87,0,0,0,3.69-3.09.67.67,0,0,0-.07-1,.68.68,0,0,0-1,.07l0,0a12.38,12.38,0,0,1-17.51,1.55l-.07-.05-9.16-6.79a.65.65,0,0,0-.83,0c-2.69,2.19-6.77,5.59-6.77,5.59a12.46,12.46,0,0,1-17.11-1s23.6-20.8,24.9-20.8c3,0,23.93,4.88,23.93,4.88a.78.78,0,0,0,.54-.11l14.07-10s.4-.4.19-.79a.62.62,0,0,0-.95-.18L236,291.72s-21.7-4.79-23.92-4.79c-1,0-3,1.71-3,1.71s-1.91-1.8-3.82-1.8c-2.66,0-23.59,4.88-23.59,4.88l-13.3-9.31a.75.75,0,0,0-.56-.15.68.68,0,0,0-.22,1.28Z"/><g class="cls-4"><path class="cls-2" d="M14,103.81Q2.41,92.26.35,80.82T8.57,59.08q10.22-10.21,21.7-8.19t23,13.58Q64.93,76.1,67,87.61t-8.16,21.73q-10.29,10.3-21.77,8.2T14,103.81ZM41.4,76.37q-6.65-6.65-11.76-8.61t-9.73,2.66q-4.69,4.69-2.73,9.87t8.54,11.76q6.66,6.66,11.87,8.65c3.47,1.33,6.78.43,9.9-2.7s3.95-6.34,2.59-9.8S45.84,80.81,41.4,76.37Z"/><path class="cls-2" d="M73.6,76.51l-10-10-8.4-53.62L68.07,0,98.66,30.59l6-5.95L115,35.07l-6,6,9.11,9.1L106.09,62.23,97,53.13ZM70.8,25,75.35,53.9,87.53,41.72Z"/></g><path class="cls-5" d="M210.2,419.21C97.57,419.21,6,327.58,6,215a202.18,202.18,0,0,1,21.5-91.33.75.75,0,0,1,1-.33.74.74,0,0,1,.33,1A200.74,200.74,0,0,0,7.45,215c0,111.79,91,202.75,202.75,202.75S413,326.75,413,215,322,12.21,210.2,12.21A200.69,200.69,0,0,0,120,33.32a.75.75,0,0,1-.66-1.35A202.17,202.17,0,0,1,210.2,10.71c112.62,0,204.25,91.62,204.25,204.25S322.82,419.21,210.2,419.21Z"/><path class="cls-6" d="M113.57,87.79a5.33,5.33,0,0,1,1.91,2.95h-2a3.51,3.51,0,0,0-1.31-1.67,3.73,3.73,0,0,0-2.2-.62,3.44,3.44,0,0,0-1.86.51,3.61,3.61,0,0,0-1.29,1.46,5.43,5.43,0,0,0,0,4.42,3.61,3.61,0,0,0,1.29,1.46,3.44,3.44,0,0,0,1.86.51,3.73,3.73,0,0,0,2.2-.62,3.5,3.5,0,0,0,1.31-1.65h2a5.3,5.3,0,0,1-1.91,2.94A5.74,5.74,0,0,1,110,98.56a5.64,5.64,0,0,1-2.92-.75,5.07,5.07,0,0,1-2-2.09,7.13,7.13,0,0,1,0-6.16,5.09,5.09,0,0,1,2-2.1A5.55,5.55,0,0,1,110,86.7,5.68,5.68,0,0,1,113.57,87.79Z"/><path class="cls-6" d="M127.44,86.81V98.46h-1.9V93.23h-5.47v5.23h-1.88V86.81h1.88V91.7h5.47V86.81Z"/><path class="cls-6" d="M138.87,87.42a5.52,5.52,0,0,1,2.06,2.12,6.7,6.7,0,0,1,0,6.16,5.48,5.48,0,0,1-2.06,2.13,6.07,6.07,0,0,1-5.88,0,5.58,5.58,0,0,1-2.07-2.13,6.62,6.62,0,0,1,0-6.16A5.62,5.62,0,0,1,133,87.42a6.14,6.14,0,0,1,5.88,0Zm-4.93,1.51a3.49,3.49,0,0,0-1.36,1.46,5.32,5.32,0,0,0,0,4.46,3.46,3.46,0,0,0,1.36,1.47,3.89,3.89,0,0,0,2,.51,3.81,3.81,0,0,0,2-.51,3.44,3.44,0,0,0,1.35-1.47,5.32,5.32,0,0,0,0-4.46,3.47,3.47,0,0,0-1.35-1.46,3.72,3.72,0,0,0-2-.52A3.8,3.8,0,0,0,133.94,88.93Z"/><path class="cls-6" d="M146.28,86.81V98.46H144.4V86.81Z"/><path class="cls-6" d="M156.63,97a3,3,0,0,1-1.26,1.18,4.3,4.3,0,0,1-2.06.45,5.19,5.19,0,0,1-2.13-.42,3.84,3.84,0,0,1-1.5-1.18,3.35,3.35,0,0,1-.64-1.75h2a2.06,2.06,0,0,0,.65,1.3,2.1,2.1,0,0,0,1.53.55,1.87,1.87,0,0,0,1.33-.46,1.62,1.62,0,0,0,.47-1.19,1.53,1.53,0,0,0-.35-1,2.52,2.52,0,0,0-.86-.64c-.34-.15-.8-.33-1.4-.53a12.16,12.16,0,0,1-1.77-.69,3.23,3.23,0,0,1-1.17-1,3.3,3.3,0,0,1,0-3.38,3.06,3.06,0,0,1,1.32-1.1,4.73,4.73,0,0,1,2-.38,4.34,4.34,0,0,1,2.83.85,3.24,3.24,0,0,1,1.19,2.25h-2a1.88,1.88,0,0,0-2-1.6,1.9,1.9,0,0,0-1.27.4,1.44,1.44,0,0,0-.48,1.16,1.48,1.48,0,0,0,.33,1,2.45,2.45,0,0,0,.83.61c.34.15.8.32,1.38.52a11.68,11.68,0,0,1,1.81.7,3.22,3.22,0,0,1,1.18,1,2.93,2.93,0,0,1,.49,1.78A3.25,3.25,0,0,1,156.63,97Z"/><path class="cls-6" d="M161.63,86.81V98.46h-1.88V86.81Z"/><path class="cls-6" d="M172,97a2.92,2.92,0,0,1-1.25,1.18,4.33,4.33,0,0,1-2.06.45,5.19,5.19,0,0,1-2.13-.42A3.7,3.7,0,0,1,165,97a3.36,3.36,0,0,1-.65-1.75h2a2,2,0,0,0,.65,1.3,2.09,2.09,0,0,0,1.52.55,1.83,1.83,0,0,0,1.33-.46,1.58,1.58,0,0,0,.47-1.19,1.52,1.52,0,0,0-.34-1,2.52,2.52,0,0,0-.86-.64c-.34-.15-.81-.33-1.4-.53a12.35,12.35,0,0,1-1.78-.69,3.28,3.28,0,0,1-1.16-1,2.86,2.86,0,0,1-.48-1.73,3,3,0,0,1,.46-1.65,3.06,3.06,0,0,1,1.32-1.1,4.73,4.73,0,0,1,2-.38,4.34,4.34,0,0,1,2.83.85,3.25,3.25,0,0,1,1.2,2.25h-2a2,2,0,0,0-.62-1.13,2.24,2.24,0,0,0-2.65-.07,1.44,1.44,0,0,0-.48,1.16,1.48,1.48,0,0,0,.33,1,2.4,2.4,0,0,0,.84.61c.33.15.79.32,1.37.52a11.68,11.68,0,0,1,1.81.7,3.17,3.17,0,0,1,1.19,1,3,3,0,0,1,.49,1.78A3.15,3.15,0,0,1,172,97Z"/><path class="cls-6" d="M182.34,97a3,3,0,0,1-1.26,1.18,4.33,4.33,0,0,1-2.06.45,5.19,5.19,0,0,1-2.13-.42,3.7,3.7,0,0,1-1.5-1.18,3.35,3.35,0,0,1-.64-1.75h2a2,2,0,0,0,.65,1.3,2.1,2.1,0,0,0,1.53.55,1.82,1.82,0,0,0,1.32-.46,1.58,1.58,0,0,0,.47-1.19,1.52,1.52,0,0,0-.34-1,2.52,2.52,0,0,0-.86-.64c-.34-.15-.81-.33-1.4-.53a12.35,12.35,0,0,1-1.78-.69,3.28,3.28,0,0,1-1.16-1,2.86,2.86,0,0,1-.48-1.73,3,3,0,0,1,.46-1.65,3.06,3.06,0,0,1,1.32-1.1,4.79,4.79,0,0,1,2-.38,4.32,4.32,0,0,1,2.83.85,3.25,3.25,0,0,1,1.2,2.25h-2a2,2,0,0,0-.62-1.13,2.24,2.24,0,0,0-2.65-.07,1.43,1.43,0,0,0-.47,1.16,1.48,1.48,0,0,0,.33,1,2.27,2.27,0,0,0,.83.61c.33.15.79.32,1.38.52a11.51,11.51,0,0,1,1.8.7,3.17,3.17,0,0,1,1.19,1,2.93,2.93,0,0,1,.49,1.78A3.25,3.25,0,0,1,182.34,97Z"/><path class="cls-6" d="M187.33,88.33v3.53h4.29v1.45h-4.29v3.62h4.79v1.53h-6.67V86.81h6.67v1.52Z"/><path class="cls-6" d="M196.43,96.93h5.66v1.53h-7.76V97l5.54-8.64h-5.42V86.81H202v1.47Z"/><path class="cls-6" d="M211.31,88.33v3.53h4.29v1.45h-4.29v3.62h4.78v1.53h-6.66V86.81h6.66v1.52Z"/><path class="cls-6" d="M226.24,86.81v1.52H223V98.46h-1.9V88.33h-3.23V86.81Z"/><path class="cls-6" d="M239.27,98.46l-2.9-4.65H235v4.65h-1.88V86.81h4.11a4.26,4.26,0,0,1,3,1,3.35,3.35,0,0,1,1,2.57,3.27,3.27,0,0,1-.77,2.25,3.69,3.69,0,0,1-2.22,1.12l3.06,4.73Zm-4.24-6h2.08q2.28,0,2.28-2a2,2,0,0,0-.55-1.49,2.39,2.39,0,0,0-1.73-.54H235Z"/><path class="cls-6" d="M245.73,88.33v3.53H250v1.45h-4.29v3.62h4.78v1.53h-6.66V86.81h6.66v1.52Z"/><path class="cls-6" d="M261.93,87.79a5.27,5.27,0,0,1,1.91,2.95h-2a3.57,3.57,0,0,0-1.31-1.67,3.76,3.76,0,0,0-2.21-.62,3.41,3.41,0,0,0-1.85.51,3.47,3.47,0,0,0-1.29,1.46,5.43,5.43,0,0,0,0,4.42,3.47,3.47,0,0,0,1.29,1.46,3.41,3.41,0,0,0,1.85.51,3.76,3.76,0,0,0,2.21-.62,3.56,3.56,0,0,0,1.31-1.65h2a5.25,5.25,0,0,1-1.91,2.94,5.71,5.71,0,0,1-3.56,1.08,5.62,5.62,0,0,1-2.92-.75,5.09,5.09,0,0,1-2-2.09,7.22,7.22,0,0,1,0-6.16,5.12,5.12,0,0,1,2-2.1,5.53,5.53,0,0,1,2.92-.76A5.65,5.65,0,0,1,261.93,87.79Z"/><path class="cls-6" d="M272.67,98.46l-2.9-4.65h-1.34v4.65h-1.88V86.81h4.11a4.26,4.26,0,0,1,3,1,3.39,3.39,0,0,1,1,2.57,3.32,3.32,0,0,1-.77,2.25,3.69,3.69,0,0,1-2.22,1.12l3,4.73Zm-4.24-6h2.08q2.28,0,2.28-2a2,2,0,0,0-.56-1.49,2.38,2.38,0,0,0-1.72-.54h-2.08Z"/><path class="cls-6" d="M279,86.81v6.92a3.41,3.41,0,0,0,.68,2.31,2.49,2.49,0,0,0,1.93.76,2.44,2.44,0,0,0,1.9-.76,3.36,3.36,0,0,0,.69-2.31V86.81h1.88v6.92a4.88,4.88,0,0,1-1.24,3.62,4.42,4.42,0,0,1-3.27,1.23,4.34,4.34,0,0,1-3.23-1.23,5,5,0,0,1-1.22-3.62V86.81Z"/><path class="cls-6" d="M296.63,86.81v1.52h-3.25V98.46h-1.9V88.33h-3.23V86.81Z"/><path class="cls-6" d="M300.74,88.33v3.53H305v1.45h-4.29v3.62h4.78v1.53h-6.66V86.81h6.66v1.52Z"/><path class="cls-6" d="M309.83,96.93h5.66v1.53h-7.76V97l5.55-8.64h-5.43V86.81h7.56v1.47Z"/><path class="cls-6" d="M125.73,125.59h4v1.47h-5.91V115.41h1.88Z"/><path class="cls-6" d="M133.93,116.93v3.53h4.29v1.45h-4.29v3.62h4.79v1.53h-6.67V115.41h6.67v1.52Z"/><path class="cls-6" d="M154.82,116.39a5.29,5.29,0,0,1,1.92,3h-2a3.51,3.51,0,0,0-1.31-1.67,3.75,3.75,0,0,0-2.2-.62,3.42,3.42,0,0,0-1.86.51,3.54,3.54,0,0,0-1.29,1.46,5.43,5.43,0,0,0,0,4.42,3.54,3.54,0,0,0,1.29,1.46,3.42,3.42,0,0,0,1.86.51,3.75,3.75,0,0,0,2.2-.62,3.5,3.5,0,0,0,1.31-1.65h2a5.26,5.26,0,0,1-1.92,2.94,6.25,6.25,0,0,1-6.48.33,5.16,5.16,0,0,1-2-2.09,7.22,7.22,0,0,1,0-6.16,5.12,5.12,0,0,1,2-2.1,5.55,5.55,0,0,1,2.92-.76A5.64,5.64,0,0,1,154.82,116.39Z"/><path class="cls-6" d="M166.39,124.54h-4.92l-.89,2.52h-2l4.29-11.47H165l4.27,11.47h-2Zm-.53-1.45-1.93-5.45L162,123.09Z"/><path class="cls-6" d="M180.94,127.06h-1.88l-5.66-8.59v8.59h-1.88V115.43h1.88l5.66,8.63v-8.63h1.88Z"/><path class="cls-6" d="M193.32,124.3a5,5,0,0,1-2.09,2,7,7,0,0,1-3.29.72H184V115.41h3.9a7,7,0,0,1,3.29.72,4.86,4.86,0,0,1,2.09,2,6.25,6.25,0,0,1,.72,3.07A6.31,6.31,0,0,1,193.32,124.3Zm-2.31,0a4.71,4.71,0,0,0,0-6.1,4.42,4.42,0,0,0-3.22-1.09h-1.87v8.28h1.87A4.42,4.42,0,0,0,191,124.27Z"/><path class="cls-6" d="M198.65,115.41v11.65h-1.88V115.41Z"/><path class="cls-6" d="M211,124.3a5,5,0,0,1-2.1,2,7,7,0,0,1-3.29.72h-3.89V115.41h3.89a7,7,0,0,1,3.29.72,4.94,4.94,0,0,1,2.1,2,6.25,6.25,0,0,1,.72,3.07A6.31,6.31,0,0,1,211,124.3Zm-2.32,0a4.71,4.71,0,0,0,0-6.1,4.42,4.42,0,0,0-3.22-1.09h-1.86v8.28h1.86A4.42,4.42,0,0,0,208.71,124.27Z"/><path class="cls-6" d="M221.42,124.54H216.5l-.89,2.52h-2l4.29-11.47h2.16l4.27,11.47h-2Zm-.53-1.45L219,117.64,217,123.09Z"/><path class="cls-6" d="M234,115.41v1.52h-3.25v10.13h-1.9V116.93h-3.23v-1.52Z"/><path class="cls-6" d="M242.83,115.41v11.65H241V115.41Z"/><path class="cls-6" d="M255.22,124.3a5,5,0,0,1-2.1,2,7,7,0,0,1-3.29.72h-3.89V115.41h3.89a7,7,0,0,1,3.29.72,4.94,4.94,0,0,1,2.1,2,6.36,6.36,0,0,1,.71,3.07A6.43,6.43,0,0,1,255.22,124.3Zm-2.32,0a4.71,4.71,0,0,0,0-6.1,4.42,4.42,0,0,0-3.22-1.09h-1.86v8.28h1.86A4.42,4.42,0,0,0,252.9,124.27Z"/><path class="cls-6" d="M260.54,116.93v3.53h4.29v1.45h-4.29v3.62h4.78v1.53h-6.66V115.41h6.66v1.52Zm4.07-4.09L261,114.7v-1.32l3.64-2Z"/><path class="cls-6" d="M274.93,124.54H270l-.89,2.52h-2l4.29-11.47h2.17l4.27,11.47h-2Zm-.53-1.45-1.93-5.45-1.93,5.45Z"/><path class="cls-6" d="M281.94,125.59h4v1.47h-5.9V115.41h1.88Z"/><path class="cls-6" d="M295.63,125v2.08h-2.14V125Zm-.05-9.93-.24,8.37h-1.59l-.25-8.37Z"/><path class="cls-2" d="M20.5,153H19a.5.5,0,0,1,0-1h1.5a.5.5,0,0,1,0,1Z"/><path class="cls-2" d="M396.88,153h-3a.5.5,0,0,1,0-1h3a.5.5,0,0,1,0,1Zm-8,0h-3a.5.5,0,0,1,0-1h3a.5.5,0,0,1,0,1Zm-8,0h-3a.5.5,0,0,1,0-1h3a.5.5,0,0,1,0,1Zm-8,0h-3a.5.5,0,0,1,0-1h3a.5.5,0,0,1,0,1Zm-8,0h-3a.5.5,0,0,1,0-1h3a.5.5,0,0,1,0,1Zm-8,0h-3a.5.5,0,0,1,0-1h3a.5.5,0,0,1,0,1Zm-8,0h-3a.5.5,0,0,1,0-1h3a.5.5,0,0,1,0,1Zm-8,0h-3a.5.5,0,0,1,0-1h3a.5.5,0,0,1,0,1Zm-8,0h-3a.5.5,0,0,1,0-1h3a.5.5,0,0,1,0,1Zm-8,0h-3a.5.5,0,0,1,0-1h3a.5.5,0,0,1,0,1Zm-8,0h-3a.5.5,0,0,1,0-1h3a.5.5,0,0,1,0,1Zm-8,0h-3a.5.5,0,0,1,0-1h3a.5.5,0,0,1,0,1Zm-8,0h-3a.5.5,0,0,1,0-1h3a.5.5,0,0,1,0,1Zm-8,0h-3a.5.5,0,0,1,0-1h3a.5.5,0,0,1,0,1Zm-8,0h-3a.5.5,0,0,1,0-1h3a.5.5,0,0,1,0,1Zm-8,0h-3a.5.5,0,0,1,0-1h3a.5.5,0,0,1,0,1Zm-8,0h-3a.5.5,0,0,1,0-1h3a.5.5,0,0,1,0,1Zm-8,0h-3a.5.5,0,0,1,0-1h3a.5.5,0,0,1,0,1Zm-8,0h-3a.5.5,0,0,1,0-1h3a.5.5,0,0,1,0,1Zm-8,0h-3a.5.5,0,0,1,0-1h3a.5.5,0,0,1,0,1Zm-8,0h-3a.5.5,0,0,1,0-1h3a.5.5,0,0,1,0,1Zm-8,0h-3a.5.5,0,0,1,0-1h3a.5.5,0,0,1,0,1Zm-8,0h-3a.5.5,0,0,1,0-1h3a.5.5,0,0,1,0,1Zm-8,0h-3a.5.5,0,0,1,0-1h3a.5.5,0,0,1,0,1Zm-8,0h-3a.5.5,0,0,1,0-1h3a.5.5,0,0,1,0,1Zm-8,0h-3a.5.5,0,0,1,0-1h3a.5.5,0,0,1,0,1Zm-8,0h-3a.5.5,0,0,1,0-1h3a.5.5,0,0,1,0,1Zm-8,0h-3a.5.5,0,0,1,0-1h3a.5.5,0,0,1,0,1Zm-8,0h-3a.5.5,0,0,1,0-1h3a.5.5,0,0,1,0,1Zm-8,0h-3a.5.5,0,0,1,0-1h3a.5.5,0,0,1,0,1Zm-8,0h-3a.5.5,0,0,1,0-1h3a.5.5,0,0,1,0,1Zm-8,0h-3a.5.5,0,0,1,0-1h3a.5.5,0,0,1,0,1Zm-8,0h-3a.5.5,0,0,1,0-1h3a.5.5,0,0,1,0,1Zm-8,0h-3a.5.5,0,0,1,0-1h3a.5.5,0,0,1,0,1Zm-8,0h-3a.5.5,0,1,1,0-1h3a.5.5,0,0,1,0,1Zm-8,0h-3a.5.5,0,0,1,0-1h3a.5.5,0,0,1,0,1Zm-8,0h-3a.5.5,0,0,1,0-1h3a.5.5,0,0,1,0,1Zm-8,0h-3a.5.5,0,0,1,0-1h3a.5.5,0,1,1,0,1Zm-8,0h-3a.5.5,0,0,1,0-1h3a.5.5,0,1,1,0,1Zm-8,0h-3a.5.5,0,0,1,0-1h3a.5.5,0,0,1,0,1Zm-8,0h-3a.5.5,0,0,1,0-1h3a.5.5,0,0,1,0,1Zm-8,0h-3a.5.5,0,1,1,0-1h3a.5.5,0,0,1,0,1Zm-8,0h-3a.5.5,0,1,1,0-1h3a.5.5,0,0,1,0,1Zm-8,0h-3a.5.5,0,0,1,0-1h3a.5.5,0,0,1,0,1Zm-8,0h-3a.5.5,0,0,1,0-1h3a.5.5,0,0,1,0,1Zm-8,0h-3a.5.5,0,0,1,0-1h3a.5.5,0,1,1,0,1Zm-8,0h-3a.5.5,0,1,1,0-1h3a.5.5,0,0,1,0,1Z"/><path class="cls-2" d="M403.39,153h-1.5a.5.5,0,0,1,0-1h1.5a.5.5,0,0,1,0,1Z"/></g></g></svg>