<svg xmlns="http://www.w3.org/2000/svg" width="48" height="32" viewBox="0 0 48 32">
  <metadata><?xpacket begin="﻿" id="W5M0MpCehiHzreSzNTczkc9d"?>
<x:xmpmeta xmlns:x="adobe:ns:meta/" x:xmptk="Adobe XMP Core 5.6-c138 79.159824, 2016/09/14-01:09:01        ">
   <rdf:RDF xmlns:rdf="http://www.w3.org/1999/02/22-rdf-syntax-ns#">
      <rdf:Description rdf:about=""/>
   </rdf:RDF>
</x:xmpmeta>
                                                                                                    
                                                                                                    
                                                                                                    
                                                                                                    
                                                                                                    
                                                                                                    
                                                                                                    
                                                                                                    
                                                                                                    
                                                                                                    
                                                                                                    
                                                                                                    
                                                                                                    
                                                                                                    
                                                                                                    
                                                                                                    
                                                                                                    
                                                                                                    
                                                                                                    
                                                                                                    
                           
<?xpacket end="w"?></metadata>
<defs>
    <style>
      .cls-1 {
        fill: #f2bb13;
        fill-rule: evenodd;
      }
    </style>
  </defs>
  <path id="Tutorial_48x32" class="cls-1" d="M1448,1092a1,1,0,0,1-1,1h-2.1l-0.91,9.1a1,1,0,0,1-.99.9h-4a1,1,0,0,1-1-.9l-0.91-9.1H1435a1,1,0,0,1-1-1v-0.28l-18.42-7.79a1,1,0,0,1,.72-1.86l17.7,7.48v-3.49a0.05,0.05,0,0,0,0-.06,7,7,0,0,1,14,0c0,0.01-.01.02-0.01,0.03s0.01,0.02.01,0.03V1092Zm-7-11a5,5,0,0,0-5,5c0,0.01-.01.02-0.01,0.03s0.01,0.02.01,0.03V1091h2a0.8,0.8,0,0,1,.15.03,1.286,1.286,0,0,1,.19.04,1.4,1.4,0,0,1,.17.09,0.607,0.607,0,0,1,.27.25,0.906,0.906,0,0,1,.11.16,1.266,1.266,0,0,1,.06.18,0.833,0.833,0,0,1,.04.15l0.91,9.1h2.19l0.91-9.1a0.784,0.784,0,0,1,.05-0.14,1.055,1.055,0,0,1,.05-0.19,0.906,0.906,0,0,1,.11-0.16,1.741,1.741,0,0,1,.12-0.14,0.572,0.572,0,0,1,.16-0.11,0.915,0.915,0,0,1,.17-0.09,1.062,1.062,0,0,1,.19-0.04,0.664,0.664,0,0,1,.15-0.03h2v-5A5.008,5.008,0,0,0,1441,1081Zm-4-6a4,4,0,1,1,4,4A4,4,0,0,1,1437,1075Zm4,2a2,2,0,1,0-2-2A2.006,2.006,0,0,0,1441,1077Zm-10.13,0h-1v7a1,1,0,0,1-1,1,0.9,0.9,0,0,1-.87-1v-7h-24.03v18H1428v-2a0.9,0.9,0,0,1,.87-1,1,1,0,0,1,1,1v3a1,1,0,0,1-1,1h-6.1l2.95,4.44a1.009,1.009,0,0,1-.28,1.39,0.939,0.939,0,0,1-.55.17,1,1,0,0,1-.83-0.45l-3.69-5.55h-8.89l-3.69,5.55a1,1,0,0,1-.83.45,0.939,0.939,0,0,1-.55-0.17,1,1,0,0,1-.28-1.39l2.95-4.44h-6.11a0.994,0.994,0,0,1-.99-1v-19h-1a1,1,0,0,1,0-2H1415v-3a0.938,0.938,0,0,1,.92-1,1,1,0,0,1,1,1v3h13.95A1,1,0,0,1,1430.87,1077Z" transform="translate(-1400 -1071)"/>
</svg>
