<svg id="Color" xmlns="http://www.w3.org/2000/svg" width="793.125" height="180.187" viewBox="0 0 793.125 180.187"><defs><style> .__FLKhfYo__cls-1 { fill: #f2bb13; } .__FLKhfYo__cls-1, .__FLKhfYo__cls-2 { fill-rule: evenodd; } .__FLKhfYo__cls-2 { fill: #20252a; } </style></defs><path id="For_Work" data-name="For Work" class="__FLKhfYo__cls-1 " d="M701.359,629.164H683l14.509-61.2h40.472l-3.146,13.27H712.721L710,592.912h20.471l-3.24,13.353H706.664ZM775.381,567q12.209,0,18.993,6.217t6.784,17.351a44.441,44.441,0,0,1-4.672,20.366A33.83,33.83,0,0,1,783.6,625.082,36.389,36.389,0,0,1,764.535,630q-12.63,0-19.508-6.237t-6.879-17.331a43.5,43.5,0,0,1,4.836-20.387,34.289,34.289,0,0,1,13.17-14.17A37.364,37.364,0,0,1,775.381,567Zm7.231,23.736q0-4.773-2.254-7.472a8.016,8.016,0,0,0-6.526-2.7,12.49,12.49,0,0,0-8.545,3.516,24.3,24.3,0,0,0-6.222,9.67,35.4,35.4,0,0,0-2.324,12.6q0,10.131,9.391,10.131a12.117,12.117,0,0,0,8.287-3.475,23.305,23.305,0,0,0,6.01-9.377A36.9,36.9,0,0,0,782.612,590.735Zm43.833,16.158-5.306,22.271H802.78l14.509-61.2h18.17q11.832,0,18.124,4.186t6.291,12.6a19.625,19.625,0,0,1-3.333,11.386,20.646,20.646,0,0,1-9.907,7.409l10.517,21.6,1.878,4.019h-20l-9.156-22.271h-3.427ZM829.4,594.46H831.8a10.446,10.446,0,0,0,7.09-2.281,8,8,0,0,0,2.629-6.384,4.875,4.875,0,0,0-1.62-3.956,7.163,7.163,0,0,0-4.718-1.36h-2.489Zm76.4,19.885,1.878-4.354,4.414-9.712,15.729-32.317H943.6v33.154a73.739,73.739,0,0,1-1.22,13.229q0.468-1.172,6.245-14.484l14.226-31.9h18.171l-29.815,61.2H929.557V603.21q0-6.489.611-13.563a114.6,114.6,0,0,1-5.541,14.609l-11.879,24.908H892.371l-2.3-61.2h17.372l-0.469,30.684A107.5,107.5,0,0,1,905.8,614.345ZM1012.08,567q12.21,0,18.99,6.217t6.79,17.351a44.382,44.382,0,0,1-4.68,20.366,33.825,33.825,0,0,1-12.88,14.149A36.422,36.422,0,0,1,1001.23,630q-12.627,0-19.506-6.237t-6.879-17.331a43.5,43.5,0,0,1,4.836-20.387,34.289,34.289,0,0,1,13.17-14.17A37.376,37.376,0,0,1,1012.08,567Zm7.23,23.736q0-4.773-2.25-7.472a8.032,8.032,0,0,0-6.53-2.7,12.505,12.505,0,0,0-8.55,3.516,24.338,24.338,0,0,0-6.218,9.67,35.4,35.4,0,0,0-2.324,12.6q0,10.131,9.392,10.131a12.144,12.144,0,0,0,8.29-3.475,23.358,23.358,0,0,0,6.01-9.377A37.017,37.017,0,0,0,1019.31,590.735Zm43.83,16.158-5.3,22.271h-18.36l14.51-61.2h18.17q11.82,0,18.12,4.186t6.29,12.6a19.637,19.637,0,0,1-3.33,11.386,20.649,20.649,0,0,1-9.91,7.409l10.52,21.6,1.88,4.019h-20l-9.16-22.271h-3.43Zm2.96-12.433h2.39a10.428,10.428,0,0,0,7.09-2.281,7.979,7.979,0,0,0,2.63-6.384,4.875,4.875,0,0,0-1.62-3.956,7.148,7.148,0,0,0-4.71-1.36h-2.49Zm89.7,34.7h-20.56l-8.17-24.2-4.55,2.344-5.08,21.852h-18.35l14.5-61.2h18.36l-6.34,26.122,1.79-2.47a90.122,90.122,0,0,1,6.1-8.163l13.95-15.489H1169l-25.87,28.215Z" transform="translate(-563.875 -449.813)"></path><path id="CodinGame" class="__FLKhfYo__cls-2 " d="M610.374,483.667a35.741,35.741,0,0,1,10.678-3.48c16.8-1.605,24.963,5.085,24.963,5.085l4.692-26.9s-23.783-7.226-45.952.535c-6.416,2.141-26.3,9.9-36.512,35.327-2.48,5.754-4.033,16.191-4.231,18.867-2.012,30.777,19.825,41.08,41.69,41.214,15.823,0.134,28.79-4.148,29.038-4.416l4.482-25.691s-12.24,5.887-23.047,5.486-15.584-5.353-18.176-8.966-3.6-12.444-.311-22.079A27.485,27.485,0,0,1,610.374,483.667Zm85.166-.937s-38.884-1.874-46.069,35.46c-2.822,15.79,2.157,36.129,33.58,36.132s43.5-20.342,46.186-36.132C735.079,480.856,695.54,482.73,695.54,482.73Zm2,43.863c-3.822,7.477-10.86,6.925-10.86,6.925l0,0.027s-6.564.2-7.975-5.57c-0.146-.6-2.172-7.176,2.35-17.513,3.823-7.476,10.86-6.924,10.86-6.924l0-.028s6.565-.2,7.975,5.57C700.037,509.682,702.063,516.256,697.54,526.593ZM797.7,451.552L790.831,490.9l0,0.075c-3.35-5.808-9.2-9.068-16.931-9.068-16.131,0-33.225,14.468-37.594,39.51-3.5,20.033,5.936,33.034,23.327,33.035a27.744,27.744,0,0,0,21.83-9.88h0l-1.407,8.066h28.707L826.4,451.552H797.7Zm-10.768,67.709c-2.229,11.24-8.084,14.183-13.016,14.183-8.235-.133-9.433-6.35-8.067-14.183s6.538-15.924,13.3-15.79C788.609,503.471,787.862,513.908,786.928,519.261Zm109.683-34.089s-8.57-5.721-23.063,0c-6.262,2.409-12.344,10.136-12.344,10.136l1.926-11.039h-28.7l-8.579,49.175h28.7l3.292-18.867,0.11-.634c0.455-2.331,2.576-10.474,10.086-10.474,8.762,0,5.935,11.008,5.935,11.008l-6.557,38.166h28.6s6.256-35.858,7.831-44.89C906.863,490.491,896.611,485.172,896.611,485.172Zm-45.2-11.14c7.269,0,13.161-5.152,13.161-11.508s-5.892-11.507-13.161-11.507-13.16,5.152-13.16,11.507S844.143,474.032,851.411,474.032Zm123.048,4.817c20.009,0,27.021,5.219,27.021,5.219l4.41-25.29c-13.38-3.346-77.412-15.79-91.928,48.172-8.731,50.045,44.377,47.369,44.377,47.369s20.948,0,38.866-8.029l6.265-35.89-29.26-.1-3.32,19.8s-18.164,4.817-24.874-8.764c-2.533-5.018-.829-14.787-0.829-14.787S949.079,478.849,974.459,478.849Zm81.531,3.747c-15.84-.8-32.9,5.353-32.9,5.353l-3.31,19s12.61-6.825,25.23-6.825,10.03,7.946,10.03,7.946l-21.36,2.329c-23.11,3.909-24.85,22.375-24.85,22.375s-4.3,21.569,17.18,21.569c14.78,0,23.33-12.068,23.33-12.068l-1.81,10.367h26.05l6.94-39.805S1089.4,482.73,1055.99,482.6Zm-3.94,42.954c-2.97,10.5-11.18,10.236-11.18,10.236s-7.76.97-6.49-6.289c0.12-.686,1.06-5.587,8.48-6.691a99.731,99.731,0,0,0,9.93-1.471S1052.36,523.81,1052.05,525.55Zm142.54-43.026a31.987,31.987,0,0,0-25.33,11.981s-3.28-11.981-18.86-11.981-24.98,12.383-24.98,12.383l1.84-10.571h-28.74l-11.91,68.307h28.73l6.9-39.538s2.35-9.634,10.01-9.634,5.81,9.768,5.81,9.768l-6.87,39.4h28.8l6.85-39.27s1.93-9.9,9.99-9.9,5.75,10.169,5.75,10.169l-6.94,39h29l7.98-45.693S1217.01,482.524,1194.59,482.524Zm136.31-23.508c-11.41-1.175-15.02,4.606-16.97,7.313a102.057,102.057,0,0,1-5.65,10.536s-8.56,9.763-18.81,10.04c-12.17,0-12.79-4.443-25.34-4.381-26.81,0-42.21,18.806-45.22,36.067-6.26,35.862,27.57,35.929,30.59,35.929,18.74,0,27.36-4.416,27.36-4.416l2.88-17.663a55.575,55.575,0,0,1-20.81,3.814c-12.28,0-13.62-9.635-13.62-9.635h44.11s1.76-11.685,1.98-12.968c1.21-6.167.66-9.7,1.02-11.519s3.72-17.112,32.08-20.741c16.25-2.81,15.95-11.926,15.95-12.579S1340.46,460.785,1330.9,459.016Zm-65.62,52.7h-17.47s2.04-11.742,11.01-11.742S1265.28,511.717,1265.28,511.717Zm85.81-61.9A5.888,5.888,0,1,0,1357,455.7,5.9,5.9,0,0,0,1351.09,449.812Z" transform="translate(-563.875 -449.813)"></path></svg>