<svg xmlns="http://www.w3.org/2000/svg" viewBox="0 0 72 72"><defs><style>.cls-1{fill:#e34e26;}</style></defs><title>Fichier 5</title><g id="Calque_2" data-name="Calque 2"><g id="MENU_dashboard" data-name="MENU dashboard"><path class="cls-1" d="M72,36A36,36,0,1,0,36,72,36,36,0,0,0,72,36Zm-2,0A34,34,0,1,1,36,2,34,34,0,0,1,70,36ZM54.77,28.35,38.21,44.89a3.54,3.54,0,0,1-2.46,1,3.43,3.43,0,0,1-2.46-1l-16-16.05V48.6a.92.92,0,0,0,.28.68.94.94,0,0,0,.68.28l35.59,0a1,1,0,0,0,1-1V28.35m1.77-4.6a2.91,2.91,0,0,1,.23,1.15V48.63a3,3,0,0,1-3,3h0l-35.59,0a3,3,0,0,1-3-3l0-23.73a2.87,2.87,0,0,1,.14-.72L34.7,43.47a1.47,1.47,0,0,0,1,.43h0a1.44,1.44,0,0,0,1-.43L56.54,23.75Zm-34.36.16L35.75,37.5,49.34,23.93l-27.16,0m-4-2h0l35.59,0a2.65,2.65,0,0,1,.3.06L35.75,40.33,17.5,22.05a3,3,0,0,1,.72-.14Z"/></g></g></svg>