<svg xmlns="http://www.w3.org/2000/svg" viewBox="0 0 70.68 72"><defs><style>.cls-1{fill:#e34e26;}</style></defs><title>Fichier 29</title><g id="Calque_2" data-name="Calque 2"><g id="Mode_Isolation" data-name="Mode Isolation"><path class="cls-1" d="M28.08,36.8a1,1,0,0,1-1,1H3.41L12.64,47a1,1,0,0,1,0,1.41,1,1,0,0,1-1.41,0L.29,37.51a1,1,0,0,1,0-1.42L11.23,25.16a1,1,0,0,1,1.41,1.41L3.41,35.8H27.08A1,1,0,0,1,28.08,36.8ZM34.68,0A36,36,0,0,0,2.13,20.64H4.36A34,34,0,1,1,4.71,52H2.47A36,36,0,1,0,34.68,0Z"/></g></g></svg>