<svg xmlns="http://www.w3.org/2000/svg" viewBox="0 0 72 72"><defs><style>.cls-1{fill:#e34e26;}</style></defs><title>Fichier 19</title><g id="Calque_2" data-name="Calque 2"><g id="Mode_Isolation" data-name="Mode Isolation"><path class="cls-1" d="M36,72A36,36,0,1,1,72,36,36,36,0,0,1,36,72ZM36,2A34,34,0,1,0,70,36,34,34,0,0,0,36,2Z"/><path class="cls-1" d="M45,20.1a9.81,9.81,0,0,1,2.93,7.46q0,5.88-3.51,8.55a14.8,14.8,0,0,1-8.13,2.67,1.79,1.79,0,0,0-1.67,1.78V44.8a1.12,1.12,0,0,1-1.11,1.12h0a1.12,1.12,0,0,1-1.11-1.12v-6A1.7,1.7,0,0,1,34,37.13a18.28,18.28,0,0,0,8.26-2q3.3-2,3.3-7.57a8.08,8.08,0,0,0-2.26-6.06,8.45,8.45,0,0,0-6.16-2.21,9.37,9.37,0,0,0-6.5,2.24,7.32,7.32,0,0,0-2.45,4.89,1.1,1.1,0,0,1-1.1,1h0A1.13,1.13,0,0,1,26,26.16a9.33,9.33,0,0,1,5.42-7.62,13.3,13.3,0,0,1,5.8-1.22A10.82,10.82,0,0,1,45,20.1Zm-9.6,32.81h0a1.79,1.79,0,0,1-1.79,1.79h-.1a1.79,1.79,0,0,1-1.8-1.79h0a1.79,1.79,0,0,1,1.8-1.79h.1A1.79,1.79,0,0,1,35.38,52.91Z"/></g></g></svg>