<svg xmlns="http://www.w3.org/2000/svg" viewBox="0 0 76 76"><defs><style>.cls-1{fill:#563d7c;}.cls-2{fill:#fff;}</style></defs><title>Fichier 15</title><g id="Calque_2" data-name="Calque 2"><g id="LOGOS_COULEURS" data-name="LOGOS COULEURS"><path class="cls-1" d="M0,66.2A9.8,9.8,0,0,0,9.8,76H66.2A9.8,9.8,0,0,0,76,66.2V9.8A9.8,9.8,0,0,0,66.2,0H9.8A9.8,9.8,0,0,0,0,9.8Z"/><path class="cls-2" d="M31.52,33.62V22.85H41a14.82,14.82,0,0,1,2.61.23,6.38,6.38,0,0,1,2.22.81,4.21,4.21,0,0,1,1.55,1.61A5.29,5.29,0,0,1,48,28.14a4.88,4.88,0,0,1-1.74,4.19,7.27,7.27,0,0,1-4.45,1.29ZM21.4,15V61H43.7a23.28,23.28,0,0,0,6-.78,16,16,0,0,0,5.22-2.38,11.62,11.62,0,0,0,3.64-4.16,12.53,12.53,0,0,0,1.36-6,12.72,12.72,0,0,0-2.1-7.38A11.06,11.06,0,0,0,51.49,36a11.48,11.48,0,0,0,4.68-3.8,10.11,10.11,0,0,0,1.58-5.8A12.3,12.3,0,0,0,56.68,21a8.86,8.86,0,0,0-3-3.52,13.06,13.06,0,0,0-4.64-1.9,29.23,29.23,0,0,0-6-.58ZM31.52,53.15V40.51h11A8.51,8.51,0,0,1,47.82,42c1.33,1,2,2.69,2,5.06a6.41,6.41,0,0,1-.61,3,4.83,4.83,0,0,1-1.65,1.84,7.05,7.05,0,0,1-2.38,1,13.74,13.74,0,0,1-2.84.29Z"/></g></g></svg>