<svg xmlns="http://www.w3.org/2000/svg" viewBox="0 0 125.1 52.25"><defs><style>.cls-1{fill:#2f2707;}.cls-2{fill:#de4c36;}</style></defs><title>Fichier 14</title><g id="Calque_2" data-name="Calque 2"><g id="LOGOS_COULEURS" data-name="LOGOS COULEURS"><path class="cls-1" d="M75,17.78c-2.74,0-4.78,1.35-4.78,4.59,0,2.44,1.34,4.14,4.63,4.14,2.79,0,4.69-1.64,4.69-4.24,0-2.94-1.7-4.49-4.54-4.49ZM69.49,40.67a4.42,4.42,0,0,0-1.3,2.64c0,2,2.54,2.6,6,2.6,2.9,0,6.83-.21,6.83-2.9,0-1.59-1.89-1.69-4.29-1.84l-7.27-.5ZM84.24,17.93a7.91,7.91,0,0,1,1.85,5c0,5.53-4.34,8.77-10.62,8.77a15.87,15.87,0,0,1-3.94-.44l-1.64,2.64,4.88.3c8.63.55,13.71.8,13.71,7.42,0,5.74-5,9-13.71,9-9,0-12.46-2.29-12.46-6.23,0-2.25,1-3.44,2.74-5.09A3.31,3.31,0,0,1,62.86,36a4.47,4.47,0,0,1,1.44-3c.9-1,1.9-1.89,3.09-3a8,8,0,0,1-4.28-7.48c0-5.73,3.78-9.67,11.41-9.67a17.13,17.13,0,0,1,4.59.5h9.72v4.24l-4.59.34Z"/><path class="cls-1" d="M97.6,8.88c-2.84,0-4.48-1.65-4.48-4.49S94.76,0,97.6,0s4.54,1.55,4.54,4.39-1.65,4.49-4.54,4.49Zm-6.43,30V34.9l2.54-.35c.7-.1.8-.25.8-1V18.9c0-.55-.15-.9-.65-1l-2.69-1,.55-4H102V33.55c0,.8,0,.9.8,1l2.54.35v3.94Z"/><path class="cls-1" d="M125.1,36.9a19.92,19.92,0,0,1-8.13,2c-5.94,0-8.18-2.39-8.18-8V17.81c0-.3,0-.5-.4-.5H104.9V12.87c4.39-.5,6.13-2.69,6.68-8.13h4.74v7.09c0,.34,0,.49.4.49h7v5h-7.43V29.22c0,3,.7,4.09,3.39,4.09a12.1,12.1,0,0,0,4-.79l1.35,4.38"/><path class="cls-2" d="M51.23,23.82,28.43,1a3.36,3.36,0,0,0-4.76,0L18.94,5.76l6,6A4,4,0,0,1,30,16.85l5.79,5.79a4,4,0,1,1-2.4,2.26L28,19.5V33.7a3.85,3.85,0,0,1,1.05.76,4,4,0,1,1-5.65,0,3.76,3.76,0,0,1,1.31-.87V19.25a3.76,3.76,0,0,1-1.31-.87A4,4,0,0,1,22.53,14L16.62,8.09,1,23.71a3.36,3.36,0,0,0,0,4.76l22.79,22.8a3.37,3.37,0,0,0,4.76,0L51.23,28.58a3.37,3.37,0,0,0,0-4.76"/></g></g></svg>