<svg xmlns="http://www.w3.org/2000/svg" viewBox="0 0 66.97 76"><defs><style>.cls-1{fill:#e34e26;}.cls-2{fill:#ef662a;}.cls-3{fill:#fff;}.cls-4{fill:#ebebeb;}</style></defs><title>Guides to delete</title><g id="Calque_2" data-name="Calque 2"><g id="LOGOS_COULEURS" data-name="LOGOS COULEURS"><g id="Guides_to_delete" data-name="Guides to delete"><polygon class="cls-1" points="6.1 68.4 0 0 66.97 0 60.87 68.41 33.47 76 6.1 68.4"/><polygon class="cls-2" points="33.49 5.59 33.49 70.19 55.64 64.05 60.86 5.59 33.49 5.59"/><polygon class="cls-3" points="12.48 13.98 14.74 39.35 43.81 39.35 42.84 50.23 33.48 52.76 24.13 50.23 23.51 43.25 15.09 43.25 16.29 56.72 33.48 61.49 50.68 56.72 52.99 30.96 22.41 30.96 21.64 22.37 53.72 22.37 53.75 22.37 54.5 13.98 12.48 13.98"/><polygon class="cls-4" points="33.49 13.98 12.48 13.98 14.74 39.35 33.49 39.35 33.49 30.96 22.41 30.96 21.64 22.37 33.49 22.37 33.49 13.98"/><polygon class="cls-4" points="33.49 52.76 33.48 52.76 24.13 50.23 23.51 43.25 15.09 43.25 16.29 56.72 33.48 61.49 33.49 61.48 33.49 52.76"/></g></g></g></svg>