<svg xmlns="http://www.w3.org/2000/svg" viewBox="0 0 95 60.45"><title>Fichier 18</title><g id="Calque_2" data-name="Calque 2"><g id="LOGOS_COULEURS" data-name="LOGOS COULEURS"><path d="M3.32,4.92A1.67,1.67,0,1,1,0,4.92,1.74,1.74,0,0,1,1.68,3.1,1.68,1.68,0,0,1,3.32,4.92ZM.8,59.58V17.77H2.52V59.58ZM59.52,29.79c0,21.08-11.7,30.66-24.51,30.66-13.08,0-23.68-10.36-23.68-29.79C11.33,10.72,22.29,0,35.93,0,49.29,0,59.52,10.54,59.52,29.79Zm-46.45.44c0,16,7.74,28.4,22,28.4S57.72,45.83,57.72,30c0-14.63-6.61-28-21.69-28s-23,12.58-23,28.18ZM65.81,55.05a24.25,24.25,0,0,0,12.11,3.77c8.1,0,15.31-5.67,15.31-14,0-7.74-4.8-11.78-13-15.25C73,26.45,66.43,23.08,66.43,14.81c0-8.63,6.79-14.73,16-14.73,5,0,8.71,1.4,10.45,2.62l-.69,1.5c-1.48-1-5.49-2.37-9.84-2.37-9.76,0-14,7.37-14,12.8,0,7.5,5.81,10,13.3,13.57C90.38,32.47,95,36.24,95,44.42c0,8.8-6.27,15.94-17.42,15.94C73,60.36,67.65,58.8,65,56.79l.77-1.74Z"/></g></g></svg>