<svg xmlns="http://www.w3.org/2000/svg" viewBox="0 0 71.66 80.75"><defs><style>.cls-1{fill:#539e43;}</style></defs><title>Fichier 6</title><g id="Calque_2" data-name="Calque 2"><g id="LOGOS_COULEURS" data-name="LOGOS COULEURS"><path class="cls-1" d="M35.83,80.75a6.47,6.47,0,0,1-3.11-.82l-9.87-5.86c-1.48-.81-.74-1.11-.3-1.26a17.7,17.7,0,0,0,4.45-2,.71.71,0,0,1,.75.07l7.56,4.53a.93.93,0,0,0,.89,0L65.8,58.27a.84.84,0,0,0,.45-.81V23.26a.86.86,0,0,0-.45-.82L36.2,5.38a.93.93,0,0,0-.89,0L5.71,22.44a1,1,0,0,0-.44.82v34.2a.94.94,0,0,0,.44.81L13.8,63c4.38,2.22,7.12-.38,7.12-3V26.22a.9.9,0,0,1,.89-.89h3.78a.9.9,0,0,1,.89.89V60c0,5.86-3.19,9.27-8.75,9.27-1.71,0-3,0-6.82-1.85L3.12,63A6.27,6.27,0,0,1,0,57.53V23.33a6.26,6.26,0,0,1,3.12-5.41L32.72.78A6.61,6.61,0,0,1,39,.78l29.6,17.14a6.25,6.25,0,0,1,3.11,5.41v34.2A6.26,6.26,0,0,1,68.55,63L39,80.08a7.55,7.55,0,0,1-3.12.67ZM45,57.23c-13,0-15.66-5.93-15.66-11a.9.9,0,0,1,.89-.89h3.86a.77.77,0,0,1,.82.75C35.46,50,37.17,52,45,52c6.23,0,8.9-1.41,8.9-4.75,0-1.93-.74-3.34-10.46-4.3-8.08-.82-13.13-2.6-13.13-9.05,0-6,5.05-9.57,13.5-9.57,9.5,0,14.17,3.26,14.77,10.38a1.2,1.2,0,0,1-.23.67.91.91,0,0,1-.59.3H53.93a.86.86,0,0,1-.81-.67c-.89-4.08-3.19-5.42-9.28-5.42-6.82,0-7.64,2.38-7.64,4.16,0,2.15,1,2.82,10.17,4S59.79,40.62,59.79,47,54.38,57.23,45,57.23Z"/></g></g></svg>