<svg xmlns="http://www.w3.org/2000/svg" viewBox="0 0 128.25 39.84"><defs><style>.cls-1{fill:#f05138;}.cls-2{fill:#fff;}</style></defs><title>Fichier 13</title><g id="Calque_2" data-name="Calque 2"><g id="LOGOS_COULEURS" data-name="LOGOS COULEURS"><path class="cls-1" d="M39.84,11c0-.4,0-.8,0-1.2a17.58,17.58,0,0,0-.23-2.61,9,9,0,0,0-.82-2.49,8.37,8.37,0,0,0-3.66-3.66A9,9,0,0,0,32.63.25,17.83,17.83,0,0,0,30,0l-1.2,0H11L9.83,0,9.18,0a15.87,15.87,0,0,0-2,.21A9.31,9.31,0,0,0,5.33.79l-.6.28A8.66,8.66,0,0,0,3.09,2.16c-.16.15-.33.29-.48.45A8.46,8.46,0,0,0,1.07,4.73,9,9,0,0,0,.25,7.22,17.58,17.58,0,0,0,0,9.83c0,.4,0,.8,0,1.2V28.81c0,.4,0,.8,0,1.2a17.58,17.58,0,0,0,.23,2.61,9,9,0,0,0,.82,2.49,8.37,8.37,0,0,0,3.66,3.66,9,9,0,0,0,2.49.82,17.58,17.58,0,0,0,2.61.23l1.21,0H28.81l1.2,0a17.58,17.58,0,0,0,2.61-.23,9,9,0,0,0,2.49-.82,8.37,8.37,0,0,0,3.66-3.66,9,9,0,0,0,.82-2.49A17.58,17.58,0,0,0,39.82,30c0-.4,0-.8,0-1.2V11Z"/><path class="cls-2" d="M31.57,24.59h0c0-.15.09-.3.12-.45,1.66-6.59-2.38-14.38-9.21-18.48,3,4.06,4.32,9,3.14,13.27A10.32,10.32,0,0,1,25.25,20c-.15-.1-.34-.22-.59-.36A85.7,85.7,0,0,1,10.5,8.07,89.46,89.46,0,0,0,19.1,18.9,93.93,93.93,0,0,1,6.87,9.64a18.9,18.9,0,0,0,1.67,2.3C11.79,16.05,16,21.13,21.09,25c-3.56,2.18-8.6,2.35-13.61,0A20.27,20.27,0,0,1,4,23a20.78,20.78,0,0,0,9.36,8c4.75,2,9.46,1.9,13,0h0l.06,0,.42-.24c1.69-.88,5-1.76,6.81,1.72C34.06,33.32,35,28.8,31.57,24.59Z"/><path d="M55,25.85c.31,2.77,2.95,4.58,6.61,4.58,3.48,0,6-1.81,6-4.32,0-2.16-1.51-3.48-5-4.36l-3.39-.86c-4.87-1.2-7.06-3.4-7.06-7,0-4.46,3.9-7.56,9.44-7.56,5.38,0,9.21,3.12,9.34,7.6H67.3c-.28-2.75-2.51-4.43-5.86-4.43s-5.62,1.7-5.62,4.19c0,1.94,1.43,3.1,4.94,4l2.82.74c5.46,1.33,7.69,3.46,7.69,7.28,0,4.87-3.86,7.93-10,7.93-5.71,0-9.61-3-9.91-7.75Zm39,7.31H90.36L86.17,18.55h-.08L81.92,33.16H78.33L73,14H76.5l3.7,15.36h.07L84.45,14h3.36L92,29.39h.08L95.8,14h3.44Zm7.6-24.28A2.12,2.12,0,1,1,103.66,11,2.1,2.1,0,0,1,101.55,8.88Zm.37,5.15h3.5V33.16h-3.5Zm26.33,2.82V14h-3.7V9.45h-3.48V14h-6.68V12.34c0-1.7.68-2.41,2.25-2.41a8.06,8.06,0,0,1,1.45.13V7.31a12.37,12.37,0,0,0-1.85-.15c-3.74,0-5.31,1.56-5.31,5.13V14h-2.67v2.82h2.67V33.16h3.48V16.85h6.66V28.14c0,3.7,1.41,5.13,5.07,5.13a12.23,12.23,0,0,0,2.09-.15V30.27c-.24,0-.93.09-1.32.09-1.63,0-2.36-.77-2.36-2.49v-11Z"/></g></g></svg>