<svg xmlns="http://www.w3.org/2000/svg" viewBox="0 0 76 76"><defs><style>.cls-1{fill:#1a171b;}.cls-2{fill:#fff;}</style></defs><title>Fichier 7</title><g id="Calque_2" data-name="Calque 2"><g id="LOGOS_COULEURS" data-name="LOGOS COULEURS"><circle class="cls-1" cx="38" cy="38" r="38"/><path class="cls-2" d="M54.54,14a13.64,13.64,0,0,0-9.73,5.2,32.56,32.56,0,0,0-5.94,11c-2.38-2-4.22-4.48-8-5.58a9.85,9.85,0,0,0-8.9,1.63,8,8,0,0,0-2.72,4c-1.14,3.72,1.21,7,2.27,8.23l2.33,2.49a3.56,3.56,0,0,1,1.08,3.6,4.31,4.31,0,0,1-5.48,2.53c-1.1-.34-2.68-1.16-2.33-2.31a11.1,11.1,0,0,1,.67-1.24,6.71,6.71,0,0,0,.29-.76,3.08,3.08,0,0,0-1.74-3.87,2.59,2.59,0,0,0-3.55,1.8c-.66,2.14.37,6,5.87,7.74,6.45,2,11.91-1.53,12.69-6.11.48-2.87-.81-5-3.19-7.74L26.2,32.42a3.53,3.53,0,0,1-.36-4.7c1-1.29,2.48-1.85,4.87-1.2,3.48.95,5,3.37,7.62,5.31-1.07,3.51-1.77,7-2.4,10.19l-.39,2.36c-1.85,9.71-3.26,15-6.93,18.11a6,6,0,0,1-3.4,1.37,1,1,0,0,1-1.12-.8c0-.59.48-.86.81-1.12a2,2,0,0,0,1.18-2.14,3.22,3.22,0,0,0-3.46-3.07A4,4,0,0,0,18.9,60.8c.09,2.68,2.59,4.69,6.36,4.57,2-.07,6.52-.89,11-6.17,5.16-6,6.6-13,7.69-18l1.21-6.7c.68.08,1.4.13,2.18.15C53.73,34.75,57,31.42,57,29c0-1.46-1-2.9-2.35-2.87a2.68,2.68,0,0,0-2.55,2.07c-.29,1.35,2,2.57.22,3.75-1.3.84-3.63,1.44-6.91.95L46,29.6c1.22-6.25,2.72-13.94,8.41-14.13.42,0,1.94,0,2,1,0,.34-.07.43-.46,1.19a2.8,2.8,0,0,0-.54,1.7,2.68,2.68,0,0,0,3,2.58c2.35-.08,3-2.36,3-3.54-.1-2.76-3-4.5-6.86-4.38Z"/></g></g></svg>