<svg xmlns="http://www.w3.org/2000/svg" viewBox="0 0 16.72 28.5"><defs><style>.cls-1{opacity:0.7;}.cls-2{fill:#fcfafa;}.cls-3{fill:#e34e26;}</style></defs><title>Fichier 26</title><g id="Calque_2" data-name="Calque 2"><g id="Ombres_Tuiles" data-name="Ombres Tuiles"><g class="cls-1"><path class="cls-2" d="M.5,27.16a2.84,2.84,0,0,0,4,0L15.39,16.28a2.86,2.86,0,0,0,0-4L4.52,1.34a2.83,2.83,0,0,0-4,0Z"/><path class="cls-3" d="M2.51,28.5h0a3.29,3.29,0,0,1-2.36-1L0,27.36V1.12L.15,1A3.3,3.3,0,0,1,2.5,0h0A3.32,3.32,0,0,1,4.87,1L15.74,11.91a3.36,3.36,0,0,1,0,4.73L4.87,27.52A3.32,3.32,0,0,1,2.51,28.5ZM1,26.94a2.31,2.31,0,0,0,1.51.56h0a2.31,2.31,0,0,0,1.65-.69L15,15.93a2.36,2.36,0,0,0,0-3.32L4.16,1.69A2.33,2.33,0,0,0,2.51,1,2.27,2.27,0,0,0,1,1.55Z"/></g></g></g></svg>