<svg xmlns="http://www.w3.org/2000/svg" viewBox="0 0 47 49.78"><defs><style>.cls-1{fill:#e34e26;}</style></defs><title>Fichier 19</title><g id="Calque_2" data-name="Calque 2"><g id="NOTIFICATIONS"><path class="cls-1" d="M37.68,49.78a1,1,0,0,1-.62-.22l-5.17-4.1a23.55,23.55,0,1,1,5.26-2.83l1.5,5.9a1,1,0,0,1-.42,1.08A1,1,0,0,1,37.68,49.78Zm-5.63-6.46a1,1,0,0,1,.62.21L36,46.15,35,42.45a1,1,0,0,1,.41-1.08,21.39,21.39,0,1,0-3.78,2A1,1,0,0,1,32.05,43.32Z"/><path class="cls-1" d="M23.51,30.18a1.5,1.5,0,0,1-1.5-1.5V13a1.5,1.5,0,1,1,3,0V28.68A1.5,1.5,0,0,1,23.51,30.18Z"/><circle class="cls-1" cx="23.51" cy="35.22" r="1.89" transform="translate(-17.74 25.66) rotate(-43.24)"/></g></g></svg>