<svg xmlns="http://www.w3.org/2000/svg" viewBox="0 0 26.19 27.12"><defs><style>.cls-1{fill:#e34e26;}</style></defs><title>Fichier 28</title><g id="Calque_2" data-name="Calque 2"><g id="Mode_Isolation" data-name="Mode Isolation"><path class="cls-1" d="M13.1,27.12A14,14,0,0,1,10,26.75l-.39-.1V24.34a11.36,11.36,0,0,1-4.11-2.4l-2,1.15-.27-.29A13.51,13.51,0,0,1,.12,17.46L0,17.08l2-1.16A10.84,10.84,0,0,1,2,11.2L0,10l.11-.38A13.75,13.75,0,0,1,3.18,4.32L3.45,4l2,1.15A11.38,11.38,0,0,1,9.56,2.77V.46L10,.37a13.63,13.63,0,0,1,6.16,0l.39.09v2.3a11.44,11.44,0,0,1,4.2,2.4L22.7,4l.27.28a13.61,13.61,0,0,1,3.1,5.33l.12.38-2,1.16a10.73,10.73,0,0,1,.28,2.43A11.57,11.57,0,0,1,24.18,16l2,1.15-.12.38A13.66,13.66,0,0,1,23,22.86l-.27.28L20.7,22a11.44,11.44,0,0,1-4.2,2.4v2.3l-.39.09A13.89,13.89,0,0,1,13.1,27.12Zm-2.54-1.26a12.83,12.83,0,0,0,4.94,0V23.63l.36-.1A10.4,10.4,0,0,0,20.28,21l.27-.26,2,1.13A12.51,12.51,0,0,0,25,17.62l-2-1.13.09-.37a10,10,0,0,0,.34-2.56A10.46,10.46,0,0,0,23.13,11l-.1-.36L25,9.5a12.71,12.71,0,0,0-2.48-4.26l-2,1.13-.27-.26a10.37,10.37,0,0,0-4.41-2.52l-.37-.1V1.23a12.45,12.45,0,0,0-4.94,0V3.52l-.36.1A10.4,10.4,0,0,0,5.87,6.16l-.27.26L3.65,5.29A12.64,12.64,0,0,0,1.19,9.57l2,1.14-.09.36a10.16,10.16,0,0,0,0,5l.09.37-2,1.13a12.81,12.81,0,0,0,2.46,4.28L5.6,20.7l.27.26a10.27,10.27,0,0,0,4.33,2.53l.36.11Zm2.53-7a5.3,5.3,0,1,1,5.3-5.3A5.31,5.31,0,0,1,13.09,18.86Zm0-9.6a4.3,4.3,0,1,0,4.3,4.3A4.31,4.31,0,0,0,13.09,9.26Z"/></g></g></svg>