<svg xmlns="http://www.w3.org/2000/svg" viewBox="0 0 21 24.1"><defs><style>.cls-1{fill:#e34e26;}</style></defs><title>Fichier 21</title><g id="Calque_2" data-name="Calque 2"><g id="NOTIFICATIONS"><path class="cls-1" d="M10.5,12.1a6.05,6.05,0,1,1,6-6.1A6,6,0,0,1,10.5,12.1ZM10.5,1a5.05,5.05,0,1,0,5,5A5,5,0,0,0,10.5,1Z"/><path class="cls-1" d="M10.47,24.1H10.4A14.29,14.29,0,0,1,.14,19.75L0,19.6v-.2c0-4.13,2.58-7,6.28-7h8.35c3.75,0,6.37,2.88,6.37,7v.2l-.14.15A14.49,14.49,0,0,1,10.47,24.1ZM1,19.2a13.3,13.3,0,0,0,9.41,3.9A13.68,13.68,0,0,0,20,19.19c-.08-2.83-1.77-5.8-5.37-5.8H6.28C2.71,13.39,1.07,16.27,1,19.2Z"/></g></g></svg>