<svg xmlns="http://www.w3.org/2000/svg" viewBox="0 0 63.15 76"><defs><style>.cls-1{fill:#f9c9b4;}.cls-2{fill:#fff;}</style></defs><title>Fichier 34</title><g id="Calque_2" data-name="Calque 2"><g id="LOGOS_TECHNOS" data-name="LOGOS TECHNOS"><rect class="cls-1" x="11" y="23.44" width="41.14" height="37.23" rx="2.46" ry="2.46"/><rect class="cls-1" x="10.97" y="23.44" width="41.22" height="16.97"/><path class="cls-1" d="M63.15,46.12a4.38,4.38,0,0,1-4.38,4.38h0a4.38,4.38,0,0,1-4.38-4.38V26.42A4.39,4.39,0,0,1,58.77,22h0a4.39,4.39,0,0,1,4.38,4.39Z"/><path class="cls-1" d="M8.77,46.12A4.38,4.38,0,0,1,4.38,50.5h0A4.38,4.38,0,0,1,0,46.12V26.42A4.39,4.39,0,0,1,4.38,22h0a4.39,4.39,0,0,1,4.39,4.39Z"/><path class="cls-1" d="M11.14,21S11.59,3.56,31.58,3.62C51.37,3.68,52,21,52,21Z"/><circle class="cls-2" cx="22.61" cy="12.1" r="2.46"/><circle class="cls-2" cx="40.55" cy="12.1" r="2.46"/><path class="cls-1" d="M21.93,6c.07.1.29.07.5-.08h0c.2-.14.3-.34.23-.44L18.84.06c-.07-.1-.29-.07-.49.07h0c-.21.15-.31.35-.24.45Z"/><path class="cls-1" d="M41.22,6c-.07.1-.29.07-.49-.08h0c-.21-.14-.31-.34-.24-.44L44.31.06c.07-.1.3-.07.5.07h0c.2.15.31.35.23.45Z"/><path class="cls-1" d="M44.42,71.62A4.38,4.38,0,0,1,40,76h0a4.39,4.39,0,0,1-4.39-4.38V51.91A4.39,4.39,0,0,1,40,47.53h0a4.38,4.38,0,0,1,4.38,4.38Z"/><path class="cls-1" d="M27.5,71.62A4.38,4.38,0,0,1,23.12,76h0a4.39,4.39,0,0,1-4.39-4.38V51.91a4.39,4.39,0,0,1,4.39-4.38h0a4.38,4.38,0,0,1,4.38,4.38Z"/></g></g></svg>