<svg xmlns="http://www.w3.org/2000/svg" viewBox="0 0 67.01 76"><defs><style>.cls-1{fill:#f9c9b4;}.cls-2{fill:#f7ded5;}.cls-3{fill:#ebebeb;}.cls-4{fill:#fff;}</style></defs><title>Fichier 33</title><g id="Calque_2" data-name="Calque 2"><g id="LOGOS_TECHNOS" data-name="LOGOS TECHNOS"><path class="cls-1" d="M33.47,76,6.1,68.4,0,0H67l-6.1,68.39L33.47,76Z"/><path class="cls-2" d="M55.68,64,60.9,5.59H33.51V70.18L55.68,64Z"/><path class="cls-3" d="M14,31l.75,8.39H33.51V31ZM12.47,14l.76,8.39H33.51V14Zm21,38.77h0l-9.34-2.52-.6-6.69H15.11l1.17,13.17,17.19,4.77h0Z"/><path class="cls-4" d="M53,31l1.51-17h-21v8.39H45.3L44.54,31H33.48v8.39H43.81l-1,10.88-9.35,2.53v8.73l17.2-4.77.12-1.42,2-22.08L53,31Z"/></g></g></svg>