<svg xmlns="http://www.w3.org/2000/svg" viewBox="0 0 66.87 76"><defs><style>.cls-1{fill:#f9c9b4;}.cls-2,.cls-3{fill:#ebebeb;opacity:0.99;isolation:isolate;}.cls-2{fill-opacity:0;}.cls-3{fill-opacity:0.92;}.cls-4{fill:#f7ded5;}</style></defs><title>g5193 (2)</title><g id="Calque_2" data-name="Calque 2"><g id="LOGOS_TECHNOS" data-name="LOGOS TECHNOS"><g id="g5193"><path id="path5113" class="cls-1" d="M6.21,68.33,0,0,66.87,0,60.72,68.28,33.38,76ZM55.68,64.6,60.87,6.08H33.49l.21,64.55ZM30.93,14.66H24.28l-.08,35L11.29,46.16l0,8,19.61,5.29V14.66Z"/><path id="path5159" class="cls-2" d="M28.74,58.81c-.86-.26-5.11-1.41-9.44-2.58l-7.85-2.11V50.18c0-3.86,0-3.94.39-3.81.21.08,3.08.86,6.36,1.78l6,1.64.05-17.48.05-17.47H30.8V37.06c0,17.66-.05,22.22-.23,22.22s-1-.23-1.83-.47Z"/><path id="path5157" class="cls-3" d="M11.32,54.17l0-8s8.24,2.32,12.91,3.52l.08-35h6.65V59.46L11.32,54.17Z"/><path id="path5117" class="cls-4" d="M33.49,6.05H60.87L55.68,64.58l-22.19,6ZM54.27,54.77l1.8-21.88-13.3,1.48V22.69L57,22.64l.57-8-21.41.1.29,29.06L49.35,41.6l-.19,6.47-13,3.47.13,7.92,18-4.69Z"/></g></g></g></svg>