<svg xmlns="http://www.w3.org/2000/svg" viewBox="0 0 167.21 38"><defs><style>.cls-1{fill:#f9c9b4;}.cls-2{fill:#f7ded5;}</style></defs><title>Fichier 27</title><g id="Calque_2" data-name="Calque 2"><g id="LOGOS_TECHNOS" data-name="LOGOS TECHNOS"><path class="cls-1" d="M160.19,2.81l7,0L153.09,22A8.05,8.05,0,0,0,152,23.57a35,35,0,0,0-1.37,5l-6.42,0a25.92,25.92,0,0,0,1-5.49c0-1.67-.88-3.34-1.36-5s-1.14-5-1.14-5h6.6l.91,3.65L160.19,2.81"/><path class="cls-1" d="M146.9,6.54c1.29.78,2.09,5.09,2.09,5.09s-6.78.1-10.47.1h-3.19l-3.87,16.85h-5.92S129.22,10.27,130.09,7c.29-1.08,1.94-.89,4.72-.89h4.45c2.87,0,6.23-.37,7.64.48"/><path class="cls-1" d="M119.33,14.75a3.54,3.54,0,0,0-.62-2.34c-.69-1.07-1.33-1.31-3.16-1.37-5.14-.16-5,3.65-5,3.65l8.82.06Zm5.58-4.37c.76,2.72-.68,9.11-.68,9.11s-7.5-.13-11.61,0c-1.28,0-2.81-.14-3.19.46-.54.83.19,2.11.81,2.65a5.08,5.08,0,0,0,2.6.76,87,87,0,0,0,10.32.11L122,28.83s-9.86.49-14.8-.69a5,5,0,0,1-2.5-1.36c-.17-.19-.32-.43-.48-.65a5.42,5.42,0,0,1-.66-1.18c-1.13-3,.13-8.75,1.36-11.84.15-.35.33-.81.52-1.19s.43-1,.62-1.31.29-.33.42-.51a6.55,6.55,0,0,1,.49-.63,9.49,9.49,0,0,1,1.6-1.37c2-1.54,5.77-2.73,10.24-2.27,1.69.17,4.23.77,5.47,2.5a7.48,7.48,0,0,1,.68,2.05Z"/><path class="cls-1" d="M97.76,6l5.74,0s-3.2,15.18-4.83,22.58H92.06c-4.61,0-8.72.57-10.47-2.73s-.08-8.49.68-12.07c.54-2.54,1.67-7.72,1.67-7.72l6-.06s-1.68,8.07-2.38,12.1c-.25,1.45-.77,2.81-.23,3.88s1.23,1.08,3.42,1.14h3L97.76,6"/><path class="cls-1" d="M70.88,17c.61-2.14,1.48-4.46,1.37-6.38a5.49,5.49,0,0,0-3-4.33,7.59,7.59,0,0,0-7.74,1.82c-1.62,1.75-2.16,3.8-2.74,6.61-.42,2.09-.77,4.29,0,5.92,1.38,2.88,5.65,2.25,10.25,2.28.69-1.83,1.25-3.89,1.82-5.92Zm8-8.43c.65,4.77-1.87,10-3.6,14.61,1.77.16,3.32,0,3.43.11s-1.19,5.46-1.64,5.47c-1.4,0-6,.08-8,.08-6.32,0-12.24.41-15.26-2.73a9.92,9.92,0,0,1-2.27-5,21.25,21.25,0,0,1,.68-7.75A23.23,23.23,0,0,1,54.49,7.4c2.66-4.64,7.28-8.08,15-7.29a14.61,14.61,0,0,1,5,1.6c.09.05.42.31.49.36a10,10,0,0,1,3.84,6.47Z"/><path class="cls-1" d="M50.87,6.06c-.38,1.74-.76,3.72-1.16,5.44H43.33c.49-1.91.87-3.8,1.37-5.46l6.17,0"/><path class="cls-1" d="M43.1,13.09h6.15c-.8,4.45-2.4,11.63-3.64,16.63-.78,3.13-1.31,5.41-3.42,7.06-.19.15-.3.08-.45.23a8.81,8.81,0,0,1-3.19.91,47.37,47.37,0,0,1-5.45,0c.52-1.91,1.11-4.2,1.58-5.9,4.85.58,5-4,5.92-8.43.54-2.55,2.19-9.45,2.5-10.48"/><path class="cls-2" d="M28.75,24.71l-.13.34c-2.24,4.37-6.22,7.06-11.9,7.17a16.55,16.55,0,0,1-6.83-1.36,17.69,17.69,0,0,1-8.2-7.74C-.65,18.57-1.08,12.24,3.8,7.52c.08,0-.59,1-.51,1L3.15,9C-.37,20,10.47,29.43,21,28.35a13.82,13.82,0,0,0,7.74-3.64"/><path class="cls-2" d="M22.38,20.15a10.07,10.07,0,0,0,7.06-3c-1.44,3.65-5.59,6-11.16,5.24-4.66-.62-9.11-5.32-9.57-10C8.38,9,9.57,7,11.54,4.47a8.22,8.22,0,0,0-1,2.93c-.75,7.41,5.91,12.72,11.84,12.75"/><path class="cls-2" d="M29.17,11a8.29,8.29,0,0,1-3.83,2.95,7.29,7.29,0,0,1-8.2-3.32,10,10,0,0,1-.66-1.48c-.54-1.84-.29-4.61,1.32-6a7.68,7.68,0,0,0-.3,4,8.71,8.71,0,0,0,1.1,2.39,6.3,6.3,0,0,0,2.5,2.22,6.25,6.25,0,0,0,1.26.6c1.05.31,3.25,1.12,6.81-1.3"/></g></g></svg>