<svg xmlns="http://www.w3.org/2000/svg" viewBox="0 0 108.36 57"><defs><style>.cls-1{fill:#f9c9b4;}.cls-1,.cls-2,.cls-3{fill-rule:evenodd;}.cls-2{fill:#f7ded5;}.cls-3{fill:#fff;}</style></defs><title>Fichier 28</title><g id="Calque_2" data-name="Calque 2"><g id="LOGOS_TECHNOS" data-name="LOGOS TECHNOS"><path class="cls-1" d="M54.18,57c29.92,0,54.18-12.76,54.18-28.5S84.1,0,54.18,0,0,12.76,0,28.5,24.26,57,54.18,57Z"/><path class="cls-2" d="M54.18,54.88c28.75,0,52.06-11.81,52.06-26.38S82.93,2.12,54.18,2.12,2.12,13.93,2.12,28.5,25.43,54.88,54.18,54.88Z"/><path class="cls-3" d="M64.72,37l2.59-13.29c.58-3,.1-5.24-1.44-6.65s-4-2-7.74-2H53.66l1.28-6.58a.84.84,0,0,0-.18-.7.83.83,0,0,0-.65-.31H47.94a.84.84,0,0,0-.83.68L44.36,22.25a7.86,7.86,0,0,0-1.84-4.07c-1.81-2.08-4.68-3.13-8.52-3.13H22a.85.85,0,0,0-.83.69L15.66,44.3a.85.85,0,0,0,.18.7.86.86,0,0,0,.65.31h6.22a.85.85,0,0,0,.83-.69l1.35-6.91h4.63a19.92,19.92,0,0,0,6.06-.78A11.83,11.83,0,0,0,40,34.26,13.75,13.75,0,0,0,42.67,31l-1.11,5.7a.84.84,0,0,0,.83,1h6.17a.84.84,0,0,0,.83-.68l3-15.68h4.23c1.81,0,2.34.36,2.48.51s.4.64.1,2.21L56.79,36.7a.84.84,0,0,0,.18.7.83.83,0,0,0,.65.31h6.27a.83.83,0,0,0,.83-.68Zm-28.61-11a6.79,6.79,0,0,1-2.17,4.22,8.45,8.45,0,0,1-5.09,1.24H26.09l2-10.26h3.57c2.62,0,3.67.56,4.1,1,.58.65.71,1.95.36,3.77Z"/><path class="cls-3" d="M90.73,18.18c-1.81-2.08-4.68-3.13-8.52-3.13h-12a.85.85,0,0,0-.83.69L63.87,44.3a.81.81,0,0,0,.18.7.86.86,0,0,0,.65.31h6.22a.85.85,0,0,0,.83-.69l1.34-6.91h4.63a19.94,19.94,0,0,0,6.07-.78,11.83,11.83,0,0,0,4.45-2.67,13.49,13.49,0,0,0,2.7-3.38,13.72,13.72,0,0,0,1.47-4.07c.71-3.64.14-6.55-1.68-8.63Zm-6.06,7.87a6.79,6.79,0,0,1-2.17,4.22,8.45,8.45,0,0,1-5.09,1.24H74.65l2-10.26h3.56c2.62,0,3.67.56,4.1,1,.59.65.71,1.95.36,3.77Z"/><path class="cls-1" d="M31.65,20.41q3.54,0,4.73,1.3t.56,4.5a7.5,7.5,0,0,1-2.49,4.73c-1.23.95-3.09,1.42-5.6,1.42H25.06l2.33-11.95ZM16.49,44.46h6.22l1.48-7.59h5.33a18.86,18.86,0,0,0,5.8-.75,10.93,10.93,0,0,0,4.14-2.48A12.79,12.79,0,0,0,42,30.47a12.67,12.67,0,0,0,1.38-3.83q1-5.07-1.49-7.91T34,15.9H22L16.49,44.46Z"/><path class="cls-1" d="M47.94,8.31h6.17L52.64,15.9h5.49q5.19,0,7.16,1.81c1.32,1.21,1.71,3.16,1.19,5.87L63.89,36.87H57.62l2.46-12.64c.28-1.44.18-2.42-.31-2.94s-1.52-.79-3.1-.79H51.74L48.56,36.87H42.39L47.94,8.31Z"/><path class="cls-1" d="M80.21,20.41q3.54,0,4.73,1.3t.56,4.5A7.5,7.5,0,0,1,83,30.94q-1.83,1.43-5.6,1.42H73.62L76,20.41ZM65.05,44.46h6.22l1.48-7.59h5.33a18.86,18.86,0,0,0,5.8-.75A10.93,10.93,0,0,0,88,33.64a12.3,12.3,0,0,0,3.91-7q1-5.07-1.49-7.91T82.57,15.9h-12L65.05,44.46Z"/><path class="cls-1" d="M54.18,57C24.26,57,0,44.24,0,28.5S24.26,0,54.18,0s54.18,12.76,54.18,28.5S84.1,57,54.18,57Zm0-2.12c28.75,0,52.06-11.81,52.06-26.38S82.93,2.12,54.18,2.12,2.12,13.93,2.12,28.5,25.43,54.88,54.18,54.88Z"/></g></g></svg>