<svg xmlns="http://www.w3.org/2000/svg" viewBox="0 0 76.4 76"><defs><style>.cls-1{fill:#f9c9b4;}.cls-2{fill:#f7ded5;}</style></defs><title>Fichier 31</title><g id="Calque_2" data-name="Calque 2"><g id="LOGOS_TECHNOS" data-name="LOGOS TECHNOS"><path class="cls-1" d="M37.92,0C18.53,0,19.74,8.41,19.74,8.41l0,8.71H38.27v2.62H12.41S0,18.33,0,37.9,10.83,56.78,10.83,56.78H17.3V47.7S17,36.86,28,36.86H46.31s10.32.17,10.32-10V10.14S58.19,0,37.92,0ZM27.72,5.86a3.33,3.33,0,1,1-3.33,3.33,3.33,3.33,0,0,1,3.33-3.33Z"/><path class="cls-2" d="M38.47,76c19.4,0,18.19-8.41,18.19-8.41l0-8.71H38.13V56.26H64S76.4,57.67,76.4,38.1,65.57,19.22,65.57,19.22H59.1V28.3s.35,10.84-10.66,10.84H30.09S19.77,39,19.77,49.1V65.86S18.21,76,38.47,76Zm10.21-5.86A3.33,3.33,0,1,1,52,66.81a3.33,3.33,0,0,1-3.33,3.33Z"/></g></g></svg>