<svg xmlns="http://www.w3.org/2000/svg" viewBox="0 0 85.42 76"><defs><style>.cls-1{fill:#f9c9b4;}.cls-2{fill:#fff;}</style></defs><title>Fichier 29</title><g id="Calque_2" data-name="Calque 2"><g id="LOGOS_TECHNOS" data-name="LOGOS TECHNOS"><path class="cls-1" d="M70.23,24.63c-.88-.3-1.8-.59-2.75-.86.16-.64.3-1.26.43-1.88C70,11.79,68.63,3.65,64,1c-4.46-2.57-11.74.11-19.1,6.51q-1.07.93-2.13,1.95c-.47-.45-.94-.89-1.42-1.3-7.71-6.85-15.44-9.74-20.08-7-4.46,2.58-5.77,10.23-3.9,19.8.18.93.39,1.87.63,2.83-1.09.31-2.15.65-3.16,1C5.78,27.86,0,32.8,0,37.93c0,5.29,6.2,10.6,15.62,13.82q1.11.39,2.31.72c-.26,1-.48,2.06-.67,3.05-1.79,9.41-.39,16.88,4,19.44s12.28-.07,19.78-6.62c.59-.52,1.18-1.07,1.78-1.64q1.16,1.11,2.31,2.1C52.44,75.05,59.61,77.57,64,75s6.07-10.68,4.14-20.45c-.15-.74-.32-1.51-.51-2.28l1.59-.5c9.79-3.24,16.16-8.49,16.16-13.85,0-5.15-6-10.12-15.19-13.3Z"/><path class="cls-2" d="M68.11,48.32l-1.44.45A86.32,86.32,0,0,0,62.35,38a86.15,86.15,0,0,0,4.16-10.67c.87.26,1.72.52,2.54.8,7.9,2.72,12.72,6.75,12.72,9.85,0,3.3-5.21,7.59-13.66,10.39Zm-3.51,7A30.68,30.68,0,0,1,65,66.54c-.51,2.75-1.53,4.57-2.8,5.31-2.69,1.56-8.44-.47-14.65-5.81-.71-.62-1.43-1.27-2.15-2A85.22,85.22,0,0,0,52.57,55,85.42,85.42,0,0,0,64.14,53.2c.17.71.33,1.4.46,2.07ZM29.12,71.58c-2.63.93-4.72,1-6,.22-2.69-1.55-3.81-7.55-2.29-15.6.18-.92.39-1.86.63-2.83A85.55,85.55,0,0,0,33,55a87.73,87.73,0,0,0,7.33,9.06c-.54.53-1.09,1-1.63,1.5a30.9,30.9,0,0,1-9.56,6ZM16.8,48.3A31.16,31.16,0,0,1,6.84,43c-2.12-1.82-3.19-3.62-3.19-5.08,0-3.11,4.64-7.08,12.37-9.78.94-.32,1.92-.63,2.94-.92A88,88,0,0,0,23.12,38,89.39,89.39,0,0,0,18.91,49c-.73-.21-1.43-.43-2.11-.66Zm4.13-28.12c-1.6-8.2-.54-14.39,2.14-15.94,2.86-1.66,9.18.7,15.84,6.62.43.37.85.77,1.28,1.18a87.34,87.34,0,0,0-7.27,9,90.53,90.53,0,0,0-11.4,1.77c-.22-.89-.42-1.77-.59-2.63Zm36.85,9.1q-1.28-2.19-2.6-4.27c2.72.34,5.34.8,7.79,1.36-.74,2.36-1.66,4.83-2.74,7.36-.77-1.47-1.59-3-2.45-4.45Zm-15-14.63c1.68,1.82,3.37,3.86,5,6.06-1.67-.07-3.36-.12-5.07-.12s-3.37,0-5,.12c1.66-2.19,3.36-4.22,5.07-6.06ZM27.63,29.31c-.85,1.46-1.65,2.94-2.41,4.41-1.07-2.52-2-5-2.72-7.39,2.44-.54,5-1,7.75-1.33q-1.35,2.1-2.62,4.31Zm2.7,21.8a77.43,77.43,0,0,1-7.88-1.26c.76-2.44,1.69-5,2.77-7.54.77,1.47,1.57,2.95,2.42,4.42h0c.87,1.49,1.77,3,2.69,4.38ZM42.85,61.47c-1.73-1.87-3.45-3.93-5.14-6.15,1.64.06,3.31.09,5,.09s3.46,0,5.16-.11a79.54,79.54,0,0,1-5,6.17ZM60.27,42.18a79.58,79.58,0,0,1,2.87,7.51,79.5,79.5,0,0,1-8,1.36q1.34-2.11,2.62-4.35t2.48-4.52Zm-5.64,2.7c-1.33,2.31-2.71,4.52-4.1,6.61-2.53.18-5.15.27-7.82.27s-5.24-.08-7.73-.24c-1.45-2.11-2.85-4.33-4.18-6.62h0c-1.32-2.29-2.54-4.59-3.64-6.88,1.1-2.3,2.31-4.61,3.63-6.89h0c1.32-2.29,2.71-4.49,4.14-6.59,2.54-.2,5.15-.3,7.78-.3h0c2.64,0,5.25.1,7.79.3,1.42,2.08,2.79,4.28,4.12,6.57S57.19,35.72,58.3,38c-1.11,2.29-2.34,4.61-3.67,6.92ZM62.16,4.13c2.86,1.65,4,8.3,2.17,17-.11.56-.24,1.13-.38,1.7a87.23,87.23,0,0,0-11.42-1.8,86.42,86.42,0,0,0-7.22-9c.65-.63,1.31-1.24,2-1.81,6.31-5.48,12.2-7.65,14.89-6.1Z"/><path class="cls-1" d="M42.71,30.3a7.63,7.63,0,1,1-7.63,7.63,7.64,7.64,0,0,1,7.63-7.63"/></g></g></svg>